<svg width="172" height="65" viewBox="0 0 172 65" fill="none" xmlns="http://www.w3.org/2000/svg">
<path d="M41.4676 25.814C41.6596 25.406 41.9776 25.202 42.4216 25.202C42.7216 25.202 42.9916 25.298 43.2316 25.49C43.4716 25.682 43.5916 25.922 43.5916 26.21C43.5916 26.342 43.5556 26.492 43.4836 26.66L38.4976 37.388C38.3896 37.616 38.2216 37.796 37.9936 37.928C37.7776 38.048 37.5436 38.108 37.2916 38.108C37.0396 38.108 36.7996 38.048 36.5716 37.928C36.3556 37.796 36.1936 37.616 36.0856 37.388L31.1176 26.66C31.0456 26.492 31.0096 26.348 31.0096 26.228C31.0096 25.928 31.1296 25.682 31.3696 25.49C31.6216 25.298 31.9036 25.202 32.2156 25.202C32.4196 25.202 32.6056 25.256 32.7736 25.364C32.9536 25.46 33.0916 25.61 33.1876 25.814L37.3276 35.012L41.4676 25.814ZM48.8992 38C48.5512 38 48.2752 37.904 48.0712 37.712C47.8792 37.52 47.7832 37.25 47.7832 36.902V26.408C47.7832 26.06 47.8792 25.79 48.0712 25.598C48.2752 25.406 48.5512 25.31 48.8992 25.31H55.3972C55.7452 25.31 56.0152 25.388 56.2072 25.544C56.3992 25.7 56.4952 25.922 56.4952 26.21C56.4952 26.51 56.3992 26.744 56.2072 26.912C56.0152 27.068 55.7452 27.146 55.3972 27.146H50.0512V30.638H55.0372C55.3852 30.638 55.6552 30.716 55.8472 30.872C56.0392 31.028 56.1352 31.256 56.1352 31.556C56.1352 31.844 56.0392 32.066 55.8472 32.222C55.6552 32.378 55.3852 32.456 55.0372 32.456H50.0512V36.164H55.3972C55.7452 36.164 56.0152 36.248 56.2072 36.416C56.3992 36.572 56.4952 36.8 56.4952 37.1C56.4952 37.388 56.3992 37.61 56.2072 37.766C56.0152 37.922 55.7452 38 55.3972 38H48.8992ZM71.2348 36.542C71.3788 36.758 71.4508 36.968 71.4508 37.172C71.4508 37.448 71.3368 37.676 71.1088 37.856C70.8928 38.036 70.6348 38.126 70.3348 38.126C70.1428 38.126 69.9568 38.084 69.7768 38C69.6088 37.904 69.4648 37.766 69.3448 37.586L66.9508 33.95C66.7108 33.566 66.4528 33.296 66.1768 33.14C65.9128 32.984 65.5648 32.906 65.1328 32.906H63.3688V36.938C63.3688 37.298 63.2668 37.586 63.0628 37.802C62.8588 38.006 62.5828 38.108 62.2348 38.108C61.8868 38.108 61.6048 38.006 61.3888 37.802C61.1848 37.586 61.0828 37.298 61.0828 36.938V26.408C61.0828 26.06 61.1788 25.79 61.3708 25.598C61.5748 25.406 61.8508 25.31 62.1988 25.31H66.6988C68.1388 25.31 69.2308 25.634 69.9748 26.282C70.7308 26.918 71.1088 27.842 71.1088 29.054C71.1088 30.038 70.8268 30.848 70.2628 31.484C69.7108 32.108 68.9248 32.51 67.9048 32.69C68.2528 32.774 68.5588 32.924 68.8228 33.14C69.0868 33.356 69.3448 33.656 69.5968 34.04L71.2348 36.542ZM66.3748 31.124C67.2508 31.124 67.8928 30.962 68.3008 30.638C68.7088 30.302 68.9128 29.792 68.9128 29.108C68.9128 28.412 68.7088 27.908 68.3008 27.596C67.8928 27.272 67.2508 27.11 66.3748 27.11H63.3508V31.124H66.3748ZM95.1532 25.22C95.4892 25.22 95.7592 25.328 95.9632 25.544C96.1672 25.748 96.2692 26.024 96.2692 26.372V37.028C96.2692 37.364 96.1732 37.628 95.9812 37.82C95.7892 38.012 95.5372 38.108 95.2252 38.108C94.9132 38.108 94.6672 38.012 94.4872 37.82C94.3072 37.628 94.2172 37.364 94.2172 37.028V29.612L91.1572 35.408C91.0132 35.672 90.8572 35.87 90.6892 36.002C90.5212 36.122 90.3232 36.182 90.0952 36.182C89.8672 36.182 89.6692 36.122 89.5012 36.002C89.3332 35.882 89.1772 35.684 89.0332 35.408L85.9552 29.702V37.028C85.9552 37.352 85.8592 37.616 85.6672 37.82C85.4872 38.012 85.2412 38.108 84.9292 38.108C84.6172 38.108 84.3712 38.012 84.1912 37.82C84.0112 37.628 83.9212 37.364 83.9212 37.028V26.372C83.9212 26.024 84.0172 25.748 84.2092 25.544C84.4132 25.328 84.6832 25.22 85.0192 25.22C85.4872 25.22 85.8532 25.478 86.1172 25.994L90.1132 33.608L94.0912 25.994C94.3552 25.478 94.7092 25.22 95.1532 25.22ZM113.222 36.614C113.294 36.77 113.33 36.926 113.33 37.082C113.33 37.358 113.216 37.592 112.988 37.784C112.772 37.976 112.52 38.072 112.232 38.072C112.04 38.072 111.86 38.024 111.692 37.928C111.524 37.82 111.392 37.658 111.296 37.442L110.216 35.03H103.88L102.8 37.442C102.704 37.658 102.572 37.82 102.404 37.928C102.236 38.024 102.05 38.072 101.846 38.072C101.57 38.072 101.318 37.976 101.09 37.784C100.862 37.592 100.748 37.358 100.748 37.082C100.748 36.926 100.784 36.77 100.856 36.614L105.824 25.94C105.932 25.7 106.094 25.52 106.31 25.4C106.538 25.268 106.778 25.202 107.03 25.202C107.282 25.202 107.516 25.268 107.732 25.4C107.96 25.52 108.128 25.7 108.236 25.94L113.222 36.614ZM109.424 33.23L107.048 27.884L104.672 33.23H109.424ZM118.931 38.108C118.583 38.108 118.301 38.006 118.085 37.802C117.881 37.586 117.779 37.298 117.779 36.938V26.408C117.779 26.06 117.875 25.79 118.067 25.598C118.271 25.406 118.547 25.31 118.895 25.31H123.323C124.679 25.31 125.735 25.652 126.491 26.336C127.247 27.008 127.625 27.956 127.625 29.18C127.625 30.404 127.247 31.358 126.491 32.042C125.735 32.726 124.679 33.068 123.323 33.068H120.101V36.938C120.101 37.298 119.993 37.586 119.777 37.802C119.573 38.006 119.291 38.108 118.931 38.108ZM123.035 31.286C124.631 31.286 125.429 30.59 125.429 29.198C125.429 27.806 124.631 27.11 123.035 27.11H120.101V31.286H123.035ZM142.511 36.614C142.583 36.77 142.619 36.926 142.619 37.082C142.619 37.358 142.505 37.592 142.277 37.784C142.061 37.976 141.809 38.072 141.521 38.072C141.329 38.072 141.149 38.024 140.981 37.928C140.813 37.82 140.681 37.658 140.585 37.442L139.505 35.03H133.169L132.089 37.442C131.993 37.658 131.861 37.82 131.693 37.928C131.525 38.024 131.339 38.072 131.135 38.072C130.859 38.072 130.607 37.976 130.379 37.784C130.151 37.592 130.037 37.358 130.037 37.082C130.037 36.926 130.073 36.77 130.145 36.614L135.113 25.94C135.221 25.7 135.383 25.52 135.599 25.4C135.827 25.268 136.067 25.202 136.319 25.202C136.571 25.202 136.805 25.268 137.021 25.4C137.249 25.52 137.417 25.7 137.525 25.94L142.511 36.614ZM138.713 33.23L136.337 27.884L133.961 33.23H138.713Z" fill="#FBC2B0"/>
</svg>
