<svg width="64" height="40" viewBox="0 0 64 40" fill="none" xmlns="http://www.w3.org/2000/svg">
<path d="M4.66147 32.3404C4.69834 18.5254 15.0526 7.17029 27.5946 5.33016C27.4348 4.71913 27.2785 4.11512 27.1205 3.51286C26.5674 1.40936 27.642 0.0134615 29.8263 0.00468226C31.2977 0.00468226 32.7673 -0.00585282 34.2369 0.00468226C36.1684 0.0222407 37.264 1.42867 36.811 3.29865C36.653 3.95534 36.4721 4.60676 36.3211 5.18794C50.533 8.67505 58.1797 17.6545 59.3508 32.2947C59.4668 32.3154 59.5842 32.3271 59.702 32.3298C60.6221 32.3298 61.5439 32.3298 62.4657 32.3298C63.5859 32.3298 63.8704 32.6301 63.8019 33.7503C63.6263 36.7142 61.0891 39.3304 58.1393 39.5744C57.7881 39.6025 57.4369 39.6183 57.0858 39.6183C40.321 39.6183 23.5561 39.6183 6.79131 39.6183C3.69926 39.6183 1.29902 38.0082 0.401782 35.2954C0.219108 34.6921 0.109462 34.069 0.0751941 33.4395C0.0207629 32.6985 0.380711 32.3526 1.1287 32.3439C2.2981 32.3316 3.45695 32.3404 4.66147 32.3404ZM6.56129 32.2842H57.3246C57.523 19.319 46.9791 6.85248 31.9421 6.85248C16.9506 6.85248 6.35937 19.2716 6.56129 32.2842ZM61.8898 34.1998H1.98907C2.07335 34.4913 2.12251 34.7459 2.21733 34.9829C2.95654 36.8002 4.61757 37.8274 6.83696 37.8274H44.4876C48.6794 37.8274 52.8706 37.8274 57.0612 37.8274C58.2095 37.8274 59.2823 37.5938 60.2094 36.8757C61.0823 36.2232 61.6812 35.2694 61.8898 34.1998V34.1998ZM31.9456 1.8132C31.1572 1.8132 30.3653 1.79213 29.5787 1.8132C28.9238 1.83603 28.6762 2.1872 28.8289 2.82282C28.9817 3.45843 29.1696 4.05191 29.3048 4.6647C29.3838 5.01587 29.5541 5.09664 29.9 5.08961C31.2573 5.06679 32.6163 5.05976 33.9753 5.08961C34.3704 5.10015 34.5126 4.97022 34.5899 4.60676C34.711 4.03084 34.8884 3.4637 35.0306 2.89129C35.2167 2.14682 34.9691 1.82198 34.1808 1.80618C33.4363 1.80091 32.6918 1.81145 31.9456 1.8132Z" fill="#FBC2B0"/>
</svg>
