<svg width="53" height="54" viewBox="0 0 53 54" fill="none" xmlns="http://www.w3.org/2000/svg">
<path d="M16.5851 0C17.2095 0.60782 17.2523 0.879958 16.7909 1.65769C14.9631 4.68818 13.807 8.07573 13.4009 11.5914C12.5845 18.8424 14.3679 25.4055 18.9045 31.148C22.8664 36.1543 28.0563 39.25 34.3058 40.4753C39.6146 41.5528 45.1283 40.9187 50.0539 38.6643C50.2901 38.5593 50.5222 38.4474 50.7584 38.341C51.1963 38.1421 51.6176 38.1697 51.9367 38.54C52.2559 38.9102 52.2034 39.326 51.9533 39.6921C51.2336 40.7433 50.5484 41.8291 49.7431 42.8099C45.6569 47.7664 40.4586 50.9906 34.1967 52.3775C20.9255 55.3199 7.42772 48.5621 2.09409 35.5547C0.499946 31.6647 -0.193522 27.5978 0.160119 23.4218C1.03317 12.9079 6.21208 5.18443 15.5048 0.20583C15.625 0.142285 15.741 0.0676891 15.8598 0H16.5851ZM13.6164 3.42175C7.27714 7.32147 0.272013 16.5451 2.18112 29.221C2.99872 34.484 5.41349 39.3688 9.09864 43.2143C12.7838 47.0598 17.5614 49.6803 22.7849 50.7212C32.6246 52.7008 42.6772 48.8149 48.3133 41.3567C36.9857 44.5505 26.9899 42.2988 18.5937 33.7465C10.8011 24.6195 9.42662 14.4551 13.6164 3.42175Z" fill="#FBC2B0"/>
</svg>
