<svg width="54" height="53" viewBox="0 0 54 53" fill="none" xmlns="http://www.w3.org/2000/svg">
<path d="M53.5636 21.7427C53.3952 22.7711 53.2937 23.8122 53.0494 24.82C51.3913 31.6081 47.3127 36.3628 40.9025 39.1122C40.4128 39.323 40.1737 39.6109 39.9693 40.0788C37.0026 46.8451 31.9369 51.1049 24.6334 52.3671C14.8863 54.051 5.76 48.741 2.20204 39.5351C-0.817333 31.7186 1.57992 22.415 7.98629 17.0189C9.72576 15.5432 11.6908 14.3563 13.8065 13.5034C14.0584 13.3888 14.2609 13.1877 14.3772 12.9366C16.8118 7.05462 21.0214 3.04678 27.0627 1.04286C28.4625 0.578832 29.9677 0.431012 31.4228 0.143085C31.5719 0.113521 31.7184 0.0813864 31.8662 0.0505371H34.6427C35.3355 0.150797 36.0296 0.239489 36.7199 0.351318C44.6751 1.62771 51.3514 7.95182 53.0443 15.8402C53.2667 16.8686 53.3901 17.9264 53.5584 18.9715L53.5636 21.7427ZM38.585 39.9863C37.4847 40.1598 36.4589 40.3372 35.4293 40.4786C35.2635 40.4899 35.1029 40.542 34.9619 40.6301C34.8209 40.7182 34.7038 40.8396 34.6208 40.9837C31.0487 46.5507 24.4277 49.358 18.0277 48.0366C14.0562 47.2247 10.5426 44.9315 8.20059 41.6228C5.85857 38.3141 4.86371 34.2381 5.41809 30.2225C6.59293 21.5114 14.7641 15.3569 23.4714 16.6269C31.9408 17.8596 37.9333 25.5591 37.0335 34.0503C37.0206 34.1789 37.0335 34.3074 37.0335 34.5439C38.0014 34.1506 38.8832 33.7855 39.7714 33.4346C40.067 33.3177 40.1698 33.1313 40.1711 32.8112C40.1821 31.114 39.9852 29.4219 39.585 27.7725C36.8523 16.5164 24.2465 10.3054 13.6497 14.9996C5.71629 18.5139 1.11461 26.6028 2.47326 35.1699C3.71366 42.9902 8.27165 48.3014 15.8413 50.5483C23.2606 52.7527 29.8122 50.7861 35.2044 45.1921C36.6492 43.6895 37.7456 41.9336 38.585 39.9863ZM17.4557 18.1925C16.4776 18.5923 15.5816 18.9637 14.678 19.3236C14.3927 19.4368 14.2924 19.6219 14.3143 19.9162C14.376 20.8558 14.3734 21.8019 14.4852 22.7338C15.7629 33.3549 25.8043 40.8218 36.3908 39.0364C47.3166 37.1931 54.3592 26.482 51.6869 15.7618C49.8527 8.40042 43.6841 2.71129 36.3162 1.59686C28.5782 0.431012 21.1127 3.85657 17.0894 10.4468C16.6421 11.1781 16.2732 11.9584 15.8452 12.7605C17.0174 12.5766 18.0766 12.398 19.1396 12.2463C19.2807 12.2335 19.4165 12.1863 19.5351 12.1087C19.6536 12.0312 19.7513 11.9257 19.8196 11.8016C21.5185 9.12197 23.9786 7.01041 26.8847 5.73721C29.7908 4.46402 33.0108 4.08713 36.1324 4.6548C44.8859 6.21526 50.7267 14.8466 48.9028 23.5166C46.7022 33.9796 35.2314 39.4155 25.7941 34.373C20.9571 31.7945 18.1666 27.6542 17.4789 22.1926C17.3208 20.933 17.4557 19.6347 17.4557 18.1925ZM21.2566 12.1139C26.8198 12.218 31.6182 14.15 35.5347 18.0768C39.4513 22.0037 41.3653 26.8046 41.4964 32.3601C45.679 29.6736 48.7729 24.0269 47.6855 17.7902C46.5981 11.5535 41.5375 6.69085 35.2057 5.82964C29.1476 5.00828 23.695 8.21661 21.2566 12.1139V12.1139ZM33.2107 40.6264C27.6514 40.5171 22.8544 38.5839 18.9429 34.6558C15.0315 30.7276 13.1163 25.9318 12.9787 20.3764C8.6187 23.2042 5.55562 29.0669 6.88728 35.4154C7.54651 38.5129 9.18945 41.3143 11.571 43.4017C13.9526 45.4891 16.9452 46.7506 20.1024 46.9981C25.5845 47.4235 30.8456 44.4825 33.2082 40.6264H33.2107ZM35.8676 32.2521C35.7802 31.4911 35.7185 30.6184 35.5746 29.7597C34.3136 22.2016 26.8082 16.7773 19.2283 17.9187C18.9339 17.9637 18.8324 18.0614 18.7977 18.3558C18.2308 23.0937 19.5612 27.2249 22.9109 30.6068C26.2954 34.0182 30.4497 35.3769 35.2288 34.8229C35.5463 34.7856 35.6723 34.6827 35.689 34.3601C35.725 33.6943 35.7969 33.031 35.8676 32.2521Z" fill="#FBC2B0"/>
</svg>
