<svg width="57" height="53" viewBox="0 0 57 53" fill="none" xmlns="http://www.w3.org/2000/svg">
<path d="M0.0698242 43.0596C0.402313 42.8642 0.712928 42.5667 1.07021 42.4938C1.91164 42.3231 2.43516 41.9104 2.52849 41.0355C2.55478 40.8921 2.5999 40.7529 2.66266 40.6213C2.93535 39.9301 3.75491 39.7463 4.10052 40.3807C4.68384 41.4409 5.44798 41.8302 6.64523 41.6815C6.80192 41.663 6.96048 41.6932 7.0994 41.768C7.23832 41.8428 7.35086 41.9585 7.42173 42.0995C7.49261 42.2404 7.51838 42.3998 7.49556 42.5559C7.47274 42.712 7.40243 42.8573 7.29417 42.9721C6.4644 43.847 6.33316 44.7045 6.84064 45.7953C6.90423 45.9384 6.92244 46.0975 6.89282 46.2512C6.8632 46.4049 6.78717 46.5458 6.67498 46.655C6.56279 46.7642 6.41983 46.8363 6.26536 46.8617C6.1109 46.8872 5.95235 46.8646 5.81109 46.7972C4.75092 46.2984 3.88032 46.3597 3.04035 47.2157C2.87411 47.3834 2.38558 47.4111 2.16538 47.2901C1.94518 47.169 1.70165 46.7578 1.7381 46.5128C1.90289 45.3899 1.56602 44.5879 0.50731 44.1095C0.339607 44.0337 0.215653 43.85 0.0698242 43.7173L0.0698242 43.0596ZM2.94265 43.7231C3.10452 44.0541 3.28826 44.4333 3.45013 44.7687L4.64009 44.5879C4.69405 44.2087 4.75238 43.796 4.80488 43.4212L3.74616 42.851L2.94265 43.7231Z" fill="#FBC2B0"/>
<path d="M23.8123 24.8164C22.4811 25.3429 21.2407 26.0745 20.1359 26.9849C17.8508 28.834 16.27 31.2227 14.9532 33.8097C14.838 34.0372 14.7345 34.2705 14.609 34.4921C14.3422 34.969 13.9543 35.0988 13.5168 34.8713C13.0793 34.6438 12.9247 34.2369 13.1522 33.763C15.1282 29.6404 17.7006 26.0428 21.9019 23.8919C21.9588 23.8612 22.0098 23.8175 22.039 23.644C20.9963 23.7037 19.9493 23.711 18.9139 23.8321C14.5551 24.3396 10.6308 25.8897 7.30304 28.8107C5.05436 30.7866 3.34525 33.1724 2.02405 35.8483C1.95988 35.9781 1.89572 36.1094 1.83009 36.2392C1.53844 36.8108 1.16803 36.9683 0.695548 36.7379C0.223064 36.5075 0.0976516 36.0817 0.361601 35.5392C1.68135 32.7451 3.39629 30.2296 5.65226 28.1019C9.17839 24.777 13.3958 22.9104 18.1673 22.2834C19.6912 22.0836 21.2297 22.053 22.7784 21.9436C22.7259 21.8959 22.6693 21.853 22.6092 21.8153C19.7962 20.2403 16.8344 19.0912 13.5766 18.9935C12.2422 18.9526 10.8963 19.1539 9.56338 19.3056C8.78903 19.3945 8.34279 19.1306 8.37634 18.4612C8.40258 17.9625 8.73653 17.7875 9.15943 17.6912C11.4444 17.1879 13.8089 17.1636 16.1038 17.6198C18.8745 18.1433 21.4294 19.2151 23.8502 20.6326C24.0126 20.74 24.2024 20.7987 24.3971 20.8018C24.1623 20.322 23.9421 19.832 23.6912 19.361C21.7984 15.8348 19.3193 12.8658 15.7509 10.9306C14.2386 10.1238 12.6063 9.56539 10.9167 9.27693C10.2167 9.15006 9.93233 8.82778 10.03 8.28967C10.1277 7.75156 10.5375 7.54303 11.2127 7.66698C16.6434 8.66299 20.6755 11.7123 23.7044 16.2096C24.3037 17.0992 24.7981 18.0573 25.3406 18.9804C25.4091 19.097 25.4864 19.2122 25.5666 19.3508C25.7853 18.1273 25.9705 16.949 26.217 15.7838C26.3101 15.3383 26.4862 14.9144 26.7361 14.534C26.882 14.308 27.2888 14.0528 27.4974 14.1097C27.7628 14.1811 28.0136 14.5238 28.1434 14.8082C28.2323 15.0036 28.123 15.3011 28.0676 15.5461C27.8022 16.7331 27.5251 17.9173 27.2524 19.1029L27.3982 19.1699C27.5134 19.0051 27.6286 18.8418 27.7409 18.677C30.8995 14.0236 34.974 10.5238 40.3565 8.67757C42.6915 7.89262 45.1352 7.47926 47.5984 7.45261C48.2138 7.44095 48.5477 7.72677 48.5638 8.24592C48.5798 8.76507 48.2721 9.07131 47.6509 9.08444C44.5156 9.15589 41.5042 9.77129 38.6649 11.126C34.1224 13.293 30.7727 16.7215 28.2732 21.092C28.4365 21.019 28.6013 20.9461 28.7617 20.8732C30.6939 19.9545 32.6728 19.1874 34.8238 18.9643C35.4727 18.8972 35.8023 19.1101 35.8635 19.6337C35.9277 20.1805 35.655 20.5086 35.0002 20.5845C32.9047 20.828 30.9914 21.6053 29.1204 22.5269C29.0364 22.5697 28.9555 22.6184 28.8784 22.6727C30.3614 23.2473 31.9028 23.7387 33.3524 24.4227C37.9081 26.5809 41.4561 29.9335 44.3712 33.9949C46.6476 37.1666 48.38 40.6257 49.78 44.2583C50.0191 44.8795 49.8864 45.2791 49.3891 45.4832C48.8919 45.6874 48.4908 45.4832 48.2386 44.8212C46.6986 40.8386 44.7503 37.0602 42.0846 33.693C38.9595 29.7425 35.1767 26.6597 30.3702 24.9652C29.6046 24.6968 28.8113 24.5073 27.9217 24.2477C27.9597 24.3869 28.0085 24.5229 28.0676 24.6545C30.4562 28.7669 31.827 33.2395 32.7647 37.8666C32.9718 38.8874 33.1511 39.9082 33.3247 40.929C33.4515 41.6756 33.2357 42.0519 32.6787 42.1379C32.1216 42.224 31.8562 41.8988 31.6929 41.158C31.0818 38.4062 30.5262 35.6369 29.7971 32.9157C29.0557 30.1498 27.914 27.5072 26.408 25.0716C26.3307 24.9491 26.2505 24.8266 26.1674 24.7085C26.1485 24.6823 26.1062 24.6735 26.042 24.64C25.1816 25.6812 24.5473 26.8595 24.0004 28.0917C22.7069 31.0229 22.0026 34.1305 21.5067 37.2789C20.7572 42.0825 20.5136 46.9182 20.6113 51.7743C20.6113 51.8836 20.6201 51.993 20.6113 52.1024C20.572 52.6099 20.2453 52.9161 19.7612 52.9044C19.2989 52.8928 18.9868 52.6026 18.9824 52.0995C18.9722 50.3495 18.9402 48.5996 18.9941 46.8496C19.1268 42.5652 19.5147 38.3041 20.4145 34.1042C21.0955 30.9237 22.0288 27.8336 23.7452 25.0264C23.7743 24.9587 23.7967 24.8884 23.8123 24.8164V24.8164Z" fill="#FBC2B0"/>
<path d="M19.5118 7.10263C19.7845 6.28891 19.3164 5.7333 18.5216 5.3279C18.2537 5.20891 18.0133 5.03561 17.8158 4.81896C17.6175 4.57251 17.3783 4.21815 17.4191 3.95857C17.46 3.699 17.8027 3.40588 18.0812 3.27755C18.5712 3.05006 19.1283 2.96694 19.6299 2.7584C19.8598 2.65019 20.0431 2.46279 20.1461 2.2305C20.3532 1.70844 20.4378 1.13533 20.6653 0.62639C20.7776 0.363898 21.0692 0.0576584 21.3259 0.0066184C21.5826 -0.0444216 21.8873 0.212237 22.1659 0.347857C22.2261 0.39052 22.271 0.451332 22.2942 0.521393C22.8906 1.8776 23.9348 2.31946 25.3566 2.04968C25.778 1.96947 26.163 2.09342 26.3672 2.51924C26.5597 2.92173 26.3861 3.24839 26.1426 3.57504C25.7605 4.08252 25.1772 4.57251 25.0897 5.13395C25.0022 5.69539 25.4106 6.33412 25.6235 6.93201C25.7693 7.33013 25.8466 7.70928 25.5083 8.04614C25.1699 8.38301 24.7602 8.35676 24.3941 8.15551C23.1313 7.45991 22.0405 7.62907 21.0663 8.69946C20.7863 9.0057 20.413 9.1734 19.9799 8.96195C19.5468 8.7505 19.4957 8.36405 19.5147 7.94115C19.5205 7.7122 19.5118 7.4745 19.5118 7.10263ZM20.0645 4.33189C20.4553 4.68626 20.8592 4.91521 21.0357 5.25499C21.2121 5.59477 21.1699 6.06725 21.2209 6.46245C21.6103 6.24954 21.95 5.94475 22.335 5.87913C22.72 5.81351 23.1298 6.00892 23.6475 6.11246C23.0569 5.21707 23.2479 4.45585 23.9698 3.76608C23.4448 3.71212 22.9854 3.77483 22.6442 3.59983C22.3029 3.42484 22.0609 3.01652 21.6715 2.57903C21.6773 3.75149 21.0328 4.19627 20.0645 4.33335V4.33189Z" fill="#FBC2B0"/>
<path d="M36.2921 48.4218C36.3694 47.9304 36.4788 47.4287 36.5123 46.9227C36.5195 46.6888 36.4435 46.4599 36.298 46.2767C36.0063 45.9311 35.6374 45.6511 35.3253 45.32C34.8236 44.7878 35.0424 44.0703 35.7526 43.8997C36.0507 43.8161 36.3575 43.7671 36.6669 43.7538C37.3115 43.7538 37.7081 43.4738 37.9021 42.8512C38.0097 42.5435 38.1536 42.2498 38.3308 41.9762C38.3996 41.8465 38.5023 41.738 38.6281 41.6623C38.7539 41.5866 38.8979 41.5466 39.0447 41.5466C39.1914 41.5466 39.3354 41.5866 39.4612 41.6623C39.587 41.738 39.6897 41.8465 39.7585 41.9762C40.0079 42.3976 40.1872 42.8614 40.441 43.2814C40.5525 43.449 40.7208 43.5706 40.9149 43.6241C41.3524 43.7261 41.8292 43.7159 42.258 43.8486C42.538 43.9361 42.9084 44.1505 42.9784 44.3867C43.0571 44.6507 42.9055 45.04 42.7407 45.3055C42.5326 45.6054 42.2741 45.8669 41.9765 46.0783C41.6032 46.37 41.5507 46.704 41.6586 47.1312C41.7536 47.5014 41.8204 47.8782 41.8584 48.2585C41.9284 49.0008 41.2649 49.5316 40.6772 49.116C39.5558 48.3197 38.5758 48.3956 37.4894 49.1626C36.9819 49.5097 36.3023 49.0401 36.2921 48.4218ZM39.0716 44.4669L37.8773 45.3288C38.0231 45.7838 38.1952 46.2986 38.3425 46.7462H39.9233C39.8358 46.5059 39.8282 46.2437 39.9015 45.9986C39.9748 45.7535 40.1251 45.5386 40.3301 45.3857L39.0716 44.4669Z" fill="#FBC2B0"/>
<path d="M49.5057 12.128C50.7759 12.7113 51.5473 12.1674 52.2196 11.2034C52.3654 11.0007 52.816 10.8622 53.0654 10.9278C53.3148 10.9935 53.64 11.3405 53.6575 11.5841C53.742 12.7653 54.3079 13.4477 55.4584 13.7438C55.7063 13.8079 55.9951 14.2177 56.0213 14.4919C56.0126 14.6471 55.9658 14.7978 55.8849 14.9306C55.804 15.0634 55.6916 15.1742 55.5576 15.2531C54.4435 15.6906 53.9958 16.4562 54.0745 17.6359C54.0906 17.878 53.8018 18.2513 53.5597 18.3651C53.3439 18.4657 52.8714 18.3986 52.73 18.2193C51.9308 17.2422 51.0209 17.0862 49.8615 17.5251C49.2359 17.7628 48.6118 17.0147 48.9501 16.4358C49.5684 15.3741 49.599 14.4467 48.7664 13.49C48.6205 13.3209 48.638 12.863 48.7664 12.6428C48.8947 12.4226 49.2461 12.2972 49.5057 12.128ZM51.2717 15.4091L52.5069 15.7154L53.1864 14.6698L52.3785 13.6854L51.1769 14.1711C51.2046 14.5458 51.2382 14.9833 51.2702 15.4091H51.2717Z" fill="#FBC2B0"/>
<path d="M40.7356 18.5721C45.3219 18.8521 49.4664 20.4125 53.2696 22.9368C54.0425 23.4487 54.7818 24.0145 55.5226 24.5744C56.1249 25.0294 56.2197 25.4567 55.858 25.9C55.4964 26.3433 55.0939 26.3229 54.5281 25.8738C51.6713 23.6091 48.5491 21.8314 44.9996 20.9404C43.5764 20.5831 42.1035 20.4198 40.6452 20.2229C39.8884 20.1208 39.5427 19.9109 39.5573 19.3625C39.5734 18.7909 39.9511 18.5371 40.7356 18.5721Z" fill="#FBC2B0"/>
<path d="M29.5492 10.7762C28.7048 10.7762 28.3082 10.0951 28.664 9.50745C29.4077 8.28395 30.1223 7.02837 31.0235 5.91716C31.8518 4.89636 32.8857 4.03597 33.8657 3.14641C34.3732 2.6856 34.8763 2.73809 35.1927 3.17266C35.4917 3.5839 35.3852 4.04763 34.8661 4.43262C32.8653 5.93757 31.3837 7.86834 30.1996 10.0572C30.0319 10.3751 29.7052 10.6085 29.5492 10.7762Z" fill="#FBC2B0"/>
<path d="M6.10579 20.3016C6.02705 20.4022 5.90893 20.672 5.70185 20.7959C4.2083 21.7071 2.8438 22.8146 1.6449 24.0887C1.28325 24.4664 0.802012 24.4635 0.478272 24.1427C0.397315 24.068 0.332417 23.9776 0.287538 23.8771C0.242659 23.7765 0.218739 23.6678 0.217238 23.5577C0.215737 23.4476 0.236686 23.3383 0.278808 23.2366C0.320929 23.1348 0.383339 23.0427 0.462231 22.9659C1.73674 21.5616 3.22025 20.3624 4.86042 19.4106C5.48311 19.0577 6.12184 19.4456 6.10579 20.3016Z" fill="#FBC2B0"/>
<path d="M11.1776 43.1631C11.0584 43.1623 10.9408 43.1349 10.8335 43.083C10.7262 43.031 10.6318 42.9558 10.5572 42.8628C10.4826 42.7697 10.4297 42.6612 10.4023 42.5452C10.3749 42.4291 10.3738 42.3084 10.3989 42.1919C10.6264 41.1448 10.8831 40.1055 11.1689 39.0741C11.1929 38.966 11.2393 38.8642 11.305 38.7751C11.3707 38.686 11.4542 38.6117 11.5503 38.5567C11.6464 38.5018 11.7529 38.4676 11.863 38.4562C11.9731 38.4449 12.0844 38.4566 12.1897 38.4907C12.6388 38.6249 12.8517 39.0741 12.7205 39.5903C12.477 40.5469 12.2436 41.4919 12.0059 42.4427C11.882 42.9108 11.5903 43.1718 11.1776 43.1631Z" fill="#FBC2B0"/>
<path d="M53.325 37.1929C53.3301 37.2978 53.3143 37.4026 53.2785 37.5013C53.2427 37.5999 53.1877 37.6905 53.1166 37.7677C53.0455 37.8449 52.9597 37.9072 52.8643 37.951C52.7689 37.9948 52.6658 38.0192 52.5609 38.0227C52.4559 38.0291 52.3508 38.0139 52.2519 37.9779C52.1531 37.942 52.0628 37.8861 51.9864 37.8137C51.9101 37.7414 51.8495 37.6541 51.8083 37.5574C51.7672 37.4606 51.7463 37.3564 51.7471 37.2513C51.7361 37.1421 51.7481 37.0318 51.7825 36.9276C51.8169 36.8234 51.8729 36.7275 51.9467 36.6464C52.0206 36.5652 52.1108 36.5005 52.2113 36.4565C52.3118 36.4125 52.4205 36.3901 52.5302 36.3909C52.6353 36.3907 52.7393 36.4114 52.8363 36.4517C52.9333 36.492 53.0213 36.5512 53.0953 36.6258C53.1692 36.7004 53.2276 36.789 53.267 36.8863C53.3065 36.9837 53.3262 37.0879 53.325 37.1929V37.1929Z" fill="#FBC2B0"/>
<path d="M4.94784 12.2795C4.94785 12.1747 4.96992 12.0711 5.01263 11.9754C5.05533 11.8797 5.11771 11.794 5.19571 11.724C5.27371 11.654 5.36557 11.6012 5.46532 11.569C5.56507 11.5368 5.67048 11.526 5.77469 11.5373C5.87929 11.54 5.98221 11.5642 6.0771 11.6083C6.17199 11.6524 6.25684 11.7155 6.32639 11.7937C6.39595 11.8718 6.44875 11.9634 6.48153 12.0628C6.5143 12.1622 6.52636 12.2672 6.51696 12.3714C6.51746 12.479 6.49592 12.5856 6.45364 12.6845C6.41136 12.7835 6.34926 12.8727 6.27115 12.9467C6.19305 13.0208 6.10061 13.078 5.99953 13.1149C5.89845 13.1518 5.79088 13.1676 5.68346 13.1613C5.57604 13.155 5.47105 13.1267 5.37497 13.0783C5.27889 13.0299 5.19376 12.9622 5.12482 12.8796C5.05589 12.797 5.00462 12.7011 4.97418 12.5979C4.94374 12.4947 4.93478 12.3864 4.94784 12.2795Z" fill="#FBC2B0"/>
<path d="M41.8571 4.67321C41.8624 4.77795 41.8456 4.88265 41.8076 4.98041C41.7696 5.07818 41.7114 5.16681 41.6368 5.24049C41.5621 5.31417 41.4728 5.37123 41.3745 5.40792C41.2763 5.44461 41.1714 5.46011 41.0667 5.45339C40.5811 5.45339 40.2763 5.11069 40.3011 4.60029C40.3007 4.49552 40.3218 4.39178 40.3631 4.29547C40.4043 4.19916 40.4649 4.11232 40.541 4.04031C40.6171 3.9683 40.7071 3.91265 40.8056 3.87679C40.904 3.84092 41.0088 3.8256 41.1134 3.83178C41.2181 3.83614 41.321 3.86163 41.4157 3.90671C41.5103 3.95179 41.595 4.01553 41.6644 4.09411C41.7339 4.17268 41.7867 4.26448 41.8198 4.364C41.8529 4.46351 41.8656 4.56868 41.8571 4.67321Z" fill="#FBC2B0"/>
<path d="M26.6924 41.7967C26.7973 41.7977 26.9009 41.8201 26.9968 41.8624C27.0928 41.9048 27.1791 41.9663 27.2505 42.0431C27.3218 42.12 27.3768 42.2105 27.412 42.3094C27.4472 42.4082 27.4619 42.5131 27.4551 42.6178C27.4619 42.7223 27.4467 42.8271 27.4105 42.9254C27.3743 43.0237 27.3179 43.1133 27.245 43.1884C27.172 43.2636 27.0841 43.3226 26.9869 43.3617C26.8897 43.4008 26.7854 43.4191 26.6808 43.4154C26.5714 43.4201 26.4622 43.4013 26.3607 43.3602C26.2592 43.3191 26.1677 43.2567 26.0924 43.1772C26.0171 43.0977 25.9596 43.003 25.924 42.8995C25.8884 42.7959 25.8755 42.6859 25.886 42.5769C25.8853 42.4721 25.9059 42.3681 25.9465 42.2714C25.9872 42.1747 26.047 42.0873 26.1224 42.0144C26.1977 41.9414 26.2871 41.8846 26.3851 41.8472C26.4831 41.8098 26.5876 41.7926 26.6924 41.7967V41.7967Z" fill="#FBC2B0"/>
<path d="M49.2213 26.2281C49.229 26.3328 49.2157 26.438 49.182 26.5374C49.1483 26.6369 49.095 26.7285 49.0252 26.807C48.9555 26.8855 48.8707 26.9491 48.7758 26.9942C48.681 27.0393 48.5781 27.0649 48.4732 27.0695C48.3637 27.0736 48.2546 27.055 48.1526 27.0149C48.0507 26.9747 47.9582 26.9139 47.8809 26.8362C47.8036 26.7585 47.7433 26.6657 47.7037 26.5635C47.6641 26.4614 47.6461 26.3521 47.6508 26.2427C47.6462 26.1379 47.6631 26.0333 47.7005 25.9354C47.7379 25.8374 47.795 25.7481 47.8682 25.6731C47.9415 25.5981 48.0293 25.5389 48.1264 25.4991C48.2234 25.4594 48.3276 25.44 48.4324 25.4421C48.5374 25.4359 48.6424 25.4521 48.7407 25.4894C48.839 25.5267 48.9283 25.5843 49.0028 25.6585C49.0773 25.7327 49.1352 25.8218 49.1729 25.9199C49.2105 26.0181 49.2271 26.1231 49.2213 26.2281Z" fill="#FBC2B0"/>
<path d="M11.1732 50.8746C11.0691 50.8725 10.9665 50.8492 10.8717 50.8062C10.7769 50.7632 10.6919 50.7013 10.6217 50.6243C10.5516 50.5474 10.4979 50.457 10.4638 50.3586C10.4298 50.2602 10.4161 50.1559 10.4236 50.0521C10.4179 49.9475 10.434 49.8428 10.471 49.7447C10.508 49.6467 10.565 49.5574 10.6384 49.4826C10.7118 49.4078 10.8 49.3492 10.8974 49.3104C10.9947 49.2716 11.0991 49.2535 11.2038 49.2573C11.4126 49.2687 11.6088 49.3604 11.7515 49.5132C11.8942 49.666 11.9721 49.8681 11.9691 50.0772C11.9661 50.2862 11.8823 50.486 11.7353 50.6346C11.5883 50.7832 11.3895 50.8692 11.1805 50.8746H11.1732Z" fill="#FBC2B0"/>
</svg>
