<svg width="113" height="21" viewBox="0 0 113 21" fill="none" xmlns="http://www.w3.org/2000/svg">
<path d="M38.2747 10.0902H112.603" stroke="#FBF8F3" stroke-width="2"/>
<path d="M26.5061 1.83224L27.4142 1.41336C27.2943 1.15353 27.0689 0.957499 26.795 0.874856C26.521 0.792214 26.2248 0.830882 25.9812 0.981076L26.5061 1.83224ZM38.6755 10.0902L38.8288 11.0784C39.3161 11.0028 39.6755 10.5833 39.6755 10.0902C39.6755 9.59713 39.3161 9.17764 38.8288 9.10205L38.6755 10.0902ZM26.4653 18.9462L25.9375 19.7956C26.1837 19.9486 26.4842 19.9872 26.7611 19.9015C27.038 19.8157 27.2641 19.614 27.3807 19.3486L26.4653 18.9462ZM15.8032 10.1849L15.1221 9.4528C14.7189 9.82792 14.6949 10.4584 15.0684 10.8631L15.8032 10.1849ZM25.5981 2.25112C28.4127 8.35261 35.1678 10.558 38.5222 11.0784L38.8288 9.10205C35.6839 8.61415 29.7992 6.58351 27.4142 1.41336L25.5981 2.25112ZM38.5222 9.10205C36.7641 9.37479 34.2291 10.1687 31.7892 11.6592C29.344 13.1529 26.9404 15.3805 25.5498 18.5438L27.3807 19.3486C28.5641 16.6567 30.6322 14.7097 32.8318 13.3659C35.0369 12.0189 37.3201 11.3125 38.8288 11.0784L38.5222 9.10205ZM26.9931 18.0968C23.0588 15.6521 19.6652 12.8952 16.5381 9.50674L15.0684 10.8631C18.3252 14.3922 21.8603 17.2621 25.9375 19.7956L26.9931 18.0968ZM16.4844 10.9171C20.2436 7.41964 23.389 4.9294 27.031 2.6834L25.9812 0.981076C22.1989 3.31361 18.9492 5.89218 15.1221 9.4528L16.4844 10.9171Z" fill="#FBF8F3"/>
</svg>
