<svg width="78" height="65" viewBox="0 0 78 65" fill="none" xmlns="http://www.w3.org/2000/svg">
<path d="M76.8066 34.4108C72.8973 30.5015 67.5951 28.3052 62.0664 28.3052C56.5378 28.3052 51.2356 30.5015 47.3262 34.4108C43.4169 38.3202 41.2207 43.6224 41.2207 49.151C41.2207 54.6796 43.4169 59.9818 47.3262 63.8912" stroke="#6D4D36" stroke-width="2"/>
<path d="M1.00005 34.3035C4.90939 30.3942 10.2116 28.1979 15.7402 28.1979C21.2689 28.1979 26.5711 30.3942 30.4804 34.3035C34.3897 38.2129 36.586 43.5151 36.586 49.0437C36.586 54.5723 34.3897 59.8745 30.4804 63.7839" stroke="#6D4D36" stroke-width="2"/>
<path fill-rule="evenodd" clip-rule="evenodd" d="M41.978 20.8664C42.768 18.886 43.265 16.0139 43.265 12.8182C43.265 10.4496 41.5281 4.16366 39.3855 2C37.2429 4.16366 35.506 10.4496 35.506 12.8182C35.506 16.1341 36.0409 19.1014 36.8833 21.0859C28.6467 15.2023 23.6172 17.7788 19.474 22.5921C25.1219 22.3764 30.8413 25.7139 35.153 29.9576C36.9273 31.7038 38.3179 33.6846 39.325 35.7985C40.3505 33.3467 41.8754 31.0495 43.8992 29.0576C48.0399 24.9823 53.4786 21.6398 58.9056 21.677C54.5001 17.7669 49.7701 15.2314 41.978 20.8664Z" stroke="#6D4D36" stroke-width="2"/>
</svg>
