<svg width="911" height="58" viewBox="0 0 911 58" fill="none" xmlns="http://www.w3.org/2000/svg">
<circle cx="842.691" cy="42.0019" r="2.98784" stroke="#006A6A" stroke-width="2"/>
<circle cx="858.832" cy="42.0019" r="2.98784" stroke="#006A6A" stroke-width="2"/>
<mask id="path-3-inside-1_47_399" fill="white">
<path fill-rule="evenodd" clip-rule="evenodd" d="M882.307 27C878.339 34.9888 874.885 38.2391 866.998 42.3092C874.885 46.3793 878.339 49.6296 882.307 57.6184C892.604 50.0038 898.896 46.8412 910.497 42.3092C898.896 37.7772 892.604 34.6146 882.307 27Z"/>
</mask>
<path d="M866.998 42.3092L866.081 40.5319L862.637 42.3092L866.081 44.0865L866.998 42.3092ZM882.307 27L883.496 25.3919L881.578 23.9731L880.516 26.1102L882.307 27ZM882.307 57.6184L880.516 58.5082L881.578 60.6453L883.496 59.2265L882.307 57.6184ZM910.497 42.3092L911.224 44.1721L915.993 42.3092L911.224 40.4463L910.497 42.3092ZM867.915 44.0865C871.937 42.0109 874.976 40.0713 877.529 37.546C880.088 35.0145 882.06 31.9936 884.098 27.8898L880.516 26.1102C878.586 29.9952 876.847 32.5938 874.716 34.7022C872.578 36.8169 869.946 38.5374 866.081 40.5319L867.915 44.0865ZM866.081 44.0865C869.946 46.081 872.578 47.8015 874.716 49.9162C876.847 52.0246 878.586 54.6232 880.516 58.5082L884.098 56.7286C882.06 52.6248 880.088 49.6039 877.529 47.0724C874.976 44.5471 871.937 42.6075 867.915 40.5319L866.081 44.0865ZM883.496 59.2265C893.625 51.7363 899.754 48.653 911.224 44.1721L909.769 40.4463C898.037 45.0294 891.584 48.2714 881.118 56.0103L883.496 59.2265ZM881.118 28.6081C891.584 36.347 898.037 39.589 909.769 44.1721L911.224 40.4463C899.754 35.9654 893.625 32.8821 883.496 25.3919L881.118 28.6081Z" fill="#006A6A" mask="url(#path-3-inside-1_47_399)"/>
<path d="M847.652 42.2427L850.746 36.9182L854.048 42.2427L850.746 47.5671L847.652 42.2427Z" stroke="#006A6A" stroke-width="2"/>
<path d="M447 42L463 42" stroke="#006A6A" stroke-width="2"/>
<circle cx="50.1051" cy="42.01" r="2.88268" stroke="#006A6A" stroke-width="2"/>
<circle cx="65.8207" cy="42.01" r="2.88268" stroke="#006A6A" stroke-width="2"/>
<path d="M54.9659 42.2444L57.9479 37.1116L61.1311 42.2444L57.9479 47.3772L54.9659 42.2444Z" stroke="#006A6A" stroke-width="2"/>
<mask id="path-10-inside-2_47_399" fill="white">
<path fill-rule="evenodd" clip-rule="evenodd" d="M27.4463 27.4037C31.3101 35.1818 34.6727 38.3465 42.3518 42.3092C34.6727 46.272 31.3101 49.4366 27.4463 57.2147C17.4205 49.8009 11.2951 46.7217 4.57764e-05 42.3092C11.2951 37.8967 17.4205 34.8175 27.4463 27.4037Z"/>
</mask>
<path d="M42.3518 42.3092L43.269 40.5319L46.7131 42.3092L43.269 44.0865L42.3518 42.3092ZM27.4463 27.4037L26.2572 25.7956L28.1758 24.3768L29.2375 26.5139L27.4463 27.4037ZM27.4463 57.2147L29.2375 58.1045L28.1758 60.2416L26.2572 58.8228L27.4463 57.2147ZM4.95911e-05 42.3092L-0.727703 44.1721L-5.49631 42.3092L-0.727703 40.4463L4.95911e-05 42.3092ZM41.4346 44.0865C37.5165 42.0646 34.5529 40.1732 32.0618 37.7091C29.5644 35.2388 27.6414 32.2919 25.6551 28.2935L29.2375 26.5139C31.115 30.2936 32.8052 32.8181 34.8748 34.8653C36.9507 36.9188 39.508 38.5911 43.269 40.5319L41.4346 44.0865ZM43.269 44.0865C39.508 46.0273 36.9507 47.6996 34.8748 49.7531C32.8052 51.8003 31.115 54.3248 29.2375 58.1045L25.6551 56.3249C27.6414 52.3264 29.5644 49.3796 32.0618 46.9093C34.5529 44.4452 37.5165 42.5538 41.4346 40.5319L43.269 44.0865ZM26.2572 58.8228C16.3995 51.5334 10.4365 48.5335 -0.727703 44.1721L0.727806 40.4463C12.1537 44.9099 18.4414 48.0685 28.6354 55.6066L26.2572 58.8228ZM28.6354 29.0118C18.4414 36.5499 12.1537 39.7085 0.727802 44.1721L-0.727703 40.4463C10.4365 36.0849 16.3995 33.085 26.2572 25.7956L28.6354 29.0118Z" fill="#006A6A" mask="url(#path-10-inside-2_47_399)"/>
<path d="M871.704 42L38.7021 42" stroke="#006A6A" stroke-width="2"/>
<path d="M454.906 41V1" stroke="#006A6A" stroke-width="2" stroke-linecap="round"/>
</svg>
