<svg width="113" height="21" viewBox="0 0 113 21" fill="none" xmlns="http://www.w3.org/2000/svg">
<path d="M74.3285 10.0902H-5.45755e-05" stroke="#FBF8F3" stroke-width="2"/>
<path d="M86.097 1.83224L85.189 1.41336C85.3088 1.15353 85.5342 0.957496 85.8082 0.874853C86.0821 0.792211 86.3784 0.830878 86.6219 0.981072L86.097 1.83224ZM73.9277 10.0902L73.7744 11.0784C73.2871 11.0028 72.9277 10.5833 72.9277 10.0902C72.9277 9.59714 73.2871 9.17765 73.7744 9.10206L73.9277 10.0902ZM86.1379 18.9462L86.6657 19.7956C86.4194 19.9486 86.1189 19.9872 85.842 19.9015C85.5651 19.8157 85.3391 19.614 85.2224 19.3486L86.1379 18.9462ZM96.7999 10.1849L97.4811 9.45281C97.8843 9.82793 97.9083 10.4584 97.5348 10.8632L96.7999 10.1849ZM87.0051 2.25112C84.1904 8.35261 77.4353 10.558 74.081 11.0784L73.7744 9.10206C76.9193 8.61416 82.804 6.58351 85.189 1.41336L87.0051 2.25112ZM74.081 9.10206C75.839 9.3748 78.3741 10.1687 80.8139 11.6592C83.2592 13.153 85.6628 15.3805 87.0533 18.5438L85.2224 19.3486C84.0391 16.6567 81.971 14.7097 79.7713 13.3659C77.5662 12.0189 75.2831 11.3125 73.7744 11.0784L74.081 9.10206ZM85.6101 18.0969C89.5444 15.6521 92.9379 12.8952 96.0651 9.50675L97.5348 10.8632C94.2779 14.3922 90.7428 17.2621 86.6657 19.7956L85.6101 18.0969ZM96.1188 10.9171C92.3596 7.41964 89.2142 4.9294 85.5721 2.6834L86.6219 0.981072C90.4043 3.31361 93.654 5.89219 97.4811 9.45281L96.1188 10.9171Z" fill="#FBF8F3"/>
</svg>
