<svg width="326" height="261" viewBox="0 0 326 261" fill="none" xmlns="http://www.w3.org/2000/svg">
<g filter="url(#filter0_d_140_74)">
<path d="M259.981 194.229C234.888 229.991 191.769 248.742 148.503 243.568C111.669 239.164 78.7378 216.716 60.1217 184.831C48.5669 165.072 43.4315 142.168 44.4008 119.386C44.4008 118.949 42.5777 120.175 42.5456 120.901C41.7308 139.377 45.166 157.795 52.5868 174.735C60.0076 191.675 71.2161 206.687 85.3497 218.616C114.359 243.048 154.152 251.727 190.864 242.817C219.463 235.877 244.581 217.871 261.406 193.895C262.318 192.611 260.373 193.67 259.981 194.229V194.229Z" fill="#FBF8F3"/>
<path d="M54.3828 174.829C48.4192 169.854 41.2167 167.377 33.9693 164.879C25.4059 161.939 17.4074 158.37 11.0651 151.72L10.5066 152.76C19.2562 150.885 27.9351 151.341 35.8758 155.719C43.8166 160.097 49.2601 167.916 53.3685 175.715C53.6959 176.357 54.7487 175.536 54.4598 174.99C50.1653 166.818 44.6639 159.346 36.6012 154.596C28.7504 149.948 19.391 149.711 10.6864 151.579C10.2948 151.662 9.74914 152.221 10.1279 152.625C15.9631 158.781 23.1655 162.376 31.0549 165.2C38.9443 168.025 46.9171 170.336 53.4456 175.767C53.9463 176.19 54.8771 175.24 54.3828 174.829Z" fill="#FBF8F3"/>
<path d="M10.481 152.445C18.3069 154.519 25.8515 157.537 32.9487 161.432C39.5285 165.027 47.5077 168.166 52.0141 174.361C52.2003 174.618 52.656 174.155 52.4827 173.892C47.925 167.64 39.9072 164.533 33.3146 160.887C26.1721 156.973 18.5742 153.954 10.6928 151.9C10.3975 151.823 10.0894 152.381 10.4617 152.477L10.481 152.445Z" fill="#FBF8F3"/>
<path d="M18.9866 158.884C21.5158 158.55 23.9423 158.043 26.5165 158.094C26.8182 158.094 27.1199 157.523 26.7476 157.516C24.1349 157.459 21.6506 157.966 19.0765 158.306C18.7684 158.351 18.5758 158.948 18.9866 158.884Z" fill="#FBF8F3"/>
<path d="M30.5928 159.423C29.1673 156.89 27.9562 154.243 26.9723 151.508C26.8439 151.181 26.3303 151.579 26.4266 151.867C27.4115 154.603 28.6248 157.251 30.0535 159.783C30.2269 160.084 30.7533 159.686 30.5928 159.423Z" fill="#FBF8F3"/>
<path d="M27.7489 163.666C30.368 163.461 32.9742 163.198 35.5741 162.825C35.8822 162.78 36.0748 162.183 35.6639 162.254C33.0962 162.626 30.4579 162.896 27.8388 163.089C27.5242 163.089 27.3381 163.698 27.7489 163.666V163.666Z" fill="#FBF8F3"/>
<path d="M38.7903 163.917C36.8324 160.47 35.3238 156.804 33.5328 153.273C33.3723 152.959 32.846 153.357 32.9872 153.633C34.7782 157.17 36.3188 160.835 38.2446 164.283C38.4179 164.591 38.9443 164.186 38.7903 163.923V163.917Z" fill="#FBF8F3"/>
<path d="M43.2132 166.324C41.48 166.125 39.7724 166.561 38.0392 166.548C37.7375 166.548 37.4358 167.126 37.8081 167.133C39.5349 167.133 41.2553 166.709 42.9821 166.908C43.2838 166.94 43.5919 166.369 43.2132 166.324Z" fill="#FBF8F3"/>
<path d="M45.1968 167.524C44.3494 164.713 43.5855 161.862 42.5391 159.115C42.4172 158.794 41.8972 159.186 41.9999 159.481C43.0399 162.228 43.8038 165.072 44.6511 167.884C44.7474 168.211 45.293 167.82 45.1968 167.524Z" fill="#FBF8F3"/>
<path d="M44.022 120.56C45.3058 110.79 43.0526 101.347 40.7802 91.8981C38.0327 80.4781 36.2867 69.2315 39.1818 57.6381L37.8337 58.3571C45.7423 66.3427 51.2373 75.9204 52.1232 87.3147C53.0219 98.9915 48.3358 110.469 42.6675 120.406C42.1154 121.376 43.3608 121.787 43.8358 120.939C49.6132 110.771 53.9206 99.7554 53.6638 87.8668C53.407 75.9782 47.2445 65.3991 39.0149 57.1438C38.5013 56.6367 37.7888 57.3878 37.6668 57.8628C35.0349 68.2686 36.0812 78.5395 38.4115 88.9131C40.7866 99.4601 43.9513 109.859 42.5134 120.792C42.3722 121.844 43.8872 121.356 43.9899 120.56H44.022Z" fill="#FBF8F3"/>
<path d="M38.0585 57.9976C41.1609 67.5998 43.1006 77.5395 43.8359 87.6036C44.542 97.3674 46.8209 108.787 43.0977 118.038C42.8923 118.558 43.6241 118.519 43.7846 118.115C47.4051 109.128 45.2803 98.5165 44.6961 89.0801C44.0444 78.3519 42.0495 67.7478 38.7582 57.5162C38.6234 57.0989 37.9365 57.6061 38.0585 57.9848V57.9976Z" fill="#FBF8F3"/>
<path d="M36.9607 71.6066C39.0663 74.1165 41.313 76.3954 43.0206 79.2199C43.2581 79.6051 43.9257 79.0915 43.7203 78.7513C41.9806 75.8819 39.7018 73.5581 37.5706 71.0032C37.3009 70.6886 36.6911 71.2856 36.9607 71.6066V71.6066Z" fill="#FBF8F3"/>
<path d="M44.3301 84.3168C46.0698 81.0531 48.0842 77.9435 50.3514 75.0216C50.6852 74.5658 50.0433 74.3797 49.7609 74.752C47.4597 77.7392 45.4113 80.9127 43.6368 84.2398C43.3929 84.7405 44.1375 84.6956 44.3301 84.3168Z" fill="#FBF8F3"/>
<path d="M37.8337 84.439C39.8622 87.1287 41.9485 89.7798 44.1503 92.3347C44.42 92.6429 45.0298 92.0459 44.7538 91.6928C42.5519 89.1251 40.4656 86.4996 38.4371 83.8034C38.1932 83.4761 37.5834 84.0666 37.8337 84.4069V84.439Z" fill="#FBF8F3"/>
<path d="M45.1068 96.2823C47.4627 91.7888 50.3835 87.6804 52.9449 83.3281C53.2337 82.8467 52.6046 82.6477 52.3607 83.0649C49.793 87.475 46.8144 91.6733 44.42 96.2117C44.1632 96.6996 44.9143 96.6547 45.1068 96.2823V96.2823Z" fill="#FBF8F3"/>
<path d="M45.5498 102.715C44.5804 100.693 42.9178 99.152 41.7367 97.2647C41.4992 96.8795 40.8251 97.3931 41.037 97.7269C42.2117 99.6141 43.8807 101.161 44.85 103.177C45.049 103.581 45.7295 103.074 45.5498 102.715Z" fill="#FBF8F3"/>
<path d="M45.5113 105.899C47.9956 103.003 50.5826 100.192 52.8551 97.1233C53.1889 96.674 52.5469 96.4814 52.2645 96.8601C50.037 99.8644 47.5013 102.638 45.062 105.456C44.7218 105.854 45.1583 106.303 45.5113 105.899V105.899Z" fill="#FBF8F3"/>
<path d="M23.217 138.881C22.0358 137.167 22.376 134.24 22.62 132.282C22.299 132.539 21.978 132.802 21.6699 133.065C23.5439 133.23 25.374 133.725 27.075 134.529C27.8654 134.969 28.4515 135.702 28.7072 136.57C28.9629 137.438 28.8678 138.372 28.4423 139.17C27.2611 141.314 24.443 140.293 23.217 138.881C22.7227 138.31 21.6121 139.401 22.1192 139.979C22.7495 140.753 23.6164 141.299 24.5869 141.533C25.5574 141.766 26.5778 141.675 27.4914 141.272C28.4049 140.87 29.161 140.179 29.6436 139.305C30.1262 138.431 30.3086 137.423 30.1627 136.435C29.7262 132.815 25.1428 132.045 22.2155 131.704C21.9911 131.702 21.7732 131.78 21.6004 131.923C21.4277 132.067 21.3113 132.267 21.2719 132.488C20.9766 134.843 20.707 137.938 22.1192 139.979C22.5365 140.621 23.6535 139.51 23.217 138.881V138.881Z" fill="#FBF8F3"/>
<path d="M27.8581 140.711C29.7839 143.278 32.9936 143.67 35.9079 144.511C41.9935 146.276 45.0876 151.097 46.9749 156.894C47.1225 157.35 47.8864 156.798 47.7452 156.374C46.1211 151.373 43.6625 146.912 38.7581 144.588C35.4008 142.996 30.9137 143.246 28.5257 140.043C28.2561 139.677 27.5821 140.332 27.8838 140.685L27.8581 140.711Z" fill="#FBF8F3"/>
<path d="M57.8043 118.898C57.9519 117.197 56.8221 115.495 55.8785 114.173C55.7244 113.961 55.3457 114.064 55.1788 114.173C53.4969 115.367 51.0832 117.293 51.7252 119.623C51.8871 120.319 52.2972 120.932 52.8787 121.346C53.4601 121.761 54.173 121.95 54.8835 121.876C56.4434 121.793 57.5026 120.271 57.8171 118.898C58.0097 118.076 56.7708 118.461 56.6231 119.084C55.8913 122.249 51.6353 119.957 53.131 117.498C53.7806 116.554 54.612 115.749 55.5768 115.13H54.8706C55.6217 116.17 56.7066 117.729 56.591 119.065C56.514 119.918 57.7273 119.533 57.785 118.878L57.8043 118.898Z" fill="#FBF8F3"/>
<path d="M54.0104 121.337C53.7858 124.547 49.4014 125.786 47.2573 127.564C44.221 130.074 43.4892 133.938 43.5533 137.681C43.5533 138.034 44.1054 137.745 44.099 137.463C44.0027 131.929 46.1082 128.476 50.7494 125.754C52.5661 124.682 54.3956 123.546 54.5561 121.26C54.5561 120.869 54.0361 121.042 54.0104 121.337V121.337Z" fill="#FBF8F3"/>
<path d="M20.3732 116.131C19.7312 114.385 20.6428 111.984 21.2719 110.354L19.988 111.047C21.6057 111.602 23.1136 112.436 24.443 113.512C24.99 113.998 25.333 114.673 25.4033 115.402C25.4735 116.131 25.2658 116.859 24.8218 117.441C23.4224 119.142 21.1114 117.588 20.3667 116.157C19.9046 115.264 18.4024 116.401 18.8133 117.19C20.8739 121.145 26.1377 120.156 27.0236 115.906C27.7747 112.369 23.6855 110.482 21.0215 109.487C20.7596 109.421 20.4823 109.455 20.2445 109.584C20.0068 109.712 19.8259 109.925 19.7377 110.18C18.9352 112.254 18.0109 114.995 18.8068 117.184C19.1407 118.102 20.662 116.985 20.3603 116.15L20.3732 116.131Z" fill="#FBF8F3"/>
<path d="M23.9358 118.93C25.1619 122.679 28.4294 125.259 31.1255 127.975C35.8278 132.599 38.739 138.74 39.3422 145.307C39.3872 145.801 40.1318 145.403 40.0933 145.005C39.5773 139.154 37.2376 133.613 33.4044 129.162C30.4643 125.722 26.1056 122.929 24.642 118.461C24.5072 118.038 23.8139 118.545 23.9358 118.93V118.93Z" fill="#FBF8F3"/>
<path d="M64.0311 192.008C66.6374 183.964 63.8578 176.191 61.0397 168.603C60.86 168.115 60.141 168.462 59.9741 168.763C55.9684 176.242 59.1203 185.402 62.8756 192.329C63.2351 192.971 64.3585 192.136 64.0375 191.552C60.5583 185.133 57.1881 176.223 60.9498 169.213L59.8778 169.373C62.5675 176.621 65.3856 184.138 62.8885 191.879C62.5996 192.759 63.8064 192.695 64.0311 192.008Z" fill="#FBF8F3"/>
<path d="M63.5689 191.847C57.7337 184.529 46.8786 180.767 38.2959 177.93C37.8273 177.776 37.0121 178.373 37.333 178.899C40.9664 185.319 55.5383 200.898 63.434 192.714C64.076 192.072 63.3121 191.34 62.6958 191.982C55.8143 199.12 41.6918 183.816 38.4949 178.129L37.5256 179.098C46.0184 181.897 56.7836 185.633 62.561 192.848C62.9911 193.388 64.0054 192.393 63.5689 191.847V191.847Z" fill="#FBF8F3"/>
<path d="M78.3462 209.815C79.8932 202.856 76.9917 196.559 74.0517 190.384C73.8462 189.947 73.2749 190.345 73.1529 190.634C70.3926 197.214 73.7949 204.667 77.4154 210.187C77.7363 210.681 78.603 210.014 78.3205 209.59C74.822 204.281 71.3812 197.072 74.0452 190.73L73.1465 190.981C76.0096 196.995 78.9239 203.177 77.3897 209.963C77.2421 210.604 78.2371 210.316 78.3462 209.815V209.815Z" fill="#FBF8F3"/>
<path d="M77.9611 209.866C72.3826 204.089 62.9912 201.746 55.4228 199.961C55.3162 199.953 55.2095 199.974 55.1134 200.02C55.0174 200.067 54.9355 200.139 54.8761 200.227C54.8167 200.316 54.7819 200.419 54.7753 200.526C54.7687 200.632 54.7906 200.739 54.8386 200.834C58.3949 205.97 71.7792 217.942 77.8519 210.547C78.282 210.027 77.7235 209.436 77.2806 209.975C71.8498 216.581 58.8571 204.724 55.6218 200.051L55.0376 200.924C62.3877 202.657 71.76 205.026 77.1779 210.649C77.5566 211.041 78.3334 210.258 77.9611 209.866V209.866Z" fill="#FBF8F3"/>
<path d="M91.4095 221.293C91.4866 215.875 88.1999 211.58 85.048 207.478C84.849 207.221 84.4702 207.613 84.406 207.812C83.3918 213.159 87.1599 218.192 90.7676 221.71C91.0436 221.979 91.6021 221.421 91.3197 221.151C87.8468 217.755 84.1108 212.877 85.0929 207.709L84.451 208.043C87.5644 212.068 90.7548 216.234 90.6842 221.569C90.6842 222.011 91.3646 221.646 91.371 221.293H91.4095Z" fill="#FBF8F3"/>
<path d="M91.1143 221.434C86.0173 218.057 78.6608 217.801 72.755 217.685C72.5046 217.685 72.0681 218.057 72.3377 218.327C75.8876 221.614 87.7441 228.418 91.1721 221.903C91.4096 221.447 90.8383 221.261 90.6264 221.659C87.5837 227.436 76.0866 220.728 72.8962 217.769L72.479 218.41C78.3462 218.526 85.645 218.783 90.6842 222.121C90.9859 222.326 91.4609 221.704 91.1143 221.479V221.434Z" fill="#FBF8F3"/>
<path d="M65.4625 57.7216C90.8125 21.8054 134.381 3.18929 177.865 8.80621C214.635 13.5629 247.348 36.3067 265.662 68.3456C276.864 87.931 281.839 110.546 280.838 133.014C280.838 133.45 282.661 132.224 282.693 131.499C283.538 112.994 280.119 94.5415 272.699 77.5675C265.28 60.5936 254.058 45.5519 239.902 33.6041C210.835 9.1336 170.939 0.473915 134.169 9.46741C105.77 16.4195 80.8176 34.2846 64.0374 58.0618C63.1259 59.3456 65.0709 58.28 65.4625 57.7216Z" fill="#FBF8F3"/>
<path d="M270.869 77.3839C276.832 82.3589 284.035 84.8368 291.276 87.3339C299.845 90.2932 307.838 93.8624 314.186 100.551L314.738 99.505C305.995 101.379 297.31 100.924 289.369 96.5521C281.428 92.1805 275.991 84.3553 271.883 76.5559C271.555 75.9139 270.503 76.7292 270.792 77.2748C275.08 85.4145 280.613 92.8866 288.65 97.637C296.501 102.285 305.86 102.522 314.565 100.654C314.957 100.571 315.496 100.012 315.123 99.6077C309.288 93.4516 302.086 89.8567 294.19 87.013C286.294 84.1692 278.334 81.8775 271.806 76.4467C271.305 76.023 270.374 76.9731 270.869 77.3839V77.3839Z" fill="#FBF8F3"/>
<path d="M314.77 99.7874C306.943 97.7176 299.398 94.6996 292.303 90.8004C285.723 87.212 277.744 84.0601 273.231 77.8718C273.045 77.615 272.589 78.0772 272.762 78.3404C277.32 84.5929 285.338 87.7062 291.937 91.346C299.077 95.265 306.676 98.2837 314.559 100.333C314.854 100.417 315.162 99.8516 314.79 99.7553L314.77 99.7874Z" fill="#FBF8F3"/>
<path d="M306.297 93.3488C303.768 93.6826 301.335 94.1961 298.767 94.1383C298.465 94.1383 298.164 94.7097 298.536 94.7225C301.149 94.7739 303.633 94.2667 306.207 93.9265C306.515 93.888 306.701 93.2846 306.297 93.3488V93.3488Z" fill="#FBF8F3"/>
<path d="M294.659 92.8289C296.08 95.3615 297.291 98.0066 298.279 100.738C298.401 101.065 298.921 100.667 298.818 100.378C297.836 97.6428 296.624 94.9952 295.198 92.463C295.018 92.1613 294.498 92.5593 294.659 92.8289V92.8289Z" fill="#FBF8F3"/>
<path d="M297.496 88.5665C294.883 88.7719 292.271 89.0351 289.677 89.4074C289.363 89.4523 289.176 90.0493 289.587 89.9851C292.155 89.6064 294.793 89.3432 297.406 89.1442C297.721 89.1442 297.913 88.5408 297.496 88.5665Z" fill="#FBF8F3"/>
<path d="M286.461 88.316C288.419 91.7567 289.921 95.4286 291.718 98.9528C291.879 99.2674 292.405 98.8694 292.264 98.5933C290.467 95.0627 288.965 91.3973 287.007 87.9501C286.833 87.6484 286.307 88.0464 286.461 88.316Z" fill="#FBF8F3"/>
<path d="M282.038 85.9089C283.771 86.1079 285.479 85.6778 287.212 85.6842C287.507 85.6842 287.816 85.1064 287.443 85.1064C285.71 85.1064 283.996 85.5301 282.269 85.3311C281.968 85.2926 281.659 85.8639 282.038 85.9089Z" fill="#FBF8F3"/>
<path d="M280.055 84.7085C280.902 87.5266 281.659 90.3704 282.706 93.1178C282.828 93.4388 283.348 93.0472 283.251 92.7583C282.205 90.0109 281.448 87.1607 280.6 84.349C280.497 84.028 279.958 84.4132 280.055 84.7085V84.7085Z" fill="#FBF8F3"/>
<path d="M281.255 131.672C279.971 141.442 282.231 150.885 284.503 160.335C287.251 171.755 288.997 183.001 286.102 194.595L287.443 193.876C279.509 185.864 274.014 176.312 273.128 164.924C272.223 153.241 276.916 141.763 282.584 131.826C283.136 130.857 281.891 130.453 281.409 131.293C275.632 141.468 271.331 152.477 271.581 164.366C271.831 176.255 278.039 186.834 286.236 195.082C286.744 195.596 287.463 194.845 287.578 194.363C290.21 183.938 289.164 173.7 286.833 163.326C284.465 152.779 281.3 142.373 282.738 131.448C282.873 130.395 281.364 130.876 281.255 131.672V131.672Z" fill="#FBF8F3"/>
<path d="M287.193 194.248C284.087 184.647 282.147 174.707 281.415 164.642C280.709 154.878 278.424 143.458 282.154 134.208C282.359 133.688 281.627 133.727 281.46 134.131C277.84 143.15 279.971 153.736 280.549 163.172C281.205 173.898 283.202 184.5 286.493 194.73C286.622 195.147 287.315 194.646 287.193 194.267V194.248Z" fill="#FBF8F3"/>
<path d="M288.31 180.607C286.211 178.097 283.964 175.818 282.25 172.994C282.012 172.608 281.345 173.122 281.55 173.462C283.29 176.332 285.569 178.655 287.706 181.21C287.97 181.531 288.586 180.934 288.31 180.607Z" fill="#FBF8F3"/>
<path d="M280.896 167.942C279.15 171.204 277.136 174.315 274.874 177.243C274.54 177.693 275.182 177.885 275.465 177.506C277.766 174.521 279.812 171.347 281.582 168.019C281.833 167.524 281.088 167.563 280.896 167.942Z" fill="#FBF8F3"/>
<path d="M287.411 167.768C285.383 165.079 283.303 162.434 281.101 159.879C280.825 159.564 280.221 160.161 280.497 160.482C282.693 163.05 284.786 165.682 286.808 168.372C287.058 168.699 287.668 168.108 287.411 167.768Z" fill="#FBF8F3"/>
<path d="M280.144 155.95C277.782 160.444 274.868 164.552 272.3 168.904C272.018 169.386 272.64 169.585 272.884 169.168C275.49 164.757 278.437 160.559 280.831 156.027C281.088 155.533 280.337 155.578 280.144 155.95Z" fill="#FBF8F3"/>
<path d="M279.695 149.518C280.671 151.54 282.333 153.087 283.508 154.968C283.752 155.353 284.42 154.84 284.208 154.506C283.033 152.625 281.364 151.072 280.395 149.056C280.202 148.652 279.522 149.165 279.695 149.518Z" fill="#FBF8F3"/>
<path d="M279.74 146.34C277.256 149.229 274.669 152.047 272.396 155.109C272.062 155.565 272.704 155.751 272.987 155.379C275.208 152.375 277.75 149.601 280.183 146.777C280.523 146.385 280.087 145.93 279.74 146.34V146.34Z" fill="#FBF8F3"/>
<path d="M302.034 113.345C303.216 115.053 302.875 117.98 302.631 119.938L303.575 119.155C301.703 118.992 299.875 118.499 298.176 117.697C297.385 117.256 296.799 116.522 296.544 115.653C296.288 114.784 296.383 113.849 296.809 113.05C297.99 110.906 300.802 111.926 302.034 113.345C302.529 113.916 303.639 112.825 303.132 112.241C302.502 111.469 301.637 110.924 300.668 110.69C299.699 110.457 298.68 110.547 297.768 110.948C296.855 111.348 296.099 112.037 295.615 112.908C295.131 113.779 294.946 114.785 295.089 115.772C295.525 119.386 300.102 120.156 303.036 120.496C303.261 120.501 303.48 120.424 303.653 120.28C303.827 120.137 303.942 119.935 303.979 119.713C304.275 117.357 304.544 114.263 303.132 112.222C302.715 111.618 301.598 112.69 302.034 113.326V113.345Z" fill="#FBF8F3"/>
<path d="M297.393 111.528C295.467 108.961 292.226 108.563 289.337 107.728C283.258 105.956 280.157 101.135 278.276 95.3452C278.129 94.883 277.365 95.4351 277.5 95.8588C279.13 100.859 281.589 105.327 286.487 107.651C289.844 109.237 294.331 108.986 296.719 112.196C296.989 112.555 297.663 111.901 297.361 111.554L297.393 111.528Z" fill="#FBF8F3"/>
<path d="M267.447 133.335C267.293 135.036 268.429 136.737 269.373 138.059C269.52 138.271 269.906 138.168 270.072 138.059C271.735 136.878 274.168 134.959 273.526 132.622C273.364 131.927 272.954 131.314 272.373 130.899C271.791 130.484 271.078 130.296 270.368 130.369C268.808 130.452 267.749 131.974 267.434 133.348C267.242 134.176 268.48 133.784 268.628 133.161C269.353 129.997 273.616 132.288 272.12 134.753C271.455 135.694 270.614 136.497 269.642 137.116H270.342C269.597 136.076 268.506 134.548 268.628 133.181C268.699 132.327 267.492 132.712 267.434 133.367L267.447 133.335Z" fill="#FBF8F3"/>
<path d="M271.266 130.896C271.491 127.725 275.882 126.447 278.026 124.669C281.056 122.159 281.794 118.301 281.73 114.552C281.73 114.199 281.178 114.488 281.184 114.77C281.281 120.304 279.169 123.757 274.534 126.479C272.711 127.551 270.888 128.687 270.721 130.973C270.721 131.364 271.247 131.185 271.266 130.889V130.896Z" fill="#FBF8F3"/>
<path d="M304.872 136.102C305.514 137.854 304.609 140.249 303.973 141.879L305.257 141.186C303.638 140.629 302.128 139.795 300.795 138.721C300.251 138.233 299.91 137.557 299.841 136.829C299.772 136.101 299.98 135.374 300.423 134.792C301.816 133.097 304.127 134.644 304.872 136.076C305.34 136.968 306.836 135.832 306.432 135.049C304.371 131.088 299.107 132.083 298.215 136.333C297.47 139.876 301.559 141.757 304.223 142.752C304.485 142.82 304.762 142.787 305 142.66C305.238 142.533 305.419 142.32 305.507 142.065C306.303 139.985 307.234 137.244 306.438 135.062C306.098 134.137 304.576 135.254 304.878 136.089L304.872 136.102Z" fill="#FBF8F3"/>
<path d="M301.309 133.303C300.089 129.554 296.815 126.98 294.126 124.258C289.422 119.635 286.511 113.494 285.909 106.926C285.858 106.438 285.113 106.836 285.158 107.228C285.671 113.079 288.011 118.622 291.847 123.07C294.787 126.511 299.146 129.304 300.603 133.778C300.738 134.195 301.437 133.688 301.309 133.303Z" fill="#FBF8F3"/>
<path d="M261.22 60.2251C258.614 68.2685 261.394 76.0423 264.205 83.63C264.385 84.1178 265.11 83.7776 265.277 83.4695C269.283 75.9717 266.131 66.8306 262.376 59.9233C262.016 59.2814 260.893 60.1159 261.214 60.7001C264.687 67.1194 268.057 76.0295 264.301 83.0394L265.374 82.8789C262.684 75.6315 259.859 68.1144 262.363 60.3727C262.652 59.4868 261.445 59.551 261.22 60.2443V60.2251Z" fill="#FBF8F3"/>
<path d="M261.683 60.3855C267.518 67.7035 278.373 71.4717 286.949 74.3026C287.424 74.4567 288.233 73.8597 287.918 73.3333C284.279 66.914 269.707 51.3278 261.817 59.5125C261.175 60.1544 261.939 60.8862 262.549 60.2507C269.437 53.1124 283.56 68.4482 286.756 74.11L287.726 73.1407C279.233 70.3355 268.468 66.5994 262.69 59.3777C262.267 58.8449 261.246 59.8334 261.689 60.3855H261.683Z" fill="#FBF8F3"/>
<path d="M246.905 42.418C245.352 49.3766 248.26 55.674 251.2 61.8494C251.405 62.2859 251.976 61.8879 252.098 61.599C254.859 55.0192 251.456 47.5599 247.836 42.0393C247.508 41.5514 246.648 42.219 246.931 42.6427C250.429 47.9451 253.87 55.1604 251.206 61.4963L252.105 61.2459C249.242 55.2374 246.327 49.0492 247.862 42.2704C248.009 41.6284 247.014 41.9173 246.905 42.418V42.418Z" fill="#FBF8F3"/>
<path d="M247.29 42.3602C252.862 48.1376 262.26 50.4871 269.829 52.2717C269.935 52.2797 270.042 52.2592 270.138 52.2125C270.234 52.1657 270.316 52.0943 270.375 52.0055C270.435 51.9167 270.469 51.8138 270.476 51.7071C270.483 51.6005 270.461 51.494 270.413 51.3986C266.85 46.2632 253.472 34.2911 247.399 41.6862C246.969 42.2061 247.528 42.7903 247.971 42.2575C253.401 35.6456 266.388 47.5085 269.63 52.1754L270.214 51.3023C262.864 49.5755 253.491 47.2068 248.073 41.577C247.695 41.1919 246.912 41.9686 247.29 42.3602V42.3602Z" fill="#FBF8F3"/>
<path d="M233.842 30.9401C233.765 36.358 237.051 40.6461 240.197 44.748C240.402 45.0112 240.781 44.6197 240.839 44.4142C241.853 39.0734 238.085 34.0406 234.484 30.5228C234.208 30.2468 233.649 30.8117 233.925 31.0813C237.379 34.4707 241.096 39.3815 240.133 44.5169L240.775 44.1831C237.668 40.1518 234.471 35.9857 234.548 30.6576C234.548 30.2147 233.867 30.5742 233.861 30.9336L233.842 30.9401Z" fill="#FBF8F3"/>
<path d="M234.137 30.7925C239.234 34.1755 246.584 34.4323 252.496 34.5478C252.747 34.5478 253.183 34.1755 252.914 33.9059C249.364 30.6128 237.507 23.8147 234.079 30.3303C233.842 30.7797 234.413 30.9722 234.625 30.5742C237.668 24.7968 249.165 31.505 252.355 34.4644L252.772 33.8224C246.899 33.7069 239.606 33.4501 234.567 30.1056C234.265 29.9066 233.79 30.5229 234.137 30.7476V30.7925Z" fill="#FBF8F3"/>
<path d="M154.563 148.427C144.292 146.61 144.061 160.354 152.335 163.089C157.118 164.668 163.043 161.965 167.305 160.065C173.275 157.408 178.86 153.954 184.445 150.558C190.768 146.706 196.853 143.054 204.12 141.154C214.314 138.483 228.071 138.997 235.504 147.47C241.423 154.224 235.607 166.285 226.517 164.559C222.82 163.853 219.925 160.579 220.098 156.798C220.246 153.363 223.558 151.123 226.28 149.736C226.537 149.602 225.599 148.401 225.169 148.626C220.721 150.924 216.882 155.469 220.079 160.457C221.12 162.177 222.598 163.59 224.362 164.554C226.127 165.518 228.115 165.998 230.125 165.945C236.942 165.663 240.396 157.183 238.566 151.47C236.641 145.378 229.727 141.507 224.014 139.915C214.674 137.347 203.876 138.676 195.165 142.746C188.746 145.744 182.847 149.858 176.722 153.434C170.598 157.01 163.884 160.842 156.701 162.087C152.034 162.896 147.823 161.176 147.437 155.835C147.091 151.072 151.116 148.857 155.327 149.595C155.853 149.691 154.954 148.51 154.569 148.44L154.563 148.427Z" fill="#FBF8F3" stroke="#FBF8F3" stroke-width="0.5" stroke-linecap="round" stroke-linejoin="round"/>
<path d="M170.791 149.595C177.159 148.465 179.277 154.57 176.427 159.288C175.021 161.631 172.229 162.273 169.7 162.273C162.106 162.273 154.204 157.183 147.874 153.524C142.475 150.398 137.289 146.88 131.774 143.959C122.56 139.093 111.953 137.543 101.732 139.568C94.3753 141.051 85.9981 146.373 86.0687 154.686C86.1136 159.712 90.4723 164.809 95.3061 165.83C99.8638 166.793 104.633 163.506 106.084 159.282C107.747 154.429 103.029 150.558 99.2861 148.626C98.5928 148.273 99.4723 149.531 99.7868 149.692C107.458 153.652 106.052 161.805 98.5029 164.373C93.4188 166.112 89.227 162.447 87.5901 157.722C85.9531 152.997 88.951 148.575 92.289 145.622C99.7034 139.061 111.489 139.023 120.598 140.826C128.301 142.361 134.843 146.418 141.435 150.455C146.982 153.971 152.728 157.16 158.646 160.007C163.049 162.036 168.243 164.109 173.173 163.217C182.59 161.554 179.656 146.655 169.809 148.401C169.443 148.465 170.335 149.653 170.772 149.576L170.791 149.595Z" fill="#FBF8F3" stroke="#FBF8F3" stroke-width="0.5" stroke-linecap="round" stroke-linejoin="round"/>
<path d="M115.919 188.31L115.831 188.188L115.831 188.189L115.831 188.189L115.83 188.189L115.83 188.189L115.828 188.19L115.823 188.194L115.805 188.208C115.79 188.22 115.769 188.237 115.743 188.259C115.692 188.304 115.621 188.37 115.54 188.457L115.374 188.63L115.374 188.63L115.371 188.633C113.379 190.843 111.624 192.617 110.106 193.956C108.587 195.296 107.312 196.194 106.279 196.66L106.279 196.66L106.277 196.66C106.224 196.686 106.169 196.716 106.127 196.758C106.081 196.802 106.043 196.864 106.043 196.944C106.043 197.001 106.061 197.076 106.131 197.126C106.188 197.167 106.255 197.171 106.296 197.171C106.402 197.171 106.533 197.124 106.673 197.057C106.82 196.986 107.001 196.883 107.213 196.748C107.637 196.478 108.199 196.076 108.897 195.542L108.897 195.542L108.898 195.541C110.462 194.32 111.937 192.991 113.311 191.564C112.776 192.251 112.225 192.925 111.658 193.585L111.658 193.585L111.656 193.587C108.786 197.044 107.056 199.616 106.494 201.294L106.413 201.534L106.663 201.489C107.096 201.41 107.534 201.36 107.974 201.337C108.22 201.342 108.466 201.375 108.705 201.435L108.85 201.472L108.887 201.328C109.184 200.179 109.611 199.068 110.158 198.015C110.733 196.926 111.77 195.219 113.271 192.891C114.209 191.441 114.912 190.344 115.381 189.6C115.615 189.228 115.792 188.944 115.91 188.747C115.969 188.649 116.014 188.572 116.045 188.515C116.06 188.487 116.073 188.463 116.082 188.443C116.087 188.433 116.092 188.421 116.096 188.41L116.096 188.41C116.098 188.403 116.107 188.378 116.107 188.349V188.338L116.106 188.328C116.1 188.286 116.081 188.247 116.05 188.217C116.02 188.187 115.981 188.167 115.939 188.161L115.919 188.31Z" fill="#FBF8F3" stroke="#FBF8F3" stroke-width="0.3"/>
<path d="M125.424 194.035C124.845 194.661 124.194 195.22 123.484 195.699C122.516 196.426 121.353 196.849 120.144 196.914C120.144 196.914 120.144 196.914 120.144 196.914L120.136 196.764C119.783 196.784 119.429 196.73 119.098 196.606C118.767 196.482 118.464 196.291 118.21 196.045L125.424 194.035ZM125.424 194.035C124.33 195.865 122.951 197.514 121.334 198.917L121.334 198.917L121.333 198.919C119.107 200.909 117.282 201.872 115.848 201.872H115.675C115.563 201.872 115.454 201.887 115.368 201.936C115.269 201.993 115.216 202.088 115.216 202.202C115.216 202.244 115.222 202.294 115.246 202.341C115.273 202.392 115.314 202.426 115.36 202.446C115.401 202.464 115.443 202.469 115.475 202.471C115.507 202.473 115.542 202.473 115.575 202.473H115.578V202.474L115.591 202.473C116.453 202.4 117.296 202.179 118.083 201.82C119.157 201.398 120.187 200.872 121.159 200.249C123.13 199.048 124.88 197.517 126.332 195.723L126.333 195.721C127.627 194.078 128.29 192.532 128.291 191.087C128.331 190.174 128.027 189.28 127.441 188.58L127.441 188.58L127.44 188.578C127.166 188.259 126.824 188.005 126.439 187.836C126.054 187.667 125.635 187.587 125.215 187.602L125.22 187.749C125.22 187.749 125.22 187.749 125.22 187.749L125.213 187.602C124.338 187.642 123.478 187.851 122.682 188.218C121.711 188.625 120.799 189.163 119.973 189.816" fill="#FBF8F3" stroke="#FBF8F3" stroke-width="0.3"/>
<path d="M128.926 203.7L128.78 203.931H129.052H129.438H129.52L129.564 203.861L142.878 182.876L143.024 182.646H142.751H142.36H142.277L142.233 182.716L128.926 203.7Z" fill="#FBF8F3" stroke="#FBF8F3" stroke-width="0.3"/>
<path d="M153.034 188.625L153.034 188.625L153.19 188.457C153.273 188.351 153.372 188.258 153.482 188.181L153.511 188.16L153.547 188.155C153.574 188.151 153.603 188.153 153.63 188.161C153.657 188.169 153.682 188.183 153.703 188.201C153.724 188.22 153.741 188.243 153.752 188.269C153.764 188.294 153.77 188.322 153.769 188.35M153.034 188.625L153.619 188.349M153.034 188.625L153.033 188.627C151.039 190.839 149.284 192.614 147.768 193.954C146.251 195.295 144.981 196.194 143.955 196.659L153.034 188.625ZM153.769 188.35L153.619 188.349M153.769 188.35C153.769 188.35 153.769 188.349 153.769 188.349H153.619M153.769 188.35C153.769 188.379 153.761 188.403 153.758 188.41L153.758 188.41C153.754 188.421 153.749 188.433 153.744 188.443C153.735 188.463 153.722 188.487 153.707 188.515C153.676 188.572 153.631 188.649 153.572 188.747C153.454 188.944 153.278 189.228 153.043 189.6C152.574 190.344 151.871 191.441 150.934 192.891M153.619 188.349C153.619 188.352 153.617 188.359 153.613 188.369L153.654 188.427C153.608 188.459 153.565 188.494 153.525 188.533C153.244 189.017 152.338 190.44 150.808 192.81M150.934 192.891C150.934 192.891 150.934 192.891 150.934 192.891L150.808 192.81M150.934 192.891C149.432 195.219 148.397 196.926 147.827 198.015M150.934 192.891L150.808 192.81M150.808 192.81C149.306 195.138 148.268 196.85 147.694 197.946M153.473 188.377C153.45 188.397 153.427 188.418 153.405 188.44C153.42 188.414 153.433 188.391 153.444 188.371C153.458 188.346 153.467 188.328 153.472 188.316C153.475 188.312 153.475 188.31 153.475 188.31L153.475 188.31C153.475 188.31 153.474 188.313 153.473 188.318C153.472 188.321 153.47 188.332 153.469 188.347M153.473 188.377L153.469 188.349M153.473 188.377C153.471 188.368 153.469 188.358 153.469 188.349M153.473 188.377L153.469 188.347M153.469 188.347L153.469 188.347V188.349M153.469 188.347C153.469 188.348 153.469 188.348 153.469 188.349M147.827 198.015L149.44 193.683C146.661 197.029 144.969 199.528 144.362 201.179C144.334 201.184 144.306 201.189 144.278 201.194L144.305 201.341L144.447 201.389C144.456 201.364 144.464 201.338 144.473 201.312C144.86 201.249 145.249 201.207 145.64 201.187M147.827 198.015L147.694 197.946M147.827 198.015C147.827 198.015 147.827 198.015 147.827 198.015L147.694 197.946M147.694 197.946C147.139 199.007 146.708 200.129 146.41 201.29C146.41 201.29 146.41 201.29 146.41 201.29C146.158 201.226 145.9 201.192 145.64 201.187M145.64 201.187L145.638 201.337C145.639 201.337 145.641 201.337 145.643 201.337C145.644 201.337 145.646 201.337 145.648 201.337L145.64 201.187ZM153.585 188.425L153.589 188.452C153.583 188.453 153.576 188.453 153.57 188.453L153.585 188.425ZM152.847 189.056L152.83 189.043C152.721 189.174 152.611 189.305 152.5 189.436C152.577 189.352 152.655 189.267 152.733 189.181C152.763 189.138 152.792 189.096 152.822 189.053L152.839 189.065C152.841 189.062 152.844 189.059 152.846 189.056C152.847 189.056 152.847 189.056 152.847 189.056ZM151.874 190.382C152.124 190.103 152.37 189.821 152.613 189.535C152.692 189.449 152.771 189.362 152.851 189.275C152.569 189.679 152.283 190.08 151.991 190.477C151.657 190.849 151.317 191.215 150.971 191.575C151.277 191.182 151.578 190.784 151.874 190.382Z" fill="#FBF8F3" stroke="#FBF8F3" stroke-width="0.3"/>
<path d="M165.323 188.45L165.323 188.45L165.321 188.452L165.16 188.625L165.16 188.625L165.159 188.627C163.169 190.839 161.416 192.614 159.901 193.954C158.384 195.295 157.111 196.193 156.081 196.659C155.976 196.706 155.845 196.786 155.845 196.944C155.845 196.945 155.845 196.946 155.845 196.947C155.844 196.958 155.844 196.981 155.848 197.003C155.852 197.03 155.863 197.073 155.9 197.11C155.936 197.146 155.978 197.159 156.006 197.164C156.034 197.17 156.064 197.171 156.091 197.171C156.198 197.171 156.329 197.124 156.471 197.057C156.618 196.986 156.799 196.883 157.011 196.748C157.435 196.478 157.997 196.076 158.698 195.542L158.698 195.542L158.699 195.541C160.255 194.328 161.721 193.006 163.088 191.587C162.559 192.266 162.013 192.932 161.453 193.585L161.453 193.585L161.451 193.587C158.589 197.044 156.86 199.616 156.289 201.293L156.207 201.534L156.458 201.489C156.893 201.41 157.333 201.359 157.775 201.337C158.019 201.342 158.263 201.375 158.5 201.435L158.645 201.472L158.682 201.327C158.977 200.178 159.403 199.066 159.953 198.015L159.954 198.015C160.519 196.926 161.554 195.219 163.06 192.892L163.06 192.891C163.997 191.441 164.7 190.344 165.169 189.6C165.404 189.228 165.58 188.944 165.698 188.747C165.757 188.649 165.802 188.572 165.833 188.515C165.848 188.487 165.861 188.463 165.871 188.443C165.875 188.433 165.88 188.421 165.884 188.41L165.884 188.41C165.886 188.404 165.892 188.388 165.894 188.367C165.898 188.34 165.896 188.312 165.888 188.286C165.879 188.256 165.863 188.23 165.841 188.208C165.819 188.187 165.793 188.17 165.763 188.161C165.734 188.152 165.703 188.151 165.673 188.156L165.551 188.179V188.233C165.543 188.239 165.535 188.246 165.527 188.254C165.477 188.298 165.406 188.363 165.323 188.45Z" fill="#FBF8F3" stroke="#FBF8F3" stroke-width="0.3"/>
<path d="M180.028 182.646H179.946L179.902 182.716L166.595 203.7L166.448 203.931H166.721H167.113H167.195L167.239 203.861L180.547 182.876L180.693 182.646H180.42H180.028Z" fill="#FBF8F3" stroke="#FBF8F3" stroke-width="0.3"/>
<path d="M184.154 197.238L184.155 197.237C186.268 196.382 187.691 195.765 188.417 195.389L188.417 195.389L188.419 195.388C189.193 194.969 189.907 194.448 190.542 193.839C190.994 193.446 191.359 192.962 191.611 192.418C191.863 191.874 191.996 191.282 192.003 190.682C192.015 190.277 191.934 189.875 191.767 189.507C191.599 189.137 191.35 188.812 191.037 188.554L191.037 188.554L191.035 188.553C190.341 187.996 189.468 187.71 188.579 187.75L188.578 187.75C186.874 187.833 185.231 188.413 183.852 189.42C181.798 190.777 180.727 192.261 180.726 193.879C180.712 194.176 180.76 194.473 180.867 194.751C180.974 195.029 181.137 195.283 181.347 195.496L181.347 195.496L181.35 195.5C181.57 195.707 181.828 195.868 182.11 195.973C182.393 196.078 182.693 196.125 182.994 196.112L182.994 196.112L182.996 196.112C183.793 196.068 184.565 195.817 185.236 195.384C186.065 194.903 186.803 194.279 187.416 193.542C187.775 193.119 188.047 192.752 188.231 192.443C188.411 192.138 188.517 191.87 188.517 191.648L188.517 191.646C188.517 191.637 188.517 191.617 188.515 191.598C188.511 191.575 188.503 191.538 188.475 191.502C188.417 191.431 188.33 191.428 188.29 191.428C188.26 191.428 188.223 191.431 188.187 191.446C188.147 191.463 188.117 191.489 188.095 191.52C188.075 191.547 188.064 191.576 188.057 191.595C188.051 191.61 188.046 191.628 188.041 191.643C188.041 191.645 188.04 191.646 188.04 191.648C187.56 192.743 186.803 193.695 185.845 194.41L185.839 194.415L185.833 194.42C185.037 195.144 184.023 195.582 182.95 195.664C182.408 195.664 182.031 195.55 181.789 195.349C181.553 195.151 181.424 194.849 181.424 194.415C181.424 193.198 182.237 191.85 183.94 190.368C185.64 188.89 187.178 188.171 188.56 188.171V188.172L188.568 188.171C189.087 188.144 189.6 188.294 190.023 188.597C190.191 188.729 190.325 188.898 190.415 189.09C190.505 189.284 190.549 189.496 190.541 189.709C190.457 191.107 189.842 192.421 188.823 193.381L188.823 193.381L188.819 193.386C187.436 194.792 185.799 195.923 183.993 196.717L183.993 196.717L183.99 196.719C182.333 197.495 181.191 198.076 180.554 198.459L180.554 198.459L180.55 198.462C179.909 198.878 179.319 199.367 178.791 199.921C178.466 200.246 178.209 200.557 178.033 200.839C177.86 201.117 177.755 201.383 177.754 201.619C177.752 201.653 177.757 201.686 177.769 201.718C177.782 201.751 177.803 201.782 177.829 201.806C177.855 201.831 177.887 201.849 177.922 201.86C177.952 201.87 177.985 201.873 178.017 201.87C178.121 201.866 178.201 201.808 178.25 201.727C178.296 201.652 178.318 201.556 178.329 201.455C178.37 201.146 178.494 200.93 178.691 200.788C178.892 200.644 179.187 200.562 179.595 200.561C180.456 200.67 181.304 200.869 182.123 201.156L182.124 201.156C182.966 201.445 183.843 201.618 184.731 201.671L184.731 201.671L184.742 201.671C185.538 201.662 186.32 201.454 187.014 201.065C187.706 200.677 188.29 200.124 188.713 199.453C189.184 198.9 189.485 198.223 189.581 197.503L189.585 197.473L189.577 197.444C189.568 197.408 189.549 197.375 189.522 197.349C189.496 197.323 189.463 197.304 189.427 197.294L189.408 197.289H189.388C189.316 197.289 189.247 197.313 189.193 197.37C189.143 197.421 189.117 197.486 189.101 197.55L189.101 197.55L189.1 197.553C188.921 198.35 188.512 199.076 187.923 199.641L187.923 199.641L187.919 199.646C187.442 200.142 186.791 200.432 186.103 200.453C185.357 200.408 184.622 200.258 183.918 200.006L183.917 200.006C183.022 199.694 182.087 199.512 181.14 199.465L181.14 199.465L181.134 199.465C180.599 199.46 180.073 199.563 179.585 199.763C180.619 198.886 182.138 198.043 184.154 197.238Z" fill="#FBF8F3" stroke="#FBF8F3" stroke-width="0.3"/>
<path d="M202.127 193.522L202.265 193.58L202.125 193.525C201.599 194.866 200.904 196.134 200.058 197.299L200.057 197.299C198.238 199.821 196.454 201.037 194.71 201.037C193.996 201.037 193.49 200.85 193.161 200.502C192.83 200.152 192.652 199.615 192.651 198.861C192.743 197.234 193.245 195.657 194.111 194.276L194.111 194.276L194.115 194.27C195.005 192.675 196.151 191.237 197.506 190.014C198.897 188.767 200.094 188.171 201.103 188.171C201.72 188.171 202.156 188.333 202.439 188.631C202.723 188.93 202.879 189.393 202.879 190.048C202.844 191.242 202.589 192.42 202.127 193.522ZM203.289 188.732L203.17 188.824L203.288 188.731C203.025 188.398 202.688 188.131 202.303 187.951C201.919 187.772 201.499 187.685 201.075 187.698C200.338 187.698 199.492 187.956 198.541 188.455C197.588 188.955 196.52 189.702 195.339 190.692L195.338 190.692C192.604 192.997 191.201 195.291 191.196 197.576C191.153 198.609 191.506 199.618 192.182 200.4L192.183 200.4C192.502 200.762 192.896 201.049 193.338 201.241C193.779 201.432 194.257 201.524 194.737 201.511C196.763 201.51 198.94 200.167 201.267 197.557L201.267 197.557C203.166 195.404 204.137 193.355 204.142 191.414C204.179 190.448 203.877 189.5 203.289 188.732Z" fill="#FBF8F3" stroke="#FBF8F3" stroke-width="0.3"/>
<path d="M213.314 197.559L213.31 197.569L213.308 197.578C213.126 198.374 212.717 199.1 212.13 199.667L212.13 199.667L212.126 199.671C211.642 200.174 210.978 200.464 210.279 200.479C209.535 200.433 208.801 200.283 208.099 200.032L208.098 200.031C207.201 199.72 206.264 199.538 205.315 199.491L205.315 199.49L205.308 199.49C204.799 199.491 204.299 199.59 203.834 199.777C204.874 198.895 206.396 198.047 208.413 197.238L208.413 197.237C210.527 196.382 211.949 195.765 212.676 195.389L212.676 195.389L212.678 195.388C213.45 194.966 214.164 194.446 214.8 193.839C215.252 193.445 215.615 192.961 215.867 192.417C216.119 191.873 216.254 191.282 216.262 190.682C216.272 190.277 216.191 189.876 216.024 189.507C215.856 189.139 215.607 188.813 215.296 188.554L215.296 188.554L215.294 188.553C214.597 187.996 213.722 187.711 212.831 187.75L212.83 187.75C211.128 187.833 209.487 188.414 208.111 189.42C206.056 190.777 204.986 192.261 204.985 193.879C204.971 194.176 205.019 194.473 205.126 194.751C205.232 195.029 205.396 195.283 205.605 195.496L205.605 195.496L205.609 195.5C205.828 195.707 206.087 195.868 206.369 195.973C206.651 196.078 206.952 196.125 207.253 196.112L207.253 196.112L207.255 196.112C208.052 196.066 208.823 195.815 209.494 195.384C210.326 194.904 211.067 194.281 211.682 193.542C212.04 193.119 212.312 192.752 212.496 192.443C212.675 192.141 212.78 191.875 212.782 191.654C212.784 191.626 212.78 191.597 212.77 191.57C212.76 191.54 212.742 191.512 212.72 191.49C212.697 191.468 212.67 191.45 212.64 191.44C212.612 191.43 212.583 191.426 212.554 191.428C212.489 191.43 212.43 191.457 212.386 191.503C212.346 191.545 212.322 191.596 212.305 191.647C211.828 192.744 211.071 193.697 210.11 194.41L210.104 194.415L210.098 194.42C209.303 195.145 208.288 195.583 207.215 195.664C206.677 195.664 206.301 195.55 206.06 195.349C205.824 195.151 205.695 194.849 205.695 194.415C205.695 193.198 206.499 191.849 208.18 190.368C209.858 188.89 211.396 188.171 212.799 188.171V188.172L212.807 188.171C213.328 188.144 213.843 188.294 214.269 188.597C214.434 188.729 214.567 188.899 214.656 189.091C214.745 189.285 214.788 189.496 214.781 189.709C214.7 191.108 214.085 192.423 213.062 193.381L213.062 193.381L213.058 193.386C211.676 194.792 210.038 195.923 208.232 196.717L208.232 196.717L208.229 196.719C206.577 197.493 205.43 198.074 204.794 198.459L204.794 198.459L204.79 198.462C204.151 198.876 203.562 199.364 203.037 199.915C202.508 200.337 202.143 200.931 202.003 201.593L202.003 201.593L202.002 201.599C201.995 201.636 201.998 201.673 202.009 201.709C202.021 201.744 202.04 201.777 202.067 201.803C202.093 201.829 202.125 201.849 202.161 201.86C202.192 201.87 202.225 201.874 202.257 201.87C202.361 201.866 202.443 201.811 202.494 201.727C202.541 201.651 202.561 201.554 202.568 201.454C202.613 201.145 202.738 200.93 202.935 200.788C203.136 200.644 203.43 200.562 203.835 200.561C204.696 200.67 205.543 200.869 206.362 201.156L206.363 201.156C207.205 201.445 208.082 201.618 208.971 201.671L208.971 201.671L208.981 201.671C209.778 201.662 210.559 201.454 211.254 201.065C211.945 200.678 212.529 200.124 212.952 199.454C213.427 198.902 213.731 198.225 213.827 197.503L213.832 197.467L213.82 197.432C213.807 197.397 213.786 197.366 213.758 197.341C213.729 197.317 213.696 197.3 213.659 197.292L213.625 197.284L213.591 197.293C213.522 197.31 213.459 197.338 213.407 197.393C213.36 197.444 213.334 197.506 213.314 197.559Z" fill="#FBF8F3" stroke="#FBF8F3" stroke-width="0.3"/>
<path d="M220.539 197.238L220.539 197.237C222.653 196.382 224.076 195.765 224.802 195.389L224.802 195.389L224.804 195.388C225.577 194.968 226.291 194.447 226.926 193.839C227.379 193.446 227.743 192.962 227.995 192.418C228.248 191.874 228.381 191.282 228.388 190.682C228.4 190.277 228.319 189.875 228.152 189.507C227.984 189.137 227.734 188.811 227.421 188.554L227.421 188.554L227.42 188.553C226.723 187.996 225.848 187.711 224.957 187.75L224.956 187.75C223.254 187.834 221.614 188.415 220.237 189.42C218.182 190.777 217.112 192.261 217.111 193.879C217.097 194.176 217.145 194.473 217.252 194.751C217.358 195.029 217.522 195.283 217.732 195.496L217.731 195.496L217.735 195.5C217.954 195.707 218.213 195.868 218.495 195.973C218.778 196.078 219.078 196.125 219.379 196.112L219.381 196.112C220.178 196.067 220.95 195.817 221.621 195.384C222.449 194.901 223.187 194.278 223.801 193.542C224.157 193.119 224.429 192.752 224.613 192.443C224.794 192.139 224.902 191.871 224.902 191.648L224.902 191.646C224.902 191.637 224.902 191.617 224.899 191.598C224.896 191.575 224.888 191.538 224.859 191.502C224.802 191.431 224.715 191.428 224.675 191.428C224.644 191.428 224.608 191.431 224.571 191.446C224.532 191.463 224.501 191.489 224.479 191.52C224.46 191.547 224.448 191.576 224.441 191.595C224.436 191.61 224.431 191.628 224.426 191.643C224.426 191.645 224.425 191.646 224.425 191.647C223.944 192.743 223.188 193.695 222.229 194.41L222.224 194.415L222.218 194.419C221.42 195.144 220.403 195.582 219.328 195.664C218.79 195.664 218.414 195.55 218.174 195.349C217.938 195.151 217.809 194.849 217.809 194.415C217.809 193.198 218.622 191.85 220.325 190.368C222.024 188.89 223.563 188.171 224.945 188.171V188.172L224.952 188.171C225.472 188.145 225.985 188.295 226.408 188.597C226.576 188.729 226.71 188.898 226.8 189.09C226.89 189.284 226.933 189.496 226.926 189.709C226.842 191.107 226.227 192.421 225.208 193.381L225.208 193.381L225.204 193.385C223.818 194.791 222.178 195.922 220.371 196.717L220.371 196.717L220.368 196.719C218.719 197.495 217.569 198.076 216.939 198.459L216.939 198.459L216.936 198.461C216.292 198.874 215.7 199.364 215.176 199.921C214.85 200.247 214.594 200.557 214.418 200.839C214.243 201.119 214.138 201.387 214.138 201.624C214.138 201.679 214.152 201.75 214.21 201.805C214.266 201.858 214.336 201.87 214.391 201.87C214.496 201.87 214.575 201.802 214.621 201.733C214.67 201.661 214.702 201.566 214.713 201.455C214.754 201.146 214.878 200.93 215.076 200.788C215.277 200.644 215.572 200.562 215.98 200.561C216.841 200.67 217.689 200.869 218.508 201.156L218.509 201.156C219.35 201.445 220.228 201.618 221.116 201.671L221.116 201.671L221.127 201.671C221.923 201.662 222.704 201.454 223.399 201.065C224.091 200.677 224.675 200.124 225.098 199.453C225.568 198.9 225.87 198.223 225.966 197.503L225.971 197.471L225.961 197.44C225.95 197.402 225.927 197.367 225.897 197.341C225.867 197.314 225.83 197.297 225.79 197.29L225.778 197.289H225.766C225.694 197.289 225.627 197.316 225.575 197.371C225.528 197.422 225.502 197.486 225.486 197.55L225.486 197.55L225.485 197.553C225.306 198.35 224.896 199.076 224.308 199.641L224.308 199.641L224.304 199.645C223.827 200.141 223.175 200.43 222.488 200.453C221.742 200.408 221.006 200.257 220.302 200.006L220.301 200.006C219.404 199.695 218.467 199.512 217.518 199.465L217.518 199.465L217.511 199.465C216.988 199.466 216.475 199.57 215.999 199.767C217.009 198.893 218.517 198.049 220.539 197.238Z" fill="#FBF8F3" stroke="#FBF8F3" stroke-width="0.3"/>
<path d="M159.544 99.9506L159.544 99.9506C158.94 99.9518 158.35 99.7739 157.847 99.4393C157.344 99.1047 156.952 98.6285 156.72 98.0709C156.488 97.5134 156.427 96.8996 156.544 96.3071C156.661 95.7147 156.951 95.1703 157.378 94.7429C157.804 94.3155 158.348 94.0242 158.94 93.9059C159.532 93.7877 160.146 93.8477 160.704 94.0785C161.262 94.3093 161.739 94.7005 162.075 95.2025C162.411 95.7045 162.59 96.2948 162.59 96.8987L162.69 96.8987L162.59 96.8989C162.591 97.2994 162.512 97.6961 162.36 98.0663C162.207 98.4365 161.983 98.773 161.7 99.0564C161.417 99.3399 161.081 99.5648 160.711 99.7182C160.341 99.8716 159.945 99.9506 159.544 99.9506Z" fill="#FBF8F3" stroke="#FBF8F3" stroke-width="0.2"/>
<path d="M141.563 68.7466L141.509 68.7116C136.714 65.5747 130.786 64.0012 123.718 63.9969L123.718 63.9969C114.543 63.957 105.605 66.9115 98.2612 72.4119L98.2602 72.4127L98.2602 72.4127C90.5718 78.0252 86.7465 84.219 86.7465 90.9929C86.7465 94.344 87.745 97.0063 89.7342 98.9912C91.7235 100.976 94.3754 101.975 97.7007 101.979C102.803 101.979 107.982 99.611 113.239 94.8538C118.497 90.0955 121.11 85.3999 121.115 80.7668C121.115 78.8715 120.602 77.4643 119.593 76.5263C118.583 75.587 117.058 75.1023 115 75.0895C110.699 75.0896 106.496 76.8571 102.388 80.4061C98.2785 83.9564 96.2428 87.5901 96.2471 91.3073L96.2471 91.3107L96.247 91.3107C96.203 92.6697 96.6167 94.004 97.4217 95.0998L97.4238 95.1028L97.4238 95.1029C97.7408 95.5695 98.1666 95.952 98.6646 96.2173C99.1625 96.4825 99.7175 96.6226 100.282 96.6254C100.505 96.6253 100.661 96.6013 100.757 96.5609C100.804 96.5412 100.831 96.5197 100.847 96.5005C100.861 96.4829 100.868 96.463 100.868 96.4365C100.868 96.3842 100.844 96.3345 100.764 96.2921C100.679 96.247 100.537 96.2155 100.326 96.2155H100.326C99.9241 96.2143 99.5275 96.1262 99.1632 95.9573C98.7997 95.7887 98.4769 95.5437 98.2169 95.2389C97.6255 94.6202 97.3024 93.7929 97.3181 92.937C97.3185 89.3882 99.3952 85.6046 103.511 81.5876C107.627 77.5699 111.503 75.5464 115.136 75.5507M141.563 68.7466L98.2911 95.1719C97.7165 94.5718 97.4026 93.7687 97.4181 92.938C97.4181 89.4287 99.4723 85.6691 103.581 81.6592C107.689 77.6492 111.541 75.6464 115.135 75.6507C118.722 75.6507 120.515 77.3946 120.515 80.8824C120.515 85.269 117.932 89.7861 112.767 94.4337C107.601 99.0813 102.599 101.405 97.7583 101.405C94.7926 101.405 92.4388 100.609 90.6971 99.0171C89.8242 98.1993 89.1391 97.2018 88.6891 96.0936C88.2392 94.9853 88.035 93.7926 88.0908 92.5977M141.563 68.7466L141.617 68.7128M141.563 68.7466L141.617 68.7128M115.136 75.5507L115.135 75.6499V75.5507C115.136 75.5507 115.136 75.5507 115.136 75.5507ZM115.136 75.5507C116.943 75.5507 118.318 75.9902 119.24 76.8869C120.162 77.7842 120.615 79.1224 120.615 80.8824C120.615 85.3103 118.008 89.8523 112.834 94.508C107.658 99.165 102.632 101.505 97.7583 101.505C94.7743 101.505 92.3942 100.704 90.6296 99.0909L90.6287 99.09C89.7452 98.2624 89.0519 97.2528 88.5965 96.1312C88.1414 95.0102 87.9347 93.8039 87.9908 92.5954M87.9908 92.5954C87.9908 92.5962 87.9908 92.597 87.9908 92.5977H88.0908M87.9908 92.5954C87.9908 92.5946 87.9909 92.5938 87.9909 92.5931L88.0908 92.5977M87.9908 92.5954C87.9917 87.2327 91.0974 81.5366 97.2712 75.5085M88.0908 92.5977C88.0908 87.274 91.1742 81.6014 97.3411 75.5801M97.3411 75.5801L97.2712 75.5086C97.2712 75.5086 97.2712 75.5085 97.2712 75.5085M97.3411 75.5801L97.2712 75.5085M97.3411 75.5801L123.468 88.352C126.065 84.4835 128.937 80.8062 132.06 77.3482L132.061 77.3479C135.358 73.6654 138.157 71.0339 140.459 69.4485L140.566 69.3746L140.467 69.2901C136.689 66.0676 131.147 64.4645 123.859 64.4645C113.664 64.4645 104.8 68.1472 97.2712 75.5085M141.617 68.7128C146.013 65.977 150.257 64.6132 154.351 64.6131C157.557 64.6174 160.126 65.5711 162.068 67.467C164.015 69.3755 165.001 71.8904 165.023 75.0216L141.617 68.7128ZM141.023 69.7724L141.084 69.8362C143.049 71.8854 144.147 74.6143 144.148 77.4534C144.214 80.5566 143.163 83.5801 141.185 85.9725L141.185 85.9727C139.204 88.3548 136.824 89.5523 134.047 89.5523H134.045C132.443 89.5259 130.876 89.0782 129.502 88.2542L129.499 88.2526L129.499 88.2526C129.338 88.1489 129.156 88.0798 128.966 88.0499L141.023 69.7724ZM141.023 69.7724L140.952 69.8252M141.023 69.7724L140.952 69.8252M140.952 69.8252C135.721 73.7252 130.752 80.6066 126.042 90.4555L140.952 69.8252Z" fill="#FBF8F3" stroke="#FBF8F3" stroke-width="0.2"/>
<path d="M173.115 88.5087C174.688 90.5179 176.6 91.5258 178.834 91.5258C179.991 91.5585 181.124 91.1937 182.044 90.4923C182.442 90.2059 182.766 89.8288 182.989 89.3924C183.212 88.9559 183.329 88.4726 183.328 87.9823C183.328 86.493 182.558 85.7484 181.017 85.7484C180.271 85.7292 179.545 85.9851 178.976 86.4673C178.712 86.673 178.499 86.9359 178.352 87.2362C178.205 87.5365 178.129 87.8663 178.128 88.2006C178.128 89.3817 178.77 89.9723 180.054 89.9723M173.115 88.5087L173.194 88.4477C173.194 88.4476 173.194 88.4475 173.194 88.4474M173.115 88.5087C171.511 86.427 170.675 83.8559 170.746 81.2292C170.746 76.9624 172.601 73.0488 176.312 69.4882L173.115 88.5087ZM173.194 88.4474C174.751 90.4361 176.636 91.4258 178.834 91.4258H178.837L178.837 91.4258C179.971 91.4579 181.081 91.1003 181.983 90.4127L181.986 90.4111L181.986 90.4111C182.371 90.134 182.684 89.7692 182.9 89.3468C183.116 88.9245 183.229 88.4568 183.228 87.9824V87.9823C183.228 87.254 183.04 86.7259 182.681 86.3788C182.321 86.0311 181.773 85.8484 181.017 85.8484H181.014L181.014 85.8483C180.293 85.8298 179.591 86.0773 179.04 86.5436L179.037 86.5462L179.037 86.5462C178.786 86.7425 178.582 86.9935 178.442 87.2801C178.302 87.5668 178.229 87.8816 178.228 88.2007M173.194 88.4474C171.604 86.384 170.775 83.8355 170.846 81.2319H170.846V81.2292C170.846 76.9952 172.686 73.1062 176.381 69.5604L176.381 69.5603C180.761 65.3464 186.921 63.2331 194.876 63.2331C199.315 63.2331 205.216 64.151 212.582 65.9904L212.617 65.9989L212.649 65.9841C216.263 64.3084 220.214 63.4836 224.198 63.5733L224.198 63.5734L224.203 63.5732C227.039 63.4934 229.867 63.9263 232.549 64.8512C233.698 65.2896 234.554 65.7707 235.122 66.2913C235.689 66.8105 235.967 67.3646 235.976 67.9548C235.976 68.3431 235.887 68.6777 235.712 68.9624C235.538 69.2475 235.274 69.4882 234.917 69.6828C234.198 70.0737 233.107 70.2741 231.633 70.2741C230.465 70.2741 228.493 70.0052 225.711 69.4639C222.932 68.9229 219.351 68.1113 214.967 67.0288L214.928 67.0192L214.894 67.039C210.783 69.3825 208.706 72.3485 208.706 75.9396V75.9399C208.711 77.6763 209.31 78.8955 210.523 79.5643L210.55 79.5788L210.58 79.5763C212.274 79.4352 213.554 79.3648 214.423 79.3648C215.673 79.3648 216.602 79.4387 217.216 79.5852C217.524 79.6586 217.744 79.7483 217.885 79.8497C218.024 79.9493 218.079 80.0537 218.079 80.1636C218.079 80.2264 218.053 80.2845 217.988 80.3408C217.92 80.3996 217.811 80.4546 217.652 80.5008C217.333 80.593 216.848 80.6413 216.189 80.6413C214.341 80.6211 212.503 80.3808 210.712 79.9254L210.691 79.9201L210.67 79.9238C207.415 80.4957 204.263 81.5457 201.316 83.0396C192.283 87.3741 187.734 92.9879 187.734 99.8901L173.194 88.4474ZM178.228 88.2007C178.228 88.2006 178.228 88.2006 178.228 88.2006H178.129L178.228 88.2007ZM178.228 88.2007C178.228 88.7735 178.384 89.1854 178.677 89.4558C178.972 89.7265 179.422 89.8711 180.046 89.8723M180.046 89.8723C180.044 89.8727 180.041 89.8731 180.039 89.8735L180.054 89.9723M180.046 89.8723C180.049 89.8723 180.052 89.8723 180.054 89.8723V89.9723M180.046 89.8723C180.274 89.8376 180.462 89.8349 180.598 89.8777C180.669 89.8999 180.732 89.9362 180.776 89.9922C180.821 90.0491 180.841 90.1175 180.841 90.1906C180.841 90.4652 180.621 90.6405 180.29 90.7449C179.954 90.8508 179.46 90.9004 178.815 90.9004H178.815C177.872 90.8946 176.943 90.6692 176.102 90.2421C175.263 89.8153 174.533 89.1989 173.973 88.4417M180.054 89.9723C180.51 89.9017 180.741 89.9723 180.741 90.1906C180.741 90.6014 180.099 90.8004 178.815 90.8004L184.063 98.4392C184.064 95.0036 185.494 91.7705 188.369 88.738C191.244 85.7053 195.08 83.4065 199.882 81.8443C203.115 80.7957 206.447 80.0788 209.825 79.7045L210.205 79.6623L209.853 79.513C208.527 78.9509 207.541 78.2281 206.885 77.3483C206.231 76.4696 205.902 75.4282 205.902 74.2192C205.902 71.1376 207.819 68.5288 211.705 66.3983L211.931 66.274L211.68 66.2134C206.087 64.8644 201.467 64.1885 197.823 64.1885H197.823C190.671 64.1928 184.573 65.9799 179.534 69.5543C174.495 73.1287 171.962 77.4656 171.962 82.5631M173.973 88.4417C173.974 88.4423 173.974 88.4429 173.975 88.4435L174.052 88.3803L173.972 88.4398C173.972 88.4404 173.973 88.441 173.973 88.4417ZM173.973 88.4417C172.622 86.7854 171.909 84.7 171.962 82.5631M171.962 82.5631C171.962 82.5635 171.962 82.564 171.962 82.5644H172.062L171.962 82.5619C171.962 82.5623 171.962 82.5627 171.962 82.5631ZM202.744 91.5003V91.4858L202.578 91.6301C197.624 95.9455 195.129 100.372 195.129 104.91L195.129 104.912C195.161 106.339 195.579 107.73 196.339 108.937L196.362 108.973L196.404 108.982C197.678 109.237 198.974 109.371 200.274 109.382H200.275C206 109.382 211.584 107.404 217.024 103.457C222.46 99.513 225.205 95.4601 225.205 91.2955C225.205 91.2957 225.205 91.296 225.205 91.2963L202.744 91.5003ZM202.744 91.5003C207.647 87.3046 212.676 85.1995 217.83 85.199C219.735 85.1268 221.603 85.7351 223.1 86.915L202.744 91.5003ZM231.997 69.8386H231.897C227.521 69.8386 222.139 68.7997 215.753 66.7267L215.527 66.6532L215.738 66.5429C218.738 64.9769 222.08 64.179 225.464 64.2206C227.802 64.1793 230.129 64.5483 232.34 65.311L232.341 65.3114C233.341 65.6727 234.1 66.0659 234.61 66.4923C235.121 66.919 235.392 67.3872 235.392 67.8952M231.997 69.8386L235.292 67.8962M231.997 69.8386V69.8253M231.997 69.8386V69.8253M235.392 67.8952C235.392 67.8955 235.392 67.8959 235.392 67.8962H235.292M235.392 67.8952C235.392 67.8948 235.392 67.8944 235.392 67.8941L235.292 67.8962M235.392 67.8952C235.399 68.2148 235.327 68.4999 235.176 68.7463C235.024 68.9926 234.796 69.1946 234.499 69.354C233.925 69.662 233.084 69.8164 231.997 69.8253M235.292 67.8962C235.318 69.1095 234.156 69.7257 231.897 69.7257H231.997V69.7386V69.8253" fill="#FBF8F3" stroke="#FBF8F3" stroke-width="0.2"/>
</g>
<defs>
<filter id="filter0_d_140_74" x="0" y="0" width="325.249" height="260.232" filterUnits="userSpaceOnUse" color-interpolation-filters="sRGB">
<feFlood flood-opacity="0" result="BackgroundImageFix"/>
<feColorMatrix in="SourceAlpha" type="matrix" values="0 0 0 0 0 0 0 0 0 0 0 0 0 0 0 0 0 0 127 0" result="hardAlpha"/>
<feOffset dy="4"/>
<feGaussianBlur stdDeviation="5"/>
<feComposite in2="hardAlpha" operator="out"/>
<feColorMatrix type="matrix" values="0 0 0 0 0.275 0 0 0 0 0.245536 0 0 0 0 0.223438 0 0 0 0.6 0"/>
<feBlend mode="normal" in2="BackgroundImageFix" result="effect1_dropShadow_140_74"/>
<feBlend mode="normal" in="SourceGraphic" in2="effect1_dropShadow_140_74" result="shape"/>
</filter>
</defs>
</svg>
