<svg width="213" height="168" viewBox="0 0 213 168" fill="none" xmlns="http://www.w3.org/2000/svg">
<path d="M173.923 130.852C156.479 155.713 126.504 168.748 96.4262 165.151C70.8199 162.09 47.927 146.484 34.9855 124.319C26.9529 110.583 23.3829 94.6606 24.0567 78.823C24.0567 78.5195 22.7893 79.3719 22.767 79.8761C22.2006 92.7206 24.5887 105.524 29.7474 117.3C34.9062 129.077 42.698 139.513 52.5234 147.805C72.6898 164.79 100.353 170.823 125.875 164.629C145.755 159.805 163.217 147.288 174.914 130.62C175.547 129.727 174.195 130.464 173.923 130.852V130.852Z" fill="#FBF8F3"/>
<path d="M30.9959 117.366C26.8502 113.908 21.8432 112.185 16.805 110.449C10.8519 108.405 5.29154 105.924 0.882522 101.301L0.494279 102.024C6.57676 100.721 12.6101 101.038 18.1303 104.081C23.6505 107.125 27.4348 112.56 30.2908 117.982C30.5184 118.428 31.2503 117.857 31.0495 117.478C28.064 111.797 24.2396 106.602 18.6346 103.3C13.1769 100.069 6.67047 99.9042 0.61923 101.203C0.347014 101.261 -0.0323043 101.649 0.230987 101.93C4.28746 106.21 9.29446 108.709 14.779 110.672C20.2634 112.636 25.806 114.242 30.3444 118.018C30.6925 118.312 31.3395 117.652 30.9959 117.366Z" fill="#FBF8F3"/>
<path d="M0.476527 101.805C5.91688 103.247 11.1617 105.345 16.0955 108.053C20.6696 110.552 26.2166 112.734 29.3493 117.04C29.4787 117.219 29.7956 116.897 29.6751 116.714C26.5067 112.368 20.9329 110.208 16.3499 107.673C11.3846 104.952 6.10269 102.854 0.623792 101.426C0.418514 101.372 0.20431 101.76 0.463139 101.827L0.476527 101.805Z" fill="#FBF8F3"/>
<path d="M6.38945 106.281C8.1477 106.049 9.83455 105.696 11.624 105.732C11.8338 105.732 12.0435 105.335 11.7847 105.331C9.96843 105.29 8.24141 105.643 6.45192 105.879C6.23772 105.911 6.10384 106.326 6.38945 106.281Z" fill="#FBF8F3"/>
<path d="M14.4576 106.656C13.4666 104.896 12.6247 103.055 11.9407 101.154C11.8515 100.926 11.4945 101.203 11.5614 101.404C12.2461 103.305 13.0895 105.146 14.0828 106.906C14.2032 107.116 14.5692 106.839 14.4576 106.656Z" fill="#FBF8F3"/>
<path d="M12.4809 109.606C14.3016 109.463 16.1134 109.28 17.9207 109.021C18.1349 108.99 18.2688 108.575 17.9832 108.624C16.1982 108.883 14.3641 109.07 12.5433 109.204C12.3247 109.204 12.1953 109.628 12.4809 109.606V109.606Z" fill="#FBF8F3"/>
<path d="M20.1563 109.78C18.7952 107.383 17.7465 104.835 16.5015 102.381C16.3899 102.162 16.024 102.439 16.1221 102.631C17.3672 105.09 18.4382 107.638 19.777 110.034C19.8975 110.248 20.2634 109.967 20.1563 109.784V109.78Z" fill="#FBF8F3"/>
<path d="M23.2311 111.453C22.0262 111.315 20.8392 111.619 19.6343 111.61C19.4245 111.61 19.2148 112.011 19.4736 112.016C20.6741 112.016 21.87 111.721 23.0705 111.86C23.2802 111.882 23.4944 111.485 23.2311 111.453Z" fill="#FBF8F3"/>
<path d="M24.6101 112.288C24.021 110.333 23.49 108.352 22.7626 106.442C22.6778 106.219 22.3163 106.491 22.3877 106.696C23.1106 108.606 23.6417 110.583 24.2307 112.538C24.2977 112.765 24.677 112.493 24.6101 112.288Z" fill="#FBF8F3"/>
<path d="M23.7935 79.6397C24.686 72.8477 23.1196 66.2832 21.5399 59.7143C19.6299 51.7754 18.4161 43.957 20.4287 35.8976L19.4916 36.3974C24.9895 41.9489 28.8094 48.607 29.4252 56.5281C30.05 64.6455 26.7923 72.6245 22.8519 79.5326C22.4681 80.2064 23.3338 80.492 23.6641 79.903C27.6804 72.8343 30.6748 65.1765 30.4963 56.9118C30.3178 48.6472 26.0337 41.2929 20.3127 35.554C19.9557 35.2015 19.4603 35.7236 19.3755 36.0538C17.5459 43.2876 18.2733 50.4277 19.8932 57.6392C21.5443 64.9712 23.7444 72.2006 22.7448 79.8004C22.6466 80.5322 23.6998 80.1931 23.7712 79.6397H23.7935Z" fill="#FBF8F3"/>
<path d="M19.6477 36.1476C21.8045 42.8229 23.1529 49.7327 23.664 56.729C24.1549 63.5166 25.7391 71.4555 23.1509 77.886C23.008 78.2475 23.5168 78.2207 23.6283 77.9396C26.1452 71.692 24.6681 64.3154 24.262 57.7554C23.809 50.2974 22.4222 42.9257 20.1342 35.8129C20.0404 35.5229 19.5629 35.8754 19.6477 36.1387V36.1476Z" fill="#FBF8F3"/>
<path d="M18.8847 45.6082C20.3484 47.3531 21.9103 48.9373 23.0973 50.9008C23.2624 51.1686 23.7265 50.8116 23.5837 50.575C22.3744 48.5803 20.7902 46.9648 19.3086 45.1887C19.1212 44.9701 18.6972 45.3851 18.8847 45.6082V45.6082Z" fill="#FBF8F3"/>
<path d="M24.0075 54.4442C25.2169 52.1754 26.6173 50.0137 28.1934 47.9824C28.4255 47.6656 27.9792 47.5362 27.7829 47.795C26.1832 49.8716 24.7592 52.0778 23.5256 54.3907C23.356 54.7388 23.8737 54.7075 24.0075 54.4442Z" fill="#FBF8F3"/>
<path d="M19.4915 54.5288C20.9016 56.3986 22.352 58.2417 23.8826 60.0178C24.07 60.232 24.494 59.817 24.3021 59.5715C22.7714 57.7865 21.3211 55.9613 19.9109 54.087C19.7414 53.8594 19.3174 54.27 19.4915 54.5065V54.5288Z" fill="#FBF8F3"/>
<path d="M24.5475 62.7623C26.1852 59.6385 28.2157 56.7824 29.9963 53.7568C30.1971 53.4221 29.7598 53.2838 29.5902 53.5738C27.8052 56.6396 25.7345 59.5581 24.07 62.7132C23.8915 63.0523 24.4136 63.0211 24.5475 62.7623V62.7623Z" fill="#FBF8F3"/>
<path d="M24.8555 67.2337C24.1816 65.828 23.0258 64.757 22.2047 63.445C22.0396 63.1773 21.571 63.5343 21.7183 63.7663C22.535 65.0783 23.6952 66.1538 24.3691 67.555C24.5074 67.8362 24.9804 67.4836 24.8555 67.2337Z" fill="#FBF8F3"/>
<path d="M24.8287 69.4472C26.5557 67.4346 28.3541 65.48 29.9339 63.3469C30.1659 63.0345 29.7197 62.9006 29.5233 63.1639C27.9748 65.2524 26.2121 67.1802 24.5163 69.1393C24.2798 69.416 24.5832 69.7283 24.8287 69.4472V69.4472Z" fill="#FBF8F3"/>
<path d="M9.33015 92.3759C8.50904 91.1844 8.74556 89.1495 8.91513 87.7884C8.69201 87.9669 8.46888 88.1498 8.25467 88.3328C9.55746 88.4472 10.8296 88.7917 12.0122 89.3503C12.5617 89.6564 12.9691 90.1659 13.1468 90.7692C13.3246 91.3726 13.2585 92.0216 12.9627 92.5767C12.1416 94.0672 10.1825 93.3577 9.33015 92.3759C8.98653 91.9787 8.21451 92.7374 8.56705 93.139C9.00516 93.6772 9.60784 94.0566 10.2825 94.2191C10.9572 94.3816 11.6665 94.318 12.3016 94.0382C12.9367 93.7585 13.4623 93.2779 13.7978 92.6705C14.1333 92.063 14.2601 91.3622 14.1586 90.6757C13.8552 88.1588 10.6689 87.6233 8.63399 87.3867C8.47795 87.3854 8.32647 87.4393 8.20639 87.5389C8.08632 87.6386 8.0054 87.7776 7.97799 87.9312C7.77272 89.5689 7.58529 91.7199 8.56705 93.139C8.85712 93.5852 9.63361 92.8132 9.33015 92.3759V92.3759Z" fill="#FBF8F3"/>
<path d="M12.5567 93.6477C13.8955 95.4327 16.1267 95.7049 18.1528 96.2895C22.3833 97.5167 24.5342 100.868 25.8462 104.898C25.9489 105.215 26.4799 104.831 26.3817 104.536C25.2527 101.06 23.5435 97.9585 20.1341 96.343C17.8002 95.2363 14.6809 95.4104 13.0208 93.1835C12.8334 92.9292 12.3648 93.3844 12.5745 93.6298L12.5567 93.6477Z" fill="#FBF8F3"/>
<path d="M33.3745 78.4839C33.4771 77.3014 32.6917 76.1188 32.0357 75.1995C31.9286 75.0522 31.6653 75.1236 31.5493 75.1995C30.3801 76.0295 28.7022 77.3683 29.1484 78.9882C29.261 79.4718 29.5461 79.8978 29.9503 80.1861C30.3545 80.4745 30.8501 80.6055 31.344 80.5546C32.4284 80.4966 33.1647 79.4389 33.3834 78.4839C33.5173 77.9127 32.656 78.1805 32.5534 78.6134C32.0446 80.8134 29.0859 79.2203 30.1257 77.5111C30.5773 76.8546 31.1553 76.2947 31.826 75.8644H31.3351C31.8572 76.5873 32.6114 77.6718 32.531 78.6C32.4775 79.1935 33.3209 78.9257 33.3611 78.4705L33.3745 78.4839Z" fill="#FBF8F3"/>
<path d="M30.7371 80.1796C30.5809 82.4109 27.533 83.2721 26.0425 84.5083C23.9317 86.2531 23.423 88.9396 23.4676 91.5413C23.4676 91.7867 23.8514 91.5859 23.8469 91.3896C23.78 87.5428 25.2437 85.142 28.4701 83.2498C29.733 82.5046 31.0049 81.7147 31.1164 80.126C31.1164 79.8538 30.755 79.9743 30.7371 80.1796V80.1796Z" fill="#FBF8F3"/>
<path d="M7.35323 76.5604C6.90697 75.3465 7.54066 73.6775 7.97799 72.5441L7.08547 73.026C8.21008 73.4117 9.2583 73.9917 10.1825 74.7396C10.5628 75.0777 10.8012 75.547 10.85 76.0535C10.8989 76.56 10.7545 77.0662 10.4458 77.4707C9.47295 78.6533 7.86642 77.5734 7.34877 76.5782C7.02746 75.9579 5.98322 76.7478 6.26882 77.2967C7.70131 80.0456 11.3606 79.3584 11.9764 76.4042C12.4986 73.9453 9.65591 72.6333 7.80395 71.9416C7.62185 71.8955 7.42909 71.9195 7.26381 72.0087C7.09853 72.098 6.97278 72.246 6.91143 72.4236C6.35361 73.865 5.711 75.7705 6.26436 77.2922C6.49642 77.9304 7.55404 77.1539 7.3443 76.5738L7.35323 76.5604Z" fill="#FBF8F3"/>
<path d="M9.83003 78.5061C10.6824 81.1122 12.9538 82.9062 14.8281 84.7938C18.097 88.0083 20.1208 92.2774 20.5402 96.8428C20.5714 97.1864 21.0891 96.9097 21.0623 96.633C20.7036 92.5655 19.0771 88.7133 16.4123 85.6194C14.3685 83.2275 11.3384 81.2863 10.3209 78.1803C10.2272 77.8858 9.74524 78.2383 9.83003 78.5061V78.5061Z" fill="#FBF8F3"/>
<path d="M37.7032 129.308C39.515 123.716 37.5827 118.312 35.6236 113.037C35.4987 112.698 34.9989 112.939 34.8828 113.149C32.0982 118.348 34.2893 124.716 36.8999 129.531C37.1498 129.977 37.9308 129.397 37.7077 128.991C35.2889 124.529 32.9461 118.334 35.5612 113.461L34.8159 113.573C36.6857 118.611 38.6448 123.837 36.9089 129.219C36.708 129.83 37.547 129.785 37.7032 129.308Z" fill="#FBF8F3"/>
<path d="M37.382 129.196C33.3255 124.109 25.7793 121.494 19.8128 119.522C19.4871 119.414 18.9203 119.829 19.1434 120.195C21.6693 124.658 31.7993 135.489 37.2882 129.799C37.7345 129.353 37.2035 128.844 36.775 129.29C31.9912 134.252 22.1735 123.614 19.9512 119.66L19.2773 120.334C25.1813 122.279 32.665 124.877 36.6813 129.893C36.9803 130.267 37.6854 129.576 37.382 129.196V129.196Z" fill="#FBF8F3"/>
<path d="M47.6547 141.687C48.7302 136.85 46.7131 132.472 44.6693 128.179C44.5265 127.876 44.1293 128.152 44.0445 128.353C42.1256 132.927 44.4908 138.108 47.0077 141.946C47.2308 142.29 47.8332 141.826 47.6369 141.531C45.2048 137.84 42.8129 132.829 44.6648 128.42L44.0401 128.594C46.0304 132.775 48.0564 137.073 46.9898 141.79C46.8872 142.236 47.5789 142.035 47.6547 141.687V141.687Z" fill="#FBF8F3"/>
<path d="M47.387 141.723C43.5091 137.707 36.9803 136.078 31.719 134.837C31.6449 134.832 31.5707 134.846 31.5039 134.878C31.4372 134.911 31.3802 134.96 31.3389 135.022C31.2976 135.084 31.2734 135.155 31.2689 135.23C31.2643 135.304 31.2795 135.378 31.3129 135.444C33.7851 139.014 43.0896 147.337 47.3112 142.196C47.6102 141.834 47.2219 141.424 46.914 141.799C43.1387 146.391 34.1064 138.148 31.8573 134.9L31.4512 135.506C36.5608 136.711 43.0762 138.358 46.8426 142.267C47.1059 142.54 47.6459 141.995 47.387 141.723V141.723Z" fill="#FBF8F3"/>
<path d="M56.7361 149.666C56.7897 145.9 54.5049 142.914 52.3137 140.063C52.1754 139.884 51.9121 140.157 51.8675 140.295C51.1624 144.012 53.7819 147.511 56.2899 149.956C56.4818 150.144 56.87 149.756 56.6737 149.568C54.2594 147.207 51.6622 143.816 52.345 140.224L51.8987 140.456C54.0631 143.254 56.281 146.15 56.2319 149.858C56.2319 150.166 56.7049 149.912 56.7094 149.666H56.7361Z" fill="#FBF8F3"/>
<path d="M56.5309 149.764C52.9876 147.417 47.8735 147.239 43.7679 147.158C43.5939 147.158 43.2904 147.417 43.4779 147.604C45.9457 149.889 54.188 154.62 56.571 150.09C56.7361 149.773 56.339 149.644 56.1917 149.921C54.0765 153.937 46.084 149.273 43.8661 147.216L43.576 147.662C47.6548 147.743 52.7288 147.921 56.2319 150.242C56.4416 150.385 56.7718 149.952 56.5309 149.796V149.764Z" fill="#FBF8F3"/>
<path d="M38.6984 35.9556C56.3211 10.9875 86.6086 -1.95393 116.838 1.95081C142.4 5.25757 165.141 21.0685 177.872 43.3411C185.66 56.9564 189.118 72.678 188.422 88.297C188.422 88.6005 189.689 87.7481 189.712 87.2439C190.299 74.3793 187.922 61.5519 182.764 49.752C177.607 37.9521 169.806 27.4956 159.964 19.1897C139.758 2.1784 112.023 -3.8416 86.4613 2.41046C66.7189 7.24342 49.3729 19.6627 37.7077 36.1921C37.0741 37.0846 38.4262 36.3438 38.6984 35.9556Z" fill="#FBF8F3"/>
<path d="M181.492 49.6244C185.637 53.0829 190.644 54.8055 195.678 56.5414C201.636 58.5986 207.192 61.0798 211.605 65.7298L211.989 65.0024C205.911 66.3055 199.873 65.9887 194.353 62.9496C188.833 59.9106 185.053 54.4708 182.197 49.0488C181.969 48.6025 181.237 49.1692 181.438 49.5486C184.419 55.2071 188.266 60.4015 193.853 63.7038C199.311 66.9347 205.817 67.0998 211.868 65.8012C212.141 65.7432 212.515 65.355 212.257 65.0738C208.2 60.7942 203.193 58.2952 197.704 56.3183C192.215 54.3414 186.682 52.7482 182.143 48.9729C181.795 48.6784 181.148 49.3388 181.492 49.6244V49.6244Z" fill="#FBF8F3"/>
<path d="M212.011 65.1988C206.57 63.7599 201.325 61.6619 196.392 58.9513C191.818 56.4567 186.271 54.2656 183.134 49.9636C183.004 49.7851 182.688 50.1064 182.808 50.2894C185.977 54.6359 191.55 56.8003 196.138 59.3306C201.101 62.055 206.384 64.1535 211.864 65.5782C212.069 65.6362 212.283 65.2435 212.025 65.1765L212.011 65.1988Z" fill="#FBF8F3"/>
<path d="M206.12 60.7228C204.362 60.9549 202.671 61.3119 200.886 61.2717C200.676 61.2717 200.466 61.6689 200.725 61.6778C202.541 61.7135 204.268 61.3609 206.058 61.1244C206.272 61.0977 206.402 60.6782 206.12 60.7228V60.7228Z" fill="#FBF8F3"/>
<path d="M198.03 60.3615C199.018 62.122 199.86 63.9609 200.547 65.8593C200.632 66.0869 200.993 65.8103 200.922 65.6094C200.238 63.708 199.397 61.8674 198.405 60.1071C198.28 59.8974 197.918 60.174 198.03 60.3615V60.3615Z" fill="#FBF8F3"/>
<path d="M200.002 57.3983C198.186 57.5411 196.37 57.724 194.567 57.9829C194.348 58.0141 194.219 58.4291 194.504 58.3845C196.289 58.1212 198.123 57.9382 199.94 57.7999C200.158 57.7999 200.292 57.3804 200.002 57.3983Z" fill="#FBF8F3"/>
<path d="M192.331 57.2242C193.692 59.6162 194.736 62.1688 195.986 64.6187C196.098 64.8374 196.463 64.5607 196.365 64.3688C195.116 61.9144 194.072 59.3663 192.71 56.9699C192.59 56.7601 192.224 57.0368 192.331 57.2242Z" fill="#FBF8F3"/>
<path d="M189.257 55.5507C190.461 55.6891 191.648 55.3901 192.853 55.3945C193.059 55.3945 193.273 54.9929 193.014 54.9929C191.809 54.9929 190.618 55.2874 189.417 55.1491C189.207 55.1223 188.993 55.5195 189.257 55.5507Z" fill="#FBF8F3"/>
<path d="M187.877 54.7163C188.467 56.6753 188.993 58.6522 189.721 60.5622C189.805 60.7854 190.167 60.5131 190.1 60.3123C189.372 58.4023 188.846 56.421 188.257 54.4664C188.185 54.2432 187.811 54.511 187.877 54.7163V54.7163Z" fill="#FBF8F3"/>
<path d="M188.712 87.3644C187.82 94.1564 189.39 100.721 190.97 107.29C192.88 115.229 194.094 123.047 192.081 131.106L193.014 130.607C187.498 125.037 183.678 118.397 183.062 110.48C182.433 102.359 185.695 94.3795 189.636 87.4715C190.02 86.7976 189.154 86.5165 188.819 87.1011C184.803 94.1742 181.813 101.828 181.987 110.092C182.161 118.357 186.476 125.711 192.175 131.446C192.528 131.803 193.027 131.28 193.108 130.946C194.937 123.699 194.21 116.581 192.59 109.369C190.943 102.037 188.743 94.8035 189.743 87.2082C189.837 86.4763 188.788 86.811 188.712 87.3644V87.3644Z" fill="#FBF8F3"/>
<path d="M192.84 130.866C190.681 124.191 189.332 117.281 188.824 110.284C188.333 103.497 186.744 95.5578 189.337 89.1272C189.48 88.7658 188.971 88.7925 188.855 89.0737C186.338 95.3436 187.82 102.702 188.221 109.262C188.678 116.719 190.066 124.089 192.354 131.2C192.443 131.49 192.925 131.142 192.84 130.879V130.866Z" fill="#FBF8F3"/>
<path d="M193.616 121.383C192.157 119.638 190.595 118.053 189.404 116.09C189.239 115.822 188.774 116.179 188.917 116.416C190.127 118.41 191.711 120.026 193.197 121.802C193.38 122.025 193.808 121.61 193.616 121.383Z" fill="#FBF8F3"/>
<path d="M188.462 112.578C187.248 114.846 185.848 117.008 184.276 119.044C184.044 119.357 184.49 119.49 184.687 119.227C186.287 117.152 187.709 114.945 188.94 112.631C189.114 112.288 188.596 112.315 188.462 112.578Z" fill="#FBF8F3"/>
<path d="M192.992 112.457C191.581 110.588 190.136 108.749 188.605 106.973C188.413 106.754 187.994 107.169 188.185 107.392C189.712 109.177 191.166 111.007 192.572 112.877C192.746 113.104 193.17 112.694 192.992 112.457Z" fill="#FBF8F3"/>
<path d="M187.94 104.242C186.298 107.365 184.272 110.222 182.487 113.247C182.29 113.582 182.723 113.72 182.893 113.43C184.705 110.364 186.753 107.446 188.417 104.295C188.596 103.952 188.074 103.983 187.94 104.242Z" fill="#FBF8F3"/>
<path d="M187.628 99.7703C188.306 101.176 189.462 102.251 190.278 103.559C190.448 103.827 190.912 103.47 190.765 103.238C189.948 101.93 188.788 100.85 188.114 99.449C187.98 99.1679 187.507 99.5249 187.628 99.7703Z" fill="#FBF8F3"/>
<path d="M187.659 97.5614C185.932 99.5695 184.133 101.529 182.554 103.657C182.322 103.974 182.768 104.104 182.964 103.845C184.508 101.756 186.275 99.8284 187.967 97.8649C188.203 97.5926 187.9 97.2758 187.659 97.5614V97.5614Z" fill="#FBF8F3"/>
<path d="M203.157 74.624C203.978 75.811 203.742 77.8459 203.572 79.207L204.228 78.6626C202.927 78.5497 201.657 78.2067 200.475 77.6496C199.926 77.3426 199.518 76.8323 199.34 76.2282C199.163 75.6241 199.229 74.9745 199.525 74.4187C200.346 72.9282 202.301 73.6377 203.157 74.624C203.501 75.0211 204.273 74.2625 203.92 73.8564C203.483 73.3194 202.881 72.9408 202.207 72.7784C201.534 72.6161 200.826 72.6789 200.191 72.9574C199.557 73.2358 199.031 73.7145 198.695 74.3202C198.359 74.9259 198.23 75.6251 198.329 76.3108C198.632 78.8232 201.814 79.3587 203.853 79.5953C204.01 79.5984 204.162 79.5452 204.283 79.4452C204.403 79.3452 204.484 79.2052 204.509 79.0508C204.715 77.4131 204.902 75.2621 203.92 73.843C203.63 73.4235 202.854 74.1688 203.157 74.6106V74.624Z" fill="#FBF8F3"/>
<path d="M199.931 73.3608C198.592 71.5758 196.339 71.2991 194.33 70.719C190.104 69.4873 187.949 66.1359 186.641 62.1107C186.539 61.7894 186.008 62.1732 186.101 62.4677C187.235 65.9441 188.944 69.05 192.349 70.6655C194.683 71.7677 197.802 71.5937 199.462 73.8249C199.65 74.0748 200.118 73.6197 199.909 73.3787L199.931 73.3608Z" fill="#FBF8F3"/>
<path d="M179.113 88.5202C179.006 89.7028 179.796 90.8854 180.452 91.8047C180.554 91.9519 180.822 91.8805 180.938 91.8047C182.094 90.9836 183.785 89.6493 183.339 88.0249C183.226 87.5413 182.941 87.1153 182.537 86.8269C182.133 86.5386 181.637 86.4076 181.143 86.4585C180.059 86.5165 179.323 87.5742 179.104 88.5292C178.97 89.1048 179.831 88.8326 179.934 88.3997C180.438 86.1997 183.402 87.7928 182.362 89.5065C181.9 90.1605 181.315 90.7183 180.639 91.1487H181.126C180.608 90.4257 179.849 89.3637 179.934 88.4131C179.983 87.8196 179.144 88.0874 179.104 88.5425L179.113 88.5202Z" fill="#FBF8F3"/>
<path d="M181.768 86.8244C181.924 84.6199 184.977 83.7319 186.467 82.4958C188.574 80.7509 189.087 78.0689 189.042 75.4628C189.042 75.2173 188.658 75.4181 188.663 75.6145C188.73 79.4612 187.262 81.8621 184.04 83.7542C182.772 84.4994 181.505 85.2893 181.389 86.878C181.389 87.1502 181.755 87.0253 181.768 86.82V86.8244Z" fill="#FBF8F3"/>
<path d="M205.13 90.4436C205.576 91.6619 204.947 93.3264 204.505 94.4599L205.398 93.978C204.272 93.5909 203.223 93.011 202.296 92.2643C201.917 91.9251 201.68 91.4556 201.633 90.9494C201.585 90.4433 201.729 89.9376 202.037 89.5332C203.006 88.3551 204.612 89.4306 205.13 90.4258C205.456 91.0461 206.495 90.2562 206.214 89.7117C204.782 86.9583 201.122 87.65 200.502 90.6043C199.984 93.0676 202.827 94.3751 204.679 95.0668C204.861 95.1142 205.053 95.0914 205.219 95.0029C205.384 94.9143 205.51 94.7667 205.572 94.5893C206.125 93.1435 206.772 91.2379 206.219 89.7207C205.982 89.0781 204.925 89.8545 205.134 90.4347L205.13 90.4436Z" fill="#FBF8F3"/>
<path d="M202.653 88.4979C201.805 85.8918 199.529 84.1023 197.66 82.2102C194.39 78.9964 192.366 74.727 191.947 70.1613C191.912 69.8221 191.394 70.0988 191.425 70.371C191.782 74.439 193.409 78.2919 196.075 81.3846C198.119 83.7765 201.149 85.7178 202.162 88.8282C202.256 89.1182 202.742 88.7657 202.653 88.4979Z" fill="#FBF8F3"/>
<path d="M174.784 37.696C172.972 43.2876 174.905 48.6918 176.859 53.9665C176.984 54.3057 177.489 54.0692 177.605 53.855C180.389 48.6427 178.198 42.288 175.588 37.4863C175.338 37.04 174.557 37.6201 174.78 38.0262C177.194 42.4888 179.537 48.6828 176.926 53.556L177.672 53.4444C175.802 48.4062 173.838 43.1805 175.579 37.7986C175.779 37.1828 174.94 37.2274 174.784 37.7094V37.696Z" fill="#FBF8F3"/>
<path d="M175.106 37.8076C179.162 42.895 186.708 45.5145 192.67 47.4825C193.001 47.5896 193.563 47.1746 193.344 46.8086C190.814 42.3461 180.684 31.511 175.199 37.2007C174.753 37.647 175.284 38.1557 175.708 37.7139C180.497 32.7515 190.314 43.4126 192.537 47.3486L193.21 46.6748C187.306 44.7246 179.823 42.1274 175.806 37.107C175.512 36.7366 174.802 37.4239 175.11 37.8076H175.106Z" fill="#FBF8F3"/>
<path d="M164.833 25.3168C163.753 30.1542 165.774 34.532 167.818 38.825C167.961 39.1285 168.358 38.8518 168.443 38.651C170.362 34.0768 167.997 28.8913 165.48 25.0535C165.252 24.7144 164.654 25.1785 164.851 25.473C167.283 29.1591 169.675 34.175 167.823 38.5796L168.448 38.4055C166.457 34.2286 164.431 29.9267 165.498 25.2142C165.6 24.7679 164.909 24.9687 164.833 25.3168V25.3168Z" fill="#FBF8F3"/>
<path d="M165.101 25.2767C168.974 29.293 175.507 30.9263 180.769 32.1669C180.843 32.1724 180.917 32.1582 180.984 32.1257C181.05 32.0932 181.107 32.0436 181.149 31.9818C181.19 31.9201 181.214 31.8485 181.219 31.7744C181.223 31.7003 181.208 31.6263 181.175 31.56C178.698 27.9899 169.398 19.6672 165.176 24.8081C164.877 25.1696 165.266 25.5757 165.574 25.2053C169.349 20.6088 178.377 28.8556 180.63 32.0999L181.036 31.493C175.927 30.2926 169.411 28.6459 165.645 24.7322C165.382 24.4645 164.837 25.0045 165.101 25.2767V25.2767Z" fill="#FBF8F3"/>
<path d="M155.752 17.3376C155.698 21.1041 157.983 24.0851 160.169 26.9366C160.312 27.1196 160.576 26.8474 160.616 26.7046C161.321 22.9917 158.701 19.4931 156.198 17.0476C156.006 16.8557 155.618 17.2484 155.81 17.4358C158.21 19.7921 160.794 23.2059 160.125 26.776L160.571 26.5439C158.411 23.7414 156.189 20.8452 156.242 17.1413C156.242 16.8334 155.769 17.0833 155.765 17.3332L155.752 17.3376Z" fill="#FBF8F3"/>
<path d="M155.957 17.2352C159.5 19.587 164.61 19.7655 168.72 19.8458C168.894 19.8458 169.197 19.587 169.01 19.3996C166.542 17.1103 158.3 12.3844 155.917 16.9139C155.751 17.2263 156.149 17.3602 156.296 17.0835C158.411 13.0672 166.404 17.7306 168.622 19.7878L168.912 19.3415C164.828 19.2612 159.759 19.0827 156.256 16.7577C156.046 16.6194 155.716 17.0478 155.957 17.204V17.2352Z" fill="#FBF8F3"/>
<path d="M100.639 99.0116C93.4986 97.7487 93.338 107.303 99.0902 109.204C102.415 110.302 106.534 108.423 109.497 107.102C113.647 105.255 117.53 102.854 121.412 100.493C125.808 97.8156 130.038 95.2764 135.09 93.9555C142.176 92.099 151.74 92.4561 156.907 98.3466C161.022 103.041 156.979 111.426 150.66 110.226C148.089 109.735 146.077 107.459 146.197 104.831C146.3 102.443 148.602 100.886 150.495 99.9219C150.673 99.8282 150.021 98.9937 149.722 99.1499C146.63 100.747 143.961 103.907 146.184 107.374C146.908 108.57 147.935 109.553 149.162 110.223C150.388 110.893 151.77 111.227 153.168 111.19C157.907 110.994 160.308 105.099 159.036 101.127C157.697 96.8918 152.891 94.2009 148.919 93.0942C142.426 91.3092 134.92 92.2329 128.864 95.0622C124.402 97.1462 120.301 100.007 116.043 102.492C111.786 104.978 107.118 107.642 102.125 108.508C98.8805 109.07 95.953 107.874 95.6853 104.161C95.4443 100.85 98.2423 99.3106 101.17 99.8238C101.536 99.8907 100.911 99.0696 100.643 99.0205L100.639 99.0116Z" fill="#FBF8F3" stroke="#FBF8F3" stroke-width="0.5" stroke-linecap="round" stroke-linejoin="round"/>
<path d="M111.92 99.8239C116.347 99.0385 117.82 103.282 115.838 106.562C114.861 108.191 112.92 108.637 111.161 108.637C105.882 108.637 100.389 105.099 95.9887 102.555C92.2357 100.382 88.63 97.9363 84.7966 95.9058C78.3912 92.5229 71.0174 91.4452 63.9118 92.8534C58.7977 93.8843 52.974 97.5837 53.0231 103.363C53.0544 106.857 56.0845 110.4 59.4448 111.11C62.6132 111.779 65.9289 109.494 66.9374 106.558C68.0932 103.184 64.8132 100.493 62.2116 99.1501C61.7296 98.9046 62.341 99.7793 62.5596 99.8909C67.8924 102.644 66.9151 108.312 61.6671 110.097C58.1328 111.306 55.2187 108.758 54.0808 105.474C52.9428 102.189 55.0268 99.1144 57.3474 97.0616C62.5016 92.5009 70.6949 92.4741 77.0273 93.7281C82.3824 94.7946 86.9297 97.615 91.5128 100.422C95.3686 102.866 99.3634 105.083 103.477 107.062C106.538 108.472 110.148 109.914 113.576 109.293C120.122 108.138 118.083 97.7801 111.237 98.9939C110.983 99.0385 111.603 99.8641 111.907 99.8105L111.92 99.8239Z" fill="#FBF8F3" stroke="#FBF8F3" stroke-width="0.5" stroke-linecap="round" stroke-linejoin="round"/>
<path d="M71.3997 129.631C70.6159 130.4 69.7887 131.124 68.9221 131.8L68.921 131.801L68.9209 131.801C68.4354 132.173 68.0432 132.453 67.7467 132.642C67.5986 132.736 67.4716 132.809 67.367 132.859C67.2689 132.906 67.1696 132.943 67.0849 132.943C67.0544 132.943 66.9956 132.941 66.9437 132.904C66.8786 132.857 66.8635 132.788 66.8635 132.74C66.8635 132.669 66.8973 132.614 66.9354 132.577C66.9705 132.543 67.0137 132.519 67.0528 132.501L67.0545 132.5L67.0545 132.5C67.7661 132.179 68.6484 131.559 69.7034 130.628C70.7568 129.699 71.9753 128.467 73.3595 126.932L73.3628 126.928L73.3628 126.928L73.4778 126.809C73.5351 126.747 73.5856 126.7 73.6225 126.668C73.6411 126.652 73.6563 126.639 73.6673 126.631L73.6804 126.62L73.6844 126.618L73.6857 126.617L73.6861 126.616L73.6863 126.616L73.6864 126.616L73.6865 126.616L73.7743 126.738L73.7944 126.589C73.8337 126.594 73.8702 126.612 73.8983 126.64C73.9264 126.668 73.9445 126.705 73.9498 126.744L73.9511 126.754V126.764C73.9511 126.793 73.9428 126.816 73.9407 126.822L73.9405 126.822C73.9371 126.832 73.9331 126.841 73.9296 126.849C73.9224 126.864 73.913 126.882 73.9022 126.902C73.8804 126.942 73.8486 126.997 73.8076 127.065C73.7252 127.202 73.6024 127.4 73.4393 127.659C73.1131 128.176 72.6241 128.939 71.9725 129.947C70.9287 131.565 70.2089 132.75 69.8106 133.505C69.4317 134.234 69.1364 135.003 68.9304 135.798L68.8931 135.943L68.7487 135.906C68.5861 135.866 68.4195 135.843 68.2519 135.84C67.9488 135.855 67.6469 135.89 67.3483 135.944L67.0986 135.99L67.1792 135.749C67.5731 134.574 68.7811 132.779 70.7761 130.377L70.7777 130.375L70.7777 130.375C70.9882 130.13 71.1956 129.882 71.3997 129.631ZM71.3997 129.631C71.6612 129.31 71.9174 128.985 72.1683 128.656C71.3453 129.514 70.5898 130.246 69.9019 130.853C69.5354 131.176 69.1872 131.465 68.8575 131.718C68.8574 131.718 68.8573 131.718 68.8571 131.718C68.3799 132.084 67.9413 132.376 67.5416 132.593C67.3814 132.689 67.2576 132.75 67.1704 132.777C67.1622 132.782 67.1559 132.785 67.1512 132.788C67.1459 132.791 67.1438 132.793 67.1438 132.793C67.1438 132.793 67.1439 132.793 67.1441 132.793C67.1449 132.792 67.1481 132.789 67.1517 132.783C67.1258 132.79 67.1035 132.793 67.0849 132.793C67.0359 132.793 67.0135 132.78 67.0135 132.74C67.0135 132.706 67.0382 132.679 67.0849 132.653C67.0883 132.651 67.0919 132.649 67.0955 132.647" fill="#FBF8F3" stroke="#FBF8F3" stroke-width="0.3"/>
<path d="M76.5642 127.749C77.1418 127.293 77.7787 126.917 78.4574 126.632C79.016 126.374 79.6192 126.228 80.2336 126.2L80.2383 126.302C80.2384 126.302 80.2386 126.302 80.2388 126.302L80.2352 126.2C80.5343 126.189 80.8319 126.246 81.1059 126.367C81.3799 126.487 81.6233 126.667 81.818 126.895L81.8191 126.896L81.8191 126.896C82.2341 127.391 82.4488 128.023 82.4209 128.669C82.4199 129.687 81.9527 130.771 81.05 131.918L81.0487 131.919L81.0487 131.919C80.0361 133.171 78.8159 134.238 77.4416 135.076C76.7639 135.51 76.0455 135.877 75.2965 136.171C74.7449 136.423 74.1543 136.578 73.5504 136.629L73.5376 136.63V136.63H73.5348C73.5125 136.63 73.4863 136.63 73.4625 136.628C73.4383 136.626 73.4031 136.622 73.3677 136.607C73.3274 136.589 73.29 136.559 73.2662 136.512C73.2449 136.471 73.2404 136.428 73.2404 136.395C73.2404 136.3 73.2856 136.219 73.3688 136.171C73.4388 136.13 73.5243 136.12 73.6046 136.12H73.7251C74.7039 136.12 75.9615 135.461 77.5075 134.078L77.5092 134.077L77.5092 134.077C78.5245 133.196 79.4052 132.174 80.1258 131.046C79.7976 131.364 79.4411 131.654 79.0601 131.912C78.38 132.422 77.5635 132.719 76.7142 132.765C76.7142 132.765 76.7142 132.765 76.7141 132.765L76.7076 132.643C76.5789 132.638 76.4582 132.624 76.3463 132.598C76.2231 132.58 76.1018 132.549 75.9845 132.505C75.7541 132.419 75.544 132.286 75.3673 132.115C75.1997 131.936 75.0695 131.726 74.9844 131.496C74.8993 131.266 74.8611 131.021 74.872 130.776C74.8898 129.756 75.4848 128.786 76.657 127.867L76.5642 127.749ZM76.5642 127.749C75.3742 128.682 74.7417 129.689 74.722 130.772L76.5642 127.749ZM76.3739 132.451C75.8694 132.333 75.6172 131.977 75.6172 131.383C75.6172 130.449 76.1691 129.393 77.2728 128.215C78.035 127.401 78.7454 126.869 79.404 126.619C79.6797 126.553 79.9618 126.512 80.2464 126.499C80.2503 126.499 80.2542 126.499 80.2581 126.499C80.2582 126.499 80.2582 126.499 80.2583 126.499C80.5081 126.492 80.7564 126.541 80.9853 126.641C81.0041 126.649 81.0228 126.658 81.0413 126.667L76.3739 132.451ZM76.3739 132.451C76.4808 132.466 76.5894 132.471 76.6979 132.465L76.698 132.465C76.7297 132.463 76.7613 132.461 76.7928 132.459L76.7849 132.345C76.7866 132.345 76.7884 132.345 76.7901 132.344M76.3739 132.451L81.5256 127.916M76.7901 132.344C76.7919 132.344 76.7936 132.344 76.7953 132.344V132.459C77.4508 132.407 78.0825 132.195 78.6346 131.842C78.635 131.842 78.6354 131.841 78.6357 131.841C78.72 131.787 78.8025 131.73 78.8829 131.669L78.8891 131.665L78.8892 131.665C79.4351 131.297 79.9288 130.859 80.3582 130.363V130.308V130.29H80.4208C80.431 130.278 80.4412 130.266 80.4513 130.254L80.3995 130.204C80.4006 130.203 80.4017 130.202 80.4028 130.201C80.4938 130.105 80.579 130.004 80.6582 129.9M76.7901 132.344C76.4213 132.344 76.172 132.256 76.0147 132.108C75.8582 131.96 75.7672 131.728 75.7672 131.383C75.7672 130.507 76.2871 129.486 77.3823 128.317C78.479 127.147 79.4363 126.599 80.2578 126.602H80.2583C80.6498 126.602 80.9185 126.715 81.0932 126.916C81.271 127.122 81.3737 127.445 81.3756 127.913M76.7901 132.344C77.4242 132.299 78.0355 132.09 78.5639 131.736L78.5709 131.731L78.5711 131.732C79.2606 131.325 79.8767 130.805 80.3936 130.193L80.6582 129.88V129.9M80.6582 129.9V129.994C80.7502 129.873 80.8387 129.749 80.9234 129.622L80.998 129.665C81.3148 129.139 81.4982 128.538 81.5256 127.916M80.6582 129.9C81.0911 129.328 81.343 128.636 81.3756 127.913M81.5256 127.916L81.3756 127.916C81.3756 127.915 81.3756 127.914 81.3756 127.913M81.5256 127.916L81.3758 127.909C81.3757 127.91 81.3757 127.912 81.3756 127.913M78.9966 131.821C79.4847 131.504 79.9337 131.13 80.3345 130.708L78.9966 131.821ZM78.7272 131.988C78.8177 131.934 78.9069 131.879 78.9949 131.822L76.7076 132.643C76.7364 132.644 76.7657 132.644 76.7953 132.644V132.645L76.8058 132.644C77.4924 132.596 78.1547 132.37 78.7272 131.988ZM80.6169 130.522C79.8289 131.904 78.812 133.145 77.6075 134.19C76.7282 134.977 75.9313 135.54 75.2167 135.88C75.2055 135.885 75.1943 135.889 75.1831 135.894L75.183 135.893L75.1756 135.897C74.8688 136.037 74.5492 136.145 74.2217 136.221C74.0501 136.253 73.8846 136.27 73.7251 136.27H73.6046C73.4618 136.27 73.3904 136.31 73.3904 136.395C73.3904 136.48 73.4395 136.48 73.5376 136.48H73.5376C73.7788 136.459 74.0178 136.421 74.2528 136.367C74.5651 136.308 74.8938 136.197 75.2389 136.036L80.6169 130.522Z" fill="#FBF8F3" stroke="#FBF8F3" stroke-width="0.3"/>
<path d="M82.778 137.412L82.6319 137.642H82.9047H83.1724H83.2549L83.2991 137.573L92.5544 122.985L92.7006 122.754H92.4278H92.1556H92.0731L92.0289 122.824L82.778 137.412Z" fill="#FBF8F3" stroke="#FBF8F3" stroke-width="0.3"/>
<path d="M100.133 126.766C100.133 126.74 100.128 126.714 100.117 126.69C100.106 126.666 100.091 126.645 100.071 126.628C100.051 126.61 100.028 126.598 100.003 126.59C99.978 126.583 99.9516 126.581 99.9257 126.585L99.8904 126.59L99.8613 126.61C99.7813 126.666 99.71 126.733 99.6498 126.81L99.5425 126.926L99.5425 126.926L99.9828 126.764M100.133 126.766L99.9828 126.764M100.133 126.766C100.133 126.765 100.133 126.765 100.133 126.764H99.9828M100.133 126.766C100.133 126.794 100.124 126.816 100.122 126.822L100.122 126.823C100.119 126.832 100.115 126.841 100.111 126.849C100.104 126.864 100.095 126.883 100.084 126.902C100.062 126.942 100.03 126.997 99.9893 127.065C99.9069 127.202 99.7841 127.4 99.621 127.659C99.2948 128.176 98.8058 128.939 98.1542 129.947C98.1542 129.947 98.1542 129.947 98.1542 129.947L98.0282 129.866C98.5814 129.01 99.0172 128.331 99.3356 127.83C99.4372 127.687 99.5379 127.543 99.6376 127.399L99.6172 127.383C99.6875 127.271 99.7477 127.174 99.7977 127.092L99.8742 127.009L99.8573 126.994C99.8593 126.99 99.8612 126.987 99.8631 126.984M99.9828 126.764C99.9828 126.767 99.9814 126.772 99.9786 126.778L100.033 126.856C99.976 126.896 99.9253 126.944 99.8827 126.999L99.8631 126.984M99.8631 126.984C99.8872 126.944 99.9076 126.909 99.9245 126.88C99.9388 126.883 99.9538 126.884 99.9685 126.882L99.9593 126.817" fill="#FBF8F3" stroke="#FBF8F3" stroke-width="0.3"/>
<path d="M108.086 126.803L108.086 126.803L108.084 126.805L107.972 126.926L107.972 126.926L107.971 126.928C106.588 128.465 105.371 129.697 104.319 130.627C103.266 131.558 102.386 132.179 101.676 132.5C101.602 132.533 101.484 132.6 101.484 132.74C101.484 132.74 101.484 132.741 101.484 132.742C101.484 132.75 101.484 132.769 101.487 132.788C101.49 132.812 101.501 132.853 101.536 132.888C101.57 132.921 101.609 132.933 101.633 132.938C101.657 132.943 101.681 132.944 101.701 132.944C101.786 132.944 101.886 132.907 101.985 132.86C102.09 132.81 102.217 132.736 102.365 132.642C102.661 132.454 103.054 132.173 103.541 131.802L103.541 131.802L103.543 131.801C104.402 131.13 105.223 130.412 106.001 129.65C105.802 129.894 105.599 130.136 105.394 130.375L105.394 130.375L105.392 130.377C103.403 132.78 102.195 134.574 101.795 135.749L101.713 135.99L101.964 135.944C102.264 135.89 102.568 135.855 102.872 135.84C103.038 135.843 103.203 135.866 103.364 135.907L103.509 135.943L103.547 135.798C103.751 135.003 104.046 134.234 104.427 133.506L104.427 133.505C104.819 132.751 105.537 131.566 106.584 129.948L106.584 129.947C107.236 128.939 107.725 128.176 108.051 127.659C108.214 127.401 108.337 127.202 108.419 127.065C108.46 126.997 108.492 126.942 108.514 126.902C108.525 126.883 108.534 126.865 108.541 126.849C108.545 126.842 108.549 126.832 108.552 126.823L108.552 126.822C108.554 126.818 108.559 126.803 108.561 126.784C108.565 126.758 108.563 126.732 108.555 126.707C108.547 126.68 108.532 126.655 108.511 126.635C108.491 126.614 108.466 126.599 108.439 126.591C108.411 126.582 108.382 126.581 108.354 126.586L108.231 126.609V126.663C108.231 126.664 108.231 126.664 108.23 126.664C108.195 126.696 108.145 126.742 108.086 126.803Z" fill="#FBF8F3" stroke="#FBF8F3" stroke-width="0.3"/>
<path d="M118.342 122.754H118.259L118.215 122.824L108.964 137.412L108.818 137.642H109.091H109.363H109.446L109.49 137.573L118.741 122.985L118.887 122.754H118.614H118.342Z" fill="#FBF8F3" stroke="#FBF8F3" stroke-width="0.3"/>
<path d="M124.896 133.221C124.896 133.222 124.896 133.222 124.896 133.222L124.886 133.22M124.896 133.221C124.896 133.22 124.896 133.22 124.897 133.219L124.89 133.217M124.896 133.221C124.899 133.211 124.901 133.206 124.901 133.205C124.902 133.204 124.902 133.204 124.902 133.204C124.901 133.205 124.899 133.208 124.895 133.212C124.894 133.214 124.892 133.216 124.89 133.217M124.896 133.221L124.865 133.212M124.886 133.22C124.887 133.219 124.889 133.218 124.89 133.217M124.886 133.22C124.882 133.223 124.876 133.226 124.871 133.229C124.867 133.23 124.864 133.231 124.861 133.232M124.886 133.22L124.864 133.215C124.864 133.214 124.865 133.213 124.865 133.212M124.89 133.217L124.865 133.212M124.865 133.212C124.87 133.18 124.875 133.147 124.88 133.115C124.878 133.107 124.874 133.1 124.868 133.095C124.863 133.089 124.856 133.086 124.848 133.083C124.826 133.083 124.808 133.09 124.793 133.103L124.731 133.095C124.727 133.123 124.723 133.15 124.718 133.178C124.718 133.178 124.718 133.179 124.718 133.179C124.646 133.602 124.461 133.998 124.181 134.325L124.174 134.333L124.168 134.342C124.105 134.442 124.037 134.537 123.964 134.629C123.944 134.649 123.923 134.67 123.902 134.69C123.551 135.056 123.07 135.269 122.564 135.283C122.033 135.252 121.511 135.145 121.011 134.967L124.865 133.212ZM121.227 132.986L121.227 132.986C122.696 132.391 123.687 131.962 124.194 131.699L124.194 131.699L124.197 131.698C124.738 131.405 125.237 131.041 125.681 130.615C126.001 130.338 126.257 129.996 126.435 129.613C126.613 129.229 126.707 128.811 126.712 128.387C126.721 128.099 126.663 127.813 126.544 127.55C126.425 127.287 126.247 127.055 126.024 126.872L126.024 126.872L126.022 126.871C125.531 126.477 124.913 126.275 124.284 126.302L124.283 126.302C123.09 126.361 121.939 126.767 120.974 127.471C119.542 128.418 118.783 129.461 118.781 130.608C118.772 130.82 118.806 131.032 118.882 131.231C118.959 131.431 119.076 131.613 119.226 131.765L119.226 131.765L119.23 131.769C119.386 131.917 119.571 132.032 119.773 132.107C119.975 132.183 120.19 132.216 120.406 132.207L120.406 132.207L120.407 132.207C120.969 132.176 121.513 131.999 121.986 131.694C122.567 131.357 123.084 130.92 123.513 130.404C123.763 130.109 123.954 129.852 124.083 129.634C124.21 129.421 124.289 129.225 124.289 129.058C124.289 129.058 124.289 129.057 124.289 129.057C124.289 129.051 124.289 129.034 124.287 129.017C124.284 128.996 124.276 128.962 124.249 128.928C124.195 128.86 124.114 128.859 124.085 128.859C124.061 128.859 124.029 128.862 123.996 128.876C123.96 128.891 123.932 128.915 123.912 128.942C123.895 128.966 123.885 128.991 123.88 129.006C123.876 129.018 123.872 129.031 123.868 129.042C123.538 129.795 123.017 130.45 122.358 130.942L122.352 130.946L122.347 130.951C121.801 131.447 121.106 131.747 120.371 131.804C120.001 131.804 119.751 131.725 119.595 131.595C119.444 131.469 119.358 131.274 119.358 130.982C119.358 130.156 119.91 129.23 121.091 128.203C122.269 127.178 123.328 126.687 124.273 126.687V126.687L124.28 126.687C124.631 126.668 124.977 126.77 125.263 126.974C125.373 127.061 125.462 127.172 125.521 127.299C125.581 127.427 125.609 127.567 125.604 127.708C125.547 128.668 125.124 129.57 124.424 130.23L124.424 130.23L124.42 130.234C123.463 131.208 122.329 131.99 121.08 132.54L121.08 132.54L121.076 132.542C119.925 133.082 119.129 133.486 118.684 133.754L118.684 133.754L118.68 133.756C118.231 134.047 117.818 134.39 117.449 134.777C117.222 135.005 117.041 135.223 116.916 135.423C116.794 135.619 116.716 135.812 116.715 135.988C116.713 136.018 116.718 136.047 116.729 136.075C116.74 136.104 116.758 136.131 116.782 136.153C116.805 136.175 116.833 136.191 116.864 136.201C116.89 136.209 116.918 136.212 116.946 136.21C117.037 136.206 117.104 136.155 117.145 136.088C117.181 136.028 117.198 135.954 117.206 135.881C117.233 135.676 117.314 135.539 117.439 135.449C117.567 135.357 117.761 135.301 118.038 135.3C118.632 135.375 119.217 135.513 119.783 135.711L119.784 135.711C120.373 135.913 120.987 136.035 121.609 136.071L121.609 136.072L121.619 136.072C122.18 136.065 122.731 135.918 123.221 135.644C123.707 135.372 124.118 134.982 124.416 134.511C124.748 134.121 124.96 133.643 125.028 133.135L125.032 133.104L125.024 133.075C125.015 133.043 124.998 133.013 124.974 132.989C124.95 132.965 124.921 132.948 124.888 132.939L124.869 132.933H124.848C124.788 132.933 124.727 132.955 124.68 133.004C124.638 133.047 124.617 133.102 124.605 133.15L124.605 133.15L124.604 133.153C124.481 133.698 124.201 134.195 123.798 134.582L123.798 134.582L123.794 134.586C123.472 134.922 123.031 135.118 122.566 135.133C122.052 135.102 121.546 134.998 121.061 134.825L121.06 134.825C120.434 134.607 119.779 134.479 119.117 134.446L119.117 134.446L119.111 134.446C118.824 134.444 118.54 134.485 118.27 134.567C118.973 134.022 119.956 133.494 121.227 132.986Z" fill="#FBF8F3" stroke="#FBF8F3" stroke-width="0.3"/>
<path d="M133.888 126.992C134.074 127.188 134.181 127.496 134.181 127.945C134.157 128.769 133.981 129.583 133.662 130.343L133.8 130.401L133.661 130.347C133.296 131.275 132.815 132.153 132.229 132.96L132.228 132.96C130.966 134.71 129.738 135.54 128.548 135.54C128.06 135.54 127.722 135.412 127.504 135.181C127.286 134.95 127.163 134.591 127.163 134.074C127.226 132.951 127.573 131.862 128.171 130.91L128.171 130.91L128.174 130.903C128.791 129.799 129.584 128.803 130.522 127.956C131.487 127.092 132.308 126.687 132.993 126.687C133.414 126.687 133.702 126.797 133.888 126.992ZM133.141 133.196C134.464 131.696 135.147 130.261 135.151 128.896C135.176 128.214 134.963 127.545 134.549 127.003L134.429 127.095L134.547 127.002C134.36 126.765 134.12 126.574 133.846 126.447C133.573 126.319 133.274 126.258 132.972 126.266C132.45 126.267 131.855 126.449 131.19 126.798C130.524 127.147 129.779 127.669 128.956 128.359L128.955 128.359C127.051 129.964 126.064 131.57 126.059 133.178C126.03 133.907 126.279 134.62 126.756 135.172L126.757 135.173C126.983 135.429 127.262 135.633 127.576 135.769C127.888 135.905 128.227 135.97 128.568 135.96C129.996 135.959 131.521 135.013 133.14 133.197L133.141 133.196Z" fill="#FBF8F3" stroke="#FBF8F3" stroke-width="0.3"/>
<path d="M141.435 133.161L141.438 133.151C141.452 133.113 141.473 133.063 141.513 133.021C141.557 132.974 141.61 132.951 141.663 132.938L141.697 132.929L141.731 132.937C141.764 132.944 141.794 132.959 141.82 132.982C141.845 133.004 141.864 133.032 141.876 133.064L141.888 133.098L141.883 133.135C141.815 133.644 141.601 134.122 141.267 134.512C140.968 134.983 140.558 135.372 140.071 135.644C139.582 135.918 139.031 136.065 138.47 136.072L138.459 136.072L138.459 136.071C137.837 136.035 137.223 135.913 136.634 135.711L136.634 135.711C136.068 135.513 135.483 135.375 134.889 135.3C134.614 135.301 134.422 135.357 134.293 135.449C134.168 135.539 134.086 135.676 134.057 135.88C134.051 135.952 134.036 136.027 133.999 136.088C133.956 136.158 133.886 136.206 133.798 136.21C133.77 136.213 133.741 136.21 133.714 136.201C133.682 136.191 133.654 136.173 133.63 136.15C133.607 136.126 133.589 136.098 133.579 136.066C133.569 136.034 133.566 136.001 133.572 135.968L133.573 135.962L133.573 135.962C133.672 135.492 133.931 135.071 134.306 134.771C134.673 134.386 135.084 134.046 135.53 133.756L135.534 133.754L135.534 133.754C135.979 133.485 136.779 133.08 137.927 132.542L137.93 132.54L137.93 132.54C139.18 131.99 140.314 131.208 141.271 130.234L141.275 130.229L141.275 130.23C141.977 129.571 142.399 128.669 142.455 127.708C142.46 127.567 142.431 127.428 142.373 127.3C142.314 127.173 142.227 127.061 142.117 126.973C141.83 126.77 141.483 126.668 141.131 126.687L141.123 126.687V126.687C140.164 126.687 139.105 127.179 137.943 128.202C136.777 129.229 136.231 130.155 136.231 130.982C136.231 131.274 136.317 131.469 136.468 131.596C136.623 131.725 136.872 131.804 137.24 131.804C137.975 131.748 138.67 131.448 139.215 130.951L139.221 130.946L139.227 130.941C139.888 130.451 140.409 129.796 140.737 129.041C140.75 129.003 140.77 128.961 140.803 128.926C140.842 128.886 140.893 128.861 140.951 128.859C140.977 128.858 141.003 128.861 141.028 128.87C141.055 128.88 141.08 128.895 141.101 128.916C141.121 128.936 141.137 128.961 141.146 128.989C141.155 129.013 141.159 129.038 141.157 129.064C141.156 129.23 141.077 129.423 140.952 129.634C140.823 129.852 140.632 130.109 140.381 130.404C139.951 130.921 139.432 131.358 138.85 131.694C138.376 131.998 137.833 132.174 137.272 132.207L137.27 132.207L137.27 132.207C137.054 132.216 136.839 132.183 136.637 132.107C136.435 132.032 136.25 131.917 136.094 131.769L136.09 131.765L136.09 131.765C135.94 131.613 135.823 131.431 135.746 131.231C135.67 131.032 135.636 130.82 135.645 130.608C135.647 129.461 136.406 128.418 137.838 127.471C138.802 126.767 139.951 126.361 141.143 126.302L141.144 126.302C141.774 126.275 142.393 126.477 142.886 126.87L142.888 126.872L142.888 126.872C143.11 127.056 143.287 127.288 143.407 127.551C143.526 127.813 143.584 128.099 143.576 128.387C143.576 128.388 143.576 128.388 143.576 128.388L143.426 128.384C143.421 128.787 143.331 129.184 143.161 129.549C142.992 129.914 142.748 130.24 142.444 130.504L141.435 133.161ZM141.435 133.161L141.432 133.171C141.308 133.715 141.028 134.212 140.626 134.6L140.626 134.6L140.623 134.604C140.294 134.944 139.845 135.141 139.373 135.151C138.86 135.12 138.355 135.016 137.871 134.843L137.87 134.843C137.242 134.625 136.587 134.498 135.923 134.464L135.923 134.464L135.915 134.464C135.645 134.465 135.378 134.504 135.123 134.58C135.83 134.03 136.817 133.497 138.091 132.986L138.092 132.986C139.56 132.391 140.551 131.962 141.058 131.699L141.058 131.699L141.061 131.698C141.601 131.403 142.1 131.039 142.545 130.615L141.435 133.161ZM136.742 131.826C136.578 131.765 136.429 131.672 136.302 131.553L137.242 131.908C137.072 131.913 136.902 131.886 136.742 131.826Z" fill="#FBF8F3" stroke="#FBF8F3" stroke-width="0.3"/>
<path d="M144.731 131.553C144.859 131.672 145.008 131.765 145.172 131.826C145.329 131.885 145.495 131.912 145.663 131.908L144.731 131.553ZM144.731 131.553C144.657 131.476 144.592 131.391 144.539 131.298L144.731 131.553ZM146.521 132.986L146.521 132.986C147.99 132.391 148.981 131.962 149.488 131.699L149.488 131.699L149.491 131.698C150.031 131.404 150.531 131.04 150.975 130.615C151.294 130.338 151.551 129.996 151.729 129.613C151.907 129.228 152.001 128.811 152.006 128.387C152.014 128.099 151.957 127.813 151.838 127.55C151.718 127.287 151.54 127.055 151.317 126.872L151.317 126.872L151.316 126.87C150.823 126.477 150.204 126.275 149.573 126.302L149.573 126.302C148.381 126.361 147.232 126.768 146.268 127.471C144.836 128.418 144.076 129.461 144.075 130.608C144.065 130.82 144.1 131.032 144.176 131.231C144.252 131.431 144.369 131.613 144.52 131.765L144.52 131.765L144.523 131.769C144.68 131.917 144.865 132.032 145.067 132.107C145.269 132.183 145.484 132.216 145.7 132.207L145.7 132.207L145.701 132.207C146.263 132.176 146.807 131.999 147.28 131.694C147.86 131.356 148.377 130.919 148.807 130.404C149.055 130.109 149.246 129.852 149.375 129.634C149.502 129.421 149.583 129.226 149.583 129.058C149.583 129.058 149.583 129.057 149.583 129.057C149.583 129.051 149.583 129.034 149.58 129.017C149.578 128.996 149.57 128.962 149.543 128.928C149.489 128.86 149.408 128.859 149.379 128.859C149.355 128.859 149.323 128.862 149.29 128.876C149.254 128.891 149.226 128.915 149.206 128.942C149.189 128.966 149.179 128.991 149.174 129.006C149.17 129.018 149.166 129.031 149.162 129.042C148.831 129.795 148.311 130.45 147.652 130.942L147.646 130.946L147.641 130.951C147.094 131.447 146.397 131.748 145.661 131.804C145.293 131.804 145.044 131.725 144.889 131.596C144.738 131.469 144.652 131.274 144.652 130.982C144.652 130.156 145.204 129.23 146.385 128.203C147.563 127.178 148.622 126.687 149.567 126.687V126.687L149.574 126.687C149.925 126.669 150.271 126.77 150.557 126.974C150.667 127.061 150.756 127.172 150.815 127.299C150.875 127.427 150.903 127.567 150.898 127.708C150.84 128.668 150.418 129.57 149.718 130.23L149.718 130.23L149.714 130.234C148.755 131.207 147.62 131.989 146.369 132.54L146.369 132.54L146.365 132.542C145.219 133.081 144.418 133.486 143.977 133.754L143.977 133.754L143.974 133.756C143.524 134.045 143.11 134.388 142.743 134.777C142.515 135.005 142.335 135.223 142.21 135.423C142.087 135.621 142.009 135.816 142.009 135.993C142.009 136.038 142.02 136.102 142.073 136.152C142.123 136.2 142.186 136.21 142.23 136.21C142.324 136.21 142.391 136.149 142.428 136.095C142.467 136.037 142.491 135.963 142.5 135.881C142.527 135.676 142.608 135.539 142.733 135.449C142.861 135.357 143.055 135.301 143.332 135.3C143.926 135.375 144.511 135.513 145.077 135.711L145.078 135.711C145.667 135.913 146.281 136.035 146.902 136.071L146.902 136.072L146.913 136.072C147.474 136.065 148.025 135.918 148.515 135.644C149.001 135.372 149.412 134.982 149.71 134.511C150.042 134.121 150.254 133.643 150.322 133.135L150.326 133.103L150.317 133.072C150.307 133.036 150.286 133.005 150.259 132.981C150.231 132.957 150.198 132.941 150.161 132.935L150.15 132.933H150.138C150.075 132.933 150.016 132.957 149.971 133.006C149.931 133.049 149.911 133.102 149.899 133.15L149.898 133.15L149.898 133.153C149.775 133.698 149.495 134.195 149.092 134.582L149.092 134.582L149.088 134.586C148.765 134.921 148.325 135.117 147.859 135.133C147.346 135.102 146.839 134.998 146.355 134.825L146.354 134.825C145.726 134.607 145.07 134.48 144.406 134.446L144.406 134.446L144.399 134.446C144.119 134.447 143.843 134.489 143.58 134.57C144.27 134.027 145.247 133.497 146.521 132.986Z" fill="#FBF8F3" stroke="#FBF8F3" stroke-width="0.3"/>
<path d="M104.102 65.2817H104.102C103.688 65.2826 103.283 65.1607 102.939 64.9314C102.594 64.7021 102.326 64.3758 102.167 63.9938C102.008 63.6118 101.966 63.1912 102.046 62.7853C102.126 62.3794 102.325 62.0064 102.617 61.7135C102.909 61.4206 103.282 61.221 103.688 61.14C104.094 61.059 104.514 61.1001 104.897 61.2583C105.279 61.4164 105.606 61.6844 105.836 62.0284C106.066 62.3724 106.188 62.7769 106.188 63.1906L106.288 63.1906L106.188 63.1908C106.189 63.4652 106.135 63.737 106.031 63.9907C105.926 64.2443 105.773 64.4749 105.579 64.6691C105.385 64.8633 105.155 65.0174 104.901 65.1225C104.648 65.2276 104.376 65.2817 104.102 65.2817Z" fill="#FBF8F3" stroke="#FBF8F3" stroke-width="0.2"/>
<path d="M91.6007 43.6561L91.5473 43.6212C88.22 41.4444 84.1048 40.3515 79.196 40.3486L79.1957 40.3486C72.824 40.3209 66.6172 42.3726 61.5173 46.1924L61.5164 46.1932L61.5164 46.1931C56.176 50.0916 53.5248 54.3893 53.5248 59.0851C53.5248 61.4082 54.2168 63.2506 55.5928 64.6237C56.9691 65.9971 58.8043 66.689 61.1094 66.6919C64.6465 66.6919 68.2398 65.0504 71.8907 61.7465C75.5429 58.4414 77.3528 55.1847 77.3557 51.9761C77.3557 50.6639 77.0008 49.6951 76.3077 49.0506C75.6131 48.4048 74.5618 48.0688 73.1356 48.0599C70.1547 48.06 67.2393 49.2848 64.3877 51.7484C61.5346 54.2134 60.1264 56.7318 60.1294 59.3036L60.1294 59.307L60.1293 59.307C60.099 60.2449 60.3845 61.1658 60.94 61.9221L60.9422 61.925L60.9421 61.9251C61.1597 62.2454 61.452 62.5079 61.7938 62.69C62.1356 62.8721 62.5165 62.9682 62.9038 62.9701C63.0579 62.9701 63.161 62.9534 63.2221 62.9277C63.2518 62.9153 63.266 62.903 63.2725 62.8948C63.2778 62.8882 63.2808 62.8811 63.2808 62.8693C63.2808 62.8463 63.2721 62.8211 63.2246 62.7959C63.1717 62.7679 63.079 62.7462 62.9345 62.7462H62.9342C62.6506 62.7453 62.3706 62.6831 62.1133 62.5638C61.8569 62.4449 61.6292 62.2721 61.4456 62.0573C61.0294 61.6214 60.802 61.0389 60.813 60.4363C60.8133 57.9572 62.2639 55.3196 65.1272 52.5249C67.9912 49.7295 70.6927 48.3165 73.2298 48.3195M91.6007 43.6561L61.5199 61.9902C61.1204 61.573 60.9022 61.0147 60.913 60.4372C60.913 57.9977 62.341 55.3841 65.197 52.5965C68.0531 49.8089 70.7306 48.4166 73.2296 48.4195C75.7227 48.4195 76.9693 49.6319 76.9693 52.0565C76.9693 55.1059 75.1738 58.2461 71.583 61.477C67.9921 64.7079 64.5143 66.3233 61.1495 66.3233C59.0878 66.3233 57.4515 65.77 56.2407 64.6633C55.6338 64.0948 55.1576 63.4014 54.8448 62.6309C54.532 61.8605 54.3901 61.0313 54.4289 60.2007C54.4289 56.4997 56.5724 52.5563 60.8594 48.3704M91.6007 43.6561L91.6549 43.6224C94.7074 41.7227 97.6525 40.777 100.491 40.777C102.713 40.7799 104.491 41.4407 105.835 42.7521C107.181 44.0723 107.865 45.8122 107.88 47.9819C107.869 48.9377 107.753 49.8894 107.534 50.8198L107.534 50.8217C107.423 51.3394 107.311 51.7212 107.202 51.9715C107.147 52.0971 107.096 52.1841 107.05 52.238C107.002 52.2934 106.973 52.3001 106.962 52.3001H106.954L106.947 52.3013C106.928 52.3042 106.909 52.3027 106.892 52.2969C106.874 52.2912 106.858 52.2812 106.844 52.268C106.831 52.2548 106.821 52.2386 106.815 52.2209C106.81 52.2031 106.808 52.1842 106.811 52.1657L106.812 52.1658L106.812 52.1552C106.815 52.088 106.83 52.0219 106.854 51.9593L106.855 51.9575C107.309 50.7341 107.537 49.4381 107.526 48.1331C107.526 46.0059 106.891 44.2865 105.614 42.9855C104.337 41.6842 102.653 41.0366 100.572 41.0366L91.6007 43.6561ZM73.2298 48.3195L73.2296 48.4187V48.3195C73.2297 48.3195 73.2297 48.3195 73.2298 48.3195ZM73.2298 48.3195C74.491 48.3195 75.4554 48.6262 76.1041 49.2571C76.7533 49.8885 77.0693 50.8281 77.0693 52.0565C77.0693 55.1473 75.2497 58.3124 71.6498 61.5513C68.0485 64.7916 64.5479 66.4233 61.1495 66.4233C59.0695 66.4233 57.4069 65.8647 56.1732 64.7371L56.1723 64.7363C55.5549 64.1578 55.0704 63.4524 54.7521 62.6685C54.4342 61.8854 54.2898 61.0427 54.3289 60.1984M54.3289 60.1984C54.3289 60.1992 54.3289 60.1999 54.3289 60.2007H54.4288L54.329 60.196C54.3289 60.1968 54.3289 60.1976 54.3289 60.1984ZM54.3289 60.1984C54.3297 56.4585 56.4956 52.4915 60.7895 48.2989M60.7895 48.2989C60.7895 48.2989 60.7895 48.2989 60.7895 48.2989L60.8594 48.3704M60.7895 48.2989C66.0287 43.1761 72.1985 40.6127 79.2943 40.6127C84.3647 40.6127 88.2251 41.7279 90.8592 43.9746L90.9583 44.0591L90.851 44.133C89.2542 45.2331 87.3102 47.0604 85.0184 49.6197L85.0181 49.6201C82.8478 52.0228 80.8525 54.5779 79.0475 57.2659L90.7093 44.1097M60.7895 48.2989L60.8594 48.3704M60.8594 48.3704C66.0806 43.2653 72.2256 40.7127 79.2943 40.7127C84.3009 40.7127 88.1079 41.8031 90.7151 43.9838C90.7226 43.9786 90.7301 43.9735 90.7376 43.9683L90.7943 44.0507L90.7294 44.1268C90.7227 44.1211 90.716 44.1154 90.7093 44.1097M90.7093 44.1097C89.1192 45.2221 87.1973 47.0365 84.9439 49.553C82.7702 51.9595 80.7718 54.5186 78.964 57.2108L90.7093 44.1097Z" fill="#FBF8F3" stroke="#FBF8F3" stroke-width="0.2"/>
<path d="M149.046 40.0541L149.046 40.054C146.282 39.9918 143.54 40.5642 141.031 41.7272L140.999 41.742L140.965 41.7335C135.845 40.455 131.746 39.8175 128.664 39.8175C123.139 39.8175 118.865 41.2851 115.827 44.2075L115.827 44.2076C113.263 46.6682 111.989 49.3641 111.989 52.2975V52.3002L111.989 52.3002C111.94 54.1032 112.514 55.8679 113.615 57.2968C114.692 58.673 115.994 59.3555 117.512 59.3555H117.515L117.515 59.3555C118.296 59.3776 119.061 59.1312 119.682 58.6575L119.685 58.6558L119.685 58.6558C119.948 58.466 120.163 58.2161 120.311 57.9268C120.459 57.6375 120.536 57.3172 120.536 56.9923V56.9921C120.536 56.4908 120.406 56.1329 120.164 55.8993C119.922 55.6651 119.55 55.5392 119.029 55.5392H119.026L119.026 55.5391C118.533 55.5264 118.051 55.6959 117.675 56.0152L117.672 56.0179L117.671 56.0178C117.5 56.1514 117.362 56.3223 117.266 56.5174C117.171 56.7125 117.121 56.9268 117.121 57.144C117.121 57.5368 117.227 57.8137 117.423 57.994C117.62 58.1747 117.923 58.2744 118.352 58.2755C118.511 58.2515 118.646 58.2489 118.747 58.2807C118.8 58.2974 118.85 58.3255 118.885 58.3704C118.922 58.4162 118.937 58.4708 118.937 58.5272C118.937 58.7393 118.766 58.8681 118.532 58.9417C118.294 59.0167 117.947 59.0512 117.498 59.0512H117.498C116.838 59.0471 116.187 58.8893 115.599 58.5902C115.011 58.2915 114.501 57.8601 114.108 57.3302C113.165 56.1733 112.666 54.7169 112.704 53.2245C112.704 49.6689 114.471 46.6456 117.98 44.1565C121.49 41.6675 125.735 40.4238 130.712 40.4208L130.712 40.4208C133.249 40.4208 136.463 40.8912 140.352 41.8293L140.604 41.8899L140.377 42.0142C137.681 43.4924 136.359 45.2977 136.359 47.4244C136.359 48.2589 136.586 48.9764 137.036 49.5814C137.488 50.1876 138.169 50.6871 139.087 51.0764L139.439 51.2257L139.059 51.2679C136.713 51.5278 134.399 52.0258 132.153 52.7541C128.819 53.8388 126.157 55.4345 124.162 57.5384C122.168 59.6421 121.177 61.8824 121.177 64.2612L149.046 40.0541ZM149.046 40.0541L149.052 40.054C151.02 39.9986 152.981 40.299 154.843 40.9406C155.639 41.2446 156.23 41.5773 156.621 41.9356C157.011 42.2924 157.199 42.67 157.204 43.0697C157.204 43.3347 157.144 43.5616 157.026 43.754C156.908 43.9469 156.729 44.1108 156.484 44.244C155.991 44.5121 155.239 44.6513 154.216 44.6513C153.407 44.6513 152.039 44.465 150.105 44.0886C148.174 43.7127 145.685 43.1487 142.638 42.3962L142.599 42.3866L142.564 42.4064C139.701 44.0389 138.247 46.1094 138.247 48.6203V48.6206C138.251 49.8352 138.67 50.695 139.526 51.1668L139.553 51.1814L139.583 51.1789C140.76 51.0808 141.65 51.032 142.252 51.032C143.121 51.032 143.764 51.0834 144.187 51.1843C144.399 51.2349 144.548 51.2961 144.641 51.3633C144.732 51.4286 144.763 51.4928 144.763 51.5567C144.763 51.5903 144.75 51.6226 144.71 51.6569C144.668 51.6937 144.597 51.7304 144.488 51.7619C144.271 51.8248 143.937 51.8583 143.48 51.8583C142.198 51.8444 140.922 51.6776 139.68 51.3616L139.659 51.3563L139.638 51.3601C137.372 51.7581 135.178 52.4889 133.127 53.5287C126.842 56.5443 123.668 60.4551 123.668 65.2701L149.046 40.0541ZM134.163 59.3717V59.3607L133.998 59.505C130.55 62.508 128.809 65.593 128.809 68.7599L128.809 68.7621C128.831 69.7591 129.123 70.7315 129.655 71.5755L129.677 71.6119L129.72 71.6203C130.607 71.7983 131.51 71.8916 132.416 71.8989H132.417C136.404 71.8989 140.292 70.5215 144.078 67.7743C147.86 65.0306 149.778 62.2053 149.778 59.2956C149.778 59.2959 149.778 59.2961 149.778 59.2964L134.163 59.3717ZM134.163 59.3717C137.56 56.4801 141.046 55.0273 144.62 55.0268L134.163 59.3717ZM154.499 44.4095H154.399C151.353 44.4095 147.608 43.6864 143.167 42.2447L142.941 42.1712L143.152 42.061C145.242 40.97 147.57 40.4141 149.928 40.4431C151.556 40.4144 153.178 40.6715 154.718 41.2027L154.719 41.2032C155.416 41.4549 155.947 41.7297 156.305 42.0294C156.665 42.3294 156.86 42.6626 156.86 43.0277M154.499 44.4095L156.76 43.0288M154.499 44.4095V44.4M154.499 44.4095V44.4M156.86 43.0277C156.86 43.0281 156.86 43.0284 156.86 43.0288H156.76M156.86 43.0277C156.86 43.0274 156.86 43.027 156.86 43.0266L156.76 43.0288M156.86 43.0277C156.865 43.2549 156.814 43.4589 156.705 43.6357C156.596 43.8124 156.433 43.9562 156.223 44.0691C155.823 44.2837 155.243 44.3912 154.499 44.4M156.76 43.0288C156.778 43.8722 155.97 44.3006 154.399 44.3006H154.499V44.3095V44.4M143.198 42.1496L143.229 42.0545C143.261 42.0647 143.292 42.0749 143.324 42.0851C143.282 42.1064 143.24 42.1279 143.198 42.1496ZM143.198 42.1496L143.245 42.2383C143.274 42.2231 143.303 42.2079 143.332 42.1929C143.288 42.1786 143.243 42.1641 143.198 42.1496ZM154.299 44.3093V44.3095H154.399C154.366 44.3095 154.333 44.3094 154.299 44.3093Z" fill="#FBF8F3" stroke="#FBF8F3" stroke-width="0.2"/>
</svg>
