<svg width="57" height="53" viewBox="0 0 57 53" fill="none" xmlns="http://www.w3.org/2000/svg">
<path d="M0.52124 43.0596C0.853729 42.8642 1.16434 42.5667 1.52162 42.4938C2.36305 42.3231 2.88658 41.9104 2.97991 41.0355C3.0062 40.8921 3.05131 40.7529 3.11407 40.6213C3.38677 39.9301 4.20633 39.7463 4.55194 40.3807C5.13525 41.4409 5.8994 41.8302 7.09665 41.6815C7.25333 41.663 7.4119 41.6932 7.55082 41.768C7.68974 41.8428 7.80227 41.9585 7.87315 42.0995C7.94402 42.2404 7.9698 42.3998 7.94698 42.5559C7.92416 42.712 7.85384 42.8573 7.74559 42.9721C6.91582 43.847 6.78458 44.7045 7.29206 45.7953C7.35565 45.9384 7.37386 46.0975 7.34424 46.2512C7.31462 46.4049 7.23859 46.5458 7.1264 46.655C7.0142 46.7642 6.87124 46.8363 6.71678 46.8617C6.56231 46.8872 6.40377 46.8646 6.26251 46.7972C5.20234 46.2984 4.33174 46.3597 3.49177 47.2157C3.32552 47.3834 2.837 47.4111 2.6168 47.2901C2.39659 47.169 2.15306 46.7578 2.18952 46.5128C2.3543 45.3899 2.01744 44.5879 0.958726 44.1095C0.791023 44.0337 0.667069 43.85 0.52124 43.7173L0.52124 43.0596ZM3.39406 43.7231C3.55593 44.0541 3.73968 44.4333 3.90155 44.7687L5.09151 44.5879C5.14546 44.2087 5.20379 43.796 5.25629 43.4212L4.19758 42.851L3.39406 43.7231Z" fill="#FBC2B0"/>
<path d="M24.2637 24.8164C22.9325 25.3429 21.6921 26.0745 20.5873 26.9849C18.3022 28.834 16.7214 31.2227 15.4046 33.8097C15.2894 34.0372 15.1859 34.2705 15.0604 34.4921C14.7936 34.969 14.4057 35.0988 13.9682 34.8713C13.5307 34.6438 13.3761 34.2369 13.6036 33.763C15.5796 29.6404 18.152 26.0428 22.3533 23.8919C22.4102 23.8612 22.4612 23.8175 22.4904 23.644C21.4477 23.7037 20.4007 23.711 19.3653 23.8321C15.0065 24.3396 11.0822 25.8897 7.75444 28.8107C5.50576 30.7866 3.79665 33.1724 2.47545 35.8483C2.41128 35.9781 2.34712 36.1094 2.28149 36.2392C1.98984 36.8108 1.61943 36.9683 1.14695 36.7379C0.674465 36.5075 0.549052 36.0817 0.813002 35.5392C2.13275 32.7451 3.84769 30.2296 6.10366 28.1019C9.62979 24.777 13.8472 22.9104 18.6187 22.2834C20.1426 22.0836 21.6811 22.053 23.2298 21.9436C23.1773 21.8959 23.1207 21.853 23.0606 21.8153C20.2476 20.2403 17.2858 19.0912 14.028 18.9935C12.6937 18.9526 11.3477 19.1539 10.0148 19.3056C9.24043 19.3945 8.7942 19.1306 8.82774 18.4612C8.85399 17.9625 9.18793 17.7875 9.61084 17.6912C11.8958 17.1879 14.2603 17.1636 16.5552 17.6198C19.3259 18.1433 21.8808 19.2151 24.3016 20.6326C24.464 20.74 24.6538 20.7987 24.8485 20.8018C24.6137 20.322 24.3935 19.832 24.1426 19.361C22.2498 15.8348 19.7707 12.8658 16.2023 10.9306C14.69 10.1238 13.0577 9.56539 11.3681 9.27693C10.6681 9.15006 10.3837 8.82778 10.4814 8.28967C10.5791 7.75156 10.9889 7.54303 11.6641 7.66698C17.0948 8.66299 21.1269 11.7123 24.1558 16.2096C24.7551 17.0992 25.2495 18.0573 25.792 18.9804C25.8605 19.097 25.9378 19.2122 26.018 19.3508C26.2367 18.1273 26.4219 16.949 26.6684 15.7838C26.7615 15.3383 26.9376 14.9144 27.1875 14.534C27.3334 14.308 27.7402 14.0528 27.9488 14.1097C28.2142 14.1811 28.465 14.5238 28.5948 14.8082C28.6837 15.0036 28.5744 15.3011 28.519 15.5461C28.2536 16.7331 27.9765 17.9173 27.7038 19.1029L27.8496 19.1699C27.9648 19.0051 28.08 18.8418 28.1923 18.677C31.3509 14.0236 35.4254 10.5238 40.8079 8.67757C43.1429 7.89262 45.5866 7.47926 48.0498 7.45261C48.6652 7.44095 48.9991 7.72677 49.0152 8.24592C49.0312 8.76507 48.7235 9.07131 48.1023 9.08444C44.967 9.15589 41.9556 9.77129 39.1163 11.126C34.5738 13.293 31.2241 16.7215 28.7246 21.092C28.8879 21.019 29.0527 20.9461 29.2131 20.8732C31.1453 19.9545 33.1242 19.1874 35.2752 18.9643C35.9241 18.8972 36.2537 19.1101 36.3149 19.6337C36.3791 20.1805 36.1064 20.5086 35.4516 20.5845C33.3561 20.828 31.4428 21.6053 29.5718 22.5269C29.4878 22.5697 29.4069 22.6184 29.3298 22.6727C30.8128 23.2473 32.3542 23.7387 33.8038 24.4227C38.3595 26.5809 41.9075 29.9335 44.8226 33.9949C47.099 37.1666 48.8314 40.6257 50.2314 44.2583C50.4705 44.8795 50.3378 45.2791 49.8405 45.4832C49.3433 45.6874 48.9422 45.4832 48.69 44.8212C47.15 40.8386 45.2017 37.0602 42.536 33.693C39.4109 29.7425 35.6281 26.6597 30.8216 24.9652C30.056 24.6968 29.2627 24.5073 28.3731 24.2477C28.4111 24.3869 28.4599 24.5229 28.519 24.6545C30.9076 28.7669 32.2784 33.2395 33.2161 37.8666C33.4232 38.8874 33.6025 39.9082 33.7761 40.929C33.9029 41.6756 33.6871 42.0519 33.1301 42.1379C32.573 42.224 32.3076 41.8988 32.1443 41.158C31.5332 38.4062 30.9776 35.6369 30.2485 32.9157C29.5071 30.1498 28.3654 27.5072 26.8594 25.0716C26.7821 24.9491 26.7019 24.8266 26.6188 24.7085C26.5999 24.6823 26.5576 24.6735 26.4934 24.64C25.633 25.6812 24.9987 26.8595 24.4518 28.0917C23.1583 31.0229 22.454 34.1305 21.9581 37.2789C21.2086 42.0825 20.965 46.9182 21.0627 51.7743C21.0627 51.8836 21.0715 51.993 21.0627 52.1024C21.0234 52.6099 20.6967 52.9161 20.2126 52.9044C19.7503 52.8928 19.4382 52.6026 19.4338 52.0995C19.4236 50.3495 19.3916 48.5996 19.4455 46.8496C19.5782 42.5652 19.9661 38.3041 20.8659 34.1042C21.5469 30.9237 22.4802 27.8336 24.1966 25.0264C24.2257 24.9587 24.2481 24.8884 24.2637 24.8164V24.8164Z" fill="#FBC2B0"/>
<path d="M19.9632 7.10263C20.2359 6.28891 19.7678 5.7333 18.973 5.3279C18.7051 5.20891 18.4647 5.03561 18.2672 4.81896C18.0689 4.57251 17.8297 4.21815 17.8705 3.95857C17.9114 3.699 18.2541 3.40588 18.5326 3.27755C19.0226 3.05006 19.5796 2.96694 20.0813 2.7584C20.3112 2.65019 20.4945 2.46279 20.5975 2.2305C20.8046 1.70844 20.8892 1.13533 21.1167 0.62639C21.229 0.363898 21.5206 0.0576584 21.7773 0.0066184C22.0339 -0.0444216 22.3387 0.212237 22.6173 0.347857C22.6775 0.39052 22.7224 0.451332 22.7456 0.521393C23.342 1.8776 24.3862 2.31946 25.808 2.04968C26.2294 1.96947 26.6144 2.09342 26.8186 2.51924C27.0111 2.92173 26.8375 3.24839 26.594 3.57504C26.2119 4.08252 25.6286 4.57251 25.5411 5.13395C25.4536 5.69539 25.8619 6.33412 26.0748 6.93201C26.2207 7.33013 26.298 7.70928 25.9596 8.04614C25.6213 8.38301 25.2115 8.35676 24.8455 8.15551C23.5826 7.45991 22.4918 7.62907 21.5177 8.69946C21.2377 9.0057 20.8644 9.1734 20.4313 8.96195C19.9982 8.7505 19.9471 8.36405 19.9661 7.94115C19.9719 7.7122 19.9632 7.4745 19.9632 7.10263ZM20.5159 4.33189C20.9067 4.68626 21.3106 4.91521 21.4871 5.25499C21.6635 5.59477 21.6212 6.06725 21.6723 6.46245C22.0616 6.24954 22.4014 5.94475 22.7864 5.87913C23.1714 5.81351 23.5812 6.00892 24.0989 6.11246C23.5083 5.21707 23.6993 4.45585 24.4212 3.76608C23.8962 3.71212 23.4368 3.77483 23.0956 3.59983C22.7543 3.42484 22.5123 3.01652 22.1229 2.57903C22.1287 3.75149 21.4842 4.19627 20.5159 4.33335V4.33189Z" fill="#FBC2B0"/>
<path d="M36.7436 48.4218C36.8209 47.9303 36.9302 47.4287 36.9638 46.9226C36.9709 46.6887 36.895 46.4599 36.7494 46.2766C36.4577 45.931 36.0888 45.651 35.7767 45.32C35.2751 44.7877 35.4938 44.0702 36.204 43.8996C36.5022 43.816 36.809 43.7671 37.1184 43.7538C37.7629 43.7538 38.1596 43.4738 38.3535 42.8511C38.4611 42.5434 38.6051 42.2497 38.7823 41.9761C38.851 41.8464 38.9538 41.7379 39.0795 41.6622C39.2053 41.5866 39.3493 41.5466 39.4961 41.5466C39.6429 41.5466 39.7869 41.5866 39.9126 41.6622C40.0384 41.7379 40.1412 41.8464 40.2099 41.9761C40.4593 42.3976 40.6387 42.8613 40.8924 43.2813C41.0039 43.4489 41.1722 43.5706 41.3663 43.624C41.8038 43.7261 42.2807 43.7159 42.7094 43.8486C42.9894 43.9361 43.3598 44.1504 43.4298 44.3867C43.5086 44.6506 43.3569 45.04 43.1921 45.3054C42.9841 45.6053 42.7255 45.8669 42.428 46.0783C42.0546 46.3699 42.0021 46.7039 42.1101 47.1312C42.205 47.5013 42.2718 47.8782 42.3098 48.2584C42.3798 49.0007 41.7163 49.5315 41.1286 49.1159C40.0072 48.3197 39.0272 48.3955 37.9408 49.1626C37.4333 49.5096 36.7538 49.0401 36.7436 48.4218ZM39.5231 44.4669L38.3287 45.3287C38.4746 45.7837 38.6466 46.2985 38.7939 46.7462H40.3747C40.2873 46.5058 40.2796 46.2436 40.3529 45.9985C40.4262 45.7535 40.5765 45.5385 40.7816 45.3856L39.5231 44.4669Z" fill="#FBC2B0"/>
<path d="M49.9571 12.1279C51.2273 12.7113 51.9987 12.1673 52.671 11.2034C52.8168 11.0007 53.2675 10.8621 53.5168 10.9278C53.7662 10.9934 54.0914 11.3405 54.1089 11.584C54.1935 12.7652 54.7593 13.4477 55.9099 13.7437C56.1578 13.8079 56.4465 14.2177 56.4728 14.4918C56.4641 14.6471 56.4172 14.7978 56.3363 14.9305C56.2554 15.0633 56.143 15.1741 56.009 15.253C54.8949 15.6905 54.4472 16.4561 54.526 17.6359C54.542 17.878 54.2533 18.2513 54.0112 18.365C53.7954 18.4656 53.3229 18.3986 53.1814 18.2192C52.3823 17.2421 51.4723 17.0861 50.313 17.5251C49.6874 17.7628 49.0632 17.0147 49.4015 16.4357C50.0199 15.3741 50.0505 14.4466 49.2178 13.49C49.072 13.3208 49.0895 12.8629 49.2178 12.6427C49.3461 12.4225 49.6976 12.2971 49.9571 12.1279ZM51.7231 15.4091L52.9583 15.7153L53.6379 14.6697L52.83 13.6854L51.6283 14.171C51.656 14.5458 51.6896 14.9833 51.7217 15.4091H51.7231Z" fill="#FBC2B0"/>
<path d="M41.187 18.5721C45.7733 18.8521 49.9178 20.4124 53.721 22.9367C54.4939 23.4486 55.2332 24.0144 55.974 24.5744C56.5763 25.0294 56.6711 25.4566 56.3094 25.9C55.9478 26.3433 55.5453 26.3229 54.9795 25.8737C52.1227 23.609 49.0005 21.8314 45.451 20.9403C44.0277 20.5831 42.5549 20.4197 41.0966 20.2229C40.3397 20.1208 39.9941 19.9108 40.0087 19.3625C40.0248 18.7908 40.4024 18.5371 41.187 18.5721Z" fill="#FBC2B0"/>
<path d="M30.0006 10.7762C29.1562 10.7762 28.7596 10.0951 29.1154 9.50745C29.8591 8.28395 30.5737 7.02837 31.4749 5.91716C32.3032 4.89636 33.3371 4.03597 34.3171 3.14641C34.8246 2.6856 35.3277 2.73809 35.6441 3.17266C35.9431 3.5839 35.8366 4.04763 35.3175 4.43262C33.3167 5.93757 31.8351 7.86834 30.6509 10.0572C30.4832 10.3751 30.1566 10.6085 30.0006 10.7762Z" fill="#FBC2B0"/>
<path d="M6.55718 20.3016C6.47843 20.4022 6.36031 20.672 6.15323 20.7959C4.65968 21.7071 3.29518 22.8146 2.09629 24.0887C1.73463 24.4664 1.2534 24.4635 0.929658 24.1427C0.8487 24.068 0.783803 23.9776 0.738924 23.8771C0.694045 23.7765 0.670125 23.6678 0.668624 23.5577C0.667123 23.4476 0.688072 23.3383 0.730193 23.2366C0.772314 23.1348 0.834724 23.0427 0.913617 22.9659C2.18813 21.5616 3.67164 20.3624 5.3118 19.4106C5.93449 19.0577 6.57322 19.4456 6.55718 20.3016Z" fill="#FBC2B0"/>
<path d="M11.629 43.1631C11.5098 43.1623 11.3922 43.1349 11.2849 43.083C11.1776 43.031 11.0832 42.9558 11.0086 42.8628C10.934 42.7697 10.8811 42.6612 10.8537 42.5452C10.8263 42.4291 10.8252 42.3084 10.8503 42.1919C11.0778 41.1448 11.3345 40.1055 11.6203 39.0741C11.6443 38.966 11.6907 38.8642 11.7564 38.7751C11.8221 38.686 11.9056 38.6117 12.0017 38.5567C12.0978 38.5018 12.2043 38.4676 12.3144 38.4562C12.4245 38.4449 12.5358 38.4566 12.6411 38.4907C13.0902 38.6249 13.3031 39.0741 13.1719 39.5903C12.9284 40.5469 12.695 41.4919 12.4573 42.4427C12.3334 42.9108 12.0417 43.1718 11.629 43.1631Z" fill="#FBC2B0"/>
<path d="M53.7764 37.1929C53.7815 37.2978 53.7657 37.4026 53.7299 37.5013C53.6941 37.5999 53.6391 37.6905 53.568 37.7677C53.4969 37.8449 53.4111 37.9072 53.3157 37.951C53.2203 37.9948 53.1172 38.0192 53.0123 38.0227C52.9073 38.0291 52.8022 38.0139 52.7033 37.9779C52.6045 37.942 52.5142 37.8861 52.4379 37.8137C52.3615 37.7414 52.3009 37.6541 52.2598 37.5574C52.2186 37.4606 52.1978 37.3564 52.1986 37.2513C52.1875 37.1421 52.1995 37.0318 52.2339 36.9276C52.2683 36.8234 52.3243 36.7275 52.3982 36.6464C52.472 36.5652 52.5622 36.5005 52.6627 36.4565C52.7632 36.4125 52.8719 36.3901 52.9816 36.3909C53.0867 36.3907 53.1907 36.4114 53.2877 36.4517C53.3847 36.492 53.4727 36.5512 53.5467 36.6258C53.6206 36.7004 53.679 36.789 53.7184 36.8863C53.7579 36.9837 53.7776 37.0879 53.7764 37.1929V37.1929Z" fill="#FBC2B0"/>
<path d="M5.39929 12.2795C5.3993 12.1747 5.42137 12.0711 5.46408 11.9754C5.50678 11.8797 5.56916 11.794 5.64716 11.724C5.72515 11.654 5.81701 11.6012 5.91677 11.569C6.01652 11.5368 6.12193 11.526 6.22613 11.5373C6.33073 11.54 6.43366 11.5642 6.52855 11.6083C6.62344 11.6524 6.70828 11.7155 6.77784 11.7937C6.8474 11.8718 6.9002 11.9634 6.93297 12.0628C6.96575 12.1622 6.97781 12.2672 6.9684 12.3714C6.96891 12.479 6.94736 12.5856 6.90509 12.6845C6.86281 12.7835 6.8007 12.8727 6.7226 12.9467C6.6445 13.0208 6.55205 13.078 6.45097 13.1149C6.3499 13.1518 6.24233 13.1676 6.13491 13.1613C6.02749 13.155 5.9225 13.1267 5.82642 13.0783C5.73034 13.0299 5.6452 12.9622 5.57627 12.8796C5.50734 12.797 5.45607 12.7011 5.42563 12.5979C5.39519 12.4947 5.38622 12.3864 5.39929 12.2795Z" fill="#FBC2B0"/>
<path d="M42.3085 4.67315C42.3138 4.77789 42.297 4.88258 42.259 4.98035C42.221 5.07812 42.1628 5.16675 42.0882 5.24043C42.0135 5.31411 41.9241 5.37117 41.8259 5.40786C41.7276 5.44455 41.6227 5.46005 41.5181 5.45333C41.0325 5.45333 40.7277 5.11063 40.7525 4.60023C40.7521 4.49546 40.7732 4.39172 40.8144 4.29541C40.8557 4.1991 40.9162 4.11226 40.9923 4.04025C41.0685 3.96824 41.1585 3.91259 41.257 3.87672C41.3554 3.84086 41.4601 3.82554 41.5647 3.83172C41.6695 3.83608 41.7723 3.86157 41.867 3.90665C41.9617 3.95172 42.0463 4.01546 42.1158 4.09404C42.1853 4.17262 42.2381 4.26442 42.2712 4.36393C42.3043 4.46345 42.317 4.56862 42.3085 4.67315Z" fill="#FBC2B0"/>
<path d="M27.1438 41.7968C27.2487 41.7978 27.3522 41.8201 27.4482 41.8625C27.5441 41.9048 27.6304 41.9663 27.7018 42.0432C27.7732 42.12 27.8282 42.2106 27.8634 42.3094C27.8985 42.4082 27.9132 42.5132 27.9065 42.6178C27.9133 42.7224 27.8981 42.8271 27.8619 42.9254C27.8257 43.0237 27.7693 43.1133 27.6963 43.1885C27.6233 43.2637 27.5354 43.3227 27.4383 43.3618C27.3411 43.4009 27.2368 43.4192 27.1321 43.4155C27.0227 43.4202 26.9136 43.4013 26.8121 43.3602C26.7106 43.3191 26.6191 43.2568 26.5437 43.1773C26.4684 43.0978 26.411 43.0031 26.3754 42.8995C26.3398 42.796 26.3268 42.686 26.3373 42.577C26.3367 42.4721 26.3573 42.3682 26.3979 42.2715C26.4385 42.1748 26.4983 42.0874 26.5737 42.0144C26.6491 41.9415 26.7385 41.8846 26.8365 41.8472C26.9344 41.8098 27.039 41.7927 27.1438 41.7968V41.7968Z" fill="#FBC2B0"/>
<path d="M49.6728 26.2281C49.6805 26.3328 49.6671 26.438 49.6334 26.5374C49.5997 26.6369 49.5464 26.7285 49.4767 26.807C49.4069 26.8855 49.3221 26.9491 49.2273 26.9942C49.1325 27.0393 49.0296 27.0649 48.9247 27.0695C48.8152 27.0736 48.706 27.055 48.6041 27.0149C48.5021 26.9747 48.4096 26.9139 48.3323 26.8362C48.2551 26.7585 48.1947 26.6657 48.1551 26.5635C48.1155 26.4614 48.0975 26.3521 48.1022 26.2427C48.0976 26.1379 48.1145 26.0333 48.1519 25.9354C48.1893 25.8374 48.2464 25.7481 48.3197 25.6731C48.3929 25.5981 48.4808 25.5389 48.5778 25.4991C48.6748 25.4594 48.779 25.44 48.8838 25.4421C48.9888 25.4359 49.0938 25.4521 49.1921 25.4894C49.2904 25.5267 49.3797 25.5843 49.4542 25.6585C49.5287 25.7327 49.5866 25.8218 49.6243 25.9199C49.662 26.0181 49.6785 26.1231 49.6728 26.2281Z" fill="#FBC2B0"/>
<path d="M11.6247 50.8745C11.5206 50.8724 11.418 50.8491 11.3232 50.8061C11.2284 50.7631 11.1434 50.7012 11.0732 50.6243C11.0031 50.5473 10.9494 50.4569 10.9153 50.3585C10.8813 50.2602 10.8676 50.1559 10.8751 50.052C10.8694 49.9474 10.8855 49.8427 10.9225 49.7447C10.9595 49.6466 11.0165 49.5573 11.0899 49.4826C11.1633 49.4078 11.2515 49.3491 11.3489 49.3103C11.4462 49.2715 11.5506 49.2535 11.6553 49.2573C11.8641 49.2686 12.0603 49.3603 12.203 49.5131C12.3456 49.666 12.4236 49.8681 12.4206 50.0771C12.4176 50.2861 12.3338 50.4859 12.1868 50.6345C12.0398 50.7832 11.841 50.8692 11.632 50.8745H11.6247Z" fill="#FBC2B0"/>
</svg>
