<svg width="53" height="54" viewBox="0 0 53 54" fill="none" xmlns="http://www.w3.org/2000/svg">
<path d="M17.0365 0C17.6609 0.60782 17.7037 0.879958 17.2423 1.65769C15.4145 4.68818 14.2584 8.07573 13.8524 11.5914C13.0359 18.8424 14.8193 25.4055 19.3559 31.148C23.3178 36.1543 28.5077 39.25 34.7572 40.4753C40.066 41.5528 45.5797 40.9187 50.5053 38.6643C50.7415 38.5593 50.9736 38.4474 51.2098 38.341C51.6477 38.1421 52.0691 38.1697 52.3882 38.54C52.7073 38.9102 52.6548 39.326 52.4047 39.6921C51.685 40.7433 50.9998 41.8291 50.1945 42.8099C46.1083 47.7664 40.91 50.9906 34.6481 52.3775C21.3769 55.3199 7.87913 48.5621 2.54551 35.5547C0.951362 31.6647 0.257894 27.5978 0.611535 23.4218C1.48459 12.9079 6.66349 5.18443 15.9562 0.20583C16.0764 0.142285 16.1925 0.0676891 16.3113 0H17.0365ZM14.0678 3.42175C7.72856 7.32147 0.723429 16.5451 2.63254 29.221C3.45014 34.484 5.86491 39.3688 9.55005 43.2143C13.2352 47.0598 18.0128 49.6803 23.2363 50.7212C33.0761 52.7008 43.1286 48.8149 48.7647 41.3567C37.4372 44.5505 27.4413 42.2988 19.0451 33.7465C11.2525 24.6195 9.87803 14.4551 14.0678 3.42175Z" fill="#FBC2B0"/>
</svg>
