<svg width="64" height="41" viewBox="0 0 64 41" fill="none" xmlns="http://www.w3.org/2000/svg">
<path d="M4.66147 33.2898C4.69834 19.4748 15.0526 8.11975 27.5946 6.27963C27.4348 5.66859 27.2785 5.06458 27.1205 4.46233C26.5674 2.35882 27.642 0.962924 29.8263 0.954145C31.2977 0.954145 32.7673 0.94361 34.2369 0.954145C36.1684 0.971704 37.264 2.37814 36.811 4.24811C36.653 4.9048 36.4721 5.55622 36.3211 6.1374C50.533 9.62452 58.1797 18.6039 59.3508 33.2442C59.4668 33.2648 59.5842 33.2766 59.702 33.2793C60.6221 33.2793 61.5439 33.2793 62.4657 33.2793C63.5859 33.2793 63.8704 33.5795 63.8019 34.6998C63.6263 37.6636 61.0891 40.2798 58.1393 40.5239C57.7881 40.552 57.4369 40.5678 57.0858 40.5678C40.321 40.5678 23.5561 40.5678 6.79131 40.5678C3.69926 40.5678 1.29902 38.9577 0.401782 36.2449C0.219108 35.6415 0.109462 35.0184 0.0751941 34.389C0.0207629 33.648 0.380711 33.3021 1.1287 33.2933C2.2981 33.281 3.45695 33.2898 4.66147 33.2898ZM6.56129 33.2336H57.3246C57.523 20.2685 46.9791 7.80195 31.9421 7.80195C16.9506 7.80195 6.35937 20.221 6.56129 33.2336ZM61.8898 35.1493H1.98907C2.07335 35.4407 2.12251 35.6953 2.21733 35.9324C2.95654 37.7497 4.61757 38.7768 6.83696 38.7768H44.4876C48.6794 38.7768 52.8706 38.7768 57.0612 38.7768C58.2095 38.7768 59.2823 38.5433 60.2094 37.8252C61.0823 37.1727 61.6812 36.2189 61.8898 35.1493V35.1493ZM31.9456 2.76267C31.1572 2.76267 30.3653 2.7416 29.5787 2.76267C28.9238 2.78549 28.6762 3.13666 28.8289 3.77228C28.9817 4.40789 29.1696 5.00137 29.3048 5.61416C29.3838 5.96533 29.5541 6.0461 29.9 6.03908C31.2573 6.01625 32.6163 6.00923 33.9753 6.03908C34.3704 6.04961 34.5126 5.91968 34.5899 5.55622C34.711 4.9803 34.8884 4.41316 35.0306 3.84076C35.2167 3.09628 34.9691 2.77145 34.1808 2.75564C33.4363 2.75038 32.6918 2.76091 31.9456 2.76267Z" fill="#FBC2B0"/>
</svg>
