<svg width="89" height="19" viewBox="0 0 89 19" fill="none" xmlns="http://www.w3.org/2000/svg">
<path d="M30.6241 9.23462H88.8503" stroke="#FBF8F3" stroke-width="2"/>
<path d="M21.4052 2.76587L22.3132 2.34699C22.1933 2.08716 21.9679 1.89113 21.694 1.80849C21.42 1.72584 21.1238 1.76451 20.8803 1.9147L21.4052 2.76587ZM30.9382 9.23487L31.0915 10.223C31.5787 10.1475 31.9382 9.72796 31.9382 9.23487C31.9382 8.74178 31.5787 8.32228 31.0915 8.24669L30.9382 9.23487ZM21.3732 16.1723L20.8454 17.0217C21.0916 17.1747 21.3921 17.2133 21.669 17.1276C21.9459 17.0418 22.172 16.8401 22.2886 16.5747L21.3732 16.1723ZM13.0209 9.30907L12.3397 8.57693C11.9365 8.95205 11.9125 9.58256 12.286 9.98727L13.0209 9.30907ZM20.4971 3.18475C22.7485 8.06531 28.1345 9.81187 30.7849 10.223L31.0915 8.24669C28.6506 7.86801 24.135 6.29621 22.3132 2.34699L20.4971 3.18475ZM30.7849 8.24669C29.3807 8.46454 27.3675 9.09597 25.4308 10.2791C23.4887 11.4655 21.5694 13.2409 20.4577 15.7699L22.2886 16.5747C23.1932 14.517 24.7769 13.0222 26.4734 11.9858C28.1754 10.9461 29.9366 10.4022 31.0915 10.223L30.7849 8.24669ZM21.9009 15.3229C18.8344 13.4175 16.1914 11.27 13.7558 8.63086L12.286 9.98727C14.8514 12.767 17.636 15.0274 20.8454 17.0217L21.9009 15.3229ZM13.702 10.0412C16.6395 7.30828 19.0922 5.36709 21.9301 3.61703L20.8803 1.9147C17.9021 3.7513 15.3451 5.78083 12.3397 8.57693L13.702 10.0412Z" fill="#FBF8F3"/>
</svg>
