<svg width="47" height="40" viewBox="0 0 47 40" fill="none" xmlns="http://www.w3.org/2000/svg">
<path d="M46 20.9545C43.6794 18.6339 40.532 17.3302 37.2502 17.3302C33.9683 17.3302 30.8209 18.6339 28.5003 20.9545C26.1797 23.2751 24.876 26.4225 24.876 29.7043C24.876 32.9862 26.1797 36.1336 28.5003 38.4542" stroke="#6D4D36" stroke-width="2"/>
<path d="M1.00049 20.8908C3.32109 18.5702 6.46851 17.2665 9.75034 17.2665C13.0322 17.2665 16.1796 18.5702 18.5002 20.8908C20.8208 23.2114 22.1245 26.3588 22.1245 29.6406C22.1245 32.9225 20.8208 36.0699 18.5002 38.3905" stroke="#6D4D36" stroke-width="2"/>
<path fill-rule="evenodd" clip-rule="evenodd" d="M25.3252 12.9145C25.7942 11.7389 26.0892 10.0341 26.0892 8.13709C26.0892 6.73104 25.0581 2.99969 23.7863 1.71533C22.5144 2.99969 21.4834 6.73104 21.4834 8.13709C21.4834 10.1054 21.8009 11.8668 22.301 13.0448C17.4117 9.55229 14.4261 11.0817 11.9667 13.9389C15.3193 13.8109 18.7144 15.792 21.2739 18.3111C22.3271 19.3477 23.1526 20.5235 23.7503 21.7783C24.3591 20.3229 25.2643 18.9593 26.4657 17.7769C28.9236 15.3578 32.152 13.3736 35.3735 13.3957C32.7584 11.0746 29.9506 9.56956 25.3252 12.9145Z" stroke="#6D4D36" stroke-width="2"/>
</svg>
