<svg width="90" height="18" viewBox="0 0 90 18" fill="none" xmlns="http://www.w3.org/2000/svg">
<path d="M58.8813 8.66772H0.655099" stroke="#FBF8F3" stroke-width="2"/>
<path d="M68.1002 2.19897L67.1922 1.78009C67.3121 1.52027 67.5375 1.32423 67.8114 1.24159C68.0854 1.15895 68.3816 1.19762 68.6251 1.34781L68.1002 2.19897ZM58.5672 8.66797L58.4139 9.65615C57.9267 9.58056 57.5672 9.16107 57.5672 8.66797C57.5672 8.17488 57.9267 7.75539 58.4139 7.6798L58.5672 8.66797ZM68.1322 15.6054L68.66 16.4548C68.4138 16.6078 68.1133 16.6464 67.8364 16.5607C67.5595 16.4749 67.3334 16.2732 67.2168 16.0078L68.1322 15.6054ZM76.4845 8.74217L77.1657 8.01003C77.5689 8.38515 77.5929 9.01567 77.2194 9.42037L76.4845 8.74217ZM69.0083 2.61786C66.7569 7.49842 61.3709 9.24498 58.7205 9.65615L58.4139 7.6798C60.8548 7.30112 65.3704 5.72932 67.1922 1.78009L69.0083 2.61786ZM58.7205 7.6798C60.1247 7.89764 62.1379 8.52907 64.0746 9.71217C66.0167 10.8986 67.936 12.674 69.0477 15.203L67.2168 16.0078C66.3122 13.9501 64.7285 12.4553 63.032 11.4189C61.33 10.3792 59.5688 9.83532 58.4139 9.65615L58.7205 7.6798ZM67.6045 14.7561C70.671 12.8506 73.314 10.7031 75.7496 8.06397L77.2194 9.42037C74.654 12.2001 71.8694 14.4605 68.66 16.4548L67.6045 14.7561ZM75.8034 9.47431C72.8659 6.74139 70.4132 4.80019 67.5753 3.05014L68.6251 1.34781C71.6033 3.1844 74.1603 5.21393 77.1657 8.01003L75.8034 9.47431Z" fill="#FBF8F3"/>
</svg>
