<svg width="153" height="126" viewBox="0 0 153 126" fill="none" xmlns="http://www.w3.org/2000/svg">
<g filter="url(#filter0_d_141_511)">
<path d="M119.072 88.4889C108.208 103.972 89.5401 112.09 70.8081 109.85C54.8608 107.943 40.6034 98.2245 32.5436 84.4201C27.541 75.8656 25.3176 65.9493 25.7373 56.0858C25.7373 55.8968 24.948 56.4277 24.9341 56.7417C24.5813 64.7411 26.0686 72.7147 29.2814 80.049C32.4942 87.3834 37.3469 93.8828 43.466 99.0472C56.0253 109.625 73.2538 113.382 89.1482 109.525C101.53 106.521 112.405 98.7248 119.689 88.3443C120.084 87.7885 119.242 88.2471 119.072 88.4889V88.4889Z" fill="#FBF8F3"/>
<path d="M30.059 80.0904C27.4771 77.9365 24.3588 76.8638 21.221 75.7826C17.5135 74.5097 14.0506 72.9645 11.3047 70.0852L11.063 70.5354C14.851 69.7239 18.6086 69.9212 22.0465 71.8167C25.4844 73.7121 27.8412 77.0972 29.6199 80.474C29.7616 80.7519 30.2174 80.3962 30.0923 80.1599C28.233 76.622 25.8512 73.3869 22.3605 71.3303C18.9615 69.3181 14.9094 69.2153 11.1408 70.0241C10.9712 70.0602 10.735 70.302 10.899 70.4771C13.4253 73.1424 16.5436 74.6987 19.9593 75.9216C23.3749 77.1445 26.8267 78.145 29.6532 80.4962C29.87 80.6796 30.273 80.2683 30.059 80.0904Z" fill="#FBF8F3"/>
<path d="M11.0518 70.3991C14.44 71.2969 17.7064 72.6035 20.7791 74.29C23.6279 75.8463 27.0824 77.2054 29.0335 79.8873C29.1141 79.9985 29.3114 79.7984 29.2363 79.6845C27.2631 76.9775 23.7918 75.6323 20.9376 74.0537C17.8452 72.3591 14.5557 71.0523 11.1435 70.1628C11.0157 70.1295 10.8823 70.3713 11.0435 70.4129L11.0518 70.3991Z" fill="#FBF8F3"/>
<path d="M14.7343 73.187C15.8293 73.0424 16.8799 72.8229 17.9944 72.8451C18.125 72.8451 18.2556 72.5978 18.0944 72.595C16.9633 72.57 15.8877 72.7895 14.7732 72.9368C14.6398 72.9563 14.5564 73.2148 14.7343 73.187Z" fill="#FBF8F3"/>
<path d="M19.7591 73.42C19.142 72.3234 18.6176 71.1772 18.1917 69.9932C18.1361 69.8514 17.9137 70.0238 17.9554 70.1488C18.3818 71.3331 18.9071 72.4794 19.5257 73.5756C19.6007 73.7062 19.8286 73.5339 19.7591 73.42Z" fill="#FBF8F3"/>
<path d="M18.5279 75.2573C19.6619 75.1683 20.7902 75.0544 21.9158 74.8932C22.0492 74.8737 22.1326 74.6152 21.9547 74.6458C20.843 74.807 19.7008 74.9237 18.5669 75.0071C18.4307 75.0071 18.3501 75.2711 18.5279 75.2573V75.2573Z" fill="#FBF8F3"/>
<path d="M23.3082 75.3653C22.4606 73.8728 21.8074 72.2859 21.032 70.7573C20.9626 70.6211 20.7347 70.7934 20.7958 70.9129C21.5712 72.4443 22.2382 74.0312 23.072 75.5237C23.147 75.6571 23.3749 75.482 23.3082 75.368V75.3653Z" fill="#FBF8F3"/>
<path d="M25.2231 76.4078C24.4727 76.3216 23.7335 76.5106 22.9831 76.5051C22.8524 76.5051 22.7218 76.7552 22.883 76.758C23.6306 76.758 24.3755 76.5745 25.1231 76.6607C25.2537 76.6746 25.3871 76.4272 25.2231 76.4078Z" fill="#FBF8F3"/>
<path d="M26.0819 76.9279C25.715 75.7106 25.3843 74.4766 24.9313 73.2871C24.8785 73.1481 24.6534 73.3177 24.6978 73.4455C25.1481 74.635 25.4788 75.8662 25.8457 77.0835C25.8874 77.2253 26.1236 77.0557 26.0819 76.9279Z" fill="#FBF8F3"/>
<path d="M25.5733 56.5949C26.1291 52.3649 25.1536 48.2766 24.1698 44.1856C22.9803 39.2413 22.2243 34.3721 23.4778 29.3528L22.8941 29.6641C26.3181 33.1215 28.6972 37.2681 29.0807 42.2012C29.4698 47.2566 27.4409 52.2259 24.9869 56.5282C24.7479 56.9478 25.287 57.1257 25.4927 56.7588C27.994 52.3565 29.8589 47.5874 29.7477 42.4402C29.6365 37.2931 26.9685 32.7129 23.4055 29.1388C23.1832 28.9193 22.8747 29.2444 22.8219 29.4501C21.6824 33.9552 22.1354 38.402 23.1443 42.8932C24.1726 47.4595 25.5427 51.9619 24.9202 56.6949C24.859 57.1507 25.5149 56.9395 25.5594 56.5949H25.5733Z" fill="#FBF8F3"/>
<path d="M22.9914 29.5084C24.3346 33.6657 25.1744 37.969 25.4927 42.3262C25.7984 46.5534 26.7851 51.4977 25.1731 55.5026C25.0842 55.7277 25.401 55.711 25.4705 55.5359C27.038 51.645 26.1181 47.0509 25.8651 42.9654C25.583 38.3207 24.7193 33.7297 23.2944 29.3C23.236 29.1193 22.9386 29.3389 22.9914 29.5028V29.5084Z" fill="#FBF8F3"/>
<path d="M22.5162 35.4005C23.4277 36.4872 24.4005 37.4739 25.1398 38.6967C25.2426 38.8635 25.5316 38.6411 25.4427 38.4938C24.6895 37.2515 23.7029 36.2454 22.7802 35.1393C22.6635 35.0031 22.3994 35.2616 22.5162 35.4005V35.4005Z" fill="#FBF8F3"/>
<path d="M25.7067 40.903C26.4599 39.49 27.332 38.1437 28.3136 36.8787C28.4582 36.6814 28.1802 36.6008 28.058 36.762C27.0617 38.0553 26.1748 39.4292 25.4066 40.8697C25.301 41.0865 25.6234 41.067 25.7067 40.903Z" fill="#FBF8F3"/>
<path d="M22.8941 40.956C23.7723 42.1205 24.6756 43.2683 25.6289 44.3744C25.7456 44.5078 26.0096 44.2494 25.8901 44.0965C24.9368 42.9848 24.0336 41.8481 23.1554 40.6808C23.0497 40.5391 22.7857 40.7948 22.8941 40.9421V40.956Z" fill="#FBF8F3"/>
<path d="M26.043 46.0834C27.063 44.138 28.3275 42.3593 29.4364 40.4749C29.5615 40.2665 29.2891 40.1803 29.1835 40.361C28.0718 42.2703 26.7823 44.0879 25.7456 46.0529C25.6344 46.2641 25.9596 46.2446 26.043 46.0834V46.0834Z" fill="#FBF8F3"/>
<path d="M26.2348 48.8687C25.8151 47.9932 25.0953 47.3262 24.5839 46.5091C24.4811 46.3424 24.1892 46.5647 24.281 46.7092C24.7896 47.5263 25.5122 48.1961 25.9318 49.0688C26.018 49.2439 26.3126 49.0243 26.2348 48.8687Z" fill="#FBF8F3"/>
<path d="M26.2181 50.2471C27.2937 48.9936 28.4137 47.7763 29.3975 46.4479C29.5421 46.2533 29.2641 46.1699 29.1418 46.3339C28.1775 47.6346 27.0797 48.8352 26.0235 50.0553C25.8762 50.2276 26.0652 50.4222 26.2181 50.2471V50.2471Z" fill="#FBF8F3"/>
<path d="M16.5658 64.5264C16.0545 63.7843 16.2018 62.517 16.3074 61.6693C16.1684 61.7805 16.0294 61.8945 15.896 62.0084C16.7074 62.0796 17.4997 62.2942 18.2362 62.6421C18.5784 62.8327 18.8321 63.15 18.9428 63.5258C19.0535 63.9015 19.0123 64.3057 18.8281 64.6514C18.3168 65.5797 17.0967 65.1378 16.5658 64.5264C16.3518 64.279 15.871 64.7515 16.0906 65.0016C16.3634 65.3368 16.7388 65.5731 17.159 65.6743C17.5791 65.7755 18.0209 65.7359 18.4164 65.5617C18.8119 65.3874 19.1393 65.0882 19.3482 64.7098C19.5572 64.3315 19.6361 63.895 19.573 63.4675C19.384 61.9 17.3996 61.5665 16.1323 61.4192C16.0351 61.4184 15.9408 61.4519 15.866 61.514C15.7912 61.5761 15.7408 61.6626 15.7237 61.7583C15.5959 62.7782 15.4792 64.1178 16.0906 65.0016C16.2712 65.2796 16.7548 64.7987 16.5658 64.5264V64.5264Z" fill="#FBF8F3"/>
<path d="M18.5752 65.3188C19.409 66.4305 20.7986 66.6001 22.0604 66.9642C24.6951 67.7284 26.0347 69.8156 26.8518 72.3253C26.9157 72.5226 27.2464 72.2836 27.1853 72.1002C26.4821 69.9351 25.4177 68.0036 23.2943 66.9975C21.8408 66.3083 19.8981 66.4166 18.8643 65.0298C18.7475 64.8714 18.4557 65.1549 18.5863 65.3077L18.5752 65.3188Z" fill="#FBF8F3"/>
<path d="M31.5403 55.8748C31.6042 55.1383 31.1151 54.4018 30.7065 53.8293C30.6398 53.7375 30.4759 53.782 30.4036 53.8293C29.6754 54.3462 28.6305 55.18 28.9084 56.1888C28.9785 56.49 29.156 56.7553 29.4078 56.9349C29.6595 57.1145 29.9681 57.1961 30.2758 57.1643C30.9511 57.1282 31.4097 56.4695 31.5459 55.8748C31.6292 55.519 31.0928 55.6858 31.0289 55.9554C30.7121 57.3255 28.8695 56.3334 29.517 55.2689C29.7982 54.86 30.1582 54.5114 30.5759 54.2434H30.2702C30.5954 54.6936 31.0651 55.369 31.015 55.947C30.9817 56.3167 31.507 56.1499 31.532 55.8664L31.5403 55.8748Z" fill="#FBF8F3"/>
<path d="M29.8978 56.9311C29.8005 58.3207 27.9023 58.8571 26.974 59.6269C25.6595 60.7136 25.3426 62.3867 25.3704 64.007C25.3704 64.1599 25.6094 64.0348 25.6067 63.9125C25.565 61.5168 26.4766 60.0216 28.4859 58.8432C29.2725 58.3791 30.0645 57.8871 30.134 56.8977C30.134 56.7282 29.9089 56.8032 29.8978 56.9311V56.9311Z" fill="#FBF8F3"/>
<path d="M15.3346 54.6769C15.0567 53.921 15.4513 52.8815 15.7237 52.1756L15.1679 52.4758C15.8682 52.716 16.5211 53.0772 17.0966 53.543C17.3335 53.7535 17.482 54.0458 17.5124 54.3612C17.5428 54.6767 17.4529 54.9919 17.2606 55.2439C16.6547 55.9804 15.6542 55.3078 15.3318 54.688C15.1317 54.3017 14.4814 54.7936 14.6593 55.1355C15.5514 56.8475 17.8304 56.4195 18.2139 54.5796C18.5391 53.0483 16.7687 52.2312 15.6153 51.8004C15.5019 51.7717 15.3819 51.7866 15.2789 51.8422C15.176 51.8978 15.0977 51.99 15.0595 52.1006C14.7121 52.9982 14.3119 54.185 14.6565 55.1327C14.801 55.5301 15.4597 55.0465 15.329 54.6852L15.3346 54.6769Z" fill="#FBF8F3"/>
<path d="M16.8771 55.8888C17.4079 57.5118 18.8226 58.6291 19.9898 59.8047C22.0257 61.8066 23.2861 64.4653 23.5473 67.3086C23.5667 67.5226 23.8891 67.3503 23.8724 67.178C23.649 64.6448 22.6361 62.2457 20.9765 60.3189C19.7036 58.8292 17.8165 57.6202 17.1828 55.6859C17.1245 55.5024 16.8243 55.722 16.8771 55.8888V55.8888Z" fill="#FBF8F3"/>
<path d="M34.2362 87.5275C35.3645 84.0452 34.1611 80.6795 32.941 77.3945C32.8632 77.1833 32.5519 77.3333 32.4797 77.464C30.7454 80.7018 32.1101 84.6677 33.7359 87.6665C33.8915 87.9444 34.3779 87.5831 34.2389 87.3302C32.7326 84.551 31.2735 80.6934 32.9021 77.6585L32.438 77.728C33.6025 80.8657 34.8226 84.1202 33.7415 87.472C33.6164 87.8527 34.1389 87.8249 34.2362 87.5275Z" fill="#FBF8F3"/>
<path d="M34.0361 87.4582C31.5098 84.2899 26.8101 82.6612 23.0942 81.4328C22.8914 81.3661 22.5384 81.6246 22.6774 81.8525C24.2504 84.6317 30.5593 91.3769 33.9777 87.8334C34.2556 87.5554 33.9249 87.2386 33.6581 87.5165C30.6788 90.607 24.5645 83.9814 23.1804 81.519L22.7607 81.9386C26.4377 83.1504 31.0984 84.7679 33.5997 87.8917C33.7859 88.1252 34.2251 87.6944 34.0361 87.4582V87.4582Z" fill="#FBF8F3"/>
<path d="M40.4338 95.2368C41.1036 92.2241 39.8474 89.4977 38.5745 86.8241C38.4856 86.6351 38.2382 86.8074 38.1854 86.9324C36.9904 89.7812 38.4634 93.0078 40.0309 95.398C40.1698 95.612 40.545 95.3229 40.4227 95.1395C38.908 92.8411 37.4184 89.72 38.5718 86.9741L38.1827 87.0825C39.4222 89.6867 40.684 92.3631 40.0197 95.3007C39.9558 95.5786 40.3866 95.4536 40.4338 95.2368V95.2368Z" fill="#FBF8F3"/>
<path d="M40.2671 95.2593C37.8519 92.758 33.7859 91.7436 30.5092 90.9709C30.4631 90.9675 30.4169 90.9763 30.3753 90.9966C30.3337 91.0168 30.2982 91.0477 30.2725 91.0862C30.2468 91.1246 30.2317 91.1692 30.2289 91.2154C30.226 91.2615 30.2355 91.3076 30.2563 91.3489C31.796 93.5723 37.5907 98.7556 40.2198 95.5539C40.406 95.3288 40.1643 95.0731 39.9725 95.3065C37.6213 98.1664 31.9961 93.0331 30.5954 91.0099L30.3425 91.3878C33.5247 92.1382 37.5823 93.1638 39.928 95.5984C40.092 95.7679 40.4283 95.4288 40.2671 95.2593V95.2593Z" fill="#FBF8F3"/>
<path d="M46.0896 100.206C46.1229 97.8608 44.7 96.0015 43.3354 94.2256C43.2492 94.1144 43.0852 94.2839 43.0574 94.3701C42.6183 96.6852 44.2497 98.8641 45.8117 100.387C45.9312 100.504 46.173 100.262 46.0507 100.145C44.5471 98.6751 42.9296 96.5629 43.3548 94.3256L43.0769 94.4701C44.4248 96.2127 45.8061 98.0164 45.7755 100.326C45.7755 100.518 46.0701 100.359 46.0729 100.206H46.0896Z" fill="#FBF8F3"/>
<path d="M45.9618 100.267C43.755 98.8055 40.57 98.6943 38.0132 98.6443C37.9048 98.6443 37.7158 98.8055 37.8325 98.9222C39.3694 100.345 44.5027 103.291 45.9868 100.47C46.0896 100.273 45.8422 100.192 45.7505 100.365C44.4332 102.866 39.4556 99.9616 38.0743 98.6804L37.8936 98.9583C40.4339 99.0084 43.5939 99.1195 45.7755 100.565C45.9062 100.654 46.1118 100.384 45.9618 100.287V100.267Z" fill="#FBF8F3"/>
<path d="M34.8559 29.3888C45.8311 13.839 64.6938 5.77921 83.5203 8.21103C99.4397 10.2704 113.603 20.1173 121.532 33.9884C126.382 42.4678 128.535 52.2591 128.102 61.9864C128.102 62.1754 128.891 61.6445 128.905 61.3305C129.271 53.3186 127.791 45.3298 124.578 37.981C121.366 30.6322 116.508 24.12 110.379 18.9472C97.7944 8.35278 80.5215 4.60359 64.602 8.4973C52.3067 11.5072 41.5038 19.2418 34.2389 29.5361C33.8443 30.0919 34.6864 29.6306 34.8559 29.3888Z" fill="#FBF8F3"/>
<path d="M123.786 37.9017C126.368 40.0556 129.486 41.1283 132.621 42.2095C136.331 43.4907 139.791 45.0359 142.54 47.9319L142.779 47.4789C138.994 48.2904 135.233 48.0931 131.796 46.2004C128.358 44.3078 126.004 40.9199 124.225 37.5431C124.083 37.2652 123.627 37.6182 123.752 37.8544C125.609 41.3785 128.005 44.6135 131.484 46.6701C134.883 48.6823 138.935 48.7851 142.704 47.9764C142.874 47.9402 143.107 47.6985 142.946 47.5234C140.419 44.8581 137.301 43.3017 133.883 42.0705C130.464 40.8393 127.018 39.8471 124.192 37.4959C123.975 37.3125 123.572 37.7238 123.786 37.9017V37.9017Z" fill="#FBF8F3"/>
<path d="M142.793 47.6012C139.404 46.705 136.138 45.3984 133.066 43.7102C130.217 42.1567 126.762 40.7921 124.809 38.1129C124.728 38.0017 124.531 38.2018 124.606 38.3158C126.579 41.0227 130.05 42.3707 132.907 43.9465C135.999 45.6432 139.288 46.9501 142.701 47.8374C142.829 47.8735 142.962 47.629 142.801 47.5873L142.793 47.6012Z" fill="#FBF8F3"/>
<path d="M139.124 44.8133C138.029 44.9579 136.976 45.1802 135.864 45.1552C135.734 45.1552 135.603 45.4025 135.764 45.4081C136.895 45.4303 137.971 45.2108 139.085 45.0635C139.219 45.0468 139.299 44.7856 139.124 44.8133V44.8133Z" fill="#FBF8F3"/>
<path d="M134.086 44.5882C134.701 45.6847 135.225 46.8299 135.653 48.0123C135.706 48.154 135.931 47.9817 135.887 47.8566C135.461 46.6724 134.937 45.5261 134.319 44.4298C134.241 44.2992 134.016 44.4715 134.086 44.5882V44.5882Z" fill="#FBF8F3"/>
<path d="M135.314 42.743C134.183 42.832 133.052 42.9459 131.929 43.1071C131.793 43.1266 131.712 43.385 131.89 43.3572C133.002 43.1933 134.144 43.0793 135.275 42.9932C135.411 42.9932 135.495 42.7319 135.314 42.743Z" fill="#FBF8F3"/>
<path d="M130.537 42.6346C131.384 44.1243 132.035 45.714 132.813 47.2398C132.882 47.376 133.11 47.2037 133.049 47.0842C132.271 45.5556 131.62 43.9687 130.773 42.4762C130.698 42.3456 130.47 42.5179 130.537 42.6346Z" fill="#FBF8F3"/>
<path d="M128.622 41.5923C129.372 41.6784 130.111 41.4922 130.862 41.495C130.99 41.495 131.123 41.2449 130.962 41.2449C130.211 41.2449 129.469 41.4283 128.722 41.3421C128.591 41.3255 128.458 41.5728 128.622 41.5923Z" fill="#FBF8F3"/>
<path d="M127.763 41.0729C128.13 42.293 128.458 43.5242 128.911 44.7137C128.963 44.8526 129.189 44.6831 129.147 44.558C128.694 43.3685 128.366 42.1345 127.999 40.9172C127.955 40.7783 127.721 40.945 127.763 41.0729V41.0729Z" fill="#FBF8F3"/>
<path d="M128.283 61.4056C127.727 65.6356 128.705 69.7238 129.689 73.8148C130.878 78.7591 131.634 83.6283 130.381 88.6476L130.962 88.3363C127.527 84.8679 125.148 80.7324 124.764 75.802C124.372 70.7438 126.404 65.7745 128.858 61.4723C129.097 61.0526 128.558 60.8775 128.349 61.2416C125.848 65.6467 123.986 70.4131 124.094 75.5602C124.203 80.7073 126.89 85.2875 130.439 88.8588C130.659 89.0812 130.97 88.756 131.02 88.5475C132.16 84.0341 131.707 79.6012 130.698 75.11C129.672 70.5437 128.302 66.0386 128.925 61.3083C128.983 60.8525 128.33 61.061 128.283 61.4056V61.4056Z" fill="#FBF8F3"/>
<path d="M130.853 88.4976C129.509 84.3408 128.669 80.0373 128.352 75.6798C128.046 71.4526 127.057 66.5084 128.672 62.5035C128.761 62.2784 128.444 62.295 128.372 62.4701C126.804 66.375 127.727 70.9579 127.977 75.0434C128.261 79.6872 129.126 84.2771 130.55 88.7061C130.606 88.8867 130.906 88.6699 130.853 88.506V88.4976Z" fill="#FBF8F3"/>
<path d="M131.337 82.5916C130.428 81.5049 129.455 80.5183 128.713 79.2955C128.611 79.1287 128.321 79.351 128.41 79.4983C129.164 80.7406 130.15 81.7467 131.076 82.8529C131.19 82.9918 131.456 82.7334 131.337 82.5916Z" fill="#FBF8F3"/>
<path d="M128.127 77.108C127.371 78.5203 126.499 79.8673 125.52 81.1352C125.375 81.3297 125.653 81.4131 125.776 81.2491C126.772 79.9564 127.658 78.5824 128.424 77.1414C128.533 76.9274 128.21 76.9441 128.127 77.108Z" fill="#FBF8F3"/>
<path d="M130.948 77.0328C130.07 75.8683 129.169 74.7232 128.216 73.6171C128.096 73.4809 127.835 73.7394 127.955 73.8783C128.905 74.99 129.811 76.1295 130.687 77.294C130.795 77.4357 131.059 77.1801 130.948 77.0328Z" fill="#FBF8F3"/>
<path d="M127.802 71.9163C126.779 73.8618 125.517 75.6405 124.406 77.5248C124.283 77.7332 124.553 77.8194 124.658 77.6387C125.787 75.7294 127.062 73.9118 128.099 71.9497C128.21 71.7357 127.885 71.7551 127.802 71.9163Z" fill="#FBF8F3"/>
<path d="M127.607 69.1317C128.03 70.0072 128.749 70.677 129.258 71.4913C129.364 71.658 129.653 71.4357 129.561 71.2912C129.052 70.4769 128.33 69.8043 127.91 68.9316C127.827 68.7565 127.532 68.9789 127.607 69.1317Z" fill="#FBF8F3"/>
<path d="M127.627 67.7558C126.551 69.0065 125.431 70.2265 124.447 71.5522C124.303 71.7496 124.581 71.8302 124.703 71.669C125.665 70.3683 126.765 69.1677 127.818 67.9448C127.966 67.7753 127.777 67.5779 127.627 67.7558V67.7558Z" fill="#FBF8F3"/>
<path d="M137.279 53.4709C137.79 54.2102 137.643 55.4775 137.537 56.3252L137.946 55.9861C137.136 55.9159 136.344 55.7022 135.609 55.3552C135.266 55.1641 135.012 54.8463 134.902 54.4701C134.791 54.0938 134.832 53.6892 135.017 53.3431C135.528 52.4148 136.745 52.8567 137.279 53.4709C137.493 53.7183 137.974 53.2458 137.754 52.9929C137.482 52.6585 137.107 52.4227 136.687 52.3216C136.268 52.2204 135.827 52.2596 135.432 52.433C135.037 52.6064 134.709 52.9046 134.5 53.2818C134.29 53.659 134.21 54.0944 134.272 54.5215C134.461 56.0862 136.442 56.4197 137.712 56.567C137.81 56.569 137.905 56.5358 137.98 56.4735C138.055 56.4113 138.105 56.3241 138.121 56.2279C138.249 55.2079 138.366 53.8684 137.754 52.9846C137.574 52.7233 137.09 53.1874 137.279 53.4626V53.4709Z" fill="#FBF8F3"/>
<path d="M135.27 52.6843C134.436 51.5726 133.032 51.4003 131.782 51.039C129.15 50.2719 127.807 48.1847 126.993 45.6778C126.929 45.4777 126.598 45.7167 126.657 45.9002C127.363 48.0652 128.427 49.9995 130.548 51.0056C132.001 51.6921 133.944 51.5837 134.978 52.9733C135.094 53.129 135.386 52.8455 135.256 52.6954L135.27 52.6843Z" fill="#FBF8F3"/>
<path d="M122.304 62.1252C122.238 62.8617 122.73 63.5982 123.138 64.1707C123.202 64.2624 123.369 64.2179 123.441 64.1707C124.161 63.6593 125.214 62.8283 124.936 61.8167C124.866 61.5155 124.689 61.2502 124.437 61.0706C124.185 60.891 123.877 60.8094 123.569 60.8412C122.894 60.8773 122.435 61.536 122.299 62.1307C122.215 62.4893 122.752 62.3197 122.816 62.0501C123.13 60.68 124.975 61.6722 124.328 62.7394C124.04 63.1467 123.676 63.4941 123.255 63.7622H123.558C123.235 63.3119 122.763 62.6505 122.816 62.0585C122.846 61.6888 122.324 61.8556 122.299 62.1391L122.304 62.1252Z" fill="#FBF8F3"/>
<path d="M123.958 61.0694C124.055 59.6965 125.956 59.1434 126.885 58.3735C128.196 57.2869 128.516 55.6165 128.488 53.9935C128.488 53.8406 128.249 53.9657 128.252 54.088C128.294 56.4837 127.379 57.9789 125.373 59.1573C124.583 59.6214 123.794 60.1133 123.722 61.1027C123.722 61.2723 123.95 61.1945 123.958 61.0666V61.0694Z" fill="#FBF8F3"/>
<path d="M138.507 63.3232C138.785 64.0819 138.393 65.1185 138.118 65.8245L138.674 65.5243C137.973 65.2832 137.32 64.9221 136.743 64.4571C136.507 64.2458 136.359 63.9534 136.329 63.6382C136.299 63.3229 136.389 63.008 136.581 62.7562C137.184 62.0225 138.185 62.6923 138.507 63.312C138.71 63.6984 139.358 63.2064 139.183 62.8674C138.291 61.1526 136.012 61.5834 135.625 63.4232C135.303 64.9573 137.073 65.7717 138.227 66.2024C138.34 66.232 138.46 66.2177 138.563 66.1626C138.666 66.1075 138.744 66.0155 138.783 65.9051C139.127 65.0046 139.53 63.8179 139.185 62.8729C139.038 62.4727 138.38 62.9563 138.51 63.3176L138.507 63.3232Z" fill="#FBF8F3"/>
<path d="M136.965 62.1113C136.437 60.4882 135.019 59.3738 133.855 58.1954C131.819 56.1938 130.558 53.5349 130.298 50.6914C130.275 50.4802 129.953 50.6525 129.972 50.8221C130.195 53.3556 131.208 55.7551 132.868 57.6812C134.141 59.1709 136.028 60.3798 136.659 62.317C136.718 62.4976 137.02 62.2781 136.965 62.1113Z" fill="#FBF8F3"/>
<path d="M119.609 30.4729C118.48 33.9553 119.684 37.3209 120.901 40.606C120.979 40.8172 121.293 40.6699 121.365 40.5365C123.099 37.2903 121.735 33.3327 120.109 30.3423C119.953 30.0643 119.467 30.4256 119.606 30.6785C121.109 33.4578 122.568 37.3153 120.943 40.3503L121.407 40.2808C120.242 37.143 119.019 33.8886 120.103 30.5368C120.228 30.1533 119.706 30.1811 119.609 30.4812V30.4729Z" fill="#FBF8F3"/>
<path d="M119.809 30.5424C122.335 33.7107 127.035 35.3421 130.748 36.5677C130.953 36.6344 131.304 36.376 131.167 36.1481C129.592 33.3688 123.283 26.6209 119.867 30.1644C119.589 30.4423 119.92 30.7592 120.184 30.484C123.166 27.3935 129.28 34.0331 130.664 36.4844L131.084 36.0647C127.407 34.8502 122.746 33.2327 120.245 30.106C120.062 29.8754 119.62 30.3034 119.811 30.5424H119.809Z" fill="#FBF8F3"/>
<path d="M113.411 22.7635C112.738 25.7761 113.997 28.5026 115.27 31.1762C115.359 31.3652 115.606 31.1929 115.659 31.0678C116.854 28.2191 115.381 24.9896 113.814 22.5995C113.672 22.3883 113.3 22.6773 113.422 22.8607C114.937 25.1564 116.426 28.2802 115.273 31.0233L115.662 30.9149C114.423 28.3136 113.161 25.6344 113.825 22.6995C113.889 22.4216 113.458 22.5467 113.411 22.7635V22.7635Z" fill="#FBF8F3"/>
<path d="M113.578 22.7382C115.99 25.2395 120.059 26.2567 123.336 27.0293C123.382 27.0328 123.428 27.0239 123.469 27.0037C123.511 26.9834 123.547 26.9525 123.572 26.9141C123.598 26.8756 123.613 26.831 123.616 26.7849C123.619 26.7387 123.609 26.6926 123.588 26.6513C122.046 24.4279 116.254 19.2447 113.625 22.4463C113.439 22.6715 113.68 22.9244 113.872 22.6937C116.223 19.8311 121.846 24.9671 123.249 26.9876L123.502 26.6096C120.32 25.862 116.262 24.8365 113.917 22.3991C113.753 22.2323 113.414 22.5686 113.578 22.7382V22.7382Z" fill="#FBF8F3"/>
<path d="M107.755 17.7938C107.722 20.1394 109.145 21.996 110.507 23.7719C110.596 23.8858 110.76 23.7163 110.785 23.6274C111.224 21.3151 109.592 19.1361 108.033 17.6131C107.914 17.4936 107.672 17.7382 107.791 17.8549C109.287 19.3223 110.896 21.4485 110.479 23.6718L110.757 23.5273C109.412 21.782 108.028 19.9782 108.061 17.6715C108.061 17.4797 107.766 17.6354 107.764 17.791L107.755 17.7938Z" fill="#FBF8F3"/>
<path d="M107.883 17.7301C110.09 19.1948 113.272 19.3059 115.832 19.356C115.94 19.356 116.129 19.1948 116.012 19.078C114.475 17.6523 109.342 14.7091 107.858 17.53C107.755 17.7246 108.003 17.8079 108.094 17.6356C109.412 15.1343 114.389 18.0386 115.77 19.3198L115.951 19.0419C113.408 18.9919 110.251 18.8807 108.069 17.4327C107.939 17.3466 107.733 17.6134 107.883 17.7107V17.7301Z" fill="#FBF8F3"/>
<path d="M73.4317 68.6593C68.9849 67.8728 68.8848 73.8231 72.4673 75.0071C74.5378 75.6908 77.103 74.5207 78.9484 73.6981C81.5331 72.5475 83.951 71.0522 86.369 69.582C89.1065 67.9145 91.7412 66.3331 94.8873 65.5104C99.3007 64.3543 105.257 64.5766 108.475 68.2452C111.037 71.169 108.519 76.3911 104.584 75.6435C102.983 75.3378 101.73 73.9204 101.805 72.2834C101.869 70.7965 103.303 69.8266 104.481 69.2263C104.592 69.1679 104.187 68.6482 104 68.7455C102.074 69.7404 100.412 71.7081 101.796 73.8676C102.247 74.6122 102.887 75.2243 103.651 75.6416C104.415 76.0589 105.276 76.2667 106.146 76.2438C109.098 76.1216 110.593 72.4502 109.801 69.9767C108.967 67.3392 105.974 65.6633 103.5 64.9741C99.4564 63.8624 94.7817 64.4377 91.0103 66.1997C88.2311 67.4976 85.6769 69.2791 83.0256 70.8271C80.3742 72.3752 77.4671 74.0344 74.3571 74.5735C72.3366 74.9237 70.5135 74.1789 70.3467 71.8666C70.1966 69.8044 71.9392 68.8455 73.7624 69.1651C73.9903 69.2068 73.6012 68.6954 73.4344 68.6649L73.4317 68.6593Z" fill="#FBF8F3" stroke="#FBF8F3" stroke-width="0.5" stroke-linecap="round" stroke-linejoin="round"/>
<path d="M80.4576 69.1648C83.2146 68.6757 84.1317 71.3187 82.8977 73.3615C82.2891 74.3759 81.0801 74.6538 79.9851 74.6538C76.6973 74.6538 73.276 72.4499 70.5357 70.8657C68.1984 69.5122 65.9528 67.9892 63.5654 66.7247C59.5762 64.6179 54.9839 63.9467 50.5586 64.8237C47.3736 65.4657 43.7467 67.7697 43.7773 71.3688C43.7967 73.5449 45.6838 75.7516 47.7766 76.1935C49.7498 76.6104 51.8148 75.1874 52.4429 73.3587C53.1627 71.2576 51.12 69.5817 49.4997 68.7452C49.1996 68.5923 49.5803 69.137 49.7165 69.2065C53.0377 70.9213 52.429 74.4509 49.1606 75.5626C46.9595 76.3158 45.1447 74.7288 44.436 72.6833C43.7272 70.6378 45.0251 68.7229 46.4703 67.4445C49.6804 64.6041 54.783 64.5874 58.7268 65.3684C62.0618 66.0326 64.8939 67.7891 67.7481 69.5372C70.1495 71.0591 72.6374 72.44 75.1993 73.6727C77.1058 74.551 79.3542 75.4487 81.4887 75.0624C85.5658 74.3425 84.2957 67.8919 80.0323 68.6479C79.8739 68.6757 80.2602 69.1898 80.4492 69.1565L80.4576 69.1648Z" fill="#FBF8F3" stroke="#FBF8F3" stroke-width="0.5" stroke-linecap="round" stroke-linejoin="round"/>
<path d="M56.7208 85.7781L56.7007 85.9268L56.6128 85.8052L56.6128 85.8052L56.6127 85.8053L56.6125 85.8054L56.6121 85.8057L56.6111 85.8065L56.6082 85.8087L56.599 85.8157C56.5916 85.8216 56.5814 85.8299 56.5691 85.8405C56.5448 85.8616 56.512 85.8921 56.4749 85.9322L56.4037 86.0061L56.4036 86.0061L56.4003 86.0098C55.5391 86.9652 54.7818 87.7305 54.128 88.3072C53.4725 88.8854 52.928 89.2676 52.4924 89.4642L52.4924 89.4642L52.4907 89.465C52.4643 89.4773 52.4307 89.4954 52.4022 89.523C52.3705 89.5536 52.3402 89.6014 52.3402 89.6648C52.3402 89.7057 52.3532 89.7696 52.4138 89.8129C52.4613 89.8469 52.5134 89.8482 52.5346 89.8482C52.6012 89.8482 52.6731 89.8197 52.7347 89.7903C52.8028 89.7578 52.884 89.711 52.9771 89.6517C53.1638 89.533 53.4096 89.357 53.7125 89.1253L53.7125 89.1253L53.7136 89.1244C54.0182 88.8867 54.315 88.6395 54.6036 88.3832C53.4718 89.7666 52.7761 90.8156 52.5397 91.5209L52.4591 91.7615L52.7088 91.7162C52.8917 91.6829 53.0766 91.6615 53.2622 91.652C53.3617 91.6543 53.4606 91.6677 53.557 91.6919L53.7014 91.7281L53.7387 91.584C53.8659 91.093 54.0483 90.618 54.2823 90.168C54.5291 89.6999 54.9762 88.9637 55.6261 87.9564C56.0319 87.3282 56.3366 86.8531 56.5399 86.5307C56.6415 86.3696 56.7183 86.2458 56.7699 86.1598C56.7956 86.1171 56.8158 86.0823 56.83 86.0564C56.8369 86.0437 56.8435 86.0312 56.8487 86.0199C56.8513 86.0144 56.8546 86.0069 56.8575 85.9985C56.8576 85.9984 56.8577 85.9983 56.8577 85.9981C56.8593 85.9936 56.8674 85.9713 56.8674 85.9434V85.9333L56.866 85.9234C56.8611 85.8866 56.8442 85.8525 56.8179 85.8262C56.7917 85.7999 56.7575 85.7831 56.7208 85.7781Z" fill="#FBF8F3" stroke="#FBF8F3" stroke-width="0.3"/>
<path d="M58.4033 86.5123C57.6555 87.0989 57.2474 87.74 57.2344 88.4376C57.2271 88.6095 57.2541 88.781 57.3137 88.9424C57.3737 89.1043 57.4654 89.2526 57.5834 89.3786L57.5833 89.3787L57.5886 89.3838C57.7134 89.5047 57.862 89.5985 58.0248 89.6593C58.1876 89.72 58.3612 89.7465 58.5347 89.7371C59.0744 89.7081 59.5932 89.5195 60.0255 89.1954C60.1405 89.1177 60.2519 89.0353 60.3595 88.9485C59.9649 89.5015 59.5054 90.0075 58.9897 90.4551L58.9897 90.4551L58.9881 90.4566C58.0267 91.3165 57.2573 91.7135 56.6701 91.7135H56.5951C56.5417 91.7135 56.4765 91.7201 56.4199 91.7528C56.3501 91.7931 56.3117 91.8628 56.3117 91.9413C56.3117 91.9669 56.315 92.0035 56.334 92.0405C56.3556 92.0823 56.3894 92.1098 56.4252 92.1252C56.4559 92.1385 56.4853 92.1417 56.5025 92.1429C56.5195 92.1441 56.5377 92.1441 56.5511 92.1441L56.5534 92.1441V92.1447L56.5661 92.1436C56.9482 92.111 57.3219 92.0132 57.6709 91.8543C58.1401 91.6698 58.5902 91.44 59.0147 91.168C59.876 90.643 60.6406 89.9738 61.2752 89.1898L61.2752 89.1898L61.2764 89.1882C61.8425 88.4693 62.1413 87.7824 62.1423 87.131C62.16 86.7153 62.0216 86.308 61.7543 85.9891L61.7544 85.9891L61.7533 85.9879C61.6265 85.8399 61.468 85.7224 61.2895 85.6441C61.1111 85.5657 60.9173 85.5286 60.7226 85.5354L60.7248 85.5992C60.7245 85.5992 60.7242 85.5992 60.7239 85.5992L60.721 85.5354C60.3314 85.5531 59.9488 85.6461 59.5946 85.8092C59.1675 85.9886 58.7667 86.2251 58.4033 86.5123ZM61.2161 86.0753C61.3143 86.1887 61.3768 86.374 61.3782 86.6577C61.3597 87.0612 61.2287 87.4489 61.0031 87.7786L60.78 88.0425C60.4622 88.4185 60.0834 88.7383 59.6594 88.9884L59.6593 88.9882L59.6522 88.993C59.3319 89.2073 58.9614 89.3345 58.5771 89.3623C58.3565 89.3614 58.2182 89.3088 58.1349 89.2301C58.0525 89.1524 57.9985 89.0255 57.9985 88.8202C57.9985 88.2961 58.3102 87.6741 58.9891 86.9495C59.6695 86.2233 60.2514 85.8976 60.7384 85.8992H60.7389C60.9717 85.8992 61.1211 85.9656 61.2161 86.0753Z" fill="#FBF8F3" stroke="#FBF8F3" stroke-width="0.3"/>
<path d="M62.2603 92.544L62.1143 92.7744H62.387H62.5538H62.6362L62.6804 92.7047L68.4446 83.6194L68.5907 83.3891H68.3179H68.1484H68.0659L68.0217 83.4587L62.2603 92.544Z" fill="#FBF8F3" stroke="#FBF8F3" stroke-width="0.3"/>
<path d="M73.1731 85.9448C73.1734 85.9204 73.1683 85.8962 73.1583 85.8738C73.1484 85.8515 73.1337 85.8316 73.1153 85.8155C73.0968 85.7994 73.0751 85.7875 73.0518 85.7806C73.0284 85.7736 73.0037 85.7718 72.9795 85.7753L72.9442 85.7804L72.915 85.8008C72.8613 85.8383 72.8133 85.8834 72.7727 85.9348L72.7074 86.0053L72.7074 86.0053L73.0231 85.9432M73.1731 85.9448L73.0231 85.9432M73.1731 85.9448C73.1731 85.9443 73.1731 85.9438 73.1731 85.9432H73.0231M73.1731 85.9448C73.1728 85.9719 73.165 85.9935 73.1635 85.9979C73.1634 85.9981 73.1633 85.9982 73.1633 85.9984C73.1603 86.0067 73.157 86.0142 73.1545 86.0197C73.1492 86.031 73.1427 86.0435 73.1357 86.0562C73.1216 86.0821 73.1013 86.1169 73.0757 86.1597C73.0241 86.2456 72.9473 86.3694 72.8457 86.5305C72.6423 86.8529 72.3377 87.328 71.9319 87.9561M73.0231 85.9432C73.0231 85.9448 73.0222 85.9477 73.0205 85.9519L73.0867 86.0468C73.0559 86.0683 73.0285 86.0943 73.0055 86.1241L72.9486 86.0799M71.9319 87.9561L71.8059 87.8749L71.9318 87.9562C71.9318 87.9562 71.9318 87.9562 71.9319 87.9561ZM71.9319 87.9561C71.2817 88.9637 70.8357 89.6999 70.5908 90.1678M70.5908 90.1678C70.5908 90.1677 70.5908 90.1677 70.5908 90.1677L70.458 90.0982L70.5908 90.1678ZM70.5908 90.1678C70.3558 90.6172 70.1734 91.0922 70.0473 91.5835L70.0102 91.7284L69.8651 91.6916C69.7689 91.6671 69.6702 91.6538 69.571 91.6518C69.5727 91.6517 69.5744 91.6516 69.5762 91.6515L69.5685 91.5017C69.6811 91.5036 69.793 91.5185 69.902 91.5462C69.902 91.5462 69.902 91.5462 69.9021 91.5461C70.031 91.0437 70.2175 90.5578 70.4579 90.0982C70.7062 89.6239 71.1555 88.8827 71.8058 87.8748C71.9355 87.6741 72.0547 87.4891 72.1637 87.3198C72.4017 87.0091 72.6321 86.6925 72.8547 86.3704L72.8114 86.3375C72.8501 86.2949 72.8891 86.2518 72.9282 86.2084L72.997 86.1341L72.945 86.0859C72.9462 86.0839 72.9474 86.0819 72.9486 86.0799M72.9486 86.0799C72.9516 86.0749 72.9546 86.0699 72.9574 86.0651C72.9604 86.0663 72.9635 86.0673 72.9666 86.0682C72.9846 86.0735 73.0036 86.0749 73.0223 86.0722L73.0085 85.9762" fill="#FBF8F3" stroke="#FBF8F3" stroke-width="0.3"/>
<mask id="path-65-outside-1_141_511" maskUnits="userSpaceOnUse" x="73.0514" y="84.9236" width="6" height="8" fill="black">
<rect fill="white" x="73.0514" y="84.9236" width="6" height="8"/>
<path d="M78.1369 86.0323L78.0674 86.1073C76.3425 88.025 75.0251 89.1895 74.1154 89.6008C74.0709 89.6202 74.0514 89.6397 74.0514 89.6647C74.0514 89.6897 74.0514 89.6981 74.0931 89.6981C74.2154 89.6981 74.5767 89.4674 75.1826 89.006C76.2115 88.2034 77.15 87.2911 77.9813 86.2852C77.5101 86.9671 77.0036 87.6239 76.4638 88.2529C75.2243 89.7499 74.4832 90.8551 74.2404 91.5685C74.4324 91.5337 74.6264 91.5114 74.8213 91.5018C74.9329 91.5038 75.0439 91.5188 75.152 91.5463C75.281 91.0438 75.4675 90.5579 75.7079 90.0983C75.9543 89.624 76.4036 88.8828 77.0558 87.8749C77.8673 86.6187 78.2731 85.9767 78.2731 85.9433C78.2736 85.9407 78.2734 85.9379 78.2726 85.9353C78.2718 85.9327 78.2704 85.9304 78.2685 85.9285C78.2666 85.9266 78.2642 85.9251 78.2616 85.9243C78.259 85.9235 78.2563 85.9234 78.2536 85.9239C78.2536 85.9239 78.2064 85.96 78.1369 86.0323Z"/>
</mask>
<path d="M78.1369 86.0323L78.0674 86.1073C76.3425 88.025 75.0251 89.1895 74.1154 89.6008C74.0709 89.6202 74.0514 89.6397 74.0514 89.6647C74.0514 89.6897 74.0514 89.6981 74.0931 89.6981C74.2154 89.6981 74.5767 89.4674 75.1826 89.006C76.2115 88.2034 77.15 87.2911 77.9813 86.2852C77.5101 86.9671 77.0036 87.6239 76.4638 88.2529C75.2243 89.7499 74.4832 90.8551 74.2404 91.5685C74.4324 91.5337 74.6264 91.5114 74.8213 91.5018C74.9329 91.5038 75.0439 91.5188 75.152 91.5463C75.281 91.0438 75.4675 90.5579 75.7079 90.0983C75.9543 89.624 76.4036 88.8828 77.0558 87.8749C77.8673 86.6187 78.2731 85.9767 78.2731 85.9433C78.2736 85.9407 78.2734 85.9379 78.2726 85.9353C78.2718 85.9327 78.2704 85.9304 78.2685 85.9285C78.2666 85.9266 78.2642 85.9251 78.2616 85.9243C78.259 85.9235 78.2563 85.9234 78.2536 85.9239C78.2536 85.9239 78.2064 85.96 78.1369 86.0323Z" fill="#FBF8F3"/>
<path d="M78.1369 86.0323L77.9206 85.8243L77.9168 85.8284L78.1369 86.0323ZM78.0674 86.1073L77.8473 85.9034L77.8444 85.9067L78.0674 86.1073ZM74.1154 89.6008L74.2356 89.8757L74.239 89.8741L74.1154 89.6008ZM75.1826 89.006L75.3644 89.2447L75.3671 89.2426L75.1826 89.006ZM77.9813 86.2852L78.2281 86.4557L77.75 86.0941L77.9813 86.2852ZM76.4638 88.2529L76.2361 88.0575L76.2327 88.0615L76.4638 88.2529ZM74.2404 91.5685L73.9564 91.4718L73.7922 91.9545L74.2939 91.8637L74.2404 91.5685ZM74.8213 91.5018L74.8268 91.2018L74.8166 91.2016L74.8064 91.2022L74.8213 91.5018ZM75.152 91.5463L75.0781 91.837L75.3682 91.9107L75.4426 91.6208L75.152 91.5463ZM75.7079 90.0983L75.9737 90.2373L75.9741 90.2366L75.7079 90.0983ZM77.0558 87.8749L77.3077 88.0379L77.3078 88.0377L77.0558 87.8749ZM78.2731 85.9433L77.9782 85.8882L77.9731 85.9155V85.9433H78.2731ZM78.2536 85.9239L78.1985 85.629L77.9536 85.6747V85.9239H78.2536ZM77.9168 85.8284L77.8473 85.9035L78.2876 86.3111L78.357 86.2361L77.9168 85.8284ZM77.8444 85.9067C76.9864 86.8605 76.2342 87.6221 75.587 88.1942C74.9365 88.7692 74.4061 89.1401 73.9918 89.3274L74.239 89.8741C74.7343 89.6502 75.3176 89.2331 75.9844 88.6437C76.6546 88.0513 77.4235 87.2717 78.2905 86.3079L77.8444 85.9067ZM73.9951 89.3259C73.9453 89.3477 73.7514 89.4381 73.7514 89.6647H74.3514C74.3514 89.6989 74.3444 89.7349 74.3291 89.7692C74.3143 89.8025 74.295 89.8267 74.2789 89.8428C74.2506 89.8711 74.227 89.8794 74.2356 89.8756L73.9951 89.3259ZM73.7514 89.6647C73.7514 89.6667 73.7514 89.6745 73.7517 89.6827C73.7519 89.691 73.7526 89.7066 73.7555 89.7254C73.7614 89.7643 73.7797 89.8381 73.8445 89.9029C73.9058 89.9642 73.975 89.9835 74.0102 89.9905C74.0453 89.9976 74.0765 89.9981 74.0931 89.9981V89.3981C74.0889 89.3981 74.1045 89.3975 74.1279 89.4022C74.1513 89.4069 74.2127 89.4226 74.2688 89.4786C74.3284 89.5382 74.3441 89.6052 74.3487 89.6355C74.3522 89.6585 74.3514 89.6788 74.3514 89.6647H73.7514ZM74.0931 89.9981C74.1965 89.9981 74.295 89.956 74.3588 89.9257C74.4349 89.8894 74.5219 89.839 74.6175 89.7782C74.8095 89.6561 75.0591 89.4771 75.3643 89.2447L75.0008 88.7674C74.7002 88.9963 74.4662 89.1633 74.2955 89.2719C74.2098 89.3265 74.1457 89.3626 74.1007 89.384C74.0435 89.4113 74.051 89.3981 74.0931 89.3981V89.9981ZM75.3671 89.2426C76.4132 88.4266 77.3673 87.499 78.2125 86.4763L77.75 86.0941C76.9326 87.0832 76.0098 87.9803 74.9981 88.7695L75.3671 89.2426ZM77.7345 86.1146C77.2693 86.7879 76.7691 87.4364 76.2362 88.0575L76.6915 88.4482C77.2381 87.8113 77.751 87.1462 78.2281 86.4557L77.7345 86.1146ZM76.2327 88.0615C74.9955 89.5558 74.2191 90.6997 73.9564 91.4718L74.5244 91.6651C74.7472 91.0106 75.453 89.9441 76.6949 88.4442L76.2327 88.0615ZM74.2939 91.8637C74.4731 91.8312 74.6542 91.8104 74.8362 91.8014L74.8064 91.2022C74.5986 91.2125 74.3917 91.2362 74.187 91.2733L74.2939 91.8637ZM74.8158 91.8017C74.9043 91.8034 74.9923 91.8152 75.0781 91.837L75.2259 91.2555C75.0954 91.2223 74.9615 91.2043 74.8268 91.2018L74.8158 91.8017ZM75.4426 91.6208C75.5658 91.1407 75.744 90.6765 75.9737 90.2373L75.442 89.9593C75.1909 90.4394 74.9961 90.9469 74.8614 91.4717L75.4426 91.6208ZM75.9741 90.2366C76.2134 89.776 76.6559 89.0451 77.3077 88.0379L76.8039 87.7119C76.1513 88.7205 75.6952 89.472 75.4417 89.96L75.9741 90.2366ZM77.3078 88.0377C77.7136 87.4094 78.0187 86.9337 78.2225 86.6106C78.3243 86.4493 78.4018 86.3244 78.4542 86.2369C78.4802 86.1936 78.5017 86.1568 78.5173 86.1283C78.5249 86.1145 78.5333 86.0985 78.5405 86.0828C78.544 86.0753 78.5495 86.0631 78.5546 86.0486C78.556 86.0447 78.5731 86.0004 78.5731 85.9433H77.9731C77.9731 85.9101 77.9788 85.8847 77.9812 85.8747C77.9842 85.8623 77.9874 85.8529 77.9892 85.8478C77.9928 85.8378 77.9958 85.8313 77.9961 85.8306C77.9971 85.8286 77.996 85.8311 77.9908 85.8405C77.9811 85.8583 77.9645 85.8869 77.9398 85.9282C77.8908 86.0097 77.8162 86.1301 77.715 86.2905C77.5131 86.6107 77.2095 87.0841 76.8038 87.7121L77.3078 88.0377ZM78.568 85.9984C78.5774 85.9479 78.5744 85.8958 78.5592 85.8466L77.9861 86.0241C77.9724 85.9801 77.9698 85.9334 77.9782 85.8882L78.568 85.9984ZM78.5592 85.8466C78.544 85.7974 78.517 85.7527 78.4806 85.7163L78.0564 86.1406C78.0238 86.1081 77.9997 86.0681 77.9861 86.0241L78.5592 85.8466ZM78.4806 85.7163C78.4442 85.6799 78.3995 85.653 78.3504 85.6378L78.1729 86.2109C78.129 86.1973 78.089 86.1732 78.0564 86.1406L78.4806 85.7163ZM78.3504 85.6378C78.3015 85.6226 78.2494 85.6195 78.1985 85.629L78.3087 86.2188C78.2632 86.2273 78.2166 86.2244 78.1729 86.2109L78.3504 85.6378ZM77.9536 85.9239C77.9847 85.791 78.0714 85.6856 78.0713 85.6856C78.0713 85.6856 78.0713 85.6856 78.0713 85.6857C78.0712 85.6857 78.0712 85.6857 78.0711 85.6858C78.0711 85.6858 78.071 85.6859 78.0709 85.686C78.0707 85.6861 78.0705 85.6863 78.0703 85.6864C78.0699 85.6867 78.0694 85.6871 78.0689 85.6875C78.0679 85.6883 78.0667 85.6892 78.0654 85.6903C78.0626 85.6924 78.0592 85.6952 78.0551 85.6985C78.0469 85.7053 78.036 85.7144 78.023 85.7259C77.9968 85.749 77.9616 85.7817 77.9207 85.8243L78.3532 86.2402C78.3817 86.2105 78.4049 86.1891 78.4197 86.176C78.4271 86.1695 78.4324 86.1651 78.4353 86.1627C78.4367 86.1616 78.4375 86.161 78.4376 86.1609C78.4376 86.1608 78.4375 86.1609 78.4373 86.1611C78.4371 86.1612 78.4369 86.1614 78.4367 86.1615C78.4366 86.1616 78.4365 86.1617 78.4363 86.1618C78.4363 86.1619 78.4362 86.1619 78.4361 86.162C78.4361 86.162 78.436 86.162 78.436 86.1621C78.436 86.1621 78.436 86.1621 78.436 86.1621C78.4359 86.1621 78.5226 86.0568 78.5536 85.9239H77.9536Z" fill="#FBF8F3" mask="url(#path-65-outside-1_141_511)"/>
<path d="M84.4569 83.3891H84.3744L84.3302 83.4587L78.5688 92.544L78.4228 92.7744H78.6955H78.8651H78.9476L78.9917 92.7047L84.7531 83.6194L84.8991 83.3891H84.6264H84.4569Z" fill="#FBF8F3" stroke="#FBF8F3" stroke-width="0.3"/>
<path d="M86.2752 89.8707L86.2745 89.871C85.6099 90.1364 85.0751 90.4098 84.6649 90.6892C84.7543 90.6765 84.8449 90.6704 84.9361 90.6711L84.9424 90.6712L84.9424 90.6713C85.3603 90.6921 85.7731 90.7725 86.1682 90.9102L86.1693 90.9105C86.4652 91.0162 86.7746 91.0796 87.0882 91.099C87.3621 91.0895 87.6217 90.9735 87.8116 90.7756L87.8158 90.7713L87.8159 90.7713C88.0587 90.538 88.2276 90.2385 88.3015 89.91L88.3023 89.9065L88.3023 89.9065C88.3109 89.8722 88.3272 89.8273 88.3633 89.79C88.4047 89.7472 88.4576 89.729 88.509 89.729H88.5292L88.5487 89.7343C88.5785 89.7425 88.6056 89.7583 88.6274 89.7801C88.6492 89.8019 88.665 89.8291 88.6731 89.8588L88.6812 89.8881L88.6771 89.9183C88.6335 90.2442 88.4976 90.5508 88.2855 90.8018C88.095 91.1017 87.833 91.3495 87.523 91.5232C87.2097 91.6986 86.8575 91.7926 86.4985 91.7966L86.488 91.7967L86.488 91.7963C86.0956 91.7731 85.7082 91.6966 85.3364 91.5689L85.3357 91.5686C84.9883 91.4472 84.6292 91.3625 84.2642 91.3158C84.1005 91.317 83.994 91.3505 83.9275 91.3983C83.8647 91.4435 83.8208 91.5135 83.8054 91.6281C83.8002 91.6767 83.7886 91.7322 83.7595 91.7799C83.7265 91.834 83.669 91.879 83.5913 91.8825C83.567 91.8845 83.5426 91.8818 83.5193 91.8745C83.4921 91.866 83.4672 91.8515 83.4465 91.832C83.4257 91.8125 83.4097 91.7886 83.3994 91.7621C83.3902 91.738 83.3859 91.7123 83.387 91.6866C83.3882 91.5621 83.4428 91.4315 83.5208 91.3063C83.6014 91.177 83.7169 91.0379 83.8604 90.8942C84.0931 90.6501 84.3536 90.4341 84.6365 90.2506L84.6407 90.2479L84.6408 90.248C84.9204 90.0796 85.4186 89.8266 86.1358 89.4903L86.1391 89.4887L86.1391 89.4888C86.9109 89.1494 87.611 88.6661 88.2019 88.0646L88.206 88.0605L88.206 88.0606C88.6315 87.6598 88.888 87.1118 88.9233 86.5285C88.9259 86.4499 88.9099 86.3719 88.8767 86.3007C88.8437 86.2298 88.7945 86.1677 88.7331 86.1193C88.5659 86.0001 88.3633 85.941 88.1583 85.9516L88.1505 85.952V85.9518C87.5819 85.9518 86.9351 86.248 86.2062 86.8822C85.4742 87.519 85.1461 88.0813 85.1461 88.57C85.1461 88.7404 85.1959 88.8438 85.2738 88.9088C85.3562 88.9775 85.4958 89.025 85.7185 89.0258C86.1629 88.9908 86.583 88.809 86.9128 88.509L86.9182 88.5041L86.9241 88.4998C87.326 88.1998 87.6434 87.801 87.8456 87.3422C87.8475 87.3359 87.85 87.3278 87.8524 87.3209C87.8564 87.3098 87.8644 87.2885 87.8801 87.2668C87.898 87.2418 87.9233 87.2199 87.9563 87.2062C87.9862 87.1938 88.0142 87.1915 88.0337 87.1915H88.0341C88.0533 87.1915 88.1286 87.1915 88.1801 87.2558C88.2055 87.2876 88.2127 87.3205 88.2152 87.3386C88.2172 87.3536 88.2171 87.3681 88.2171 87.3715C88.2171 87.3718 88.2171 87.372 88.2171 87.3721C88.2171 87.4919 88.1611 87.6246 88.0812 87.7595C87.9985 87.8991 87.8774 88.0617 87.7206 88.2467C87.4493 88.5729 87.1228 88.8489 86.7559 89.062C86.4535 89.257 86.1056 89.3699 85.7463 89.3895L85.7447 89.3896L85.7447 89.3896C85.603 89.3959 85.4615 89.3736 85.3285 89.3241C85.1956 89.2746 85.074 89.1989 84.9709 89.1014L84.967 89.0978L84.967 89.0977C84.868 88.9972 84.7909 88.8774 84.7404 88.7456C84.6904 88.615 84.6677 88.4756 84.6737 88.3358C84.6753 87.5945 85.1667 86.9305 86.0638 86.3373C86.6737 85.8926 87.4004 85.636 88.1543 85.5992L88.155 85.5992C88.5606 85.5813 88.9588 85.7115 89.2754 85.9655L89.2769 85.9667L89.2769 85.9667C89.4224 86.0865 89.5386 86.238 89.6165 86.4097C89.6942 86.5809 89.7317 86.7676 89.7262 86.9555C89.7262 86.956 89.7262 86.9565 89.7262 86.957L89.5762 86.9524C89.5736 87.2032 89.5178 87.4506 89.4124 87.6782C89.307 87.9058 89.1544 88.1084 88.9648 88.2726L86.2752 89.8707ZM86.2752 89.8707C87.1897 89.5005 87.8093 89.2321 88.1277 89.0672L88.1278 89.0673L88.1301 89.066C88.4713 88.8815 88.7861 88.6519 89.066 88.3834L86.2752 89.8707ZM88.593 89.9792L88.5934 89.9793C88.5935 89.9788 88.5936 89.9784 88.5937 89.978L88.5939 89.9771C88.5937 89.9777 88.5934 89.9784 88.593 89.9792ZM88.593 89.9792C88.591 89.9833 88.5868 89.9905 88.579 89.9985C88.5701 90.0077 88.5582 90.0162 88.5438 90.022C88.5298 90.0276 88.5174 90.029 88.509 90.029V90.012L88.5189 89.9607L88.593 89.9792Z" fill="#FBF8F3" stroke="#FBF8F3" stroke-width="0.3"/>
<path d="M94.0977 86.1241C94.2 86.2318 94.2645 86.4069 94.2649 86.6777C94.2499 87.184 94.1418 87.6833 93.9458 88.1504L94.0841 88.2084L93.9445 88.1536C93.7193 88.7273 93.4219 89.2699 93.0596 89.7683L93.0592 89.7688C92.2764 90.8541 91.5261 91.3518 90.813 91.3518C90.5185 91.3518 90.3256 91.2747 90.2042 91.1465C90.0819 91.0173 90.0076 90.8101 90.0069 90.4971C90.0462 89.8079 90.2592 89.1398 90.626 88.5549L90.6262 88.555L90.6299 88.5483C91.0107 87.8661 91.5008 87.251 92.0806 86.7274C92.6779 86.1923 93.1762 85.9516 93.5811 85.9516C93.834 85.9516 93.9965 86.0176 94.0977 86.1241ZM90.1851 91.6031C90.3872 91.6908 90.6061 91.7331 90.8263 91.7269C91.7405 91.7259 92.7041 91.1212 93.7153 89.9869L93.7158 89.9863C94.5443 89.047 94.9789 88.1413 94.9818 87.2721C94.998 86.8347 94.8613 86.4053 94.5951 86.0578L94.476 86.149L94.5938 86.0561C94.4717 85.9014 94.3151 85.7775 94.1366 85.6943C93.9587 85.6113 93.7639 85.571 93.5677 85.5766C93.23 85.5771 92.8501 85.695 92.4324 85.914C92.0126 86.1342 91.5451 86.4616 91.0307 86.8928L91.0304 86.8931C89.8395 87.8968 89.2099 88.9111 89.2067 89.9366C89.1879 90.4046 89.348 90.8623 89.6546 91.2164L89.6546 91.2165L89.6554 91.2174C89.8015 91.3833 89.9823 91.515 90.1851 91.6031Z" fill="#FBF8F3" stroke="#FBF8F3" stroke-width="0.3"/>
<path d="M98.7879 89.9013L98.7844 89.9108L98.7821 89.9206C98.7071 90.249 98.5382 90.5486 98.296 90.7828L98.296 90.7827L98.2923 90.7865C98.0989 90.9871 97.8341 91.1034 97.5556 91.1101C97.2427 91.0906 96.934 91.0271 96.6387 90.9216L96.6374 90.9212C96.2413 90.7838 95.8277 90.7034 95.409 90.6824L95.409 90.6822L95.4012 90.6822C95.3191 90.6824 95.2375 90.6881 95.1569 90.6993C95.5698 90.4162 96.1083 90.1394 96.7775 89.8709L96.7779 89.8707C97.6924 89.5005 98.3121 89.2321 98.6305 89.0672L98.6305 89.0673L98.6334 89.0657C98.9735 88.88 99.2879 88.6507 99.5686 88.3834C99.7724 88.2053 99.9365 87.9864 100.05 87.7408C100.164 87.4945 100.225 87.2268 100.229 86.9554C100.234 86.7676 100.196 86.5812 100.118 86.4101C100.041 86.2387 99.9249 86.0872 99.78 85.9671L99.7801 85.967L99.7779 85.9653C99.4602 85.7115 99.0613 85.5814 98.655 85.5992L98.6542 85.5992C97.9011 85.6361 97.1754 85.8927 96.5665 86.3373C95.6694 86.9305 95.178 87.5945 95.1765 88.3358C95.1705 88.4755 95.1931 88.615 95.2432 88.7456C95.2936 88.8773 95.3708 88.9972 95.4698 89.0977L95.4697 89.0977L95.4736 89.1014C95.5767 89.1988 95.6983 89.2746 95.8313 89.3241C95.9642 89.3736 96.1057 89.3959 96.2474 89.3896L96.2474 89.3896L96.2495 89.3895C96.6083 89.3687 96.9556 89.256 97.2582 89.0622C97.6264 88.8496 97.9541 88.5735 98.2261 88.2468C98.3829 88.0617 98.504 87.8991 98.5867 87.7595C98.6654 87.6266 98.7209 87.4959 98.7226 87.3774C98.7236 87.3545 98.7203 87.3316 98.7126 87.3099C98.7037 87.2847 98.6893 87.262 98.6707 87.2434C98.6521 87.2248 98.6294 87.2104 98.6042 87.2015C98.5819 87.1937 98.5584 87.1903 98.5349 87.1917C98.4838 87.1935 98.4383 87.2155 98.4046 87.2505C98.3768 87.2795 98.3611 87.313 98.3516 87.3411C98.1507 87.801 97.833 88.2004 97.4299 88.4995L97.4238 88.504L97.4182 88.5091C97.0887 88.8094 96.6685 88.9912 96.2241 89.0258C96.0029 89.025 95.864 88.9776 95.7819 88.9089C95.7042 88.8439 95.6543 88.7404 95.6543 88.5699C95.6543 88.0805 95.9788 87.5181 96.7013 86.8816C97.4202 86.2482 98.0669 85.9518 98.6449 85.9518V85.952L98.6526 85.9516C98.8584 85.941 99.0617 85.9999 99.2298 86.1189C99.2904 86.1678 99.3389 86.23 99.3715 86.3007C99.4044 86.3721 99.4202 86.4502 99.4177 86.5287C99.3837 87.1122 99.1271 87.6605 98.7007 88.0603L98.7006 88.0602L98.6963 88.0646C98.1054 88.666 97.4053 89.1494 96.6335 89.4887L96.6335 89.4887L96.6302 89.4902C95.9151 89.8255 95.4148 90.0786 95.1348 90.2481L95.1348 90.2481L95.1309 90.2506C94.8503 90.4326 94.5918 90.6465 94.3605 90.8882C94.1188 91.0833 93.9516 91.3559 93.8874 91.66L93.8872 91.66L93.8863 91.6658C93.8812 91.6952 93.8834 91.7253 93.8924 91.7536C93.9014 91.782 93.9171 91.8077 93.9381 91.8287C93.9591 91.8497 93.9849 91.8654 94.0133 91.8744C94.037 91.882 94.062 91.8847 94.0868 91.8824C94.1618 91.8787 94.221 91.8372 94.256 91.7799C94.2856 91.7313 94.2962 91.6752 94.3001 91.6267C94.3169 91.5132 94.3613 91.4434 94.424 91.3983C94.4907 91.3503 94.5965 91.317 94.7586 91.3158C95.1236 91.3625 95.4827 91.4472 95.83 91.5686L95.8308 91.5689C96.2026 91.6966 96.59 91.7731 96.9824 91.7963L96.9823 91.7967L96.9929 91.7965C97.3519 91.7926 97.7041 91.6986 98.0173 91.5231C98.3273 91.3496 98.5892 91.1018 98.7797 90.8022C98.9936 90.5518 99.1307 90.2449 99.1743 89.9183L99.1792 89.8819L99.1666 89.8473C99.1562 89.8186 99.1387 89.793 99.1158 89.7729C99.0928 89.7528 99.0651 89.7389 99.0353 89.7324L99.001 89.7249L98.967 89.7334C98.9276 89.7433 98.8834 89.7616 98.8462 89.8012C98.8132 89.8363 98.7971 89.8768 98.7879 89.9013Z" fill="#FBF8F3" stroke="#FBF8F3" stroke-width="0.3"/>
<path d="M102.028 89.8707L102.027 89.8709C101.362 90.1381 100.83 90.4119 100.426 90.6902C100.511 90.6777 100.598 90.6713 100.685 90.6711L100.692 90.6711L100.692 90.6713C101.111 90.6923 101.525 90.7727 101.921 90.9101L101.922 90.9105C102.218 91.0162 102.527 91.0796 102.841 91.099C103.115 91.0889 103.374 90.973 103.564 90.7754L103.568 90.7712L103.569 90.7713C103.811 90.538 103.98 90.2385 104.054 89.9099L104.055 89.9065L104.055 89.9065C104.064 89.872 104.08 89.8285 104.114 89.7919C104.153 89.75 104.205 89.729 104.259 89.729H104.271L104.283 89.7308C104.316 89.7361 104.346 89.7506 104.372 89.7726C104.397 89.7946 104.415 89.8232 104.425 89.8553L104.434 89.8863L104.43 89.9183C104.386 90.2442 104.25 90.5508 104.038 90.8018C103.848 91.1016 103.586 91.3495 103.276 91.5231C102.962 91.6986 102.61 91.7926 102.251 91.7965L102.241 91.7967L102.241 91.7963C101.848 91.7731 101.461 91.6966 101.089 91.5689L101.088 91.5686C100.741 91.4471 100.382 91.3624 100.017 91.3158C99.8532 91.317 99.7468 91.3504 99.6802 91.3983C99.6174 91.4435 99.5735 91.5135 99.5581 91.6282C99.5519 91.6857 99.5348 91.7407 99.5041 91.786C99.4757 91.8279 99.419 91.8827 99.3341 91.8827C99.2992 91.8827 99.2433 91.8751 99.197 91.8309C99.1491 91.7853 99.1396 91.7281 99.1396 91.691C99.1396 91.5652 99.1946 91.433 99.2735 91.3063C99.3541 91.177 99.4694 91.038 99.6128 90.8945C99.8445 90.6487 100.105 90.4323 100.39 90.2501L100.393 90.2483L100.393 90.2483C100.67 90.0796 101.172 89.8264 101.885 89.4903L101.889 89.4887L101.889 89.4888C102.661 89.1487 103.362 88.6654 103.955 88.0644L103.959 88.0605L103.959 88.0606C104.384 87.6598 104.641 87.1118 104.676 86.5284C104.679 86.4499 104.663 86.3719 104.629 86.3006C104.596 86.2298 104.547 86.1677 104.486 86.1193C104.318 86.0004 104.116 85.9413 103.911 85.9516L103.903 85.952V85.9518C103.335 85.9518 102.688 86.248 101.959 86.8822C101.227 87.519 100.899 88.0812 100.899 88.5699C100.899 88.7404 100.949 88.8439 101.026 88.9089C101.108 88.9776 101.247 89.025 101.469 89.0258C101.914 88.991 102.335 88.8092 102.666 88.5089L102.671 88.5041L102.677 88.4998C103.079 88.1998 103.396 87.801 103.598 87.3422C103.6 87.3359 103.603 87.3277 103.605 87.3209C103.609 87.3098 103.617 87.2884 103.633 87.2667C103.651 87.2418 103.676 87.2199 103.709 87.2062C103.739 87.1938 103.767 87.1915 103.786 87.1915H103.787C103.806 87.1915 103.881 87.1915 103.933 87.2558C103.958 87.2876 103.965 87.3205 103.968 87.3386C103.97 87.3536 103.97 87.3681 103.97 87.3715C103.97 87.3718 103.97 87.372 103.97 87.3721C103.97 87.4924 103.913 87.6254 103.833 87.7597C103.75 87.8991 103.629 88.0617 103.473 88.2466C103.202 88.5722 102.875 88.8481 102.509 89.0619C102.206 89.2566 101.858 89.3695 101.499 89.3895L101.497 89.3896L101.497 89.3896C101.356 89.3959 101.214 89.3736 101.081 89.3241C100.948 89.2746 100.827 89.1988 100.724 89.1014L100.72 89.0977L100.72 89.0977C100.621 88.9972 100.544 88.8773 100.493 88.7456C100.443 88.615 100.42 88.4755 100.426 88.3358C100.428 87.5945 100.919 86.9305 101.817 86.3373C102.426 85.8931 103.151 85.6366 103.904 85.5992L103.905 85.5992C104.311 85.5814 104.71 85.7115 105.028 85.9653L105.03 85.9667L105.03 85.9667C105.175 86.0865 105.291 86.238 105.369 86.4097C105.447 86.5809 105.484 86.7676 105.479 86.9555C105.479 86.956 105.479 86.9565 105.479 86.957L105.329 86.9524C105.326 87.2032 105.27 87.4506 105.165 87.6782C105.06 87.9058 104.907 88.1084 104.717 88.2726L102.028 89.8707ZM102.028 89.8707C102.942 89.5005 103.562 89.2321 103.88 89.0672L103.88 89.0672L103.883 89.0658C104.224 88.8808 104.538 88.6514 104.819 88.3835L102.028 89.8707ZM100.932 88.8852C101.005 88.9541 101.091 89.0077 101.186 89.0429C101.276 89.0765 101.372 89.0926 101.468 89.0904L100.932 88.8852ZM100.932 88.8852C100.862 88.8146 100.809 88.7306 100.773 88.6383C100.765 88.6159 100.757 88.5931 100.751 88.5699C100.75 88.5672 100.749 88.5645 100.749 88.5618C100.752 88.0083 101.123 87.4106 101.86 86.769C102.107 86.5542 102.348 86.3751 102.581 86.2319L100.932 88.8852ZM104.346 89.9792L104.346 89.9793C104.346 89.9788 104.346 89.9784 104.346 89.978L104.347 89.977C104.346 89.9776 104.346 89.9783 104.346 89.9792ZM104.346 89.9792C104.344 89.9829 104.34 89.9893 104.333 89.9966C104.325 90.0054 104.313 90.0143 104.298 90.0207C104.284 90.027 104.27 90.029 104.259 90.029V90.0251L104.272 89.9606L104.346 89.9792Z" fill="#FBF8F3" stroke="#FBF8F3" stroke-width="0.3"/>
<path d="M75.5884 47.6153L75.5882 47.6153C75.3379 47.6158 75.0932 47.5421 74.8849 47.4034C74.6766 47.2648 74.5141 47.0674 74.418 46.8364C74.3219 46.6054 74.2965 46.351 74.345 46.1056C74.3935 45.8601 74.5137 45.6345 74.6905 45.4574C74.8672 45.2803 75.0925 45.1596 75.3379 45.1106C75.5833 45.0616 75.8377 45.0865 76.0689 45.1821C76.3002 45.2777 76.4978 45.4398 76.6369 45.6478C76.7759 45.8559 76.8502 46.1005 76.8502 46.3507L76.9502 46.3507L76.8502 46.3509C76.8505 46.5168 76.8181 46.6812 76.7549 46.8346C76.6916 46.9879 76.5987 47.1274 76.4815 47.2448C76.3643 47.3622 76.2251 47.4554 76.0718 47.519C75.9186 47.5826 75.7543 47.6153 75.5884 47.6153Z" fill="#FBF8F3" stroke="#FBF8F3" stroke-width="0.2"/>
<path d="M67.8024 34.2296L67.749 34.1946C65.6842 32.8438 63.1289 32.1645 60.0774 32.1627L60.077 32.1627C56.1171 32.1455 52.2595 33.4206 49.09 35.7946L49.089 35.7954L49.089 35.7954C45.7687 38.2192 44.1274 40.8857 44.1274 43.7938C44.1274 45.2326 44.5557 46.3698 45.4043 47.2165C46.2531 48.0635 47.3859 48.4917 48.8134 48.4935C51.0038 48.4935 53.233 47.4771 55.5025 45.4233C57.7732 43.3684 58.8918 41.3495 58.8936 39.3664L67.8024 34.2296ZM67.8024 34.2296L67.8566 34.1959M67.8024 34.2296L67.8566 34.1959M67.8566 34.1959C69.7532 33.0155 71.5805 32.4295 73.3399 32.4295C74.7158 32.4313 75.8128 32.8402 76.6413 33.6489C77.4715 34.463 77.8942 35.5363 77.9035 36.8788L67.8566 34.1959Z" fill="#FBF8F3" stroke="#FBF8F3" stroke-width="0.2"/>
<path d="M97.7087 38.9059L97.7437 38.9207L97.3635 38.9628C95.9048 39.1245 94.4662 39.434 93.0701 39.8868C90.9983 40.5608 89.3462 41.5517 88.1091 42.8565C86.8722 44.1612 86.2606 45.5475 86.2606 47.0174L97.7087 38.9059ZM97.7087 38.9059C98.4318 38.8459 98.9777 38.8161 99.348 38.8161C99.8881 38.8161 100.285 38.8482 100.544 38.91C100.674 38.941 100.761 38.9777 100.814 39.0154C100.864 39.0511 100.874 39.0809 100.874 39.1052C100.874 39.1135 100.872 39.1238 100.854 39.1391C100.834 39.157 100.795 39.1779 100.73 39.1968C100.6 39.2344 100.396 39.2553 100.113 39.2554C99.3175 39.2467 98.526 39.1432 97.7551 38.9472L97.7343 38.9419L97.7132 38.9456C96.2988 39.1941 94.9289 39.6504 93.648 40.2996C89.7283 42.1806 87.7365 44.6263 87.7364 47.6457L97.7087 38.9059ZM103.579 31.9792L103.579 31.9793L103.584 31.9792C104.804 31.9448 106.022 32.1311 107.176 32.5291C107.67 32.7175 108.033 32.9226 108.271 33.1411C108.508 33.3582 108.619 33.584 108.622 33.8198C108.622 33.9788 108.586 34.113 108.517 34.2261C108.447 34.3396 108.341 34.4374 108.193 34.5178C107.895 34.6803 107.434 34.7669 106.799 34.7669C106.421 34.7669 105.844 34.701 105.064 34.5675C105.72 34.6503 106.336 34.6918 106.913 34.6918H107.013V34.6853C107.461 34.6767 107.817 34.6094 108.066 34.4753C108.202 34.4025 108.309 34.3087 108.381 34.1919C108.453 34.075 108.486 33.9407 108.483 33.793C108.483 33.5508 108.353 33.3338 108.124 33.1428C107.896 32.9521 107.561 32.7792 107.125 32.6217L107.124 32.6212C106.16 32.289 105.147 32.1282 104.128 32.1461C102.654 32.1281 101.198 32.4757 99.8909 33.158L99.6798 33.2682L99.9063 33.3417C100.442 33.5157 100.962 33.6728 101.465 33.8133C100.885 33.6778 100.263 33.5279 99.5971 33.3635L99.5583 33.354L99.5236 33.3737C97.7328 34.3946 96.8162 35.6947 96.8162 37.2765V37.2767C96.818 37.9847 97.045 38.5089 97.513 38.8229L97.3916 38.7714C96.8241 38.5308 96.4061 38.2233 96.1299 37.8525C95.8546 37.4828 95.7155 37.0441 95.7155 36.5317C95.7155 35.2264 96.5254 34.1125 98.1982 33.1953L98.4249 33.0711L98.1736 33.0104C95.75 32.4259 93.745 32.1322 92.1609 32.1322L92.1609 32.1322C89.0549 32.1341 86.4029 32.9104 84.21 34.4657C82.0171 36.0211 80.9083 37.9143 80.9079 40.1434C80.8845 41.0814 81.1976 41.9968 81.7904 42.724C82.0382 43.0585 82.3604 43.3307 82.7315 43.5192C83.1033 43.7082 83.514 43.8078 83.931 43.8104H83.9316C84.2121 43.8104 84.433 43.789 84.587 43.7405C84.7365 43.6934 84.8654 43.6046 84.8654 43.4464C84.8654 43.4043 84.8538 43.3616 84.8249 43.3252C84.7968 43.2898 84.7588 43.2688 84.7207 43.2569C84.6501 43.2346 84.5596 43.2371 84.4605 43.2519C84.2001 43.2507 84.0227 43.1899 83.9104 43.0865C83.7985 42.9836 83.7342 42.8229 83.7342 42.5848C83.7344 42.4553 83.7641 42.3276 83.8209 42.2112C83.8778 42.0949 83.9605 41.993 84.0626 41.9133L84.0627 41.9133L84.0657 41.9107C84.2934 41.7178 84.584 41.6154 84.8823 41.6231L84.8823 41.6232H84.8849C85.2038 41.6232 85.4245 41.7003 85.5658 41.8369C85.7064 41.9728 85.7854 42.1842 85.7854 42.4903V42.4905C85.7857 42.6868 85.7391 42.8804 85.6497 43.0553C85.5603 43.2301 85.4305 43.3811 85.2711 43.4959L85.2711 43.4958L85.2689 43.4975C84.8887 43.7873 84.4207 43.938 83.9428 43.9245L83.9428 43.9245H83.9399C83.0082 43.9245 82.2076 43.5062 81.5427 42.6569C80.8626 41.7739 80.5078 40.6834 80.5381 39.5693L80.5381 39.5693V39.5666C80.5381 37.752 81.3259 36.0824 82.9169 34.5555L82.917 34.5554C84.7998 32.744 87.4511 31.8319 90.8852 31.8319C92.8003 31.8319 95.3499 32.2281 98.5373 33.024L98.5715 33.0326L98.6035 33.0177C100.161 32.2959 101.863 31.9406 103.579 31.9792ZM94.3481 43.8909V43.8826L94.1824 44.0269C92.0308 45.9009 90.9381 47.8317 90.9381 49.8192L90.9381 49.8214C90.9519 50.4491 91.1359 51.0614 91.4704 51.5928L91.4933 51.6291L91.5354 51.6376C92.0907 51.7489 92.6554 51.8073 93.2218 51.8118H93.2226C95.7152 51.8118 98.144 50.9506 100.507 49.2359C102.866 47.5246 104.072 45.7553 104.073 43.9252C104.078 43.5514 103.997 43.1814 103.835 42.8444C103.673 42.5073 103.435 42.2126 103.139 41.9835C102.481 41.4647 101.659 41.1971 100.822 41.2286C98.6072 41.2291 96.4487 42.121 94.3481 43.8909Z" fill="#FBF8F3" stroke="#FBF8F3" stroke-width="0.2"/>
</g>
<defs>
<filter id="filter0_d_141_511" x="0.843613" y="0.996094" width="152.156" height="124.008" filterUnits="userSpaceOnUse" color-interpolation-filters="sRGB">
<feFlood flood-opacity="0" result="BackgroundImageFix"/>
<feColorMatrix in="SourceAlpha" type="matrix" values="0 0 0 0 0 0 0 0 0 0 0 0 0 0 0 0 0 0 127 0" result="hardAlpha"/>
<feOffset dy="4"/>
<feGaussianBlur stdDeviation="5"/>
<feComposite in2="hardAlpha" operator="out"/>
<feColorMatrix type="matrix" values="0 0 0 0 0.275 0 0 0 0 0.245536 0 0 0 0 0.223438 0 0 0 0.6 0"/>
<feBlend mode="normal" in2="BackgroundImageFix" result="effect1_dropShadow_141_511"/>
<feBlend mode="normal" in="SourceGraphic" in2="effect1_dropShadow_141_511" result="shape"/>
</filter>
</defs>
</svg>
