<svg width="260" height="209" viewBox="0 0 260 209" fill="none" xmlns="http://www.w3.org/2000/svg">
<g filter="url(#filter0_d_141_434)">
<path d="M205.971 154.054C186.314 182.068 152.537 196.757 118.644 192.704C89.7892 189.254 63.9921 171.669 49.409 146.692C40.3574 131.213 36.3345 113.271 37.0938 95.4243C37.0938 95.0824 35.6657 96.0428 35.6405 96.6111C35.0023 111.085 37.6933 125.512 43.5064 138.783C49.3196 152.053 58.0999 163.813 69.1717 173.157C91.8962 192.297 123.069 199.095 151.828 192.115C174.231 186.68 193.908 172.574 207.088 153.792C207.802 152.786 206.278 153.616 205.971 154.054V154.054Z" fill="#FBF8F3"/>
<path d="M44.9134 138.857C40.2418 134.96 34.5996 133.019 28.9222 131.062C22.214 128.759 15.9483 125.963 10.98 120.754L10.5425 121.568C17.3965 120.1 24.1953 120.457 30.4157 123.887C36.6362 127.316 40.9005 133.441 44.1189 139.551C44.3753 140.054 45.2 139.41 44.9737 138.983C41.6096 132.581 37.3 126.728 30.984 123.007C24.8339 119.366 17.5021 119.18 10.6833 120.643C10.3765 120.708 9.94907 121.146 10.2458 121.463C14.8168 126.285 20.459 129.101 26.6392 131.314C32.8194 133.527 39.065 135.337 44.1792 139.591C44.5714 139.923 45.3006 139.179 44.9134 138.857Z" fill="#FBF8F3"/>
<path d="M10.5223 121.322C16.6528 122.946 22.563 125.31 28.1227 128.362C33.2771 131.178 39.5277 133.637 43.0578 138.49C43.2036 138.691 43.5607 138.329 43.4249 138.123C39.8545 133.225 33.5737 130.791 28.4093 127.934C22.8141 124.868 16.8622 122.504 10.6883 120.894C10.457 120.834 10.2156 121.272 10.5073 121.347L10.5223 121.322Z" fill="#FBF8F3"/>
<path d="M17.1853 126.366C19.1666 126.104 21.0675 125.707 23.0839 125.747C23.3203 125.747 23.5566 125.3 23.265 125.295C21.2183 125.249 19.2722 125.647 17.2557 125.913C17.0144 125.948 16.8635 126.416 17.1853 126.366Z" fill="#FBF8F3"/>
<path d="M26.2771 126.788C25.1604 124.804 24.2117 122.73 23.441 120.588C23.3404 120.331 22.9381 120.643 23.0135 120.869C23.7851 123.012 24.7355 125.086 25.8547 127.07C25.9905 127.306 26.4028 126.994 26.2771 126.788Z" fill="#FBF8F3"/>
<path d="M24.0494 130.112C26.1011 129.951 28.1428 129.745 30.1794 129.453C30.4207 129.418 30.5716 128.95 30.2498 129.006C28.2383 129.297 26.1715 129.509 24.1198 129.659C23.8734 129.659 23.7276 130.137 24.0494 130.112V130.112Z" fill="#FBF8F3"/>
<path d="M32.6987 130.308C31.165 127.608 29.9833 124.736 28.5803 121.971C28.4545 121.724 28.0422 122.036 28.1528 122.252C29.5558 125.023 30.7627 127.894 32.2713 130.595C32.4071 130.836 32.8194 130.519 32.6987 130.313V130.308Z" fill="#FBF8F3"/>
<path d="M36.1635 132.194C34.8058 132.038 33.4681 132.38 32.1104 132.37C31.874 132.37 31.6377 132.822 31.9294 132.827C33.2821 132.827 34.6298 132.496 35.9825 132.651C36.2188 132.677 36.4602 132.229 36.1635 132.194Z" fill="#FBF8F3"/>
<path d="M37.7173 133.134C37.0536 130.932 36.4551 128.699 35.6355 126.547C35.5399 126.295 35.1326 126.602 35.2131 126.833C36.0277 128.986 36.6261 131.213 37.2899 133.416C37.3653 133.672 37.7928 133.366 37.7173 133.134Z" fill="#FBF8F3"/>
<path d="M36.7971 96.3445C37.8028 88.6909 36.0378 81.2937 34.2576 73.8915C32.1053 64.9455 30.7376 56.1353 33.0055 47.0535L31.9495 47.6167C38.1448 53.8724 42.4493 61.3752 43.1433 70.301C43.8473 79.4482 40.1764 88.4394 35.736 96.2238C35.3036 96.9831 36.2791 97.305 36.6513 96.6412C41.1771 88.6758 44.5513 80.0466 44.3501 70.7335C44.149 61.4204 39.3215 53.1332 32.8747 46.6663C32.4724 46.269 31.9143 46.8574 31.8187 47.2295C29.757 55.381 30.5766 63.4269 32.402 71.5532C34.2626 79.8153 36.7418 87.9617 35.6154 96.5255C35.5047 97.3502 36.6915 96.9681 36.772 96.3445H36.7971Z" fill="#FBF8F3"/>
<path d="M32.1255 47.3352C34.5558 54.8573 36.0753 62.6436 36.6513 70.5275C37.2045 78.1761 38.9896 87.122 36.073 94.3684C35.9121 94.7757 36.4854 94.7455 36.6111 94.4287C39.4472 87.3886 37.7828 79.0762 37.3251 71.684C36.8146 63.28 35.2519 54.9732 32.6736 46.9581C32.568 46.6312 32.03 47.0285 32.1255 47.3252V47.3352Z" fill="#FBF8F3"/>
<path d="M31.2656 57.9959C32.915 59.9621 34.675 61.7473 36.0127 63.9599C36.1987 64.2616 36.7217 63.8593 36.5608 63.5928C35.198 61.345 33.4128 59.5246 31.7433 57.5232C31.5321 57.2768 31.0544 57.7445 31.2656 57.9959V57.9959Z" fill="#FBF8F3"/>
<path d="M37.0385 67.9527C38.4013 65.396 39.9793 62.9601 41.7554 60.6712C42.0169 60.3141 41.514 60.1683 41.2928 60.46C39.4902 62.8 37.8855 65.286 36.4954 67.8923C36.3043 68.2846 36.8876 68.2494 37.0385 67.9527Z" fill="#FBF8F3"/>
<path d="M31.9494 68.0484C33.5385 70.1554 35.1728 72.2322 36.8977 74.2336C37.1089 74.475 37.5866 74.0073 37.3703 73.7308C35.6455 71.7193 34.0112 69.6626 32.4221 67.5505C32.2311 67.2941 31.7533 67.7567 31.9494 68.0232V68.0484Z" fill="#FBF8F3"/>
<path d="M37.6469 77.3261C39.4925 73.806 41.7805 70.5877 43.7869 67.1782C44.0132 66.8011 43.5204 66.6452 43.3293 66.972C41.3179 70.4267 38.9846 73.7155 37.1089 77.2708C36.9077 77.6529 37.4961 77.6177 37.6469 77.3261V77.3261Z" fill="#FBF8F3"/>
<path d="M37.9939 82.3649C37.2346 80.7808 35.9322 79.574 35.0069 78.0955C34.8208 77.7938 34.2928 78.1961 34.4588 78.4576C35.379 79.936 36.6865 81.1479 37.4458 82.7269C37.6017 83.0437 38.1347 82.6465 37.9939 82.3649Z" fill="#FBF8F3"/>
<path d="M37.9638 84.859C39.9099 82.591 41.9364 80.3885 43.7166 77.9848C43.9781 77.6328 43.4752 77.4819 43.2539 77.7786C41.509 80.132 39.5227 82.3044 37.6118 84.512C37.3452 84.8238 37.6872 85.1758 37.9638 84.859V84.859Z" fill="#FBF8F3"/>
<path d="M20.4992 110.696C19.574 109.354 19.8405 107.061 20.0316 105.527C19.7801 105.728 19.5287 105.934 19.2873 106.14C20.7554 106.269 22.1889 106.657 23.5215 107.287C24.1407 107.632 24.5998 108.206 24.8001 108.886C25.0004 109.566 24.9259 110.297 24.5926 110.923C23.6673 112.602 21.4597 111.803 20.4992 110.696C20.112 110.249 19.2421 111.104 19.6393 111.556C20.133 112.163 20.8121 112.59 21.5724 112.773C22.3327 112.956 23.132 112.885 23.8476 112.57C24.5633 112.254 25.1556 111.713 25.5336 111.028C25.9117 110.344 26.0545 109.554 25.9402 108.78C25.5983 105.944 22.0078 105.341 19.7148 105.074C19.5389 105.073 19.3682 105.133 19.2329 105.246C19.0976 105.358 19.0064 105.515 18.9755 105.688C18.7442 107.533 18.533 109.957 19.6393 111.556C19.9662 112.059 20.8412 111.189 20.4992 110.696V110.696Z" fill="#FBF8F3"/>
<path d="M24.1349 112.13C25.6435 114.141 28.1579 114.448 30.4409 115.107C35.2081 116.489 37.6319 120.266 39.1103 124.807C39.226 125.164 39.8244 124.731 39.7138 124.4C38.4415 120.482 36.5155 116.987 32.6736 115.167C30.0436 113.92 26.5286 114.116 24.6579 111.607C24.4467 111.32 23.9187 111.833 24.1551 112.109L24.1349 112.13Z" fill="#FBF8F3"/>
<path d="M47.5936 95.0421C47.7093 93.7095 46.8242 92.3769 46.085 91.341C45.9643 91.175 45.6677 91.2555 45.5369 91.341C44.2194 92.2763 42.3286 93.7849 42.8315 95.6103C42.9583 96.1553 43.2796 96.6353 43.7351 96.9602C44.1906 97.2852 44.749 97.4328 45.3056 97.3754C46.5276 97.31 47.3573 96.1182 47.6037 95.0421C47.7546 94.3984 46.784 94.7001 46.6684 95.1879C46.0951 97.667 42.7611 95.8718 43.9328 93.9458C44.4416 93.206 45.093 92.5752 45.8487 92.0902H45.2955C45.8839 92.9049 46.7337 94.1269 46.6432 95.1728C46.5829 95.8416 47.5333 95.5399 47.5785 95.027L47.5936 95.0421Z" fill="#FBF8F3"/>
<path d="M44.6217 96.9532C44.4457 99.4676 41.0111 100.438 39.3316 101.831C36.953 103.797 36.3797 106.825 36.43 109.756C36.43 110.033 36.8625 109.807 36.8575 109.585C36.782 105.251 38.4314 102.545 42.0672 100.413C43.4903 99.5732 44.9234 98.6831 45.0492 96.8929C45.0492 96.5862 44.6418 96.7219 44.6217 96.9532V96.9532Z" fill="#FBF8F3"/>
<path d="M18.2715 92.8748C17.7686 91.507 18.4827 89.6262 18.9755 88.349L17.9698 88.8921C19.237 89.3267 20.4182 89.9803 21.4597 90.8231C21.8882 91.204 22.1569 91.7329 22.2119 92.3036C22.2669 92.8744 22.1042 93.4448 21.7564 93.9006C20.6601 95.2332 18.8498 94.0163 18.2665 92.8949C17.9044 92.1959 16.7277 93.086 17.0495 93.7045C18.6637 96.8022 22.7872 96.0277 23.4812 92.6988C24.0695 89.928 20.8663 88.4495 18.7794 87.6701C18.5742 87.6182 18.357 87.6452 18.1707 87.7457C17.9845 87.8463 17.8428 88.0131 17.7737 88.2132C17.1451 89.8375 16.4209 91.9847 17.0445 93.6995C17.306 94.4186 18.4978 93.5436 18.2614 92.8899L18.2715 92.8748Z" fill="#FBF8F3"/>
<path d="M21.0624 95.0674C22.0229 98.0041 24.5825 100.026 26.6945 102.153C30.3781 105.775 32.6587 110.586 33.1312 115.73C33.1664 116.117 33.7497 115.806 33.7196 115.494C33.3153 110.91 31.4825 106.569 28.4797 103.083C26.1766 100.388 22.7621 98.2003 21.6156 94.7003C21.51 94.3684 20.9669 94.7657 21.0624 95.0674V95.0674Z" fill="#FBF8F3"/>
<path d="M52.4715 152.314C54.5131 146.013 52.3357 139.923 50.1281 133.979C49.9873 133.597 49.4241 133.869 49.2933 134.105C46.1555 139.963 48.6245 147.139 51.5663 152.565C51.8479 153.068 52.7279 152.414 52.4765 151.957C49.7509 146.928 47.1109 139.948 50.0577 134.457L49.2179 134.583C51.3249 140.26 53.5325 146.149 51.5764 152.213C51.3501 152.902 52.2955 152.852 52.4715 152.314Z" fill="#FBF8F3"/>
<path d="M52.1094 152.188C47.5384 146.455 39.0349 143.508 32.3116 141.286C31.9445 141.165 31.3058 141.633 31.5573 142.045C34.4035 147.074 45.8186 159.278 52.0038 152.867C52.5067 152.364 51.9083 151.791 51.4255 152.293C46.0348 157.885 34.9717 145.897 32.4675 141.442L31.7081 142.201C38.3611 144.393 46.7941 147.32 51.3199 152.972C51.6568 153.395 52.4514 152.615 52.1094 152.188V152.188Z" fill="#FBF8F3"/>
<path d="M63.6854 166.263C64.8973 160.812 62.6243 155.879 60.3212 151.041C60.1603 150.699 59.7127 151.011 59.6172 151.237C57.4548 156.392 60.12 162.23 62.9562 166.555C63.2076 166.942 63.8865 166.419 63.6652 166.087C60.9246 161.928 58.2293 156.281 60.3162 151.313L59.6121 151.509C61.8549 156.221 64.1379 161.063 62.9361 166.379C62.8204 166.882 63.5999 166.655 63.6854 166.263V166.263Z" fill="#FBF8F3"/>
<path d="M63.3836 166.303C59.0137 161.777 51.6568 159.942 45.728 158.544C45.6445 158.538 45.5609 158.554 45.4857 158.59C45.4104 158.627 45.3463 158.683 45.2997 158.753C45.2532 158.822 45.226 158.903 45.2208 158.986C45.2157 159.07 45.2328 159.153 45.2704 159.228C48.0563 163.251 58.541 172.629 63.2981 166.836C63.6351 166.429 63.1976 165.966 62.8506 166.389C58.5963 171.563 48.4183 162.275 45.8839 158.614L45.4263 159.298C51.1841 160.656 58.5259 162.512 62.7701 166.917C63.0668 167.224 63.6753 166.61 63.3836 166.303V166.303Z" fill="#FBF8F3"/>
<path d="M73.9187 175.254C73.979 171.01 71.4044 167.646 68.9353 164.433C68.7794 164.232 68.4827 164.538 68.4324 164.694C67.6379 168.883 70.5897 172.826 73.4158 175.581C73.6321 175.792 74.0696 175.355 73.8483 175.144C71.1278 172.484 68.2011 168.662 68.9705 164.614L68.4676 164.875C70.9065 168.028 73.4058 171.292 73.3505 175.471C73.3505 175.818 73.8835 175.531 73.8885 175.254H73.9187Z" fill="#FBF8F3"/>
<path d="M73.6874 175.365C69.6947 172.72 63.9318 172.519 59.3054 172.428C59.1093 172.428 58.7674 172.72 58.9786 172.931C61.7594 175.506 71.0474 180.836 73.7327 175.732C73.9187 175.375 73.4712 175.229 73.3052 175.541C70.9216 180.067 61.9153 174.812 59.4161 172.494L59.0892 172.996C63.6854 173.087 69.403 173.288 73.3505 175.903C73.5868 176.064 73.959 175.576 73.6874 175.4V175.365Z" fill="#FBF8F3"/>
<path d="M53.5928 47.119C73.451 18.9836 107.581 4.40049 141.645 8.80058C170.449 12.5268 196.075 30.3434 210.422 55.4415C219.197 70.7839 223.094 88.4999 222.31 106.1C222.31 106.442 223.738 105.482 223.763 104.913C224.425 90.417 221.746 75.9623 215.934 62.6656C210.122 49.3689 201.332 37.5858 190.242 28.2263C167.472 9.05704 136.219 2.27337 107.415 9.31853C85.1678 14.7646 65.6214 28.7594 52.4765 47.3855C51.7624 48.3913 53.2861 47.5565 53.5928 47.119Z" fill="#FBF8F3"/>
<path d="M214.5 62.5217C219.172 66.4189 224.814 68.36 230.486 70.3161C237.2 72.6343 243.46 75.4303 248.434 80.6701L248.866 79.8505C242.017 81.3188 235.213 80.9618 228.993 77.5373C222.772 74.1128 218.513 67.9828 215.295 61.873C215.038 61.3701 214.213 62.0088 214.44 62.4362C217.799 68.8125 222.134 74.6659 228.43 78.3871C234.58 82.0279 241.911 82.2139 248.73 80.7506C249.037 80.6852 249.459 80.2477 249.168 79.9309C244.597 75.1084 238.955 72.2924 232.769 70.0647C226.584 67.837 220.348 66.0418 215.234 61.7875C214.842 61.4556 214.113 62.1999 214.5 62.5217V62.5217Z" fill="#FBF8F3"/>
<path d="M248.891 80.0717C242.76 78.4503 236.849 76.0861 231.291 73.0316C226.136 70.2206 219.886 67.7515 216.351 62.9039C216.205 62.7027 215.848 63.0648 215.984 63.271C219.554 68.1689 225.835 70.6078 231.004 73.459C236.598 76.529 242.55 78.8938 248.725 80.4992C248.956 80.5645 249.198 80.122 248.906 80.0466L248.891 80.0717Z" fill="#FBF8F3"/>
<path d="M242.253 75.0279C240.272 75.2894 238.366 75.6917 236.355 75.6464C236.118 75.6464 235.882 76.094 236.174 76.104C238.22 76.1443 240.166 75.747 242.183 75.4805C242.424 75.4503 242.57 74.9776 242.253 75.0279V75.0279Z" fill="#FBF8F3"/>
<path d="M233.136 74.6208C234.25 76.6047 235.198 78.6768 235.972 80.8161C236.068 81.0726 236.475 80.7608 236.395 80.5345C235.625 78.3918 234.676 76.3177 233.559 74.3342C233.418 74.0978 233.011 74.4096 233.136 74.6208V74.6208Z" fill="#FBF8F3"/>
<path d="M235.359 71.2816C233.312 71.4425 231.266 71.6487 229.234 71.9404C228.988 71.9756 228.842 72.4433 229.164 72.393C231.175 72.0963 233.242 71.8901 235.289 71.7342C235.535 71.7342 235.686 71.2615 235.359 71.2816Z" fill="#FBF8F3"/>
<path d="M226.715 71.0854C228.248 73.7807 229.425 76.6571 230.833 79.4179C230.959 79.6643 231.371 79.3525 231.261 79.1363C229.853 76.3705 228.676 73.4991 227.142 70.7988C227.006 70.5624 226.594 70.8742 226.715 71.0854Z" fill="#FBF8F3"/>
<path d="M223.25 69.1999C224.608 69.3558 225.945 69.0188 227.303 69.0239C227.534 69.0239 227.776 68.5713 227.484 68.5713C226.126 68.5713 224.784 68.9032 223.431 68.7473C223.195 68.7171 222.953 69.1647 223.25 69.1999Z" fill="#FBF8F3"/>
<path d="M221.696 68.2596C222.36 70.4672 222.953 72.6949 223.773 74.8472C223.869 75.0986 224.276 74.7919 224.2 74.5656C223.381 72.4133 222.787 70.1806 222.124 67.978C222.043 67.7266 221.621 68.0283 221.696 68.2596V68.2596Z" fill="#FBF8F3"/>
<path d="M222.636 105.049C221.631 112.703 223.401 120.1 225.181 127.502C227.333 136.448 228.701 145.258 226.433 154.34L227.484 153.777C221.269 147.501 216.964 140.018 216.27 131.098C215.561 121.945 219.237 112.954 223.677 105.17C224.11 104.41 223.134 104.094 222.757 104.752C218.231 112.723 214.862 121.347 215.058 130.66C215.254 139.973 220.117 148.26 226.539 154.722C226.936 155.125 227.499 154.536 227.59 154.159C229.651 145.993 228.832 137.972 227.006 129.845C225.151 121.583 222.672 113.432 223.798 104.873C223.904 104.048 222.722 104.426 222.636 105.049V105.049Z" fill="#FBF8F3"/>
<path d="M227.288 154.069C224.855 146.548 223.335 138.761 222.762 130.877C222.209 123.228 220.419 114.282 223.341 107.036C223.501 106.628 222.928 106.659 222.797 106.975C219.961 114.041 221.631 122.333 222.083 129.725C222.598 138.127 224.162 146.432 226.74 154.446C226.84 154.773 227.384 154.381 227.288 154.084V154.069Z" fill="#FBF8F3"/>
<path d="M228.163 143.383C226.519 141.416 224.759 139.631 223.416 137.419C223.23 137.117 222.707 137.519 222.868 137.786C224.231 140.034 226.016 141.854 227.69 143.855C227.896 144.107 228.379 143.639 228.163 143.383Z" fill="#FBF8F3"/>
<path d="M222.355 133.461C220.987 136.017 219.409 138.454 217.638 140.748C217.376 141.1 217.879 141.251 218.101 140.954C219.903 138.615 221.506 136.129 222.893 133.522C223.089 133.134 222.506 133.165 222.355 133.461Z" fill="#FBF8F3"/>
<path d="M227.459 133.326C225.87 131.219 224.241 129.147 222.516 127.145C222.3 126.899 221.827 127.367 222.043 127.618C223.763 129.629 225.402 131.691 226.986 133.798C227.182 134.055 227.66 133.592 227.459 133.326Z" fill="#FBF8F3"/>
<path d="M221.767 124.068C219.916 127.588 217.633 130.806 215.621 134.215C215.4 134.593 215.888 134.748 216.079 134.422C218.121 130.967 220.429 127.678 222.305 124.128C222.506 123.741 221.917 123.776 221.767 124.068Z" fill="#FBF8F3"/>
<path d="M221.414 119.029C222.179 120.613 223.481 121.825 224.402 123.298C224.593 123.6 225.116 123.198 224.95 122.936C224.029 121.463 222.722 120.246 221.963 118.667C221.812 118.35 221.279 118.752 221.414 119.029Z" fill="#FBF8F3"/>
<path d="M221.45 116.54C219.504 118.802 217.477 121.01 215.697 123.409C215.435 123.766 215.938 123.912 216.16 123.62C217.899 121.266 219.891 119.094 221.797 116.881C222.063 116.575 221.721 116.218 221.45 116.54V116.54Z" fill="#FBF8F3"/>
<path d="M238.914 90.6925C239.84 92.0301 239.573 94.3232 239.382 95.8569L240.121 95.2434C238.655 95.1163 237.223 94.7298 235.892 94.1019C235.272 93.7561 234.813 93.181 234.613 92.5003C234.413 91.8196 234.487 91.0875 234.821 90.4612C235.746 88.7816 237.949 89.5812 238.914 90.6925C239.301 91.1401 240.171 90.2852 239.774 89.8276C239.281 89.2225 238.603 88.7958 237.844 88.6129C237.085 88.4299 236.287 88.5007 235.572 88.8145C234.857 89.1283 234.265 89.6677 233.886 90.3502C233.507 91.0327 233.362 91.8206 233.473 92.5933C233.815 95.4245 237.401 96.0279 239.699 96.2944C239.875 96.298 240.047 96.238 240.183 96.1254C240.318 96.0127 240.409 95.8549 240.438 95.6809C240.669 93.8354 240.88 91.4116 239.774 89.8125C239.447 89.3398 238.572 90.1796 238.914 90.6774V90.6925Z" fill="#FBF8F3"/>
<path d="M235.279 89.2692C233.77 87.2578 231.23 86.946 228.968 86.2923C224.205 84.9044 221.777 81.1278 220.303 76.592C220.188 76.2299 219.589 76.6624 219.695 76.9943C220.972 80.9116 222.898 84.4115 226.735 86.2319C229.365 87.474 232.88 87.2779 234.751 89.7922C234.962 90.0738 235.49 89.5609 235.253 89.2893L235.279 89.2692Z" fill="#FBF8F3"/>
<path d="M211.82 106.351C211.699 107.684 212.589 109.017 213.328 110.053C213.444 110.219 213.746 110.138 213.877 110.053C215.179 109.127 217.085 107.624 216.582 105.793C216.455 105.248 216.134 104.768 215.678 104.443C215.223 104.118 214.664 103.971 214.108 104.028C212.886 104.094 212.056 105.285 211.81 106.362C211.659 107.01 212.629 106.703 212.745 106.216C213.313 103.737 216.652 105.532 215.481 107.463C214.96 108.2 214.301 108.828 213.54 109.313H214.088C213.504 108.499 212.65 107.302 212.745 106.231C212.8 105.562 211.855 105.864 211.81 106.377L211.82 106.351Z" fill="#FBF8F3"/>
<path d="M214.812 104.441C214.988 101.957 218.427 100.956 220.107 99.563C222.481 97.5968 223.059 94.5745 223.009 91.6378C223.009 91.3612 222.576 91.5875 222.581 91.8088C222.657 96.1435 221.002 98.8489 217.371 100.981C215.943 101.821 214.515 102.711 214.384 104.501C214.384 104.808 214.797 104.667 214.812 104.436V104.441Z" fill="#FBF8F3"/>
<path d="M241.137 108.519C241.64 109.892 240.931 111.768 240.433 113.045L241.439 112.502C240.171 112.065 238.988 111.412 237.944 110.571C237.517 110.188 237.25 109.659 237.196 109.089C237.142 108.519 237.305 107.949 237.652 107.493C238.743 106.166 240.554 107.377 241.137 108.499C241.504 109.198 242.676 108.308 242.359 107.694C240.745 104.592 236.621 105.371 235.922 108.7C235.339 111.476 238.542 112.949 240.629 113.729C240.834 113.782 241.051 113.756 241.237 113.657C241.424 113.557 241.566 113.39 241.635 113.191C242.258 111.561 242.987 109.414 242.364 107.704C242.097 106.98 240.906 107.855 241.142 108.509L241.137 108.519Z" fill="#FBF8F3"/>
<path d="M238.346 106.327C237.391 103.39 234.826 101.373 232.719 99.2412C229.034 95.6197 226.754 90.8087 226.282 85.6638C226.242 85.2816 225.659 85.5934 225.694 85.9002C226.096 90.4842 227.929 94.8259 230.934 98.3109C233.237 101.006 236.651 103.194 237.793 106.699C237.899 107.026 238.447 106.628 238.346 106.327Z" fill="#FBF8F3"/>
<path d="M206.942 49.0802C204.9 55.3811 207.078 61.4708 209.28 67.4147C209.421 67.7969 209.989 67.5304 210.12 67.289C213.258 61.4155 210.789 54.2547 207.847 48.8439C207.566 48.341 206.686 48.9947 206.937 49.4523C209.657 54.481 212.298 61.4608 209.356 66.9521L210.196 66.8264C208.089 61.149 205.876 55.2604 207.837 49.1959C208.063 48.5019 207.118 48.5522 206.942 49.0953V49.0802Z" fill="#FBF8F3"/>
<path d="M207.304 49.2058C211.875 54.9385 220.379 57.8903 227.097 60.108C227.469 60.2287 228.103 59.761 227.856 59.3487C225.005 54.32 213.59 42.1104 207.41 48.5219C206.907 49.0248 207.505 49.5981 207.983 49.1002C213.379 43.5084 224.442 55.5218 226.946 59.9571L227.705 59.1978C221.052 57.0003 212.619 54.0736 208.094 48.4163C207.762 47.999 206.962 48.7734 207.309 49.2058H207.304Z" fill="#FBF8F3"/>
<path d="M195.728 35.1307C194.511 40.5818 196.789 45.5149 199.092 50.3525C199.253 50.6944 199.701 50.3826 199.796 50.1563C201.959 45.002 199.293 39.1587 196.457 34.834C196.201 34.4518 195.527 34.9748 195.748 35.3067C198.489 39.4604 201.184 45.1126 199.097 50.0759L199.801 49.8798C197.558 45.1729 195.275 40.3253 196.477 35.015C196.593 34.5122 195.814 34.7385 195.728 35.1307V35.1307Z" fill="#FBF8F3"/>
<path d="M196.03 35.0855C200.395 39.6113 207.757 41.4518 213.685 42.8497C213.769 42.856 213.853 42.84 213.928 42.8034C214.003 42.7667 214.067 42.7108 214.114 42.6412C214.16 42.5717 214.188 42.491 214.193 42.4075C214.198 42.324 214.181 42.2406 214.143 42.1658C211.352 38.1429 200.872 28.7644 196.115 34.5575C195.778 34.9648 196.216 35.4224 196.563 35.005C200.817 29.8255 210.99 39.1185 213.53 42.7743L213.987 42.0904C208.229 40.7377 200.888 38.8821 196.643 34.472C196.347 34.1703 195.733 34.7787 196.03 35.0855V35.0855Z" fill="#FBF8F3"/>
<path d="M185.495 26.1393C185.434 30.3835 188.009 33.7426 190.473 36.9559C190.634 37.1621 190.931 36.8554 190.976 36.6944C191.771 32.5106 188.819 28.5681 185.998 25.8124C185.781 25.5962 185.344 26.0387 185.56 26.2499C188.266 28.905 191.177 32.752 190.423 36.7749L190.926 36.5134C188.492 33.3554 185.988 30.0918 186.048 25.918C186.048 25.571 185.515 25.8526 185.51 26.1342L185.495 26.1393Z" fill="#FBF8F3"/>
<path d="M185.726 26.0237C189.719 28.6738 195.477 28.875 200.108 28.9655C200.304 28.9655 200.646 28.6738 200.435 28.4626C197.654 25.8829 188.366 20.5576 185.681 25.6617C185.495 26.0137 185.942 26.1645 186.108 25.8527C188.492 21.3269 197.498 26.5819 199.997 28.9001L200.324 28.3973C195.723 28.3067 190.01 28.1056 186.063 25.4857C185.827 25.3298 185.455 25.8125 185.726 25.9885V26.0237Z" fill="#FBF8F3"/>
<path d="M123.391 118.174C115.345 116.751 115.164 127.517 121.646 129.66C125.392 130.897 130.034 128.78 133.373 127.291C138.049 125.209 142.424 122.504 146.799 119.844C151.752 116.827 156.52 113.965 162.212 112.477C170.198 110.385 180.974 110.787 186.797 117.425C191.434 122.715 186.878 132.164 179.757 130.811C176.861 130.258 174.593 127.693 174.728 124.732C174.844 122.041 177.439 120.286 179.571 119.2C179.772 119.094 179.038 118.154 178.701 118.33C175.216 120.13 172.209 123.691 174.713 127.598C175.529 128.945 176.687 130.053 178.069 130.808C179.451 131.563 181.009 131.939 182.583 131.897C187.924 131.676 190.629 125.033 189.196 120.558C187.687 115.786 182.271 112.753 177.796 111.506C170.479 109.495 162.021 110.536 155.197 113.724C150.168 116.072 145.547 119.296 140.75 122.097C135.952 124.898 130.692 127.9 125.065 128.875C121.409 129.509 118.111 128.161 117.809 123.977C117.537 120.246 120.69 118.511 123.989 119.089C124.401 119.165 123.697 118.24 123.396 118.184L123.391 118.174Z" fill="#FBF8F3" stroke="#FBF8F3" stroke-width="0.5" stroke-linecap="round" stroke-linejoin="round"/>
<path d="M136.103 119.089C141.092 118.204 142.751 122.986 140.518 126.683C139.417 128.518 137.23 129.021 135.248 129.021C129.299 129.021 123.109 125.033 118.151 122.167C113.922 119.718 109.859 116.962 105.539 114.674C98.321 110.862 90.0118 109.648 82.0048 111.235C76.242 112.396 69.6796 116.565 69.7349 123.077C69.7701 127.014 73.1845 131.007 76.9711 131.807C80.5415 132.561 84.2778 129.986 85.4142 126.678C86.7167 122.876 83.0206 119.844 80.0889 118.33C79.5458 118.053 80.2347 119.039 80.4811 119.165C86.4904 122.267 85.3891 128.654 79.4754 130.665C75.4927 132.028 72.209 129.157 70.9267 125.456C69.6444 121.754 71.9927 118.29 74.6076 115.977C80.4158 110.837 89.6484 110.807 96.7841 112.22C102.818 113.422 107.943 116.6 113.107 119.763C117.452 122.517 121.954 125.015 126.589 127.246C130.039 128.835 134.107 130.459 137.969 129.76C145.346 128.458 143.048 116.786 135.334 118.154C135.047 118.204 135.746 119.135 136.088 119.074L136.103 119.089Z" fill="#FBF8F3" stroke="#FBF8F3" stroke-width="0.5" stroke-linecap="round" stroke-linejoin="round"/>
<path d="M93.1182 149.417L93.0303 149.295L93.0303 149.295L93.0302 149.296L93.03 149.296L93.0295 149.296L93.0281 149.297L93.0238 149.3L93.0093 149.311C92.9972 149.321 92.9803 149.335 92.9596 149.353C92.9184 149.388 92.862 149.441 92.7979 149.51L92.6682 149.645L92.6682 149.645L92.6648 149.648C91.1048 151.379 89.7312 152.768 88.5435 153.815C87.3541 154.864 86.3582 155.565 85.5537 155.928L85.5537 155.928L85.552 155.929C85.5087 155.949 85.4622 155.975 85.425 156.011C85.3846 156.05 85.3498 156.107 85.3498 156.181C85.3498 156.232 85.3656 156.302 85.4321 156.35C85.4856 156.388 85.5466 156.391 85.5802 156.391C85.671 156.391 85.7795 156.351 85.8899 156.298C86.0068 156.242 86.1492 156.16 86.3157 156.054C86.6492 155.842 87.0906 155.526 87.6376 155.108L87.6376 155.108L87.6387 155.107C88.7054 154.275 89.7189 153.378 90.6737 152.422C90.374 152.796 90.068 153.165 89.7559 153.528L89.7558 153.528L89.7543 153.53C87.506 156.237 86.147 158.257 85.7045 159.578L85.6239 159.818L85.8736 159.773C86.2111 159.711 86.5523 159.672 86.895 159.655C87.0854 159.659 87.2749 159.684 87.4597 159.73L87.604 159.767L87.6414 159.623C87.8738 158.725 88.2071 157.857 88.6348 157.035C89.0841 156.183 89.8955 154.847 91.0719 153.023C91.8061 151.887 92.3571 151.028 92.7246 150.445C92.9083 150.154 93.0467 149.931 93.1393 149.776C93.1855 149.699 93.2212 149.638 93.2456 149.593C93.2577 149.571 93.2681 149.551 93.2759 149.534C93.2797 149.526 93.284 149.516 93.2876 149.506L93.2878 149.506C93.2899 149.5 93.2984 149.476 93.2984 149.447V149.437L93.297 149.427C93.2916 149.387 93.2732 149.35 93.2445 149.321C93.2157 149.292 93.1784 149.274 93.1383 149.268L93.1182 149.417Z" fill="#FBF8F3" stroke="#FBF8F3" stroke-width="0.3"/>
<path d="M98.4032 149.315C97.6398 149.635 96.9235 150.058 96.2739 150.571C94.9353 151.621 94.2272 152.751 94.2053 153.963C94.1925 154.259 94.2387 154.553 94.3412 154.831C94.444 155.109 94.6014 155.363 94.804 155.579L94.8038 155.579L94.8091 155.584C95.023 155.791 95.2775 155.952 95.5564 156.056C95.8354 156.16 96.1328 156.206 96.4302 156.19L98.4032 149.315ZM101.38 149.606C101.585 149.842 101.701 150.212 101.703 150.742C101.665 151.579 101.368 152.38 100.856 153.036V153.01L100.592 153.323C100.008 154.014 99.3121 154.601 98.5332 155.061L98.5331 155.061L98.526 155.065C97.9277 155.466 97.2354 155.703 96.5174 155.754C96.0987 155.753 95.8121 155.654 95.6298 155.482C95.4485 155.311 95.345 155.044 95.345 154.652C95.345 153.657 95.9349 152.502 97.1701 151.184C98.4068 149.864 99.4904 149.242 100.424 149.245H100.425C100.87 149.245 101.179 149.373 101.38 149.606Z" fill="#FBF8F3" stroke="#FBF8F3" stroke-width="0.3"/>
<path d="M103.28 161.456L103.134 161.686H103.407H103.709H103.791L103.835 161.616L114.265 145.178L114.411 144.947H114.138H113.831H113.749L113.705 145.017L103.28 161.456Z" fill="#FBF8F3" stroke="#FBF8F3" stroke-width="0.3"/>
<path d="M122.802 149.449C122.802 149.422 122.796 149.396 122.785 149.371C122.774 149.347 122.758 149.325 122.738 149.307C122.718 149.29 122.694 149.277 122.669 149.269C122.643 149.262 122.616 149.26 122.59 149.264L122.555 149.269L122.525 149.289C122.437 149.351 122.358 149.426 122.291 149.511L122.169 149.642L122.169 149.642L122.652 149.447M122.802 149.449L122.652 149.447M122.802 149.449C122.802 149.448 122.802 149.448 122.802 149.447H122.652M122.802 149.449C122.801 149.477 122.793 149.5 122.791 149.506L122.791 149.506C122.787 149.516 122.783 149.526 122.779 149.534C122.771 149.551 122.761 149.571 122.749 149.593C122.724 149.638 122.689 149.699 122.642 149.776C122.55 149.931 122.411 150.154 122.228 150.445C121.86 151.028 121.309 151.887 120.575 153.023L120.449 152.942C121.2 151.779 121.759 150.908 122.126 150.325C122.166 150.267 122.207 150.209 122.247 150.151L122.239 150.145C122.343 149.978 122.428 149.842 122.493 149.734L122.515 149.71L122.51 149.705C122.512 149.702 122.514 149.698 122.517 149.695M122.652 149.447C122.652 149.45 122.65 149.455 122.647 149.463L122.697 149.535C122.631 149.581 122.573 149.637 122.524 149.7L122.517 149.695M122.517 149.695C122.549 149.641 122.575 149.596 122.596 149.56C122.608 149.562 122.62 149.562 122.633 149.56L122.625 149.507" fill="#FBF8F3" stroke="#FBF8F3" stroke-width="0.3"/>
<path d="M131.796 149.504L131.796 149.504L131.794 149.506L131.669 149.642L131.669 149.642L131.667 149.644C130.109 151.376 128.737 152.766 127.551 153.814C126.363 154.864 125.369 155.565 124.567 155.928C124.484 155.965 124.362 156.035 124.362 156.181C124.362 156.181 124.362 156.182 124.362 156.183C124.362 156.192 124.362 156.212 124.365 156.232C124.369 156.257 124.38 156.298 124.416 156.334C124.45 156.368 124.489 156.38 124.515 156.385C124.54 156.39 124.566 156.391 124.588 156.391C124.679 156.391 124.788 156.351 124.899 156.298C125.017 156.242 125.159 156.161 125.326 156.055C125.659 155.843 126.1 155.527 126.65 155.108L126.65 155.108L126.651 155.107C127.71 154.281 128.717 153.391 129.665 152.442C129.371 152.809 129.07 153.171 128.763 153.528L128.763 153.528L128.761 153.53C126.52 156.238 125.161 158.257 124.712 159.577L124.63 159.818L124.881 159.773C125.22 159.712 125.563 159.672 125.907 159.655C126.096 159.659 126.284 159.684 126.467 159.731L126.612 159.767L126.649 159.622C126.879 158.724 127.213 157.856 127.642 157.035L127.642 157.034C128.085 156.183 128.894 154.847 130.074 153.024L130.074 153.024C130.808 151.887 131.359 151.028 131.727 150.445C131.911 150.154 132.049 149.931 132.142 149.776C132.188 149.699 132.223 149.638 132.248 149.594C132.26 149.571 132.27 149.551 132.278 149.535C132.282 149.526 132.286 149.517 132.29 149.506L132.29 149.506C132.292 149.501 132.297 149.486 132.3 149.466C132.303 149.44 132.301 149.414 132.293 149.388C132.284 149.361 132.269 149.335 132.248 149.314C132.228 149.294 132.202 149.278 132.174 149.27C132.147 149.261 132.117 149.259 132.088 149.265L131.965 149.288V149.342C131.963 149.344 131.96 149.346 131.958 149.349C131.918 149.384 131.862 149.436 131.796 149.504Z" fill="#FBF8F3" stroke="#FBF8F3" stroke-width="0.3"/>
<path d="M143.339 144.947H143.257L143.213 145.017L132.788 161.456L132.642 161.686H132.915H133.222H133.304L133.348 161.616L143.773 145.178L143.919 144.947H143.646H143.339Z" fill="#FBF8F3" stroke="#FBF8F3" stroke-width="0.3"/>
<path d="M144.561 154.857C144.706 154.993 144.877 155.1 145.064 155.169C145.245 155.237 145.437 155.268 145.63 155.262L144.561 154.857ZM144.561 154.857C144.492 154.787 144.431 154.711 144.379 154.629L144.561 154.857ZM146.583 156.441L146.584 156.441C148.239 155.77 149.355 155.287 149.926 154.992L149.926 154.992L149.928 154.99C150.537 154.661 151.098 154.252 151.597 153.772C151.955 153.462 152.243 153.079 152.442 152.649C152.641 152.218 152.747 151.75 152.752 151.276C152.762 150.954 152.698 150.634 152.565 150.341C152.431 150.047 152.233 149.788 151.984 149.583L151.984 149.583L151.982 149.582C151.432 149.141 150.74 148.915 150.036 148.946L150.035 148.946C148.694 149.011 147.401 149.468 146.316 150.26C144.704 151.325 143.855 152.496 143.853 153.779C143.843 154.016 143.881 154.252 143.966 154.474C144.051 154.697 144.182 154.899 144.349 155.069L144.349 155.069L144.353 155.073C144.528 155.238 144.734 155.366 144.959 155.45C145.184 155.534 145.424 155.572 145.664 155.561L145.664 155.561L145.666 155.561C146.296 155.527 146.906 155.329 147.436 154.986C148.088 154.608 148.669 154.117 149.152 153.537C149.433 153.204 149.648 152.916 149.793 152.671C149.935 152.432 150.022 152.215 150.022 152.032C150.022 152.032 150.022 152.031 150.022 152.031C150.022 152.023 150.022 152.006 150.019 151.988C150.016 151.967 150.008 151.931 149.981 151.898C149.926 151.829 149.843 151.827 149.811 151.827C149.785 151.827 149.752 151.83 149.718 151.844C149.681 151.86 149.652 151.884 149.632 151.912C149.614 151.938 149.604 151.964 149.598 151.98C149.593 151.992 149.589 152.007 149.585 152.019C149.585 152.02 149.585 152.02 149.585 152.02C149.211 152.872 148.622 153.613 147.876 154.17L147.87 154.174L147.865 154.179C147.247 154.741 146.46 155.081 145.627 155.146C145.207 155.145 144.92 155.056 144.74 154.906C144.564 154.759 144.465 154.533 144.465 154.2C144.465 153.261 145.093 152.213 146.425 151.054C147.754 149.898 148.952 149.341 150.023 149.341V149.341L150.03 149.341C150.43 149.32 150.824 149.435 151.15 149.668C151.277 149.768 151.378 149.896 151.447 150.042C151.515 150.189 151.548 150.35 151.542 150.511C151.477 151.598 150.999 152.619 150.206 153.366L150.206 153.366L150.202 153.37C149.122 154.47 147.843 155.353 146.432 155.973L146.432 155.973L146.429 155.975C145.131 156.583 144.235 157.039 143.735 157.34L143.735 157.34L143.731 157.342C143.226 157.669 142.762 158.055 142.347 158.49C142.091 158.746 141.888 158.991 141.749 159.215C141.612 159.434 141.526 159.649 141.525 159.842C141.524 159.872 141.528 159.903 141.539 159.932C141.551 159.963 141.57 159.991 141.594 160.013C141.619 160.036 141.648 160.053 141.679 160.063C141.707 160.072 141.737 160.075 141.766 160.072C141.86 160.068 141.931 160.015 141.974 159.944C142.013 159.88 142.032 159.799 142.04 159.719C142.071 159.483 142.165 159.324 142.311 159.219C142.46 159.111 142.683 159.048 142.998 159.046C143.67 159.132 144.331 159.287 144.97 159.511L144.97 159.511C145.633 159.738 146.323 159.875 147.022 159.916L147.022 159.916L147.032 159.916C147.661 159.909 148.279 159.745 148.828 159.437C149.374 159.131 149.835 158.694 150.169 158.166C150.541 157.728 150.779 157.193 150.855 156.623L150.859 156.593L150.851 156.564C150.842 156.53 150.824 156.5 150.8 156.475C150.775 156.45 150.744 156.433 150.711 156.423L150.691 156.418H150.671C150.608 156.418 150.544 156.44 150.495 156.491C150.451 156.537 150.428 156.595 150.415 156.647L150.415 156.647L150.414 156.651C150.275 157.268 149.958 157.832 149.501 158.27L149.501 158.27L149.497 158.275C149.13 158.657 148.628 158.88 148.099 158.897C147.518 158.862 146.945 158.745 146.397 158.549L146.396 158.548C145.692 158.303 144.956 158.16 144.212 158.123L144.212 158.123L144.206 158.123C143.848 158.12 143.496 158.177 143.163 158.29C143.964 157.651 145.1 157.033 146.583 156.441Z" fill="#FBF8F3" stroke="#FBF8F3" stroke-width="0.3"/>
<path d="M160.871 149.691C161.086 149.917 161.207 150.269 161.207 150.778C161.18 151.709 160.981 152.628 160.62 153.487L160.759 153.545L160.619 153.491C160.208 154.538 159.665 155.529 159.003 156.439L159.003 156.44C157.58 158.413 156.19 159.354 154.84 159.354C154.287 159.354 153.9 159.209 153.65 158.945C153.399 158.68 153.261 158.268 153.26 157.683C153.332 156.414 153.724 155.185 154.399 154.108L154.399 154.108L154.403 154.101C155.098 152.855 155.993 151.732 157.052 150.776C158.14 149.801 159.07 149.341 159.849 149.341C160.326 149.341 160.658 149.466 160.871 149.691ZM155.312 151.258C153.167 153.066 152.06 154.871 152.055 156.675C152.022 157.492 152.301 158.291 152.836 158.909L152.837 158.91C153.089 159.196 153.402 159.424 153.752 159.576C154.102 159.728 154.481 159.801 154.862 159.79C156.463 159.789 158.177 158.729 160.001 156.683L160.001 156.682C161.491 154.993 162.257 153.381 162.261 151.849C162.29 151.085 162.052 150.335 161.587 149.728L161.468 149.819L161.586 149.726C161.376 149.461 161.108 149.249 160.802 149.106C160.497 148.964 160.163 148.895 159.826 148.905C159.242 148.905 158.574 149.11 157.827 149.502C157.077 149.895 156.239 150.481 155.312 151.258L155.312 151.258Z" fill="#FBF8F3" stroke="#FBF8F3" stroke-width="0.3"/>
<path d="M169.38 156.661L169.383 156.651C169.399 156.609 169.422 156.555 169.464 156.51C169.51 156.461 169.566 156.437 169.623 156.423L169.657 156.414L169.691 156.421C169.725 156.429 169.757 156.445 169.783 156.468C169.809 156.49 169.829 156.519 169.841 156.552L169.853 156.587L169.848 156.623C169.772 157.194 169.532 157.73 169.157 158.166C168.823 158.695 168.362 159.131 167.816 159.437C167.267 159.744 166.65 159.909 166.02 159.916L166.01 159.916L166.01 159.916C165.311 159.875 164.621 159.738 163.959 159.511L163.958 159.511C163.319 159.287 162.658 159.132 161.987 159.046C161.675 159.048 161.452 159.111 161.303 159.219C161.157 159.323 161.062 159.483 161.029 159.717C161.023 159.797 161.006 159.879 160.966 159.944C160.921 160.018 160.848 160.068 160.755 160.072C160.725 160.075 160.696 160.072 160.667 160.063C160.635 160.052 160.605 160.034 160.58 160.01C160.556 159.986 160.538 159.956 160.528 159.923C160.517 159.89 160.515 159.856 160.52 159.821L160.521 159.816L160.522 159.816C160.633 159.29 160.922 158.819 161.341 158.484C161.754 158.051 162.217 157.668 162.719 157.342L162.723 157.34L162.723 157.34C163.223 157.037 164.123 156.581 165.417 155.975L165.42 155.973L165.42 155.973C166.831 155.353 168.11 154.469 169.19 153.37L169.195 153.366L169.195 153.366C169.989 152.621 170.468 151.599 170.53 150.512C170.536 150.35 170.503 150.19 170.436 150.043C170.368 149.897 170.268 149.768 170.142 149.668C169.815 149.435 169.419 149.32 169.019 149.341L169.011 149.341V149.341C167.923 149.341 166.725 149.898 165.414 151.053C164.099 152.212 163.478 153.26 163.478 154.2C163.478 154.533 163.577 154.759 163.753 154.906C163.933 155.056 164.218 155.145 164.635 155.146C165.468 155.082 166.256 154.742 166.873 154.179L166.879 154.174L166.885 154.17C167.633 153.615 168.222 152.873 168.594 152.02C168.607 151.978 168.629 151.933 168.664 151.896C168.704 151.854 168.757 151.829 168.817 151.827C168.844 151.825 168.871 151.829 168.897 151.838C168.925 151.848 168.951 151.864 168.972 151.885C168.993 151.906 169.009 151.932 169.019 151.96C169.028 151.985 169.032 152.012 169.03 152.038C169.028 152.22 168.942 152.434 168.801 152.671C168.656 152.916 168.442 153.204 168.16 153.537C167.677 154.118 167.094 154.609 166.439 154.986C165.908 155.327 165.299 155.525 164.67 155.561L164.668 155.561L164.668 155.561C164.427 155.572 164.188 155.534 163.962 155.45C163.737 155.366 163.531 155.238 163.356 155.073L163.352 155.069L163.352 155.069C163.185 154.899 163.055 154.697 162.969 154.474C162.884 154.252 162.846 154.016 162.857 153.779C162.858 152.496 163.707 151.325 165.32 150.26C166.403 149.468 167.694 149.011 169.034 148.946L169.034 148.946C169.74 148.915 170.433 149.141 170.985 149.582L170.987 149.583L170.987 149.583C171.235 149.789 171.433 150.048 171.566 150.342C171.699 150.635 171.764 150.954 171.756 151.276C171.756 151.276 171.756 151.277 171.756 151.277L171.606 151.273C171.6 151.726 171.498 152.174 171.307 152.585C171.117 152.997 170.841 153.364 170.499 153.661L169.38 156.661ZM169.38 156.661L169.378 156.67C169.237 157.288 168.919 157.851 168.464 158.291L168.464 158.291L168.46 158.294C168.087 158.682 167.575 158.906 167.038 158.917C166.458 158.881 165.887 158.764 165.34 158.569L165.339 158.569C164.633 158.324 163.896 158.18 163.15 158.143L163.15 158.143L163.142 158.143C162.804 158.143 162.471 158.199 162.156 158.304C162.96 157.659 164.101 157.037 165.587 156.441L165.587 156.441C167.243 155.77 168.359 155.287 168.929 154.991L168.929 154.992L168.932 154.99C169.539 154.659 170.1 154.249 170.6 153.772L169.38 156.661ZM164.067 155.169C163.88 155.1 163.709 154.993 163.564 154.857L164.638 155.262C164.444 155.269 164.25 155.237 164.067 155.169Z" fill="#FBF8F3" stroke="#FBF8F3" stroke-width="0.3"/>
<path d="M173.063 154.857C173.208 154.993 173.379 155.1 173.566 155.169C173.746 155.236 173.936 155.268 174.128 155.263L173.063 154.857ZM173.063 154.857C172.995 154.787 172.934 154.711 172.881 154.629L173.063 154.857ZM175.086 156.441L175.086 156.441C176.742 155.77 177.858 155.287 178.428 154.991L178.428 154.992L178.431 154.99C179.039 154.66 179.6 154.251 180.1 153.772C180.457 153.462 180.745 153.079 180.944 152.649C181.144 152.218 181.25 151.75 181.255 151.276C181.264 150.954 181.2 150.634 181.067 150.341C180.934 150.047 180.735 149.788 180.486 149.583L180.486 149.583L180.484 149.582C179.932 149.141 179.239 148.915 178.534 148.946L178.533 148.946C177.193 149.012 175.902 149.469 174.819 150.26C173.206 151.325 172.357 152.496 172.356 153.779C172.345 154.016 172.384 154.252 172.468 154.474C172.554 154.697 172.684 154.899 172.851 155.069L172.851 155.069L172.855 155.073C173.03 155.238 173.236 155.366 173.461 155.45C173.687 155.534 173.927 155.572 174.167 155.561L174.167 155.561L174.169 155.561C174.798 155.526 175.408 155.328 175.938 154.986C176.59 154.606 177.171 154.116 177.655 153.536C177.933 153.204 178.148 152.916 178.293 152.671C178.436 152.432 178.524 152.215 178.524 152.032C178.524 152.032 178.524 152.031 178.524 152.031C178.524 152.023 178.524 152.006 178.522 151.988C178.519 151.967 178.511 151.931 178.484 151.898C178.429 151.829 178.346 151.827 178.314 151.827C178.288 151.827 178.254 151.83 178.22 151.844C178.183 151.859 178.155 151.884 178.134 151.912C178.116 151.938 178.106 151.963 178.1 151.98C178.096 151.992 178.091 152.007 178.088 152.019C178.088 152.02 178.088 152.02 178.087 152.02C177.713 152.872 177.125 153.613 176.379 154.17L176.373 154.174L176.368 154.179C175.748 154.741 174.959 155.082 174.124 155.146C173.707 155.145 173.422 155.056 173.242 154.906C173.066 154.759 172.968 154.533 172.968 154.2C172.968 153.261 173.596 152.213 174.927 151.054C176.256 149.898 177.454 149.341 178.525 149.341V149.341L178.533 149.341C178.932 149.321 179.327 149.436 179.652 149.668C179.779 149.768 179.881 149.896 179.949 150.042C180.018 150.189 180.05 150.35 180.045 150.511C179.979 151.598 179.502 152.619 178.709 153.366L178.709 153.366L178.705 153.37C177.622 154.468 176.341 155.352 174.929 155.973L174.929 155.973L174.926 155.975C173.634 156.583 172.732 157.039 172.237 157.34L172.237 157.34L172.234 157.342C171.727 157.666 171.262 158.052 170.849 158.49C170.593 158.746 170.391 158.991 170.251 159.215C170.113 159.436 170.027 159.652 170.027 159.847C170.027 159.895 170.04 159.961 170.094 160.012C170.146 160.062 170.211 160.072 170.258 160.072C170.355 160.072 170.425 160.009 170.465 159.95C170.507 159.888 170.533 159.809 170.543 159.719C170.574 159.483 170.667 159.324 170.813 159.219C170.963 159.111 171.186 159.048 171.501 159.046C172.172 159.132 172.833 159.287 173.472 159.511L173.473 159.511C174.135 159.738 174.825 159.875 175.524 159.916L175.524 159.916L175.535 159.916C176.164 159.909 176.781 159.744 177.33 159.437C177.876 159.131 178.337 158.694 178.671 158.166C179.043 157.728 179.281 157.193 179.358 156.623L179.362 156.591L179.353 156.56C179.342 156.524 179.321 156.492 179.293 156.467C179.264 156.442 179.23 156.426 179.192 156.42L179.181 156.418H179.169C179.104 156.418 179.042 156.443 178.995 156.493C178.953 156.538 178.931 156.595 178.918 156.647L178.918 156.647L178.917 156.651C178.778 157.268 178.46 157.832 178.004 158.27L178.004 158.27L178 158.274C177.632 158.656 177.13 158.879 176.601 158.897C176.02 158.862 175.448 158.744 174.9 158.549L174.898 158.548C174.192 158.304 173.455 158.16 172.709 158.123L172.709 158.123L172.702 158.123C172.353 158.123 172.01 158.182 171.686 158.294C172.469 157.656 173.599 157.038 175.086 156.441Z" fill="#FBF8F3" stroke="#FBF8F3" stroke-width="0.3"/>
<path d="M127.293 80.178L127.293 80.178C126.824 80.1789 126.366 80.0408 125.975 79.7811C125.585 79.5213 125.281 79.1517 125.101 78.7189C124.921 78.2861 124.873 77.8096 124.964 77.3497C125.055 76.8898 125.28 76.4672 125.611 76.1354C125.942 75.8036 126.364 75.5775 126.824 75.4857C127.284 75.3939 127.76 75.4405 128.193 75.6197C128.627 75.7989 128.997 76.1025 129.257 76.4922C129.518 76.8819 129.657 77.3402 129.657 77.8089L129.757 77.8089L129.657 77.8091C129.658 78.12 129.597 78.4279 129.478 78.7153C129.36 79.0027 129.186 79.2638 128.966 79.4839C128.747 79.7039 128.486 79.8785 128.199 79.9976C127.912 80.1167 127.604 80.178 127.293 80.178Z" fill="#FBF8F3" stroke="#FBF8F3" stroke-width="0.2"/>
<path d="M113.206 55.7811L113.153 55.7462C109.401 53.2916 104.761 52.0597 99.228 52.0564L99.2276 52.0564C92.0449 52.0252 85.048 54.3381 79.299 58.6441L79.298 58.6448L79.298 58.6448C73.2784 63.0391 70.2875 67.8854 70.2875 73.1824C70.2875 75.8029 71.0682 77.8825 72.6216 79.4326C74.1752 80.9829 76.2467 81.7635 78.847 81.7669C82.8369 81.7668 86.8889 79.9151 91.0044 76.1908C95.1212 72.4653 97.1635 68.7923 97.1668 65.1716C97.1668 63.6907 96.7663 62.5951 95.9818 61.8657C95.1959 61.1349 94.0076 60.7559 92.3988 60.7459C89.0359 60.746 85.7478 62.1278 82.5329 64.9054C79.3163 67.6844 77.7266 70.5255 77.7299 73.4287L77.7299 73.432L77.7299 73.432C77.6956 74.4917 78.0181 75.5323 78.6458 76.3868L78.648 76.3897L78.648 76.3898C78.8943 76.7524 79.2253 77.0497 79.6122 77.2558C79.999 77.4619 80.4302 77.5707 80.8685 77.573C81.0429 77.573 81.1613 77.5541 81.2326 77.5242C81.2673 77.5096 81.2853 77.4947 81.2944 77.4833C81.3022 77.4735 81.3064 77.4627 81.3064 77.4467C81.3064 77.4152 81.2933 77.3829 81.2364 77.3527C81.1742 77.3197 81.0673 77.2952 80.9036 77.2952H80.9033C80.5855 77.2943 80.2718 77.2246 79.9835 77.0909C79.6961 76.9576 79.4409 76.764 79.2352 76.5231C78.7683 76.0343 78.5133 75.381 78.5256 74.7051C78.5259 71.9166 80.1577 68.9474 83.3833 65.7991C86.6096 62.6501 89.6507 61.0605 92.5048 61.0639M113.206 55.7811L92.5047 61.1639M113.206 55.7811L113.261 55.7474C116.702 53.6058 120.023 52.5391 123.225 52.5391C125.731 52.5425 127.738 53.288 129.255 54.7686C130.775 56.2589 131.546 58.223 131.563 60.6708C131.551 61.7487 131.42 62.8221 131.173 63.8715L131.173 63.8734C131.048 64.457 130.921 64.8882 130.798 65.1715C130.736 65.3135 130.678 65.4128 130.625 65.475C130.57 65.5386 130.534 65.5494 130.516 65.5494H130.509L130.501 65.5506C130.478 65.5542 130.455 65.5523 130.433 65.5452C130.411 65.5381 130.391 65.5258 130.375 65.5095C130.358 65.4932 130.346 65.4733 130.339 65.4513C130.332 65.4294 130.33 65.4061 130.334 65.3833L130.334 65.3834L130.335 65.3728C130.338 65.2957 130.355 65.2198 130.383 65.148L130.384 65.1462C130.895 63.769 131.151 62.3102 131.139 60.8412C131.139 58.4468 130.425 56.5127 128.989 55.0494C127.552 53.5858 125.658 52.8571 123.315 52.8571L113.206 55.7811ZM92.5048 61.0639L92.5047 61.1639M92.5048 61.0639C92.5048 61.0639 92.5047 61.0639 92.5047 61.0639V61.1639M92.5048 61.0639C93.9242 61.0639 95.0072 61.409 95.7349 62.1168C96.4632 62.8251 96.8187 63.88 96.8187 65.2622C96.8187 68.7398 94.7714 72.3032 90.716 75.9521C86.6592 79.6022 82.7173 81.4389 78.8921 81.4389C76.5506 81.4389 74.6804 80.81 73.2931 79.542L73.2922 79.5412C72.5978 78.8906 72.0529 78.0972 71.695 77.2156C71.3374 76.3348 71.1749 75.3869 71.2189 74.4372M92.5047 61.1639C95.3141 61.1639 96.7187 62.53 96.7187 65.2622C96.7187 68.6985 94.6955 72.237 90.6491 75.8777C86.6027 79.5185 82.6837 81.3389 78.8921 81.3389C76.5689 81.3389 74.725 80.7153 73.3606 79.4682C72.6768 78.8276 72.1401 78.0462 71.7876 77.178C71.4352 76.3098 71.2752 75.3755 71.3189 74.4395C71.3189 70.2691 73.7344 65.8254 78.5652 61.1085M71.2189 74.4372C71.2189 74.438 71.2189 74.4387 71.2189 74.4395H71.3189L71.219 74.4349C71.219 74.4356 71.219 74.4364 71.2189 74.4372ZM71.2189 74.4372C71.2198 70.2279 73.6576 65.7606 78.4954 61.037M78.4954 61.037C78.4954 61.037 78.4953 61.037 78.4953 61.037L78.5652 61.1085M78.4954 61.037C84.3969 55.2666 91.3462 52.3793 99.3387 52.3793C105.051 52.3793 109.397 53.6358 112.362 56.1647L112.462 56.2492L112.354 56.3231C110.554 57.5636 108.362 59.6235 105.779 62.5078L105.779 62.5082C103.333 65.2162 101.084 68.096 99.05 71.1255L78.5652 61.1085M78.4954 61.037L78.5652 61.1085" fill="#FBF8F3" stroke="#FBF8F3" stroke-width="0.2"/>
<path d="M177.939 51.7248L177.939 51.7246C174.822 51.6545 171.731 52.2999 168.902 53.6112L168.87 53.6261L168.836 53.6175C163.066 52.1768 158.445 51.4582 154.971 51.4582C148.743 51.4582 143.923 53.1126 140.497 56.4086L140.497 56.4087C137.606 59.1832 136.168 62.2243 136.168 65.534V65.5367L136.168 65.5367C136.113 67.5713 136.761 69.5627 138.003 71.1752C139.219 72.7286 140.69 73.4999 142.404 73.4999H142.407L142.407 73.5C143.29 73.525 144.155 73.2464 144.858 72.7108L144.86 72.7091L144.86 72.7092C145.159 72.4941 145.402 72.2109 145.57 71.8832C145.737 71.5554 145.825 71.1924 145.824 70.8242V70.8241C145.824 70.2571 145.678 69.85 145.402 69.5835C145.126 69.3165 144.703 69.1741 144.114 69.1741H144.111L144.111 69.1741C143.552 69.1597 143.006 69.3517 142.579 69.7136L142.576 69.7163L142.576 69.7162C142.382 69.8679 142.224 70.062 142.116 70.2836C142.008 70.5052 141.951 70.7485 141.951 70.9952C141.951 71.4401 142.072 71.7561 142.296 71.9624C142.521 72.1692 142.867 72.2818 143.352 72.283C143.531 72.2559 143.681 72.2533 143.793 72.2882C143.851 72.3066 143.904 72.337 143.942 72.3851C143.981 72.4342 143.998 72.4928 143.998 72.554C143.998 72.7841 143.813 72.9264 143.551 73.0089C143.284 73.0928 142.894 73.1317 142.389 73.1317H142.388C141.646 73.1271 140.916 72.9497 140.254 72.6136C139.593 72.2779 139.02 71.793 138.579 71.1973C137.517 69.8959 136.957 68.2575 136.999 66.5787C136.999 62.577 138.988 59.1737 142.94 56.3706C146.892 53.5676 151.673 52.1667 157.279 52.1633H157.279C160.136 52.1633 163.757 52.6932 168.139 53.7501L168.39 53.8107L168.164 53.935C165.123 55.602 163.63 57.6397 163.63 60.0427C163.63 60.9855 163.886 61.7967 164.395 62.4809C164.906 63.1662 165.675 63.7304 166.712 64.1696L167.064 64.319L166.683 64.3611C164.039 64.6542 161.43 65.2155 158.899 66.0364C155.14 67.2593 152.138 69.0584 149.889 71.431C147.64 73.8034 146.522 76.331 146.522 79.0156L177.939 51.7248ZM177.939 51.7248L177.945 51.7246C180.164 51.6622 182.376 52.0009 184.475 52.7244C185.374 53.0673 186.041 53.443 186.483 53.8482C186.924 54.252 187.138 54.6807 187.145 55.1355C187.145 55.4361 187.076 55.6942 186.942 55.9133C186.807 56.1329 186.604 56.319 186.326 56.4699C185.768 56.7736 184.918 56.9305 183.765 56.9305C182.852 56.9305 181.309 56.7203 179.13 56.2962C176.953 55.8726 174.148 55.2369 170.714 54.3889L170.676 54.3793L170.641 54.3991C167.416 56.2373 165.783 58.5669 165.783 61.3903L165.783 61.3906C165.786 62.7561 166.258 63.7199 167.218 64.2487L167.244 64.2633L167.274 64.2608C168.601 64.1502 169.603 64.0952 170.283 64.0952C171.262 64.0952 171.988 64.1531 172.466 64.2672C172.706 64.3244 172.875 64.3938 172.983 64.471C173.087 64.5461 173.125 64.622 173.125 64.6992C173.125 64.7412 173.108 64.781 173.061 64.8217C173.012 64.8649 172.929 64.9068 172.806 64.9426C172.56 65.014 172.182 65.0518 171.667 65.0518C170.221 65.036 168.782 64.848 167.381 64.4917L167.36 64.4864L167.339 64.4901C164.788 64.9384 162.316 65.7616 160.006 66.9327C152.926 70.3299 149.354 74.7334 149.354 80.1522L177.939 51.7248ZM161.155 73.533V73.521L160.99 73.6653C157.106 77.048 155.147 80.5212 155.147 84.0847L155.147 84.0869C155.172 85.2081 155.501 86.3016 156.098 87.2507L156.121 87.2871L156.163 87.2955C157.163 87.496 158.179 87.601 159.199 87.6092H159.2C163.69 87.6092 168.068 86.0582 172.333 82.9638C176.593 79.8729 178.75 76.6925 178.751 73.4197C178.751 73.42 178.751 73.4202 178.751 73.4205L161.155 73.533ZM161.155 73.533C164.988 70.2642 168.92 68.6227 172.951 68.6221C174.448 68.5655 175.917 69.0436 177.093 69.9709L161.155 73.533ZM183.971 56.6327H184.071V56.6221C184.914 56.6133 185.569 56.4922 186.02 56.2505C186.255 56.1242 186.437 55.9636 186.558 55.7667C186.679 55.5698 186.736 55.3424 186.731 55.0884C186.731 54.682 186.514 54.3097 186.111 53.973C185.708 53.6367 185.111 53.3277 184.327 53.0442L184.326 53.0438C182.592 52.4456 180.766 52.1561 178.932 52.1884C176.278 52.1558 173.656 52.7817 171.303 54.0101L171.092 54.1203L171.318 54.1939C176.322 55.8182 180.54 56.6327 183.971 56.6327Z" fill="#FBF8F3" stroke="#FBF8F3" stroke-width="0.2"/>
</g>
<defs>
<filter id="filter0_d_141_434" x="0.145592" y="0.602295" width="259.12" height="208.189" filterUnits="userSpaceOnUse" color-interpolation-filters="sRGB">
<feFlood flood-opacity="0" result="BackgroundImageFix"/>
<feColorMatrix in="SourceAlpha" type="matrix" values="0 0 0 0 0 0 0 0 0 0 0 0 0 0 0 0 0 0 127 0" result="hardAlpha"/>
<feOffset dy="4"/>
<feGaussianBlur stdDeviation="5"/>
<feComposite in2="hardAlpha" operator="out"/>
<feColorMatrix type="matrix" values="0 0 0 0 0.275 0 0 0 0 0.245536 0 0 0 0 0.223438 0 0 0 0.6 0"/>
<feBlend mode="normal" in2="BackgroundImageFix" result="effect1_dropShadow_141_434"/>
<feBlend mode="normal" in="SourceGraphic" in2="effect1_dropShadow_141_434" result="shape"/>
</filter>
</defs>
</svg>
