<svg width="227" height="19" viewBox="0 0 227 19" fill="none" xmlns="http://www.w3.org/2000/svg">
<path d="M13.4954 0.889931C13.8474 0.889931 14.1274 1.00993 14.3354 1.24993C14.5594 1.47393 14.6714 1.76993 14.6714 2.13793V16.8019C14.6714 17.1699 14.5594 17.4739 14.3354 17.7139C14.1114 17.9379 13.8234 18.0499 13.4714 18.0499C13.0554 18.0499 12.7354 17.8899 12.5114 17.5699L3.10336 5.16193V16.8019C3.10336 17.1699 2.99136 17.4739 2.76736 17.7139C2.55936 17.9379 2.27936 18.0499 1.92736 18.0499C1.57536 18.0499 1.29536 17.9379 1.08736 17.7139C0.879358 17.4899 0.775358 17.1859 0.775358 16.8019V2.13793C0.775358 1.76993 0.887358 1.47393 1.11136 1.24993C1.33536 1.00993 1.62336 0.889931 1.97536 0.889931C2.39136 0.889931 2.71136 1.04993 2.93536 1.36993L12.3434 13.8019V2.13793C12.3434 1.76993 12.4474 1.47393 12.6554 1.24993C12.8634 1.00993 13.1434 0.889931 13.4954 0.889931ZM28.9793 18.1219C26.7233 18.1219 25.0113 17.5379 23.8433 16.3699C22.6753 15.2019 22.0913 13.4819 22.0913 11.2099V2.13793C22.0913 1.75393 22.2033 1.44993 22.4273 1.22593C22.6513 1.00193 22.9473 0.889931 23.3153 0.889931C23.6833 0.889931 23.9793 1.00193 24.2033 1.22593C24.4273 1.44993 24.5393 1.75393 24.5393 2.13793V11.3779C24.5393 12.9299 24.9073 14.1059 25.6433 14.9059C26.3953 15.7059 27.5073 16.1059 28.9793 16.1059C30.4353 16.1059 31.5393 15.7059 32.2913 14.9059C33.0433 14.1059 33.4193 12.9299 33.4193 11.3779V2.13793C33.4193 1.76993 33.5313 1.47393 33.7553 1.24993C33.9793 1.00993 34.2753 0.889931 34.6433 0.889931C35.0113 0.889931 35.3073 1.00193 35.5313 1.22593C35.7553 1.44993 35.8673 1.75393 35.8673 2.13793V11.2099C35.8673 13.4659 35.2753 15.1859 34.0913 16.3699C32.9233 17.5379 31.2193 18.1219 28.9793 18.1219ZM44.4962 17.9299C44.1122 17.9299 43.8082 17.8259 43.5842 17.6179C43.3762 17.3939 43.2722 17.0979 43.2722 16.7299V2.20993C43.2722 1.84193 43.3762 1.55393 43.5842 1.34593C43.8082 1.12193 44.1122 1.00993 44.4962 1.00993H53.3282C53.6962 1.00993 53.9762 1.09793 54.1682 1.27393C54.3762 1.44993 54.4802 1.69793 54.4802 2.01793C54.4802 2.33793 54.3762 2.58593 54.1682 2.76193C53.9762 2.92193 53.6962 3.00193 53.3282 3.00193H45.6962V8.32993H52.8482C53.2162 8.32993 53.4962 8.41793 53.6882 8.59393C53.8962 8.76993 54.0002 9.01793 54.0002 9.33793C54.0002 9.65793 53.8962 9.90593 53.6882 10.0819C53.4962 10.2579 53.2162 10.3459 52.8482 10.3459H45.6962V15.9379H53.3282C54.0962 15.9379 54.4802 16.2659 54.4802 16.9219C54.4802 17.2419 54.3762 17.4899 54.1682 17.6659C53.9762 17.8419 53.6962 17.9299 53.3282 17.9299H44.4962ZM66.2689 18.1219C65.0529 18.1219 63.8929 17.9539 62.7889 17.6179C61.7009 17.2819 60.8289 16.8179 60.1729 16.2259C59.8689 15.9699 59.7169 15.6419 59.7169 15.2419C59.7169 14.9539 59.7969 14.7139 59.9569 14.5219C60.1169 14.3139 60.3089 14.2099 60.5329 14.2099C60.7569 14.2099 61.0289 14.3139 61.3489 14.5219C62.7729 15.5779 64.3969 16.1059 66.2209 16.1059C67.5009 16.1059 68.4849 15.8659 69.1729 15.3859C69.8609 14.9059 70.2049 14.2179 70.2049 13.3219C70.2049 12.6179 69.8849 12.0899 69.2449 11.7379C68.6049 11.3859 67.5809 11.0499 66.1729 10.7299C64.8289 10.4419 63.7249 10.1139 62.8609 9.74593C61.9969 9.37793 61.3169 8.88193 60.8209 8.25793C60.3409 7.61793 60.1009 6.80993 60.1009 5.83393C60.1009 4.85793 60.3649 3.99393 60.8929 3.24193C61.4369 2.47393 62.1889 1.88193 63.1489 1.46593C64.1089 1.03393 65.2049 0.81793 66.4369 0.81793C67.5729 0.81793 68.6209 0.977931 69.5809 1.29793C70.5409 1.61793 71.3569 2.08993 72.0289 2.71393C72.3489 2.98593 72.5089 3.31393 72.5089 3.69793C72.5089 3.96993 72.4209 4.20993 72.2449 4.41793C72.0849 4.62593 71.8929 4.72993 71.6689 4.72993C71.4609 4.72993 71.1969 4.62593 70.8769 4.41793C70.1409 3.85793 69.4449 3.45793 68.7889 3.21793C68.1489 2.96193 67.3729 2.83393 66.4609 2.83393C65.2289 2.83393 64.2689 3.08993 63.5809 3.60193C62.8929 4.09793 62.5489 4.79393 62.5489 5.68993C62.5489 6.45793 62.8529 7.04193 63.4609 7.44193C64.0689 7.82593 65.0449 8.17793 66.3889 8.49793C67.7969 8.81793 68.9329 9.15393 69.7969 9.50593C70.6769 9.84193 71.3729 10.3139 71.8849 10.9219C72.4129 11.5139 72.6769 12.2819 72.6769 13.2259C72.6769 14.1859 72.4049 15.0419 71.8609 15.7939C71.3329 16.5299 70.5809 17.1059 69.6049 17.5219C68.6449 17.9219 67.5329 18.1219 66.2689 18.1219ZM84.2522 18.0499C83.8842 18.0499 83.5802 17.9379 83.3402 17.7139C83.1162 17.4739 83.0042 17.1699 83.0042 16.8019V3.07393H78.2042C77.4362 3.07393 77.0522 2.72993 77.0522 2.04193C77.0522 1.70593 77.1482 1.44993 77.3402 1.27393C77.5482 1.09793 77.8362 1.00993 78.2042 1.00993H90.3002C90.6682 1.00993 90.9482 1.09793 91.1402 1.27393C91.3482 1.44993 91.4522 1.70593 91.4522 2.04193C91.4522 2.72993 91.0682 3.07393 90.3002 3.07393H85.5002V16.8019C85.5002 17.1699 85.3882 17.4739 85.1642 17.7139C84.9402 17.9379 84.6362 18.0499 84.2522 18.0499ZM110.303 16.3939C110.447 16.6019 110.519 16.8259 110.519 17.0659C110.519 17.3539 110.399 17.6019 110.159 17.8099C109.935 18.0019 109.671 18.0979 109.367 18.0979C108.919 18.0979 108.559 17.8979 108.287 17.4979L105.071 12.5059C104.703 11.9299 104.311 11.5299 103.895 11.3059C103.479 11.0659 102.935 10.9459 102.263 10.9459H99.5515V16.8019C99.5515 17.1859 99.4395 17.4899 99.2155 17.7139C99.0075 17.9379 98.7115 18.0499 98.3275 18.0499C97.9595 18.0499 97.6635 17.9379 97.4395 17.7139C97.2155 17.4899 97.1035 17.1859 97.1035 16.8019V2.20993C97.1035 1.84193 97.2075 1.55393 97.4155 1.34593C97.6395 1.12193 97.9435 1.00993 98.3275 1.00993H104.303C106.175 1.00993 107.599 1.42593 108.575 2.25793C109.567 3.08993 110.063 4.30593 110.063 5.90593C110.063 7.23393 109.687 8.31393 108.935 9.14593C108.183 9.96193 107.111 10.4819 105.719 10.7059C106.135 10.8179 106.511 11.0179 106.847 11.3059C107.183 11.5939 107.511 11.9939 107.831 12.5059L110.303 16.3939ZM104.015 8.95393C105.263 8.95393 106.183 8.71393 106.775 8.23393C107.383 7.73793 107.687 6.97793 107.687 5.95393C107.687 4.92993 107.391 4.18593 106.799 3.72193C106.207 3.24193 105.279 3.00193 104.015 3.00193H99.5275V8.95393H104.015ZM132.038 16.4899C132.118 16.6819 132.158 16.8419 132.158 16.9699C132.158 17.2739 132.03 17.5299 131.774 17.7379C131.534 17.9459 131.262 18.0499 130.958 18.0499C130.75 18.0499 130.55 17.9939 130.358 17.8819C130.182 17.7539 130.046 17.5779 129.95 17.3539L128.366 13.7539H119.582L117.998 17.3539C117.902 17.5779 117.758 17.7539 117.566 17.8819C117.374 17.9939 117.174 18.0499 116.966 18.0499C116.646 18.0499 116.358 17.9459 116.102 17.7379C115.862 17.5299 115.742 17.2739 115.742 16.9699C115.742 16.8419 115.782 16.6819 115.862 16.4899L122.63 1.68193C122.742 1.42593 122.918 1.22593 123.158 1.08193C123.414 0.937931 123.678 0.865931 123.95 0.865931C124.222 0.865931 124.478 0.937931 124.718 1.08193C124.974 1.22593 125.158 1.42593 125.27 1.68193L132.038 16.4899ZM127.502 11.7859L123.974 3.84193L120.47 11.7859H127.502ZM158.223 9.21793C159.199 9.48993 159.951 9.97793 160.479 10.6819C161.023 11.3859 161.295 12.2659 161.295 13.3219C161.295 14.7779 160.791 15.9139 159.783 16.7299C158.791 17.5299 157.399 17.9299 155.607 17.9299H149.487C149.103 17.9299 148.799 17.8259 148.575 17.6179C148.367 17.3939 148.263 17.0979 148.263 16.7299V2.20993C148.263 1.84193 148.367 1.55393 148.575 1.34593C148.799 1.12193 149.103 1.00993 149.487 1.00993H155.343C157.087 1.00993 158.447 1.40193 159.423 2.18593C160.415 2.95393 160.911 4.03393 160.911 5.42593C160.911 6.32193 160.671 7.09793 160.191 7.75393C159.727 8.40993 159.071 8.89793 158.223 9.21793ZM150.687 8.32993H154.959C157.327 8.32993 158.511 7.43393 158.511 5.64193C158.511 4.74593 158.215 4.08193 157.623 3.64993C157.047 3.21793 156.159 3.00193 154.959 3.00193H150.687V8.32993ZM155.343 15.9379C156.575 15.9379 157.479 15.7139 158.055 15.2659C158.631 14.8179 158.919 14.1219 158.919 13.1779C158.919 12.2179 158.623 11.5059 158.031 11.0419C157.455 10.5619 156.559 10.3219 155.343 10.3219H150.687V15.9379H155.343ZM175.4 18.1219C173.8 18.1219 172.408 17.7699 171.224 17.0659C170.056 16.3619 169.152 15.3619 168.512 14.0659C167.872 12.7699 167.552 11.2419 167.552 9.48193C167.552 7.70593 167.864 6.16993 168.488 4.87393C169.128 3.56193 170.04 2.56193 171.224 1.87393C172.408 1.16993 173.8 0.81793 175.4 0.81793C177.016 0.81793 178.416 1.16993 179.6 1.87393C180.784 2.56193 181.688 3.56193 182.312 4.87393C182.952 6.16993 183.272 7.69793 183.272 9.45793C183.272 11.2179 182.952 12.7539 182.312 14.0659C181.688 15.3619 180.784 16.3619 179.6 17.0659C178.416 17.7699 177.016 18.1219 175.4 18.1219ZM175.4 16.1059C177.096 16.1059 178.416 15.5299 179.36 14.3779C180.304 13.2259 180.776 11.5859 180.776 9.45793C180.776 7.32993 180.304 5.69793 179.36 4.56193C178.432 3.40993 177.112 2.83393 175.4 2.83393C173.72 2.83393 172.408 3.40993 171.464 4.56193C170.536 5.69793 170.072 7.32993 170.072 9.45793C170.072 11.5859 170.536 13.2259 171.464 14.3779C172.408 15.5299 173.72 16.1059 175.4 16.1059ZM191.468 17.9299C191.084 17.9299 190.78 17.8259 190.556 17.6179C190.348 17.3939 190.244 17.0979 190.244 16.7299V2.20993C190.244 1.84193 190.348 1.55393 190.556 1.34593C190.78 1.12193 191.084 1.00993 191.468 1.00993H196.172C198.908 1.00993 201.028 1.74593 202.532 3.21793C204.036 4.68993 204.788 6.76993 204.788 9.45793C204.788 12.1459 204.036 14.2339 202.532 15.7219C201.028 17.1939 198.908 17.9299 196.172 17.9299H191.468ZM196.028 15.8659C200.188 15.8659 202.268 13.7299 202.268 9.45793C202.268 5.20193 200.188 3.07393 196.028 3.07393H192.716V15.8659H196.028ZM226.28 16.4899C226.36 16.6819 226.4 16.8419 226.4 16.9699C226.4 17.2739 226.272 17.5299 226.016 17.7379C225.776 17.9459 225.504 18.0499 225.2 18.0499C224.992 18.0499 224.792 17.9939 224.6 17.8819C224.424 17.7539 224.288 17.5779 224.192 17.3539L222.608 13.7539H213.824L212.24 17.3539C212.144 17.5779 212 17.7539 211.808 17.8819C211.616 17.9939 211.416 18.0499 211.208 18.0499C210.888 18.0499 210.6 17.9459 210.344 17.7379C210.104 17.5299 209.984 17.2739 209.984 16.9699C209.984 16.8419 210.024 16.6819 210.104 16.4899L216.872 1.68193C216.984 1.42593 217.16 1.22593 217.4 1.08193C217.656 0.937931 217.92 0.865931 218.192 0.865931C218.464 0.865931 218.72 0.937931 218.96 1.08193C219.216 1.22593 219.4 1.42593 219.512 1.68193L226.28 16.4899ZM221.744 11.7859L218.216 3.84193L214.712 11.7859H221.744Z" fill="#FBF8F3"/>
</svg>
