<svg width="61" height="51" viewBox="0 0 61 51" fill="none" xmlns="http://www.w3.org/2000/svg">
<path d="M60.0005 27.2252C56.9579 24.1826 52.8312 22.4733 48.5283 22.4733C44.2253 22.4733 40.0986 24.1826 37.056 27.2252C34.0134 30.2679 32.304 34.3946 32.304 38.6975C32.304 43.0004 34.0134 47.1271 37.056 50.1698" stroke="#6D4D36" stroke-width="2"/>
<path d="M1 27.1418C4.04263 24.0991 8.16933 22.3898 12.4723 22.3898C16.7752 22.3898 20.9019 24.0991 23.9445 27.1418C26.9872 30.1844 28.6965 34.3111 28.6965 38.614C28.6965 42.9169 26.9872 47.0436 23.9445 50.0863" stroke="#6D4D36" stroke-width="2"/>
<path fill-rule="evenodd" clip-rule="evenodd" d="M32.8931 16.6837C33.508 15.1423 33.8948 12.907 33.8948 10.4198C33.8948 8.57628 32.5429 3.68397 30.8754 2C29.2078 3.68397 27.856 8.57628 27.856 10.4198C27.856 13.0005 28.2723 15.31 28.9279 16.8545C22.5174 12.2753 18.6029 14.2806 15.3783 18.0268C19.774 17.8589 24.2254 20.4565 27.5812 23.7594C28.9621 25.1184 30.0445 26.6601 30.8282 28.3053C31.6265 26.3971 32.8132 24.6092 34.3884 23.0589C37.6111 19.8871 41.844 17.2856 46.0678 17.3146C42.639 14.2713 38.9577 12.298 32.8931 16.6837Z" stroke="#6D4D36" stroke-width="2"/>
</svg>
