<svg width="456" height="38" viewBox="0 0 456 38" fill="none" xmlns="http://www.w3.org/2000/svg">
<circle cx="421.581" cy="29.6591" r="1" stroke="#006A6A" stroke-width="1.99007"/>
<circle cx="429.657" cy="29.6591" r="1" stroke="#006A6A" stroke-width="1.99007"/>
<mask id="path-3-inside-1_80_1955" fill="white">
<path fill-rule="evenodd" clip-rule="evenodd" d="M441.401 22.154C439.415 26.1506 437.687 27.7767 433.742 29.8128C437.687 31.849 439.415 33.4751 441.401 37.4717C446.552 33.6623 449.699 32.0801 455.503 29.8128C449.699 27.5456 446.552 25.9634 441.401 22.154Z"/>
</mask>
<path d="M433.742 29.8128L432.825 28.0355L429.38 29.8128L432.825 31.5902L433.742 29.8128ZM441.401 22.154L442.59 20.5459L440.671 19.1271L439.609 21.2642L441.401 22.154ZM441.401 37.4717L439.609 38.3615L440.671 40.4986L442.59 39.0798L441.401 37.4717ZM455.503 29.8128L456.231 31.6757L461 29.8128L456.231 27.95L455.503 29.8128ZM434.659 31.5902C436.71 30.5315 438.332 29.5064 439.713 28.1405C441.1 26.7683 442.145 25.1515 443.192 23.0437L439.609 21.2642C438.671 23.1531 437.859 24.3476 436.9 25.2967C435.934 26.252 434.719 27.058 432.825 28.0355L434.659 31.5902ZM432.825 31.5902C434.719 32.5677 435.934 33.3737 436.9 34.329C437.859 35.2781 438.671 36.4726 439.609 38.3615L443.192 36.582C442.145 34.4742 441.1 32.8574 439.713 31.4852C438.332 30.1193 436.71 29.0942 434.659 28.0355L432.825 31.5902ZM442.59 39.0798C447.573 35.3948 450.558 33.8919 456.231 31.6757L454.775 27.95C448.841 30.2683 445.531 31.9299 440.211 35.8636L442.59 39.0798ZM440.211 23.7621C445.531 27.6958 448.841 29.3574 454.775 31.6757L456.231 27.95C450.558 25.7338 447.573 24.2309 442.59 20.5459L440.211 23.7621Z" fill="#006A6A" mask="url(#path-3-inside-1_80_1955)"/>
<path d="M424.641 29.7796L425.625 28.0866L426.675 29.7796L425.625 31.4726L424.641 29.7796Z" stroke="#006A6A" stroke-width="2"/>
<path d="M223.625 29.6581L231.63 29.6581" stroke="#006A6A" stroke-width="2"/>
<circle cx="25.0665" cy="29.6632" r="1" stroke="#006A6A" stroke-width="1.88486"/>
<circle cx="32.9287" cy="29.6632" r="1" stroke="#006A6A" stroke-width="1.88486"/>
<path d="M28.0762 29.7804L29.0041 28.1833L29.9946 29.7804L29.0041 31.3776L28.0762 29.7804Z" stroke="#006A6A" stroke-width="2"/>
<mask id="path-10-inside-2_80_1955" fill="white">
<path fill-rule="evenodd" clip-rule="evenodd" d="M13.7308 22.3559C15.6638 26.2472 17.346 27.8304 21.1877 29.8128C17.346 31.7953 15.6638 33.3785 13.7308 37.2698C8.71505 33.5608 5.65066 32.0203 -3.62396e-05 29.8128C5.65066 27.6053 8.71505 26.0649 13.7308 22.3559Z"/>
</mask>
<path d="M21.1877 29.8128L22.1049 28.0355L25.549 29.8128L22.1049 31.5901L21.1877 29.8128ZM13.7308 22.3559L12.5416 20.7478L14.4603 19.329L15.5219 21.4661L13.7308 22.3559ZM13.7308 37.2698L15.5219 38.1595L14.4603 40.2967L12.5416 38.8779L13.7308 37.2698ZM-3.62396e-05 29.8128L-0.727791 31.6757L-5.4964 29.8128L-0.727791 27.9499L-3.62396e-05 29.8128ZM20.2705 31.5901C18.2711 30.5583 16.6869 29.5574 15.337 28.2221C13.9807 26.8805 12.9604 25.3007 11.9396 23.2457L15.5219 21.4661C16.4341 23.3023 17.2214 24.4598 18.15 25.3783C19.0848 26.303 20.2626 27.0849 22.1049 28.0355L20.2705 31.5901ZM22.1049 31.5901C20.2626 32.5408 19.0848 33.3227 18.15 34.2474C17.2214 35.1659 16.4341 36.3233 15.5219 38.1595L11.9396 36.38C12.9604 34.325 13.9807 32.7452 15.337 31.4036C16.6869 30.0683 18.2711 29.0673 20.2705 28.0355L22.1049 31.5901ZM12.5416 38.8779C7.69409 35.2932 4.79208 33.8321 -0.727791 31.6757L0.727718 27.9499C6.50924 30.2085 9.73602 31.8283 14.9199 35.6617L12.5416 38.8779ZM14.9199 23.964C9.73602 27.7973 6.50924 29.4171 0.727718 31.6757L-0.727791 27.9499C4.79208 25.7936 7.69409 24.3324 12.5416 20.7478L14.9199 23.964Z" fill="#006A6A" mask="url(#path-10-inside-2_80_1955)"/>
<path d="M436.096 29.6581L19.3619 29.6581" stroke="#006A6A" stroke-width="2"/>
<path d="M227.581 29.1579L227.503 1" stroke="#006A6A" stroke-width="2" stroke-linecap="round"/>
</svg>
