<svg width="466" height="36" viewBox="0 0 466 36" fill="none" xmlns="http://www.w3.org/2000/svg">
<path d="M133.495 7.88993C133.847 7.88993 134.127 8.00993 134.335 8.24993C134.559 8.47393 134.671 8.76993 134.671 9.13793V23.8019C134.671 24.1699 134.559 24.4739 134.335 24.7139C134.111 24.9379 133.823 25.0499 133.471 25.0499C133.055 25.0499 132.735 24.8899 132.511 24.5699L123.103 12.1619V23.8019C123.103 24.1699 122.991 24.4739 122.767 24.7139C122.559 24.9379 122.279 25.0499 121.927 25.0499C121.575 25.0499 121.295 24.9379 121.087 24.7139C120.879 24.4899 120.775 24.1859 120.775 23.8019V9.13793C120.775 8.76993 120.887 8.47393 121.111 8.24993C121.335 8.00993 121.623 7.88993 121.975 7.88993C122.391 7.88993 122.711 8.04993 122.935 8.36993L132.343 20.8019V9.13793C132.343 8.76993 132.447 8.47393 132.655 8.24993C132.863 8.00993 133.143 7.88993 133.495 7.88993ZM148.979 25.1219C146.723 25.1219 145.011 24.5379 143.843 23.3699C142.675 22.2019 142.091 20.4819 142.091 18.2099V9.13793C142.091 8.75393 142.203 8.44993 142.427 8.22593C142.651 8.00193 142.947 7.88993 143.315 7.88993C143.683 7.88993 143.979 8.00193 144.203 8.22593C144.427 8.44993 144.539 8.75393 144.539 9.13793V18.3779C144.539 19.9299 144.907 21.1059 145.643 21.9059C146.395 22.7059 147.507 23.1059 148.979 23.1059C150.435 23.1059 151.539 22.7059 152.291 21.9059C153.043 21.1059 153.419 19.9299 153.419 18.3779V9.13793C153.419 8.76993 153.531 8.47393 153.755 8.24993C153.979 8.00993 154.275 7.88993 154.643 7.88993C155.011 7.88993 155.307 8.00193 155.531 8.22593C155.755 8.44993 155.867 8.75393 155.867 9.13793V18.2099C155.867 20.4659 155.275 22.1859 154.091 23.3699C152.923 24.5379 151.219 25.1219 148.979 25.1219ZM164.496 24.9299C164.112 24.9299 163.808 24.8259 163.584 24.6179C163.376 24.3939 163.272 24.0979 163.272 23.7299V9.20993C163.272 8.84193 163.376 8.55393 163.584 8.34593C163.808 8.12193 164.112 8.00993 164.496 8.00993H173.328C173.696 8.00993 173.976 8.09793 174.168 8.27393C174.376 8.44993 174.48 8.69793 174.48 9.01793C174.48 9.33793 174.376 9.58593 174.168 9.76193C173.976 9.92193 173.696 10.0019 173.328 10.0019H165.696V15.3299H172.848C173.216 15.3299 173.496 15.4179 173.688 15.5939C173.896 15.7699 174 16.0179 174 16.3379C174 16.6579 173.896 16.9059 173.688 17.0819C173.496 17.2579 173.216 17.3459 172.848 17.3459H165.696V22.9379H173.328C174.096 22.9379 174.48 23.2659 174.48 23.9219C174.48 24.2419 174.376 24.4899 174.168 24.6659C173.976 24.8419 173.696 24.9299 173.328 24.9299H164.496ZM186.269 25.1219C185.053 25.1219 183.893 24.9539 182.789 24.6179C181.701 24.2819 180.829 23.8179 180.173 23.2259C179.869 22.9699 179.717 22.6419 179.717 22.2419C179.717 21.9539 179.797 21.7139 179.957 21.5219C180.117 21.3139 180.309 21.2099 180.533 21.2099C180.757 21.2099 181.029 21.3139 181.349 21.5219C182.773 22.5779 184.397 23.1059 186.221 23.1059C187.501 23.1059 188.485 22.8659 189.173 22.3859C189.861 21.9059 190.205 21.2179 190.205 20.3219C190.205 19.6179 189.885 19.0899 189.245 18.7379C188.605 18.3859 187.581 18.0499 186.173 17.7299C184.829 17.4419 183.725 17.1139 182.861 16.7459C181.997 16.3779 181.317 15.8819 180.821 15.2579C180.341 14.6179 180.101 13.8099 180.101 12.8339C180.101 11.8579 180.365 10.9939 180.893 10.2419C181.437 9.47393 182.189 8.88193 183.149 8.46593C184.109 8.03393 185.205 7.81793 186.437 7.81793C187.573 7.81793 188.621 7.97793 189.581 8.29793C190.541 8.61793 191.357 9.08993 192.029 9.71393C192.349 9.98593 192.509 10.3139 192.509 10.6979C192.509 10.9699 192.421 11.2099 192.245 11.4179C192.085 11.6259 191.893 11.7299 191.669 11.7299C191.461 11.7299 191.197 11.6259 190.877 11.4179C190.141 10.8579 189.445 10.4579 188.789 10.2179C188.149 9.96193 187.373 9.83393 186.461 9.83393C185.229 9.83393 184.269 10.0899 183.581 10.6019C182.893 11.0979 182.549 11.7939 182.549 12.6899C182.549 13.4579 182.853 14.0419 183.461 14.4419C184.069 14.8259 185.045 15.1779 186.389 15.4979C187.797 15.8179 188.933 16.1539 189.797 16.5059C190.677 16.8419 191.373 17.3139 191.885 17.9219C192.413 18.5139 192.677 19.2819 192.677 20.2259C192.677 21.1859 192.405 22.0419 191.861 22.7939C191.333 23.5299 190.581 24.1059 189.605 24.5219C188.645 24.9219 187.533 25.1219 186.269 25.1219ZM204.252 25.0499C203.884 25.0499 203.58 24.9379 203.34 24.7139C203.116 24.4739 203.004 24.1699 203.004 23.8019V10.0739H198.204C197.436 10.0739 197.052 9.72993 197.052 9.04193C197.052 8.70593 197.148 8.44993 197.34 8.27393C197.548 8.09793 197.836 8.00993 198.204 8.00993H210.3C210.668 8.00993 210.948 8.09793 211.14 8.27393C211.348 8.44993 211.452 8.70593 211.452 9.04193C211.452 9.72993 211.068 10.0739 210.3 10.0739H205.5V23.8019C205.5 24.1699 205.388 24.4739 205.164 24.7139C204.94 24.9379 204.636 25.0499 204.252 25.0499ZM230.303 23.3939C230.447 23.6019 230.519 23.8259 230.519 24.0659C230.519 24.3539 230.399 24.6019 230.159 24.8099C229.935 25.0019 229.671 25.0979 229.367 25.0979C228.919 25.0979 228.559 24.8979 228.287 24.4979L225.071 19.5059C224.703 18.9299 224.311 18.5299 223.895 18.3059C223.479 18.0659 222.935 17.9459 222.263 17.9459H219.551V23.8019C219.551 24.1859 219.439 24.4899 219.215 24.7139C219.007 24.9379 218.711 25.0499 218.327 25.0499C217.959 25.0499 217.663 24.9379 217.439 24.7139C217.215 24.4899 217.103 24.1859 217.103 23.8019V9.20993C217.103 8.84193 217.207 8.55393 217.415 8.34593C217.639 8.12193 217.943 8.00993 218.327 8.00993H224.303C226.175 8.00993 227.599 8.42593 228.575 9.25793C229.567 10.0899 230.063 11.3059 230.063 12.9059C230.063 14.2339 229.687 15.3139 228.935 16.1459C228.183 16.9619 227.111 17.4819 225.719 17.7059C226.135 17.8179 226.511 18.0179 226.847 18.3059C227.183 18.5939 227.511 18.9939 227.831 19.5059L230.303 23.3939ZM224.015 15.9539C225.263 15.9539 226.183 15.7139 226.775 15.2339C227.383 14.7379 227.687 13.9779 227.687 12.9539C227.687 11.9299 227.391 11.1859 226.799 10.7219C226.207 10.2419 225.279 10.0019 224.015 10.0019H219.527V15.9539H224.015ZM252.038 23.4899C252.118 23.6819 252.158 23.8419 252.158 23.9699C252.158 24.2739 252.03 24.5299 251.774 24.7379C251.534 24.9459 251.262 25.0499 250.958 25.0499C250.75 25.0499 250.55 24.9939 250.358 24.8819C250.182 24.7539 250.046 24.5779 249.95 24.3539L248.366 20.7539H239.582L237.998 24.3539C237.902 24.5779 237.758 24.7539 237.566 24.8819C237.374 24.9939 237.174 25.0499 236.966 25.0499C236.646 25.0499 236.358 24.9459 236.102 24.7379C235.862 24.5299 235.742 24.2739 235.742 23.9699C235.742 23.8419 235.782 23.6819 235.862 23.4899L242.63 8.68193C242.742 8.42593 242.918 8.22593 243.158 8.08193C243.414 7.93793 243.678 7.86593 243.95 7.86593C244.222 7.86593 244.478 7.93793 244.718 8.08193C244.974 8.22593 245.158 8.42593 245.27 8.68193L252.038 23.4899ZM247.502 18.7859L243.974 10.8419L240.47 18.7859H247.502ZM278.223 16.2179C279.199 16.4899 279.951 16.9779 280.479 17.6819C281.023 18.3859 281.295 19.2659 281.295 20.3219C281.295 21.7779 280.791 22.9139 279.783 23.7299C278.791 24.5299 277.399 24.9299 275.607 24.9299H269.487C269.103 24.9299 268.799 24.8259 268.575 24.6179C268.367 24.3939 268.263 24.0979 268.263 23.7299V9.20993C268.263 8.84193 268.367 8.55393 268.575 8.34593C268.799 8.12193 269.103 8.00993 269.487 8.00993H275.343C277.087 8.00993 278.447 8.40193 279.423 9.18593C280.415 9.95393 280.911 11.0339 280.911 12.4259C280.911 13.3219 280.671 14.0979 280.191 14.7539C279.727 15.4099 279.071 15.8979 278.223 16.2179ZM270.687 15.3299H274.959C277.327 15.3299 278.511 14.4339 278.511 12.6419C278.511 11.7459 278.215 11.0819 277.623 10.6499C277.047 10.2179 276.159 10.0019 274.959 10.0019H270.687V15.3299ZM275.343 22.9379C276.575 22.9379 277.479 22.7139 278.055 22.2659C278.631 21.8179 278.919 21.1219 278.919 20.1779C278.919 19.2179 278.623 18.5059 278.031 18.0419C277.455 17.5619 276.559 17.3219 275.343 17.3219H270.687V22.9379H275.343ZM295.4 25.1219C293.8 25.1219 292.408 24.7699 291.224 24.0659C290.056 23.3619 289.152 22.3619 288.512 21.0659C287.872 19.7699 287.552 18.2419 287.552 16.4819C287.552 14.7059 287.864 13.1699 288.488 11.8739C289.128 10.5619 290.04 9.56193 291.224 8.87393C292.408 8.16993 293.8 7.81793 295.4 7.81793C297.016 7.81793 298.416 8.16993 299.6 8.87393C300.784 9.56193 301.688 10.5619 302.312 11.8739C302.952 13.1699 303.272 14.6979 303.272 16.4579C303.272 18.2179 302.952 19.7539 302.312 21.0659C301.688 22.3619 300.784 23.3619 299.6 24.0659C298.416 24.7699 297.016 25.1219 295.4 25.1219ZM295.4 23.1059C297.096 23.1059 298.416 22.5299 299.36 21.3779C300.304 20.2259 300.776 18.5859 300.776 16.4579C300.776 14.3299 300.304 12.6979 299.36 11.5619C298.432 10.4099 297.112 9.83393 295.4 9.83393C293.72 9.83393 292.408 10.4099 291.464 11.5619C290.536 12.6979 290.072 14.3299 290.072 16.4579C290.072 18.5859 290.536 20.2259 291.464 21.3779C292.408 22.5299 293.72 23.1059 295.4 23.1059ZM311.468 24.9299C311.084 24.9299 310.78 24.8259 310.556 24.6179C310.348 24.3939 310.244 24.0979 310.244 23.7299V9.20993C310.244 8.84193 310.348 8.55393 310.556 8.34593C310.78 8.12193 311.084 8.00993 311.468 8.00993H316.172C318.908 8.00993 321.028 8.74593 322.532 10.2179C324.036 11.6899 324.788 13.7699 324.788 16.4579C324.788 19.1459 324.036 21.2339 322.532 22.7219C321.028 24.1939 318.908 24.9299 316.172 24.9299H311.468ZM316.028 22.8659C320.188 22.8659 322.268 20.7299 322.268 16.4579C322.268 12.2019 320.188 10.0739 316.028 10.0739H312.716V22.8659H316.028ZM346.28 23.4899C346.36 23.6819 346.4 23.8419 346.4 23.9699C346.4 24.2739 346.272 24.5299 346.016 24.7379C345.776 24.9459 345.504 25.0499 345.2 25.0499C344.992 25.0499 344.792 24.9939 344.6 24.8819C344.424 24.7539 344.288 24.5779 344.192 24.3539L342.608 20.7539H333.824L332.24 24.3539C332.144 24.5779 332 24.7539 331.808 24.8819C331.616 24.9939 331.416 25.0499 331.208 25.0499C330.888 25.0499 330.6 24.9459 330.344 24.7379C330.104 24.5299 329.984 24.2739 329.984 23.9699C329.984 23.8419 330.024 23.6819 330.104 23.4899L336.872 8.68193C336.984 8.42593 337.16 8.22593 337.4 8.08193C337.656 7.93793 337.92 7.86593 338.192 7.86593C338.464 7.86593 338.72 7.93793 338.96 8.08193C339.216 8.22593 339.4 8.42593 339.512 8.68193L346.28 23.4899ZM341.744 18.7859L338.216 10.8419L334.712 18.7859H341.744Z" fill="#FBF8F3"/>
<path d="M30.6241 18.2346H88.8503" stroke="#FBF8F3" stroke-width="2"/>
<path d="M21.4052 11.7659L22.3132 11.347C22.1933 11.0872 21.9679 10.8911 21.694 10.8085C21.42 10.7258 21.1238 10.7645 20.8803 10.9147L21.4052 11.7659ZM30.9382 18.2349L31.0915 19.223C31.5787 19.1475 31.9382 18.728 31.9382 18.2349C31.9382 17.7418 31.5787 17.3223 31.0915 17.2467L30.9382 18.2349ZM21.3732 25.1723L20.8454 26.0217C21.0916 26.1747 21.3921 26.2133 21.669 26.1276C21.9459 26.0418 22.172 25.8401 22.2886 25.5747L21.3732 25.1723ZM13.0209 18.3091L12.3397 17.5769C11.9365 17.9521 11.9125 18.5826 12.286 18.9873L13.0209 18.3091ZM20.4971 12.1847C22.7485 17.0653 28.1345 18.8119 30.7849 19.223L31.0915 17.2467C28.6506 16.868 24.135 15.2962 22.3132 11.347L20.4971 12.1847ZM30.7849 17.2467C29.3807 17.4645 27.3675 18.096 25.4308 19.2791C23.4887 20.4655 21.5694 22.2409 20.4577 24.7699L22.2886 25.5747C23.1932 23.517 24.7769 22.0222 26.4734 20.9858C28.1754 19.9461 29.9366 19.4022 31.0915 19.223L30.7849 17.2467ZM21.9009 24.3229C18.8344 22.4175 16.1914 20.27 13.7558 17.6309L12.286 18.9873C14.8514 21.767 17.636 24.0274 20.8454 26.0217L21.9009 24.3229ZM13.702 19.0412C16.6395 16.3083 19.0922 14.3671 21.9301 12.617L20.8803 10.9147C17.9021 12.7513 15.3451 14.7808 12.3397 17.5769L13.702 19.0412Z" fill="#FBF8F3"/>
<path d="M434.881 16.6677H376.655" stroke="#FBF8F3" stroke-width="2"/>
<path d="M444.1 10.199L443.192 9.78009C443.312 9.52027 443.537 9.32423 443.811 9.24159C444.085 9.15895 444.382 9.19762 444.625 9.34781L444.1 10.199ZM434.567 16.668L434.414 17.6562C433.927 17.5806 433.567 17.1611 433.567 16.668C433.567 16.1749 433.927 15.7554 434.414 15.6798L434.567 16.668ZM444.132 23.6054L444.66 24.4548C444.414 24.6078 444.113 24.6464 443.836 24.5607C443.56 24.4749 443.333 24.2732 443.217 24.0078L444.132 23.6054ZM452.485 16.7422L453.166 16.01C453.569 16.3852 453.593 17.0157 453.219 17.4204L452.485 16.7422ZM445.008 10.6179C442.757 15.4984 437.371 17.245 434.721 17.6562L434.414 15.6798C436.855 15.3011 441.37 13.7293 443.192 9.78009L445.008 10.6179ZM434.721 15.6798C436.125 15.8976 438.138 16.5291 440.075 17.7122C442.017 18.8986 443.936 20.674 445.048 23.203L443.217 24.0078C442.312 21.9501 440.729 20.4553 439.032 19.4189C437.33 18.3792 435.569 17.8353 434.414 17.6562L434.721 15.6798ZM443.604 22.7561C446.671 20.8506 449.314 18.7031 451.75 16.064L453.219 17.4204C450.654 20.2001 447.869 22.4605 444.66 24.4548L443.604 22.7561ZM451.803 17.4743C448.866 14.7414 446.413 12.8002 443.575 11.0501L444.625 9.34781C447.603 11.1844 450.16 13.2139 453.166 16.01L451.803 17.4743Z" fill="#FBF8F3"/>
</svg>
