<svg width="834" height="127" viewBox="0 0 834 127" fill="none" xmlns="http://www.w3.org/2000/svg">
<g filter="url(#filter0_d_141_408)">
<path d="M166.835 63.6768V22.0268H169.64V46.6768C173.153 46.6768 176.128 46.3651 178.565 45.7418C181.002 45.1184 182.985 44.0984 184.515 42.6818C186.045 41.2084 187.15 39.2818 187.83 36.9018C188.51 34.5218 188.85 31.5468 188.85 27.9768C188.85 25.0868 188.283 22.4234 187.15 19.9868C186.017 17.4934 184.487 15.3401 182.56 13.5268C180.69 11.7134 178.48 10.2968 175.93 9.27675C173.38 8.20009 170.688 7.66175 167.855 7.66175C164.058 7.66175 160.63 8.37009 157.57 9.78676C154.453 11.1468 151.818 13.0168 149.665 15.3968C147.455 17.7768 145.755 20.5818 144.565 23.8118C143.375 27.0418 142.78 30.4984 142.78 34.1818C142.78 37.1851 143.233 40.0751 144.14 42.8518C144.99 45.6284 146.265 48.0934 147.965 50.2468C149.665 52.3434 151.79 54.0434 154.34 55.3468C156.833 56.5934 159.723 57.2168 163.01 57.2168V57.9818C159.44 57.9818 156.267 57.3018 153.49 55.9418C150.713 54.5818 148.362 52.7684 146.435 50.5018C144.508 48.1784 143.063 45.4868 142.1 42.4268C141.08 39.3668 140.57 36.1651 140.57 32.8218C140.57 28.7984 141.307 25.2001 142.78 22.0268C144.197 18.8534 146.152 16.1334 148.645 13.8668C151.138 11.6001 154.085 9.87175 157.485 8.68176C160.828 7.49175 164.427 6.89675 168.28 6.89675C171.283 6.89675 174.202 7.40675 177.035 8.42675C179.868 9.39009 182.362 10.8068 184.515 12.6768C186.725 14.4901 188.482 16.7001 189.785 19.3068C191.145 21.8568 191.825 24.7468 191.825 27.9768C191.825 31.7168 191.315 34.8334 190.295 37.3268C189.275 39.8201 187.802 41.8318 185.875 43.3618C184.005 44.8351 181.682 45.8834 178.905 46.5068C176.185 47.0734 173.097 47.3568 169.64 47.3568V63.6768H166.835ZM191.828 63.6768H191.148L207.128 21.5168L222.598 63.6768H219.368L213.248 46.9318H198.288L191.828 63.6768ZM198.458 46.3368H212.993L205.853 26.7018L198.458 46.3368ZM267.201 42.8518C267.201 45.7418 266.634 48.4618 265.501 51.0118C264.424 53.5618 262.923 55.8001 260.996 57.7268C259.126 59.5968 256.916 61.0984 254.366 62.2318C251.816 63.3084 249.096 63.8468 246.206 63.8468C243.316 63.8468 240.596 63.3084 238.046 62.2318C235.496 61.0984 233.258 59.5968 231.331 57.7268C229.461 55.8001 227.959 53.5618 226.826 51.0118C225.749 48.4618 225.211 45.7418 225.211 42.8518C225.211 39.9618 225.749 37.2418 226.826 34.6918C227.959 32.1418 229.461 29.9318 231.331 28.0618C233.258 26.1351 235.496 24.6334 238.046 23.5568C240.596 22.4234 243.316 21.8568 246.206 21.8568C249.096 21.8568 251.816 22.4234 254.366 23.5568C256.916 24.6334 259.126 26.1351 260.996 28.0618C262.923 29.9318 264.424 32.1418 265.501 34.6918C266.634 37.2418 267.201 39.9618 267.201 42.8518ZM228.696 41.8318C228.696 44.3818 229.149 46.9318 230.056 49.4818C230.963 52.0318 232.238 54.3268 233.881 56.3668C235.524 58.4068 237.479 60.0784 239.746 61.3818C242.069 62.6284 244.591 63.2518 247.311 63.2518C249.861 63.2518 252.156 62.6851 254.196 61.5518C256.236 60.4184 257.964 58.9451 259.381 57.1318C260.798 55.2618 261.874 53.1934 262.611 50.9268C263.404 48.6034 263.801 46.2518 263.801 43.8718C263.801 41.3218 263.348 38.7718 262.441 36.2218C261.534 33.6718 260.259 31.3768 258.616 29.3368C257.029 27.2968 255.103 25.6534 252.836 24.4068C250.569 23.1601 248.048 22.5368 245.271 22.5368C242.721 22.5368 240.426 23.1034 238.386 24.2368C236.346 25.3701 234.589 26.8434 233.116 28.6568C231.699 30.4701 230.594 32.5384 229.801 34.8618C229.064 37.1284 228.696 39.4518 228.696 41.8318ZM298.497 63.6768H276.737V22.0268H279.627V62.9968H298.497V63.6768ZM303.308 63.6768H302.628L318.608 21.5168L334.078 63.6768H330.848L324.728 46.9318H309.768L303.308 63.6768ZM309.938 46.3368H324.473L317.333 26.7018L309.938 46.3368ZM371.224 63.6768V45.4868L358.899 22.0268H362.214L373.604 43.9568L384.994 22.0268H385.759L374.114 44.5518V63.6768H371.224ZM477.411 71.0718C474.408 73.1684 471.49 74.7551 468.656 75.8318C465.823 76.9651 462.565 77.5318 458.881 77.5318C456.388 77.5318 453.951 77.1918 451.571 76.5118C449.191 75.8318 446.84 74.9818 444.516 73.9618C442.193 72.9418 439.87 71.8084 437.546 70.5618C435.28 69.3718 432.956 68.2668 430.576 67.2468C428.196 66.2268 425.76 65.3768 423.266 64.6968C420.83 64.0168 418.28 63.6768 415.616 63.6768H411.791V22.0268H433.551V22.7068H414.681V42.1718H427.771V42.8518H414.681V62.8268C418.931 62.8268 423.04 63.4784 427.006 64.7818C431.03 66.0851 434.968 67.5301 438.821 69.1168C442.675 70.7034 446.443 72.1484 450.126 73.4518C453.866 74.7551 457.578 75.4068 461.261 75.4068C463.018 75.4068 464.548 75.3218 465.851 75.1518C467.211 75.0384 468.486 74.7834 469.676 74.3868C470.866 74.0468 472.056 73.5651 473.246 72.9418C474.436 72.3184 475.74 71.5251 477.156 70.5618L477.411 71.0718ZM476.314 42.8518C476.314 45.7418 475.747 48.4618 474.614 51.0118C473.537 53.5051 472.064 55.6868 470.194 57.5568C468.324 59.4268 466.114 60.9284 463.564 62.0618C461.071 63.1384 458.379 63.6768 455.489 63.6768H443.334V22.0268H454.809C457.642 22.0268 460.362 22.5651 462.969 23.6418C465.576 24.7184 467.871 26.2201 469.854 28.1468C471.837 30.0168 473.396 32.2268 474.529 34.7768C475.719 37.2701 476.314 39.9618 476.314 42.8518ZM446.224 62.9118H452.004C455.007 62.9118 457.784 62.4584 460.334 61.5518C462.884 60.5884 465.066 59.2568 466.879 57.5568C468.749 55.8001 470.194 53.6751 471.214 51.1818C472.291 48.6884 472.829 45.9118 472.829 42.8518C472.829 39.7918 472.291 37.0151 471.214 34.5218C470.194 32.0284 468.749 29.9034 466.879 28.1468C465.066 26.3901 462.884 25.0584 460.334 24.1518C457.784 23.1884 455.007 22.7068 452.004 22.7068H446.224V62.9118ZM512.884 22.0268V49.4818C512.884 53.9018 511.836 57.4434 509.739 60.1068C507.699 62.7701 504.327 64.1018 499.624 64.1018C494.807 64.1018 491.152 62.8551 488.659 60.3618C486.222 57.8118 485.004 54.1851 485.004 49.4818V22.0268H487.894V49.3968C487.894 51.2668 488.121 53.0234 488.574 54.6668C489.084 56.3101 489.821 57.7551 490.784 59.0018C491.804 60.1918 493.051 61.1551 494.524 61.8918C495.997 62.5718 497.726 62.9118 499.709 62.9118C504.072 62.9118 507.246 61.7218 509.229 59.3418C511.212 56.9051 512.204 53.5901 512.204 49.3968V22.0268H512.884ZM519.875 63.6768H519.195L535.175 21.5168L550.645 63.6768H547.415L541.295 46.9318H526.335L519.875 63.6768ZM526.505 46.3368H541.04L533.9 26.7018L526.505 46.3368ZM558.466 63.6768V22.0268H569.516C571.556 22.0268 573.511 22.2534 575.381 22.7068C577.308 23.1601 579.008 23.8968 580.481 24.9168C581.954 25.9368 583.144 27.2684 584.051 28.9118C584.958 30.4984 585.411 32.4251 585.411 34.6918C585.411 36.3351 585.099 37.8651 584.476 39.2818C583.909 40.6418 583.116 41.8318 582.096 42.8518C581.076 43.8718 579.886 44.7501 578.526 45.4868C577.166 46.1668 575.721 46.6484 574.191 46.9318L583.371 60.8718C583.824 61.4951 584.391 62.0618 585.071 62.5718C585.751 63.0251 586.459 63.3934 587.196 63.6768H581.841L570.961 47.2718H561.441V63.6768H558.466ZM561.441 46.6768H569.686C573.369 46.6768 576.344 45.6284 578.611 43.5318C580.878 41.3784 582.011 38.4318 582.011 34.6918C582.011 30.9518 580.878 28.0334 578.611 25.9368C576.344 23.7834 573.369 22.7068 569.686 22.7068H561.441V46.6768ZM627.803 42.8518C627.803 45.7418 627.237 48.4618 626.103 51.0118C625.027 53.5051 623.553 55.6868 621.683 57.5568C619.813 59.4268 617.603 60.9284 615.053 62.0618C612.56 63.1384 609.868 63.6768 606.978 63.6768H594.823V22.0268H606.298C609.132 22.0268 611.852 22.5651 614.458 23.6418C617.065 24.7184 619.36 26.2201 621.343 28.1468C623.327 30.0168 624.885 32.2268 626.018 34.7768C627.208 37.2701 627.803 39.9618 627.803 42.8518ZM597.713 62.9118H603.493C606.497 62.9118 609.273 62.4584 611.823 61.5518C614.373 60.5884 616.555 59.2568 618.368 57.5568C620.238 55.8001 621.683 53.6751 622.703 51.1818C623.78 48.6884 624.318 45.9118 624.318 42.8518C624.318 39.7918 623.78 37.0151 622.703 34.5218C621.683 32.0284 620.238 29.9034 618.368 28.1468C616.555 26.3901 614.373 25.0584 611.823 24.1518C609.273 23.1884 606.497 22.7068 603.493 22.7068H597.713V62.9118ZM675.848 42.8518C675.848 45.7418 675.282 48.4618 674.148 51.0118C673.072 53.5618 671.57 55.8001 669.643 57.7268C667.773 59.5968 665.563 61.0984 663.013 62.2318C660.463 63.3084 657.743 63.8468 654.853 63.8468C651.963 63.8468 649.243 63.3084 646.693 62.2318C644.143 61.0984 641.905 59.5968 639.978 57.7268C638.108 55.8001 636.607 53.5618 635.473 51.0118C634.397 48.4618 633.858 45.7418 633.858 42.8518C633.858 39.9618 634.397 37.2418 635.473 34.6918C636.607 32.1418 638.108 29.9318 639.978 28.0618C641.905 26.1351 644.143 24.6334 646.693 23.5568C649.243 22.4234 651.963 21.8568 654.853 21.8568C657.743 21.8568 660.463 22.4234 663.013 23.5568C665.563 24.6334 667.773 26.1351 669.643 28.0618C671.57 29.9318 673.072 32.1418 674.148 34.6918C675.282 37.2418 675.848 39.9618 675.848 42.8518ZM637.343 41.8318C637.343 44.3818 637.797 46.9318 638.703 49.4818C639.61 52.0318 640.885 54.3268 642.528 56.3668C644.172 58.4068 646.127 60.0784 648.393 61.3818C650.717 62.6284 653.238 63.2518 655.958 63.2518C658.508 63.2518 660.803 62.6851 662.843 61.5518C664.883 60.4184 666.612 58.9451 668.028 57.1318C669.445 55.2618 670.522 53.1934 671.258 50.9268C672.052 48.6034 672.448 46.2518 672.448 43.8718C672.448 41.3218 671.995 38.7718 671.088 36.2218C670.182 33.6718 668.907 31.3768 667.263 29.3368C665.677 27.2968 663.75 25.6534 661.483 24.4068C659.217 23.1601 656.695 22.5368 653.918 22.5368C651.368 22.5368 649.073 23.1034 647.033 24.2368C644.993 25.3701 643.237 26.8434 641.763 28.6568C640.347 30.4701 639.242 32.5384 638.448 34.8618C637.712 37.1284 637.343 39.4518 637.343 41.8318Z" fill="#FBF8F3"/>
<path d="M315.495 93.8899C315.847 93.8899 316.127 94.0099 316.335 94.2499C316.559 94.4739 316.671 94.7699 316.671 95.1379V109.802C316.671 110.17 316.559 110.474 316.335 110.714C316.111 110.938 315.823 111.05 315.471 111.05C315.055 111.05 314.735 110.89 314.511 110.57L305.103 98.1619V109.802C305.103 110.17 304.991 110.474 304.767 110.714C304.559 110.938 304.279 111.05 303.927 111.05C303.575 111.05 303.295 110.938 303.087 110.714C302.879 110.49 302.775 110.186 302.775 109.802V95.1379C302.775 94.7699 302.887 94.4739 303.111 94.2499C303.335 94.0099 303.623 93.8899 303.975 93.8899C304.391 93.8899 304.711 94.0499 304.935 94.3699L314.343 106.802V95.1379C314.343 94.7699 314.447 94.4739 314.655 94.2499C314.863 94.0099 315.143 93.8899 315.495 93.8899ZM330.979 111.122C328.723 111.122 327.011 110.538 325.843 109.37C324.675 108.202 324.091 106.482 324.091 104.21V95.1379C324.091 94.7539 324.203 94.4499 324.427 94.2259C324.651 94.0019 324.947 93.8899 325.315 93.8899C325.683 93.8899 325.979 94.0019 326.203 94.2259C326.427 94.4499 326.539 94.7539 326.539 95.1379V104.378C326.539 105.93 326.907 107.106 327.643 107.906C328.395 108.706 329.507 109.106 330.979 109.106C332.435 109.106 333.539 108.706 334.291 107.906C335.043 107.106 335.419 105.93 335.419 104.378V95.1379C335.419 94.7699 335.531 94.4739 335.755 94.2499C335.979 94.0099 336.275 93.8899 336.643 93.8899C337.011 93.8899 337.307 94.0019 337.531 94.2259C337.755 94.4499 337.867 94.7539 337.867 95.1379V104.21C337.867 106.466 337.275 108.186 336.091 109.37C334.923 110.538 333.219 111.122 330.979 111.122ZM346.496 110.93C346.112 110.93 345.808 110.826 345.584 110.618C345.376 110.394 345.272 110.098 345.272 109.73V95.2099C345.272 94.8419 345.376 94.5539 345.584 94.3459C345.808 94.1219 346.112 94.0099 346.496 94.0099H355.328C355.696 94.0099 355.976 94.0979 356.168 94.2739C356.376 94.4499 356.48 94.6979 356.48 95.0179C356.48 95.3379 356.376 95.5859 356.168 95.7619C355.976 95.9219 355.696 96.0019 355.328 96.0019H347.696V101.33H354.848C355.216 101.33 355.496 101.418 355.688 101.594C355.896 101.77 356 102.018 356 102.338C356 102.658 355.896 102.906 355.688 103.082C355.496 103.258 355.216 103.346 354.848 103.346H347.696V108.938H355.328C356.096 108.938 356.48 109.266 356.48 109.922C356.48 110.242 356.376 110.49 356.168 110.666C355.976 110.842 355.696 110.93 355.328 110.93H346.496ZM368.269 111.122C367.053 111.122 365.893 110.954 364.789 110.618C363.701 110.282 362.829 109.818 362.173 109.226C361.869 108.97 361.717 108.642 361.717 108.242C361.717 107.954 361.797 107.714 361.957 107.522C362.117 107.314 362.309 107.21 362.533 107.21C362.757 107.21 363.029 107.314 363.349 107.522C364.773 108.578 366.397 109.106 368.221 109.106C369.501 109.106 370.485 108.866 371.173 108.386C371.861 107.906 372.205 107.218 372.205 106.322C372.205 105.618 371.885 105.09 371.245 104.738C370.605 104.386 369.581 104.05 368.173 103.73C366.829 103.442 365.725 103.114 364.861 102.746C363.997 102.378 363.317 101.882 362.821 101.258C362.341 100.618 362.101 99.8099 362.101 98.8339C362.101 97.8579 362.365 96.9939 362.893 96.2419C363.437 95.4739 364.189 94.8819 365.149 94.4659C366.109 94.0339 367.205 93.8179 368.437 93.8179C369.573 93.8179 370.621 93.9779 371.581 94.2979C372.541 94.6179 373.357 95.0899 374.029 95.7139C374.349 95.9859 374.509 96.3139 374.509 96.6979C374.509 96.9699 374.421 97.2099 374.245 97.4179C374.085 97.6259 373.893 97.7299 373.669 97.7299C373.461 97.7299 373.197 97.6259 372.877 97.4179C372.141 96.8579 371.445 96.4579 370.789 96.2179C370.149 95.9619 369.373 95.8339 368.461 95.8339C367.229 95.8339 366.269 96.0899 365.581 96.6019C364.893 97.0979 364.549 97.7939 364.549 98.6899C364.549 99.4579 364.853 100.042 365.461 100.442C366.069 100.826 367.045 101.178 368.389 101.498C369.797 101.818 370.933 102.154 371.797 102.506C372.677 102.842 373.373 103.314 373.885 103.922C374.413 104.514 374.677 105.282 374.677 106.226C374.677 107.186 374.405 108.042 373.861 108.794C373.333 109.53 372.581 110.106 371.605 110.522C370.645 110.922 369.533 111.122 368.269 111.122ZM386.252 111.05C385.884 111.05 385.58 110.938 385.34 110.714C385.116 110.474 385.004 110.17 385.004 109.802V96.0739H380.204C379.436 96.0739 379.052 95.7299 379.052 95.0419C379.052 94.7059 379.148 94.4499 379.34 94.2739C379.548 94.0979 379.836 94.0099 380.204 94.0099H392.3C392.668 94.0099 392.948 94.0979 393.14 94.2739C393.348 94.4499 393.452 94.7059 393.452 95.0419C393.452 95.7299 393.068 96.0739 392.3 96.0739H387.5V109.802C387.5 110.17 387.388 110.474 387.164 110.714C386.94 110.938 386.636 111.05 386.252 111.05ZM412.303 109.394C412.447 109.602 412.519 109.826 412.519 110.066C412.519 110.354 412.399 110.602 412.159 110.81C411.935 111.002 411.671 111.098 411.367 111.098C410.919 111.098 410.559 110.898 410.287 110.498L407.071 105.506C406.703 104.93 406.311 104.53 405.895 104.306C405.479 104.066 404.935 103.946 404.263 103.946H401.551V109.802C401.551 110.186 401.439 110.49 401.215 110.714C401.007 110.938 400.711 111.05 400.327 111.05C399.959 111.05 399.663 110.938 399.439 110.714C399.215 110.49 399.103 110.186 399.103 109.802V95.2099C399.103 94.8419 399.207 94.5539 399.415 94.3459C399.639 94.1219 399.943 94.0099 400.327 94.0099H406.303C408.175 94.0099 409.599 94.4259 410.575 95.2579C411.567 96.0899 412.063 97.3059 412.063 98.9059C412.063 100.234 411.687 101.314 410.935 102.146C410.183 102.962 409.111 103.482 407.719 103.706C408.135 103.818 408.511 104.018 408.847 104.306C409.183 104.594 409.511 104.994 409.831 105.506L412.303 109.394ZM406.015 101.954C407.263 101.954 408.183 101.714 408.775 101.234C409.383 100.738 409.687 99.9779 409.687 98.9539C409.687 97.9299 409.391 97.1859 408.799 96.7219C408.207 96.2419 407.279 96.0019 406.015 96.0019H401.527V101.954H406.015ZM434.038 109.49C434.118 109.682 434.158 109.842 434.158 109.97C434.158 110.274 434.03 110.53 433.774 110.738C433.534 110.946 433.262 111.05 432.958 111.05C432.75 111.05 432.55 110.994 432.358 110.882C432.182 110.754 432.046 110.578 431.95 110.354L430.366 106.754H421.582L419.998 110.354C419.902 110.578 419.758 110.754 419.566 110.882C419.374 110.994 419.174 111.05 418.966 111.05C418.646 111.05 418.358 110.946 418.102 110.738C417.862 110.53 417.742 110.274 417.742 109.97C417.742 109.842 417.782 109.682 417.862 109.49L424.63 94.6819C424.742 94.4259 424.918 94.2259 425.158 94.0819C425.414 93.9379 425.678 93.8659 425.95 93.8659C426.222 93.8659 426.478 93.9379 426.718 94.0819C426.974 94.2259 427.158 94.4259 427.27 94.6819L434.038 109.49ZM429.502 104.786L425.974 96.8419L422.47 104.786H429.502ZM460.223 102.218C461.199 102.49 461.951 102.978 462.479 103.682C463.023 104.386 463.295 105.266 463.295 106.322C463.295 107.778 462.791 108.914 461.783 109.73C460.791 110.53 459.399 110.93 457.607 110.93H451.487C451.103 110.93 450.799 110.826 450.575 110.618C450.367 110.394 450.263 110.098 450.263 109.73V95.2099C450.263 94.8419 450.367 94.5539 450.575 94.3459C450.799 94.1219 451.103 94.0099 451.487 94.0099H457.343C459.087 94.0099 460.447 94.4019 461.423 95.1859C462.415 95.9539 462.911 97.0339 462.911 98.4259C462.911 99.3219 462.671 100.098 462.191 100.754C461.727 101.41 461.071 101.898 460.223 102.218ZM452.687 101.33H456.959C459.327 101.33 460.511 100.434 460.511 98.6419C460.511 97.7459 460.215 97.0819 459.623 96.6499C459.047 96.2179 458.159 96.0019 456.959 96.0019H452.687V101.33ZM457.343 108.938C458.575 108.938 459.479 108.714 460.055 108.266C460.631 107.818 460.919 107.122 460.919 106.178C460.919 105.218 460.623 104.506 460.031 104.042C459.455 103.562 458.559 103.322 457.343 103.322H452.687V108.938H457.343ZM477.4 111.122C475.8 111.122 474.408 110.77 473.224 110.066C472.056 109.362 471.152 108.362 470.512 107.066C469.872 105.77 469.552 104.242 469.552 102.482C469.552 100.706 469.864 99.1699 470.488 97.8739C471.128 96.5619 472.04 95.5619 473.224 94.8739C474.408 94.1699 475.8 93.8179 477.4 93.8179C479.016 93.8179 480.416 94.1699 481.6 94.8739C482.784 95.5619 483.688 96.5619 484.312 97.8739C484.952 99.1699 485.272 100.698 485.272 102.458C485.272 104.218 484.952 105.754 484.312 107.066C483.688 108.362 482.784 109.362 481.6 110.066C480.416 110.77 479.016 111.122 477.4 111.122ZM477.4 109.106C479.096 109.106 480.416 108.53 481.36 107.378C482.304 106.226 482.776 104.586 482.776 102.458C482.776 100.33 482.304 98.6979 481.36 97.5619C480.432 96.4099 479.112 95.8339 477.4 95.8339C475.72 95.8339 474.408 96.4099 473.464 97.5619C472.536 98.6979 472.072 100.33 472.072 102.458C472.072 104.586 472.536 106.226 473.464 107.378C474.408 108.53 475.72 109.106 477.4 109.106ZM493.468 110.93C493.084 110.93 492.78 110.826 492.556 110.618C492.348 110.394 492.244 110.098 492.244 109.73V95.2099C492.244 94.8419 492.348 94.5539 492.556 94.3459C492.78 94.1219 493.084 94.0099 493.468 94.0099H498.172C500.908 94.0099 503.028 94.7459 504.532 96.2179C506.036 97.6899 506.788 99.7699 506.788 102.458C506.788 105.146 506.036 107.234 504.532 108.722C503.028 110.194 500.908 110.93 498.172 110.93H493.468ZM498.028 108.866C502.188 108.866 504.268 106.73 504.268 102.458C504.268 98.2019 502.188 96.0739 498.028 96.0739H494.716V108.866H498.028ZM528.28 109.49C528.36 109.682 528.4 109.842 528.4 109.97C528.4 110.274 528.272 110.53 528.016 110.738C527.776 110.946 527.504 111.05 527.2 111.05C526.992 111.05 526.792 110.994 526.6 110.882C526.424 110.754 526.288 110.578 526.192 110.354L524.608 106.754H515.824L514.24 110.354C514.144 110.578 514 110.754 513.808 110.882C513.616 110.994 513.416 111.05 513.208 111.05C512.888 111.05 512.6 110.946 512.344 110.738C512.104 110.53 511.984 110.274 511.984 109.97C511.984 109.842 512.024 109.682 512.104 109.49L518.872 94.6819C518.984 94.4259 519.16 94.2259 519.4 94.0819C519.656 93.9379 519.92 93.8659 520.192 93.8659C520.464 93.8659 520.72 93.9379 520.96 94.0819C521.216 94.2259 521.4 94.4259 521.512 94.6819L528.28 109.49ZM523.744 104.786L520.216 96.8419L516.712 104.786H523.744Z" fill="#FBF8F3"/>
<path d="M212.624 104.235H270.85" stroke="#FBF8F3" stroke-width="2"/>
<path d="M203.405 97.7659L204.313 97.347C204.193 97.0872 203.968 96.8911 203.694 96.8085C203.42 96.7258 203.124 96.7645 202.88 96.9147L203.405 97.7659ZM212.938 104.235L213.091 105.223C213.579 105.147 213.938 104.728 213.938 104.235C213.938 103.742 213.579 103.322 213.091 103.247L212.938 104.235ZM203.373 111.172L202.845 112.022C203.092 112.175 203.392 112.213 203.669 112.128C203.946 112.042 204.172 111.84 204.289 111.575L203.373 111.172ZM195.021 104.309L194.34 103.577C193.937 103.952 193.913 104.583 194.286 104.987L195.021 104.309ZM202.497 98.1847C204.749 103.065 210.134 104.812 212.785 105.223L213.091 103.247C210.651 102.868 206.135 101.296 204.313 97.347L202.497 98.1847ZM212.785 103.247C211.381 103.465 209.368 104.096 207.431 105.279C205.489 106.465 203.569 108.241 202.458 110.77L204.289 111.575C205.193 109.517 206.777 108.022 208.473 106.986C210.175 105.946 211.937 105.402 213.091 105.223L212.785 103.247ZM203.901 110.323C200.834 108.417 198.191 106.27 195.756 103.631L194.286 104.987C196.851 107.767 199.636 110.027 202.845 112.022L203.901 110.323ZM195.702 105.041C198.64 102.308 201.092 100.367 203.93 98.617L202.88 96.9147C199.902 98.7513 197.345 100.781 194.34 103.577L195.702 105.041Z" fill="#FBF8F3"/>
<path d="M616.881 102.668H558.655" stroke="#FBF8F3" stroke-width="2"/>
<path d="M626.1 96.199L625.192 95.7801C625.312 95.5203 625.537 95.3242 625.811 95.2416C626.085 95.1589 626.382 95.1976 626.625 95.3478L626.1 96.199ZM616.567 102.668L616.414 103.656C615.927 103.581 615.567 103.161 615.567 102.668C615.567 102.175 615.927 101.755 616.414 101.68L616.567 102.668ZM626.132 109.605L626.66 110.455C626.414 110.608 626.113 110.646 625.836 110.561C625.56 110.475 625.333 110.273 625.217 110.008L626.132 109.605ZM634.485 102.742L635.166 102.01C635.569 102.385 635.593 103.016 635.219 103.42L634.485 102.742ZM627.008 96.6179C624.757 101.498 619.371 103.245 616.721 103.656L616.414 101.68C618.855 101.301 623.37 99.7293 625.192 95.7801L627.008 96.6179ZM616.721 101.68C618.125 101.898 620.138 102.529 622.075 103.712C624.017 104.899 625.936 106.674 627.048 109.203L625.217 110.008C624.312 107.95 622.729 106.455 621.032 105.419C619.33 104.379 617.569 103.835 616.414 103.656L616.721 101.68ZM625.604 108.756C628.671 106.851 631.314 104.703 633.75 102.064L635.219 103.42C632.654 106.2 629.869 108.461 626.66 110.455L625.604 108.756ZM633.803 103.474C630.866 100.741 628.413 98.8002 625.575 97.0501L626.625 95.3478C629.603 97.1844 632.16 99.2139 635.166 102.01L633.803 103.474Z" fill="#FBF8F3"/>
</g>
<defs>
<filter id="filter0_d_141_408" x="130.57" y="0.896729" width="555.278" height="125.276" filterUnits="userSpaceOnUse" color-interpolation-filters="sRGB">
<feFlood flood-opacity="0" result="BackgroundImageFix"/>
<feColorMatrix in="SourceAlpha" type="matrix" values="0 0 0 0 0 0 0 0 0 0 0 0 0 0 0 0 0 0 127 0" result="hardAlpha"/>
<feOffset dy="4"/>
<feGaussianBlur stdDeviation="5"/>
<feComposite in2="hardAlpha" operator="out"/>
<feColorMatrix type="matrix" values="0 0 0 0 0.275 0 0 0 0 0.245536 0 0 0 0 0.223438 0 0 0 0.6 0"/>
<feBlend mode="normal" in2="BackgroundImageFix" result="effect1_dropShadow_141_408"/>
<feBlend mode="normal" in="SourceGraphic" in2="effect1_dropShadow_141_408" result="shape"/>
</filter>
</defs>
</svg>
