<svg width="54" height="53" viewBox="0 0 54 53" fill="none" xmlns="http://www.w3.org/2000/svg">
<path d="M53.5636 21.6922C53.3952 22.7205 53.2937 23.7617 53.0494 24.7694C51.3913 31.5576 47.3127 36.3122 40.9025 39.0617C40.4128 39.2725 40.1737 39.5604 39.9693 40.0283C37.0026 46.7946 31.9369 51.0543 24.6334 52.3166C14.8863 54.0004 5.76 48.6905 2.20204 39.4846C-0.817333 31.6681 1.57992 22.3645 7.98629 16.9684C9.72576 15.4927 11.6908 14.3057 13.8065 13.4529C14.0584 13.3383 14.2609 13.1372 14.3772 12.886C16.8118 7.00408 21.0214 2.99624 27.0627 0.99232C28.4625 0.528295 29.9677 0.380475 31.4228 0.0925479C31.5719 0.062984 31.7184 0.0308493 31.8662 0H34.6427C35.3355 0.10026 36.0296 0.188952 36.7199 0.300781C44.6751 1.57717 51.3514 7.90128 53.0443 15.7897C53.2667 16.818 53.3901 17.8759 53.5584 18.9209L53.5636 21.6922ZM38.585 39.9357C37.4847 40.1093 36.4589 40.2866 35.4293 40.428C35.2635 40.4394 35.1029 40.4914 34.9619 40.5795C34.8209 40.6676 34.7038 40.7891 34.6208 40.9332C31.0487 46.5002 24.4277 49.3075 18.0277 47.9861C14.0562 47.1741 10.5426 44.8809 8.20059 41.5723C5.85857 38.2636 4.86371 34.1875 5.41809 30.1719C6.59293 21.4608 14.7641 15.3064 23.4714 16.5764C31.9408 17.8091 37.9333 25.5085 37.0335 33.9998C37.0206 34.1283 37.0335 34.2569 37.0335 34.4934C38.0014 34.1001 38.8832 33.735 39.7714 33.3841C40.067 33.2671 40.1698 33.0808 40.1711 32.7607C40.1821 31.0635 39.9852 29.3713 39.585 27.722C36.8523 16.4658 24.2465 10.2548 13.6497 14.9491C5.71629 18.4633 1.11461 26.5523 2.47326 35.1194C3.71366 42.9397 8.27165 48.2509 15.8413 50.4978C23.2606 52.7022 29.8122 50.7356 35.2044 45.1415C36.6492 43.6389 37.7456 41.8831 38.585 39.9357ZM17.4557 18.142C16.4776 18.5417 15.5816 18.9132 14.678 19.2731C14.3927 19.3862 14.2924 19.5713 14.3143 19.8657C14.376 20.8053 14.3734 21.7513 14.4852 22.6832C15.7629 33.3044 25.8043 40.7712 36.3908 38.9858C47.3166 37.1426 54.3592 26.4314 51.6869 15.7113C49.8527 8.34988 43.6841 2.66075 36.3162 1.54632C28.5782 0.380475 21.1127 3.80603 17.0894 10.3962C16.6421 11.1276 16.2732 11.9078 15.8452 12.7099C17.0174 12.5261 18.0766 12.3474 19.1396 12.1958C19.2807 12.183 19.4165 12.1357 19.5351 12.0582C19.6536 11.9806 19.7513 11.8752 19.8196 11.751C21.5185 9.07143 23.9786 6.95987 26.8847 5.68667C29.7908 4.41348 33.0108 4.03659 36.1324 4.60426C44.8859 6.16472 50.7267 14.7961 48.9028 23.466C46.7022 33.9291 35.2314 39.365 25.7941 34.3224C20.9571 31.7439 18.1666 27.6037 17.4789 22.1421C17.3208 20.8824 17.4557 19.5842 17.4557 18.142ZM21.2566 12.0634C26.8198 12.1675 31.6182 14.0994 35.5347 18.0263C39.4513 21.9531 41.3653 26.7541 41.4964 32.3095C45.679 29.6231 48.7729 23.9763 47.6855 17.7396C46.5981 11.5029 41.5375 6.64032 35.2057 5.77911C29.1476 4.95774 23.695 8.16607 21.2566 12.0634V12.0634ZM33.2107 40.5758C27.6514 40.4666 22.8544 38.5334 18.9429 34.6052C15.0315 30.6771 13.1163 25.8813 12.9787 20.3258C8.6187 23.1537 5.55562 29.0164 6.88728 35.3649C7.54651 38.4624 9.18945 41.2638 11.571 43.3511C13.9526 45.4385 16.9452 46.7 20.1024 46.9475C25.5845 47.373 30.8456 44.432 33.2082 40.5758H33.2107ZM35.8676 32.2015C35.7802 31.4406 35.7185 30.5678 35.5746 29.7092C34.3136 22.1511 26.8082 16.7268 19.2283 17.8682C18.9339 17.9132 18.8324 18.0109 18.7977 18.3052C18.2308 23.0432 19.5612 27.1744 22.9109 30.5562C26.2954 33.9677 30.4497 35.3263 35.2288 34.7723C35.5463 34.735 35.6723 34.6322 35.689 34.3096C35.725 33.6437 35.7969 32.9805 35.8676 32.2015Z" fill="#FBC2B0"/>
</svg>
