<svg width="37" height="37" viewBox="0 0 37 37" fill="none" xmlns="http://www.w3.org/2000/svg">
<path d="M11.7489 0.324341C12.1857 0.74174 12.2156 0.928621 11.8928 1.4627C10.6142 3.54379 9.80546 5.87006 9.52138 8.28433C8.95025 13.2637 10.1978 17.7707 13.3714 21.7141C16.1429 25.152 19.7736 27.2779 24.1455 28.1193C27.8592 28.8593 31.7164 28.4238 35.1621 26.8757C35.3273 26.8036 35.4897 26.7267 35.6549 26.6537C35.9613 26.5171 36.256 26.5361 36.4792 26.7903C36.7025 27.0445 36.6657 27.3301 36.4908 27.5814C35.9873 28.3034 35.508 29.049 34.9446 29.7225C32.0861 33.1262 28.4497 35.3403 24.0691 36.2928C14.7852 38.3134 5.34279 33.6726 1.61164 24.7403C0.496449 22.0689 0.0113318 19.2762 0.258722 16.4084C0.869468 9.18838 4.49239 3.88457 10.9932 0.465687C11.0772 0.42205 11.1584 0.370824 11.2415 0.324341H11.7489ZM9.67213 2.67411C5.23746 5.3521 0.336999 11.6861 1.67252 20.3908C2.24447 24.005 3.93374 27.3595 6.51169 30.0002C9.08965 32.641 12.4318 34.4406 16.0859 35.1553C22.9694 36.5147 30.0017 33.8462 33.9444 28.7246C26.0202 30.9178 19.0276 29.3715 13.154 23.4985C7.70267 17.2309 6.74113 10.2509 9.67213 2.67411Z" fill="#FBC2B0"/>
</svg>
