<svg width="40" height="37" viewBox="0 0 40 37" fill="none" xmlns="http://www.w3.org/2000/svg">
<path d="M9.15527e-05 29.8941C0.232685 29.7599 0.449977 29.5556 0.699913 29.5056C1.28854 29.3884 1.65477 29.105 1.72006 28.5041C1.73845 28.4057 1.77001 28.3101 1.81391 28.2197C2.00468 27.7451 2.57801 27.6189 2.81978 28.0545C3.22784 28.7825 3.7624 29.0499 4.59994 28.9478C4.70955 28.9351 4.82047 28.9558 4.91765 29.0072C5.01484 29.0585 5.09356 29.138 5.14314 29.2348C5.19272 29.3316 5.21075 29.441 5.19479 29.5482C5.17882 29.6554 5.12964 29.7552 5.05391 29.834C4.47344 30.4349 4.38163 31.0237 4.73664 31.7728C4.78112 31.871 4.79386 31.9803 4.77314 32.0858C4.75242 32.1914 4.69923 32.2882 4.62075 32.3631C4.54227 32.4381 4.44226 32.4877 4.3342 32.5051C4.22614 32.5226 4.11523 32.5071 4.01641 32.4608C3.27477 32.1183 2.66574 32.1603 2.07813 32.7482C1.96184 32.8633 1.62009 32.8824 1.46604 32.7992C1.312 32.7161 1.14164 32.4337 1.16714 32.2655C1.28242 31.4944 1.04676 30.9436 0.306136 30.6151C0.188819 30.5631 0.102106 30.4369 9.15527e-05 30.3458L9.15527e-05 29.8941ZM2.00978 30.3498C2.12302 30.5771 2.25156 30.8375 2.36479 31.0678L3.19724 30.9436C3.23498 30.6832 3.27579 30.3998 3.31251 30.1425L2.57188 29.7509L2.00978 30.3498Z" fill="#FBC2B0"/>
<path d="M16.6091 17.3664C15.6779 17.7279 14.8101 18.2304 14.0373 18.8555C12.4387 20.1253 11.3329 21.7656 10.4117 23.5422C10.3311 23.6984 10.2587 23.8586 10.1709 24.0108C9.98426 24.3383 9.7129 24.4274 9.40686 24.2712C9.10081 24.115 8.99268 23.8356 9.15182 23.5101C10.5341 20.6791 12.3337 18.2086 15.2727 16.7315C15.3125 16.7104 15.3482 16.6804 15.3686 16.5612C14.6392 16.6023 13.9067 16.6073 13.1824 16.6904C10.1332 17.0389 7.38799 18.1034 5.06001 20.1093C3.48694 21.4662 2.29133 23.1045 1.36707 24.9422C1.32219 25.0313 1.2773 25.1214 1.23139 25.2105C1.02736 25.6031 0.768246 25.7113 0.437718 25.553C0.10719 25.3948 0.019457 25.1024 0.204104 24.7299C1.12734 22.8111 2.32703 21.0837 3.9052 19.6226C6.37192 17.3393 9.32219 16.0575 12.6601 15.6269C13.7262 15.4897 14.8024 15.4687 15.8858 15.3936C15.8491 15.3608 15.8095 15.3313 15.7675 15.3054C13.7996 14.2239 11.7277 13.4348 9.44869 13.3677C8.51525 13.3396 7.57365 13.4778 6.64124 13.582C6.09954 13.6431 5.78737 13.4618 5.81084 13.0022C5.8292 12.6597 6.06281 12.5395 6.35866 12.4734C7.95713 12.1278 9.61122 12.1111 11.2166 12.4243C13.1549 12.7839 14.9422 13.5199 16.6356 14.4933C16.7493 14.567 16.882 14.6073 17.0182 14.6095C16.8539 14.28 16.6999 13.9435 16.5244 13.62C15.2003 11.1986 13.466 9.1597 10.9697 7.83081C9.91178 7.27672 8.76993 6.89328 7.58793 6.69519C7.09826 6.60806 6.89934 6.38675 6.96769 6.01722C7.03604 5.6477 7.3227 5.50449 7.79503 5.58961C11.5941 6.27359 14.4148 8.36757 16.5336 11.456C16.9529 12.0668 17.2987 12.7248 17.6782 13.3587C17.7262 13.4388 17.7802 13.5179 17.8363 13.613C17.9894 12.7728 18.1189 11.9637 18.2913 11.1635C18.3565 10.8576 18.4797 10.5665 18.6545 10.3053C18.7565 10.1501 19.0411 9.97486 19.187 10.0139C19.3727 10.063 19.5481 10.2983 19.6389 10.4936C19.7012 10.6278 19.6247 10.8321 19.5859 11.0003C19.4002 11.8155 19.2064 12.6286 19.0156 13.4428L19.1176 13.4889C19.1982 13.3757 19.2788 13.2635 19.3574 13.1504C21.567 9.95483 24.4173 7.55141 28.1827 6.2836C29.8161 5.74456 31.5256 5.46071 33.2487 5.44241C33.6792 5.43439 33.9129 5.63067 33.9241 5.98718C33.9353 6.34369 33.72 6.55399 33.2855 6.563C31.0921 6.61207 28.9855 7.03467 26.9993 7.965C23.8216 9.45311 21.4783 11.8075 19.7297 14.8087C19.844 14.7587 19.9593 14.7086 20.0715 14.6585C21.4232 14.0276 22.8075 13.5009 24.3122 13.3477C24.7662 13.3016 24.9968 13.4478 25.0396 13.8073C25.0845 14.1828 24.8937 14.4082 24.4357 14.4602C22.9697 14.6275 21.6313 15.1612 20.3224 15.7941C20.2636 15.8235 20.207 15.857 20.1531 15.8943C21.1906 16.2888 22.2689 16.6263 23.2829 17.096C26.4699 18.5781 28.9519 20.8804 30.9912 23.6694C32.5836 25.8475 33.7955 28.2228 34.7749 30.7174C34.9422 31.144 34.8494 31.4184 34.5015 31.5586C34.1536 31.6988 33.8731 31.5586 33.6966 31.1039C32.6193 28.369 31.2564 25.7743 29.3916 23.4621C27.2054 20.7492 24.5591 18.6322 21.1967 17.4685C20.6611 17.2843 20.1062 17.1541 19.4839 16.9758C19.5105 17.0714 19.5446 17.1648 19.5859 17.2552C21.2569 20.0792 22.2158 23.1506 22.8718 26.3281C23.0167 27.0291 23.1421 27.7301 23.2635 28.4311C23.3523 28.9439 23.2013 29.2022 22.8116 29.2613C22.4219 29.3204 22.2362 29.0971 22.122 28.5884C21.6945 26.6987 21.3059 24.797 20.7958 22.9283C20.2772 21.0289 19.4785 19.2142 18.425 17.5416C18.3709 17.4575 18.3148 17.3734 18.2566 17.2923C18.2434 17.2742 18.2138 17.2682 18.1689 17.2452C17.567 17.9602 17.1233 18.7694 16.7407 19.6156C15.8358 21.6284 15.3431 23.7625 14.9963 25.9246C14.4719 29.2233 14.3015 32.544 14.3699 35.8787C14.3699 35.9538 14.376 36.0289 14.3699 36.1041C14.3423 36.4525 14.1138 36.6628 13.7751 36.6548C13.4517 36.6468 13.2334 36.4475 13.2304 36.102C13.2232 34.9003 13.2008 33.6986 13.2385 32.4969C13.3314 29.5547 13.6027 26.6286 14.2322 23.7445C14.7086 21.5604 15.3615 19.4383 16.5622 17.5106C16.5825 17.4641 16.5982 17.4158 16.6091 17.3664Z" fill="#FBC2B0"/>
<path d="M13.6007 5.20204C13.7915 4.64324 13.464 4.2617 12.9081 3.9833C12.7206 3.90159 12.5525 3.78258 12.4143 3.6338C12.2756 3.46456 12.1083 3.22122 12.1368 3.04296C12.1654 2.86471 12.4051 2.66342 12.6 2.5753C12.9427 2.41907 13.3324 2.36199 13.6834 2.21879C13.8442 2.14448 13.9724 2.01579 14.0445 1.85627C14.1894 1.49776 14.2485 1.1042 14.4077 0.754705C14.4862 0.574449 14.6903 0.364149 14.8698 0.329099C15.0493 0.29405 15.2626 0.4703 15.4574 0.563433C15.4995 0.59273 15.531 0.63449 15.5472 0.682603C15.9644 1.61393 16.6948 1.91736 17.6895 1.7321C17.9843 1.67702 18.2536 1.76214 18.3965 2.05456C18.5311 2.33095 18.4097 2.55527 18.2393 2.77959C17.9721 3.12808 17.564 3.46456 17.5028 3.85011C17.4416 4.23566 17.7272 4.67428 17.8762 5.08487C17.9782 5.35826 18.0323 5.61863 17.7956 5.84996C17.5589 6.08129 17.2722 6.06326 17.0162 5.92507C16.1327 5.44738 15.3697 5.56355 14.6882 6.2986C14.4923 6.5089 14.2312 6.62406 13.9282 6.47885C13.6252 6.33365 13.5895 6.06827 13.6028 5.77786C13.6069 5.62063 13.6007 5.4574 13.6007 5.20204ZM13.9874 3.29933C14.2608 3.54267 14.5434 3.6999 14.6668 3.93323C14.7902 4.16656 14.7606 4.49102 14.7963 4.76241C15.0687 4.6162 15.3064 4.4069 15.5757 4.36184C15.8451 4.31678 16.1317 4.45097 16.4939 4.52207C16.0807 3.90719 16.2144 3.38445 16.7193 2.91077C16.3521 2.87372 16.0307 2.91678 15.792 2.79661C15.5533 2.67644 15.384 2.39604 15.1116 2.09561C15.1157 2.90076 14.6647 3.20619 13.9874 3.30033V3.29933Z" fill="#FBC2B0"/>
<path d="M25.3395 33.5765C25.3935 33.239 25.4701 32.8945 25.4935 32.547C25.4985 32.3864 25.4454 32.2293 25.3436 32.1034C25.1395 31.8661 24.8814 31.6738 24.6631 31.4465C24.3122 31.081 24.4652 30.5883 24.962 30.4711C25.1706 30.4137 25.3852 30.3801 25.6017 30.3709C26.0526 30.3709 26.33 30.1787 26.4657 29.7511C26.541 29.5398 26.6417 29.3381 26.7656 29.1502C26.8137 29.0611 26.8856 28.9866 26.9736 28.9347C27.0616 28.8827 27.1623 28.8552 27.265 28.8552C27.3677 28.8552 27.4684 28.8827 27.5564 28.9347C27.6444 28.9866 27.7163 29.0611 27.7644 29.1502C27.9388 29.4396 28.0643 29.7581 28.2418 30.0465C28.3198 30.1616 28.4376 30.2451 28.5733 30.2818C28.8794 30.3519 29.213 30.3449 29.5129 30.436C29.7088 30.4961 29.9679 30.6433 30.0169 30.8056C30.0719 30.9868 29.9658 31.2542 29.8506 31.4365C29.705 31.6424 29.5242 31.822 29.316 31.9672C29.0549 32.1675 29.0181 32.3968 29.0936 32.6902C29.16 32.9445 29.2068 33.2032 29.2334 33.4644C29.2823 33.9741 28.8182 34.3386 28.4071 34.0532C27.6226 33.5064 26.937 33.5585 26.177 34.0852C25.822 34.3236 25.3466 34.0011 25.3395 33.5765ZM27.2839 30.8606L26.4484 31.4525C26.5504 31.7649 26.6708 32.1184 26.7738 32.4259H27.8796C27.8185 32.2608 27.8131 32.0808 27.8644 31.9125C27.9157 31.7442 28.0208 31.5966 28.1643 31.4915L27.2839 30.8606Z" fill="#FBC2B0"/>
<path d="M34.5832 8.65304C35.4717 9.05361 36.0114 8.68008 36.4817 8.01814C36.5837 7.87894 36.8989 7.7838 37.0734 7.82887C37.2478 7.87393 37.4753 8.11227 37.4876 8.27951C37.5467 9.09066 37.9425 9.55933 38.7474 9.76262C38.9209 9.80668 39.1229 10.0881 39.1412 10.2764C39.1351 10.383 39.1023 10.4864 39.0457 10.5776C38.9892 10.6688 38.9105 10.7449 38.8168 10.7991C38.0374 11.0995 37.7242 11.6253 37.7793 12.4354C37.7905 12.6017 37.5886 12.858 37.4192 12.9361C37.2682 13.0052 36.9377 12.9592 36.8387 12.836C36.2797 12.165 35.6431 12.0579 34.8321 12.3593C34.3945 12.5225 33.9578 12.0088 34.1945 11.6113C34.6271 10.8822 34.6485 10.2453 34.066 9.58837C33.964 9.47221 33.9762 9.15776 34.066 9.00654C34.1558 8.85533 34.4016 8.7692 34.5832 8.65304ZM35.8186 10.9062L36.6827 11.1165L37.1581 10.3985L36.5929 9.72256L35.7523 10.056C35.7717 10.3134 35.7951 10.6138 35.8176 10.9062H35.8186Z" fill="#FBC2B0"/>
<path d="M28.4481 13.0783C31.6565 13.2705 34.5558 14.3421 37.2163 16.0755C37.757 16.427 38.2742 16.8156 38.7924 17.2001C39.2137 17.5126 39.2801 17.806 39.0271 18.1104C38.7741 18.4149 38.4925 18.4008 38.0967 18.0924C36.0982 16.5372 33.9141 15.3164 31.431 14.7046C30.4354 14.4592 29.405 14.3471 28.3849 14.2119C27.8554 14.1418 27.6136 13.9976 27.6238 13.621C27.6351 13.2285 27.8993 13.0542 28.4481 13.0783Z" fill="#FBC2B0"/>
<path d="M20.6226 7.72459C20.0319 7.72459 19.7545 7.25693 20.0034 6.85335C20.5236 6.01316 21.0235 5.15093 21.654 4.38784C22.2334 3.68684 22.9567 3.096 23.6422 2.48513C23.9972 2.16868 24.3492 2.20473 24.5706 2.50316C24.7797 2.78556 24.7052 3.10401 24.3421 3.36839C22.9424 4.40186 21.9059 5.72775 21.0776 7.23089C20.9603 7.4492 20.7318 7.60943 20.6226 7.72459Z" fill="#FBC2B0"/>
<path d="M4.22262 14.2659C4.16753 14.335 4.0849 14.5202 3.94004 14.6054C2.89522 15.231 1.94068 15.9916 1.10199 16.8666C0.848992 17.1259 0.512343 17.1239 0.28587 16.9036C0.229236 16.8523 0.183837 16.7903 0.152442 16.7212C0.121046 16.6522 0.104313 16.5775 0.103263 16.5019C0.102213 16.4263 0.116868 16.3513 0.146334 16.2814C0.1758 16.2115 0.219459 16.1482 0.274649 16.0955C1.16624 15.1312 2.20403 14.3077 3.35141 13.654C3.78702 13.4117 4.23384 13.678 4.22262 14.2659Z" fill="#FBC2B0"/>
<path d="M7.77073 29.9654C7.68732 29.9648 7.60507 29.946 7.52999 29.9104C7.4549 29.8747 7.38887 29.823 7.33668 29.7591C7.2845 29.6953 7.24749 29.6208 7.22834 29.5411C7.20918 29.4614 7.20838 29.3785 7.22597 29.2984C7.38512 28.5794 7.56466 27.8657 7.76461 27.1574C7.78144 27.0832 7.81387 27.0133 7.85982 26.9521C7.90577 26.8909 7.96423 26.8398 8.03146 26.8021C8.09868 26.7644 8.17319 26.7409 8.25021 26.7331C8.32723 26.7253 8.40506 26.7334 8.47871 26.7568C8.79292 26.8489 8.94186 27.1574 8.85005 27.5119C8.67968 28.1688 8.51646 28.8177 8.35018 29.4707C8.26346 29.7921 8.05943 29.9714 7.77073 29.9654Z" fill="#FBC2B0"/>
<path d="M37.255 25.8655C37.2585 25.9375 37.2475 26.0095 37.2224 26.0772C37.1974 26.145 37.1589 26.2072 37.1091 26.2602C37.0594 26.3132 36.9994 26.356 36.9327 26.3861C36.8659 26.4161 36.7938 26.4329 36.7204 26.4353C36.647 26.4397 36.5734 26.4292 36.5043 26.4045C36.4352 26.3799 36.3719 26.3415 36.3186 26.2918C36.2652 26.2421 36.2228 26.1822 36.194 26.1158C36.1652 26.0493 36.1506 25.9778 36.1512 25.9056C36.1434 25.8306 36.1519 25.7548 36.1759 25.6833C36.2 25.6117 36.2391 25.5459 36.2908 25.4902C36.3425 25.4344 36.4055 25.39 36.4759 25.3598C36.5462 25.3295 36.6222 25.3142 36.699 25.3147C36.7725 25.3146 36.8452 25.3288 36.9131 25.3565C36.9809 25.3841 37.0425 25.4248 37.0942 25.476C37.146 25.5273 37.1868 25.5881 37.2144 25.6549C37.242 25.7218 37.2558 25.7934 37.255 25.8655Z" fill="#FBC2B0"/>
<path d="M3.41267 8.75705C3.41268 8.68507 3.42812 8.6139 3.458 8.54817C3.48787 8.48244 3.53151 8.42362 3.58607 8.37554C3.64063 8.32746 3.7049 8.29119 3.77468 8.2691C3.84446 8.24701 3.9182 8.23959 3.9911 8.24732C4.06427 8.24922 4.13627 8.26582 4.20265 8.29611C4.26903 8.32639 4.32839 8.36971 4.37705 8.42338C4.42571 8.47706 4.46264 8.53997 4.48557 8.6082C4.5085 8.67644 4.51693 8.74857 4.51035 8.82014C4.51071 8.89403 4.49564 8.96721 4.46606 9.03516C4.43649 9.10311 4.39304 9.16439 4.3384 9.21522C4.28376 9.26604 4.2191 9.30534 4.14839 9.33068C4.07768 9.35602 4.00243 9.36686 3.92728 9.36254C3.85214 9.35822 3.77869 9.33883 3.71148 9.30557C3.64426 9.2723 3.5847 9.22586 3.53648 9.16912C3.48826 9.11239 3.4524 9.04655 3.4311 8.97567C3.40981 8.9048 3.40354 8.83039 3.41267 8.75705Z" fill="#FBC2B0"/>
<path d="M29.2323 3.5336C29.2361 3.60553 29.2243 3.67743 29.1977 3.74456C29.1712 3.8117 29.1304 3.87257 29.0782 3.92317C29.026 3.97376 28.9635 4.01294 28.8948 4.03814C28.826 4.06334 28.7526 4.07398 28.6794 4.06937C28.3397 4.06937 28.1265 3.83403 28.1438 3.48353C28.1436 3.41158 28.1583 3.34034 28.1872 3.2742C28.216 3.20807 28.2584 3.14843 28.3116 3.09898C28.3649 3.04953 28.4279 3.01132 28.4967 2.98669C28.5656 2.96206 28.6389 2.95154 28.7121 2.95578C28.7854 2.95878 28.8573 2.97628 28.9235 3.00724C28.9898 3.03819 29.049 3.08196 29.0976 3.13592C29.1461 3.18989 29.1831 3.25293 29.2063 3.32126C29.2294 3.3896 29.2383 3.46182 29.2323 3.5336Z" fill="#FBC2B0"/>
<path d="M18.6239 29.027C18.6973 29.0276 18.7697 29.043 18.8369 29.0721C18.904 29.1012 18.9643 29.1434 19.0143 29.1961C19.0642 29.2489 19.1027 29.3111 19.1273 29.379C19.1519 29.4468 19.1622 29.5189 19.1574 29.5908C19.1622 29.6625 19.1516 29.7345 19.1262 29.802C19.1009 29.8695 19.0615 29.9311 19.0104 29.9827C18.9594 30.0343 18.8979 30.0748 18.8299 30.1017C18.7619 30.1285 18.689 30.1411 18.6157 30.1385C18.5392 30.1418 18.4629 30.1288 18.3919 30.1006C18.3209 30.0724 18.2568 30.0295 18.2041 29.975C18.1514 29.9204 18.1113 29.8553 18.0864 29.7842C18.0615 29.7131 18.0524 29.6376 18.0598 29.5627C18.0593 29.4907 18.0737 29.4193 18.1021 29.3529C18.1305 29.2865 18.1724 29.2265 18.2251 29.1764C18.2778 29.1263 18.3404 29.0873 18.4089 29.0616C18.4775 29.0359 18.5506 29.0241 18.6239 29.027Z" fill="#FBC2B0"/>
<path d="M34.3843 18.3359C34.3897 18.4078 34.3803 18.48 34.3568 18.5483C34.3332 18.6166 34.2959 18.6795 34.2471 18.7334C34.1983 18.7873 34.139 18.831 34.0726 18.862C34.0063 18.8929 33.9343 18.9105 33.8609 18.9137C33.7844 18.9165 33.708 18.9038 33.6367 18.8762C33.5654 18.8486 33.5006 18.8068 33.4466 18.7535C33.3925 18.7001 33.3503 18.6364 33.3226 18.5662C33.2949 18.4961 33.2823 18.421 33.2856 18.3459C33.2824 18.2739 33.2942 18.2021 33.3204 18.1348C33.3465 18.0676 33.3865 18.0063 33.4377 17.9548C33.489 17.9032 33.5504 17.8626 33.6183 17.8353C33.6862 17.808 33.759 17.7947 33.8324 17.7961C33.9058 17.7919 33.9793 17.803 34.0481 17.8286C34.1168 17.8542 34.1793 17.8938 34.2314 17.9447C34.2835 17.9957 34.324 18.0569 34.3504 18.1243C34.3767 18.1917 34.3883 18.2638 34.3843 18.3359Z" fill="#FBC2B0"/>
<path d="M7.76743 35.2608C7.69462 35.2594 7.62287 35.2434 7.55654 35.2139C7.49022 35.1843 7.43072 35.1418 7.38166 35.089C7.3326 35.0362 7.29502 34.9741 7.27119 34.9065C7.24737 34.8389 7.2378 34.7673 7.24308 34.696C7.23906 34.6242 7.25035 34.5523 7.27622 34.4849C7.30208 34.4176 7.34197 34.3563 7.39333 34.3049C7.44468 34.2536 7.50638 34.2133 7.57448 34.1867C7.64258 34.16 7.7156 34.1476 7.78886 34.1502C7.93489 34.158 8.07218 34.221 8.17198 34.326C8.27178 34.4309 8.32633 34.5697 8.32422 34.7132C8.32211 34.8568 8.2635 34.994 8.16066 35.096C8.05782 35.1981 7.91874 35.2572 7.77254 35.2608H7.76743Z" fill="#FBC2B0"/>
</svg>
