<svg width="38" height="37" viewBox="0 0 38 37" fill="none" xmlns="http://www.w3.org/2000/svg">
<path d="M37.2632 14.8965C37.1454 15.6026 37.0744 16.3176 36.9035 17.0096C35.7435 21.6712 32.8904 24.9362 28.4061 26.8243C28.0635 26.9691 27.8962 27.1668 27.7533 27.4881C25.6779 32.1346 22.1342 35.0599 17.0249 35.9267C10.2063 37.083 3.82203 33.4366 1.33305 27.1147C-0.779163 21.7471 0.89784 15.3581 5.37944 11.6526C6.59629 10.6392 7.97097 9.82408 9.45101 9.2384C9.62724 9.15971 9.76889 9.02159 9.85025 8.84914C11.5533 4.80993 14.4982 2.05768 18.7244 0.681562C19.7037 0.36291 20.7566 0.2614 21.7745 0.0636761C21.8788 0.0433741 21.9813 0.0213067 22.0847 0.00012207H24.027C24.5117 0.0689722 24.9972 0.129878 25.4801 0.206673C31.0452 1.08319 35.7157 5.42605 36.8999 10.8431C37.0555 11.5493 37.1418 12.2758 37.2596 12.9934L37.2632 14.8965ZM26.7848 27.4246C26.0151 27.5437 25.2976 27.6655 24.5773 27.7626C24.4613 27.7704 24.349 27.8062 24.2503 27.8667C24.1517 27.9272 24.0697 28.0106 24.0117 28.1095C21.5128 31.9325 16.8811 33.8603 12.404 32.9529C9.62567 32.3953 7.16773 30.8205 5.52936 28.5484C3.89099 26.2763 3.19503 23.4772 3.58284 20.7196C4.40471 14.7376 10.1209 10.5112 16.2121 11.3834C22.1369 12.2299 26.3289 17.5172 25.6995 23.3483C25.6905 23.4365 25.6995 23.5248 25.6995 23.6872C26.3766 23.4171 26.9934 23.1664 27.6148 22.9255C27.8216 22.8451 27.8935 22.7171 27.8944 22.4974C27.9021 21.3319 27.7644 20.1698 27.4844 19.0372C25.5727 11.3074 16.7543 7.04226 9.3413 10.2659C3.79146 12.6791 0.572331 18.2339 1.52278 24.1171C2.39051 29.4874 5.57906 33.1347 10.8744 34.6777C16.0646 36.1915 20.6478 34.841 24.4199 30.9995C25.4306 29.9676 26.1977 28.7618 26.7848 27.4246ZM12.0038 12.4585C11.3195 12.733 10.6928 12.9881 10.0607 13.2352C9.86104 13.3129 9.7909 13.44 9.80619 13.6422C9.84935 14.2874 9.84755 14.9371 9.92578 15.577C10.8196 22.8707 17.8441 27.9983 25.2499 26.7722C32.8931 25.5065 37.8198 18.151 35.9504 10.7893C34.6672 5.73411 30.3519 1.8273 25.1978 1.062C19.7846 0.2614 14.562 2.61378 11.7476 7.13936C11.4346 7.64161 11.1766 8.1774 10.8771 8.72821C11.6972 8.60198 12.4381 8.47929 13.1818 8.37513C13.2805 8.36635 13.3755 8.33391 13.4584 8.28065C13.5414 8.2274 13.6097 8.15497 13.6575 8.06972C14.846 6.2296 16.5669 4.77956 18.5999 3.90524C20.6329 3.03092 22.8854 2.77211 25.0692 3.16193C31.1927 4.23353 35.2787 10.1608 34.0027 16.1146C32.4633 23.2997 24.4388 27.0326 17.8369 23.5698C14.4532 21.7991 12.5011 18.956 12.02 15.2054C11.9094 14.3404 12.0038 13.4489 12.0038 12.4585ZM14.6628 8.28421C18.5545 8.35571 21.9112 9.6824 24.651 12.379C27.3909 15.0757 28.7298 18.3725 28.8215 22.1875C31.7475 20.3427 33.9119 16.465 33.1512 12.1822C32.3904 7.89936 28.8503 4.56012 24.4208 3.96872C20.1829 3.40468 16.3685 5.60788 14.6628 8.28421ZM23.0253 27.8641C19.1363 27.7891 15.7805 26.4615 13.0442 23.764C10.3079 21.0665 8.96814 17.7732 8.87192 13.9582C5.82185 15.9001 3.67906 19.9261 4.61063 24.2857C5.07179 26.4128 6.22111 28.3365 7.88715 29.77C9.55319 31.2034 11.6467 32.0697 13.8553 32.2397C17.6904 32.5318 21.3708 30.5122 23.0235 27.8641H23.0253ZM24.8839 22.1134C24.8228 21.5908 24.7796 20.9915 24.6789 20.4018C23.7968 15.2116 18.5464 11.4866 13.2438 12.2705C13.0379 12.3014 12.9669 12.3684 12.9426 12.5706C12.546 15.8242 13.4767 18.6612 15.82 20.9835C18.1876 23.3262 21.0938 24.2592 24.437 23.8788C24.6591 23.8532 24.7473 23.7826 24.7589 23.561C24.7841 23.1038 24.8345 22.6483 24.8839 22.1134Z" fill="#FBC2B0"/>
</svg>
