<svg width="46" height="28" viewBox="0 0 46 28" fill="none" xmlns="http://www.w3.org/2000/svg">
<path d="M4.15805 22.5331C4.18385 13.0461 11.4272 5.24841 20.201 3.98476C20.0892 3.56516 19.9799 3.15037 19.8693 2.7368C19.4824 1.29229 20.2341 0.333707 21.7622 0.327678C22.7915 0.327678 23.8196 0.320444 24.8477 0.327678C26.1988 0.339736 26.9653 1.30555 26.6484 2.58969C26.5378 3.04065 26.4113 3.48799 26.3057 3.8871C36.2476 6.28175 41.5969 12.448 42.4162 22.5017C42.4973 22.5159 42.5794 22.524 42.6618 22.5258C43.3055 22.5258 43.9503 22.5258 44.5952 22.5258C45.3788 22.5258 45.5778 22.732 45.5299 23.5013C45.4071 25.5366 43.6322 27.3332 41.5686 27.5008C41.323 27.5201 41.0773 27.5309 40.8316 27.5309C29.1038 27.5309 17.3759 27.5309 5.64799 27.5309C3.48494 27.5309 1.80584 26.4253 1.17818 24.5624C1.05039 24.148 0.973682 23.7201 0.94971 23.2879C0.911632 22.779 1.16344 22.5415 1.68669 22.5355C2.50475 22.527 3.31543 22.5331 4.15805 22.5331ZM5.48708 22.4945H40.9987C41.1375 13.5911 33.7615 5.03016 23.2423 5.03016C12.755 5.03016 5.34582 13.5585 5.48708 22.4945ZM44.1923 23.81H2.28857C2.34752 24.0101 2.38192 24.1849 2.44825 24.3477C2.96536 25.5957 4.12734 26.3011 5.67992 26.3011H32.0185C34.9509 26.3011 37.8829 26.3011 40.8144 26.3011C41.6178 26.3011 42.3683 26.1407 43.0168 25.6475C43.6274 25.1995 44.0464 24.5445 44.1923 23.81ZM23.2447 1.56962C22.6932 1.56962 22.1393 1.55515 21.589 1.56962C21.1308 1.58529 20.9576 1.82644 21.0645 2.26293C21.1713 2.69942 21.3028 3.10697 21.3974 3.52778C21.4526 3.76893 21.5718 3.8244 21.8138 3.81957C22.7632 3.8039 23.7139 3.79908 24.6647 3.81957C24.941 3.82681 25.0405 3.73758 25.0946 3.48799C25.1793 3.0925 25.3034 2.70304 25.4029 2.30996C25.5331 1.79871 25.3599 1.57565 24.8084 1.56479C24.2876 1.56118 23.7668 1.56841 23.2447 1.56962Z" fill="#FBC2B0"/>
</svg>
