<svg width="37" height="10" viewBox="0 0 37 10" fill="none" xmlns="http://www.w3.org/2000/svg">
<path d="M23.404 4.7085H0.216608" stroke="#FBF8F3"/>
<path d="M27.0753 2.1323L26.6213 1.92286C26.6812 1.79295 26.7939 1.69493 26.9309 1.65361C27.0679 1.61229 27.216 1.63162 27.3378 1.70672L27.0753 2.1323ZM23.279 4.70846L23.2023 5.20254C22.9587 5.16475 22.779 4.955 22.779 4.70846C22.779 4.46191 22.9587 4.25216 23.2023 4.21437L23.279 4.70846ZM27.0881 7.47116L27.3519 7.89584C27.2288 7.97234 27.0786 7.99166 26.9401 7.94878C26.8017 7.9059 26.6887 7.80505 26.6303 7.67237L27.0881 7.47116ZM30.4142 4.738L30.7548 4.37193C30.9564 4.55949 30.9684 4.87475 30.7816 5.0771L30.4142 4.738ZM27.5293 2.34174C26.6109 4.33272 24.4218 5.03715 23.3556 5.20254L23.2023 4.21437C24.1637 4.06522 25.9177 3.44817 26.6213 1.92286L27.5293 2.34174ZM23.3556 4.21437C23.9275 4.30309 24.742 4.55899 25.5252 5.03744C26.3111 5.51754 27.0925 6.23883 27.5458 7.26995L26.6303 7.67237C26.2806 6.8769 25.667 6.29589 25.0039 5.89081C24.3381 5.48407 23.6495 5.27193 23.2023 5.20254L23.3556 4.21437ZM26.8242 7.04647C28.0381 6.29216 29.0834 5.44274 30.0467 4.3989L30.7816 5.0771C29.7534 6.19124 28.6373 7.09716 27.3519 7.89584L26.8242 7.04647ZM30.0736 5.10407C28.9073 4.01895 27.9358 3.25041 26.8129 2.55789L27.3378 1.70672C28.5309 2.44251 29.5545 3.25523 30.7548 4.37193L30.0736 5.10407Z" fill="#FBF8F3"/>
</svg>
