<svg width="37" height="10" viewBox="0 0 37 10" fill="none" xmlns="http://www.w3.org/2000/svg">
<path d="M13.4167 5.33215H36.6041" stroke="#FBF8F3"/>
<path d="M9.74539 2.75602L10.1994 2.54658C10.1395 2.41667 10.0268 2.31865 9.8898 2.27733C9.75282 2.23601 9.60471 2.25534 9.48294 2.33044L9.74539 2.75602ZM13.5417 5.33218L13.6184 5.82626C13.862 5.78847 14.0417 5.57872 14.0417 5.33218C14.0417 5.08563 13.862 4.87588 13.6184 4.83809L13.5417 5.33218ZM9.73264 8.09488L9.46875 8.51957C9.59185 8.59606 9.7421 8.61538 9.88055 8.5725C10.019 8.52962 10.132 8.42877 10.1904 8.29609L9.73264 8.09488ZM6.40651 5.36172L6.06594 4.99565C5.86434 5.18321 5.85233 5.49847 6.03908 5.70082L6.40651 5.36172ZM9.29136 2.96546C10.2098 4.95644 12.3989 5.66087 13.4651 5.82626L13.6184 4.83809C12.657 4.68894 10.903 4.07189 10.1994 2.54658L9.29136 2.96546ZM13.4651 4.83809C12.8932 4.92681 12.0787 5.18271 11.2955 5.66116C10.5095 6.14126 9.72818 6.86255 9.27491 7.89367L10.1904 8.29609C10.54 7.50062 11.1537 6.91961 11.8168 6.51453C12.4826 6.10779 13.1712 5.89565 13.6184 5.82626L13.4651 4.83809ZM9.99653 7.67019C8.78262 6.91588 7.73729 6.06646 6.77395 5.02262L6.03908 5.70082C7.06729 6.81496 8.18341 7.72088 9.46875 8.51957L9.99653 7.67019ZM6.74709 5.72779C7.91343 4.64267 8.88486 3.87413 10.0078 3.18161L9.48294 2.33044C8.2898 3.06623 7.26623 3.87895 6.06594 4.99565L6.74709 5.72779Z" fill="#FBF8F3"/>
</svg>
