<svg width="26" height="22" viewBox="0 0 26 22" fill="none" xmlns="http://www.w3.org/2000/svg">
<path d="M25.6299 11.5304C24.3598 10.2603 22.6371 9.54668 20.8408 9.54668C19.0445 9.54668 17.3218 10.2603 16.0516 11.5304C14.7815 12.8006 14.0679 14.5233 14.0679 16.3196C14.0679 18.1159 14.7815 19.8386 16.0516 21.1087" stroke="#6D4D36"/>
<path d="M0.999999 11.4955C2.27016 10.2253 3.99288 9.51177 5.78916 9.51177C7.58545 9.51177 9.30816 10.2253 10.5783 11.4955C11.8485 12.7657 12.5621 14.4884 12.5621 16.2847C12.5621 18.081 11.8485 19.8037 10.5783 21.0738" stroke="#6D4D36"/>
<path fill-rule="evenodd" clip-rule="evenodd" d="M14.3139 7.12978C14.5706 6.48634 14.732 5.5532 14.732 4.5149C14.732 3.74531 14.1677 1.70298 13.4716 1C12.7754 1.70298 12.2111 3.74531 12.2111 4.5149C12.2111 5.59223 12.3849 6.55635 12.6586 7.20111C9.9825 5.2895 8.34837 6.12661 7.00223 7.6905C8.83725 7.62041 10.6955 8.70478 12.0964 10.0836C12.6729 10.6509 13.1247 11.2945 13.4519 11.9813C13.7851 11.1847 14.2806 10.4384 14.9381 9.79117C16.2834 8.46709 18.0505 7.38108 19.8138 7.39317C18.3824 6.12274 16.8456 5.29895 14.3139 7.12978Z" stroke="#6D4D36"/>
</svg>
