<svg width="153" height="125" viewBox="0 0 153 125" fill="none" xmlns="http://www.w3.org/2000/svg">
<g filter="url(#filter0_d_141_254)">
<path d="M118.698 87.8465C107.787 103.397 89.0379 111.55 70.2246 109.3C54.2082 107.385 39.8889 97.6244 31.7942 83.76C26.7699 75.1685 24.5368 65.2092 24.9583 55.3029C24.9583 55.1131 24.1656 55.6462 24.1516 55.9616C23.7973 63.9957 25.2911 72.0039 28.5178 79.3701C31.7445 86.7362 36.6183 93.2638 42.7639 98.4506C55.3777 109.074 72.6809 112.848 88.6443 108.974C101.079 105.956 112.002 98.1268 119.318 87.7014C119.714 87.1431 118.868 87.6037 118.698 87.8465Z" fill="#FBF8F3"/>
<path d="M29.2988 79.4112C26.7057 77.2479 23.5738 76.1705 20.4225 75.0847C16.6989 73.8063 13.221 72.2543 10.4632 69.3625L10.2203 69.8147C14.0248 68.9997 17.7987 69.1979 21.2515 71.1015C24.7043 73.0052 27.0713 76.405 28.8577 79.7964C29.0001 80.0755 29.4579 79.7182 29.3323 79.481C27.4649 75.9277 25.0728 72.6786 21.5669 70.613C18.1532 68.5922 14.0835 68.4889 10.2985 69.3011C10.1282 69.3374 9.89095 69.5803 10.0556 69.7561C12.5929 72.433 15.7247 73.9961 19.1552 75.2242C22.5857 76.4524 26.0525 77.4573 28.8912 79.8187C29.109 80.0029 29.5137 79.5898 29.2988 79.4112Z" fill="#FBF8F3"/>
<path d="M10.2092 69.678C13.612 70.5798 16.8926 71.892 19.9787 73.5858C22.8397 75.149 26.3093 76.5139 28.2688 79.2075C28.3497 79.3191 28.5479 79.1182 28.4725 79.0037C26.4907 76.285 23.0044 74.934 20.1378 73.3486C17.032 71.6466 13.7283 70.3341 10.3013 69.4408C10.1729 69.4073 10.0389 69.6501 10.2008 69.692L10.2092 69.678Z" fill="#FBF8F3"/>
<path d="M13.9076 72.4777C15.0073 72.3326 16.0625 72.1121 17.1818 72.1344C17.3129 72.1344 17.4441 71.886 17.2822 71.8832C16.1462 71.8581 15.066 72.0786 13.9467 72.2265C13.8127 72.2461 13.7289 72.5057 13.9076 72.4777Z" fill="#FBF8F3"/>
<path d="M18.9542 72.7122C18.3343 71.6109 17.8077 70.4596 17.3799 69.2705C17.3241 69.1282 17.1008 69.3012 17.1426 69.4268C17.5709 70.6162 18.0985 71.7675 18.7197 72.8685C18.7951 72.9997 19.024 72.8266 18.9542 72.7122Z" fill="#FBF8F3"/>
<path d="M17.7177 74.5572C18.8565 74.4678 19.9898 74.3534 21.1202 74.1915C21.2542 74.172 21.338 73.9124 21.1593 73.9431C20.0428 74.105 18.8956 74.2222 17.7567 74.3059C17.62 74.3059 17.539 74.5711 17.7177 74.5572Z" fill="#FBF8F3"/>
<path d="M22.5187 74.6661C21.6673 73.1672 21.0114 71.5733 20.2326 70.0381C20.1628 69.9014 19.934 70.0744 19.9954 70.1945C20.7741 71.7325 21.444 73.3263 22.2814 74.8252C22.3568 74.9592 22.5857 74.7833 22.5187 74.6689V74.6661Z" fill="#FBF8F3"/>
<path d="M24.4419 75.7128C23.6883 75.6263 22.9458 75.8161 22.1921 75.8105C22.061 75.8105 21.9298 76.0617 22.0917 76.0645C22.8425 76.0645 23.5906 75.8803 24.3414 75.9668C24.4726 75.9808 24.6066 75.7324 24.4419 75.7128Z" fill="#FBF8F3"/>
<path d="M25.3044 76.2348C24.936 75.0122 24.6038 73.7729 24.1488 72.5782C24.0958 72.4387 23.8697 72.6089 23.9144 72.7373C24.3666 73.932 24.6987 75.1685 25.0672 76.3911C25.109 76.5335 25.3463 76.3632 25.3044 76.2348Z" fill="#FBF8F3"/>
<path d="M24.7936 55.8136C25.3519 51.5653 24.3721 47.4593 23.384 43.3505C22.1893 38.3848 21.4301 33.4945 22.689 28.4534L22.1028 28.7661C25.5417 32.2384 27.931 36.403 28.3162 41.3576C28.707 46.4349 26.6693 51.4257 24.2046 55.7466C23.9646 56.1681 24.5061 56.3468 24.7126 55.9783C27.2248 51.5569 29.0978 46.7671 28.9861 41.5976C28.8745 36.4282 26.1948 31.8281 22.6164 28.2385C22.3931 28.018 22.0833 28.3446 22.0302 28.5511C20.8858 33.0758 21.3408 37.5419 22.354 42.0526C23.3868 46.6387 24.7629 51.1606 24.1376 55.9141C24.0762 56.3719 24.735 56.1598 24.7796 55.8136H24.7936Z" fill="#FBF8F3"/>
<path d="M22.2006 28.6099C23.5496 32.7852 24.393 37.1072 24.7127 41.4834C25.0198 45.7289 26.0107 50.6946 24.3917 54.7168C24.3024 54.9429 24.6206 54.9262 24.6904 54.7503C26.2647 50.8425 25.3408 46.2285 25.0867 42.1254C24.8034 37.4605 23.936 32.8496 22.5048 28.4006C22.4462 28.2192 22.1475 28.4397 22.2006 28.6044V28.6099Z" fill="#FBF8F3"/>
<path d="M21.7232 34.5273C22.6387 35.6187 23.6157 36.6096 24.3582 37.8378C24.4614 38.0053 24.7517 37.782 24.6624 37.634C23.906 36.3863 22.9151 35.3759 21.9884 34.265C21.8711 34.1282 21.606 34.3878 21.7232 34.5273Z" fill="#FBF8F3"/>
<path d="M24.9276 40.0539C25.6841 38.6348 26.56 37.2827 27.5459 36.0122C27.691 35.814 27.4119 35.733 27.2891 35.8949C26.2885 37.1938 25.3978 38.5738 24.6262 40.0204C24.5201 40.2382 24.8439 40.2186 24.9276 40.0539Z" fill="#FBF8F3"/>
<path d="M22.1028 40.1072C22.9848 41.2768 23.892 42.4296 24.8494 43.5405C24.9666 43.6745 25.2318 43.4149 25.1118 43.2614C24.1544 42.1449 23.2472 41.0032 22.3651 39.8309C22.2591 39.6886 21.9939 39.9454 22.1028 40.0933V40.1072Z" fill="#FBF8F3"/>
<path d="M25.2653 45.257C26.2897 43.3031 27.5598 41.5167 28.6735 39.6242C28.7991 39.4148 28.5256 39.3283 28.4195 39.5097C27.303 41.4273 26.0078 43.2528 24.9667 45.2263C24.855 45.4384 25.1816 45.4189 25.2653 45.257Z" fill="#FBF8F3"/>
<path d="M25.4579 48.054C25.0365 47.1747 24.3135 46.5048 23.7999 45.6842C23.6966 45.5167 23.4035 45.74 23.4957 45.8852C24.0065 46.7058 24.7322 47.3785 25.1537 48.255C25.2402 48.4308 25.5361 48.2103 25.4579 48.054Z" fill="#FBF8F3"/>
<path d="M25.4412 49.4384C26.5214 48.1795 27.6463 46.9569 28.6344 45.6227C28.7796 45.4273 28.5004 45.3435 28.3776 45.5082C27.4091 46.8146 26.3065 48.0204 25.2458 49.2458C25.0979 49.4188 25.2877 49.6142 25.4412 49.4384Z" fill="#FBF8F3"/>
<path d="M15.7471 63.7801C15.2335 63.0348 15.3814 61.762 15.4875 60.9107C15.3479 61.0223 15.2084 61.1367 15.0744 61.2512C15.8893 61.3227 16.685 61.5382 17.4246 61.8876C17.7683 62.0791 18.0232 62.3977 18.1344 62.7751C18.2456 63.1525 18.2042 63.5585 18.0192 63.9057C17.5056 64.838 16.2802 64.3942 15.7471 63.7801C15.5322 63.5317 15.0493 64.0062 15.2698 64.2574C15.5438 64.594 15.9208 64.8314 16.3428 64.933C16.7648 65.0346 17.2085 64.9949 17.6057 64.8199C18.0029 64.6449 18.3317 64.3443 18.5416 63.9643C18.7514 63.5844 18.8307 63.146 18.7673 62.7166C18.5774 61.1423 16.5845 60.8074 15.3116 60.6594C15.214 60.6586 15.1193 60.6923 15.0442 60.7546C14.9691 60.817 14.9185 60.9039 14.9013 61C14.7729 62.0244 14.6557 63.3698 15.2698 64.2574C15.4512 64.5365 15.9369 64.0536 15.7471 63.7801Z" fill="#FBF8F3"/>
<path d="M17.7652 64.5756C18.6026 65.6921 19.9982 65.8623 21.2654 66.228C23.9116 66.9956 25.257 69.0918 26.0776 71.6124C26.1418 71.8106 26.474 71.5705 26.4126 71.3863C25.7064 69.2119 24.6373 67.2719 22.5048 66.2615C21.0449 65.5692 19.0938 65.6781 18.0555 64.2853C17.9382 64.1262 17.6451 64.4109 17.7763 64.5644L17.7652 64.5756Z" fill="#FBF8F3"/>
<path d="M30.7865 55.0908C30.8507 54.3511 30.3594 53.6114 29.9491 53.0364C29.8821 52.9443 29.7174 52.989 29.6449 53.0364C28.9135 53.5556 27.864 54.393 28.1432 55.4062C28.2135 55.7087 28.3919 55.9751 28.6447 56.1555C28.8976 56.3359 29.2075 56.4178 29.5165 56.3859C30.1947 56.3497 30.6553 55.6881 30.7921 55.0908C30.8758 54.7335 30.3371 54.901 30.2729 55.1717C29.9547 56.5478 28.1041 55.5514 28.7544 54.4823C29.0369 54.0716 29.3984 53.7215 29.8179 53.4523H29.5109C29.8375 53.9045 30.3092 54.5828 30.2589 55.1634C30.2255 55.5346 30.753 55.3671 30.7781 55.0824L30.7865 55.0908Z" fill="#FBF8F3"/>
<path d="M29.1369 56.1515C29.0392 57.5471 27.1327 58.0859 26.2004 58.859C24.8802 59.9504 24.562 61.6308 24.5899 63.2581C24.5899 63.4116 24.8299 63.286 24.8271 63.1632C24.7853 60.7571 25.7008 59.2554 27.7189 58.0719C28.5088 57.6058 29.3044 57.1117 29.3741 56.118C29.3741 55.9477 29.148 56.0231 29.1369 56.1515Z" fill="#FBF8F3"/>
<path d="M14.5105 53.8877C14.2314 53.1285 14.6277 52.0845 14.9013 51.3755L14.343 51.677C15.0464 51.9182 15.7021 52.281 16.2802 52.7488C16.518 52.9603 16.6672 53.2539 16.6977 53.5707C16.7282 53.8875 16.6379 54.2041 16.4449 54.4571C15.8364 55.1968 14.8315 54.5213 14.5077 53.8989C14.3067 53.5109 13.6536 54.0049 13.8322 54.3482C14.7282 56.0677 17.0171 55.6378 17.4023 53.79C17.7288 52.252 15.9508 51.4314 14.7924 50.9987C14.6785 50.9699 14.5579 50.9849 14.4546 51.0407C14.3512 51.0965 14.2725 51.1891 14.2342 51.3002C13.8852 52.2017 13.4833 53.3936 13.8294 54.3455C13.9746 54.7446 14.6361 54.2589 14.5049 53.8961L14.5105 53.8877Z" fill="#FBF8F3"/>
<path d="M16.0597 55.1047C16.5928 56.7348 18.0136 57.8569 19.1859 59.0376C21.2306 61.0482 22.4965 63.7184 22.7588 66.5741C22.7783 66.789 23.1021 66.6159 23.0853 66.4429C22.8609 63.8987 21.8436 61.4891 20.1768 59.554C18.8984 58.0578 17.0031 56.8436 16.3667 54.9009C16.3081 54.7167 16.0066 54.9372 16.0597 55.1047Z" fill="#FBF8F3"/>
<path d="M33.4941 86.8808C34.6273 83.3833 33.4187 80.0031 32.1933 76.7038C32.1152 76.4916 31.8025 76.6424 31.73 76.7736C29.9882 80.0254 31.3587 84.0086 32.9916 87.0204C33.1479 87.2995 33.6364 86.9366 33.4968 86.6826C31.984 83.8913 30.5185 80.017 32.1542 76.9689L31.6881 77.0387C32.8576 80.1901 34.083 83.4587 32.9972 86.825C32.8716 87.2074 33.3964 87.1795 33.4941 86.8808Z" fill="#FBF8F3"/>
<path d="M33.2931 86.811C30.7558 83.629 26.0358 81.9933 22.3038 80.7595C22.1 80.6925 21.7456 80.9521 21.8851 81.181C23.465 83.9723 29.8012 90.7467 33.2345 87.1878C33.5136 86.9087 33.1815 86.5905 32.9135 86.8696C29.9212 89.9735 23.7804 83.3191 22.3903 80.846L21.9689 81.2675C25.6617 82.4845 30.3427 84.1091 32.8549 87.2465C33.0419 87.4809 33.4829 87.0483 33.2931 86.811Z" fill="#FBF8F3"/>
<path d="M39.7186 94.6237C40.3913 91.598 39.1297 88.8597 37.8513 86.1745C37.7619 85.9847 37.5135 86.1578 37.4605 86.2834C36.2602 89.1444 37.7396 92.3851 39.3139 94.7856C39.4535 95.0006 39.8303 94.7103 39.7075 94.526C38.1862 92.2177 36.6901 89.083 37.8485 86.3252L37.4577 86.4341C38.7026 89.0495 39.9698 91.7376 39.3027 94.6879C39.2385 94.9671 39.6712 94.8415 39.7186 94.6237Z" fill="#FBF8F3"/>
<path d="M39.5512 94.6462C37.1255 92.134 33.0419 91.1152 29.751 90.3392C29.7046 90.3358 29.6582 90.3446 29.6165 90.365C29.5747 90.3853 29.5391 90.4164 29.5132 90.455C29.4874 90.4936 29.4723 90.5383 29.4694 90.5847C29.4666 90.6311 29.4761 90.6774 29.4969 90.7189C31.0433 92.9519 36.8632 98.1576 39.5037 94.9421C39.6907 94.716 39.4479 94.4592 39.2553 94.6936C36.8939 97.5659 31.2443 92.4104 29.8375 90.3783L29.5835 90.7579C32.7795 91.5116 36.8548 92.5416 39.2106 94.9867C39.3753 95.157 39.7131 94.8165 39.5512 94.6462Z" fill="#FBF8F3"/>
<path d="M45.3989 99.6145C45.4324 97.2587 44.0033 95.3913 42.6327 93.6077C42.5462 93.496 42.3815 93.6663 42.3536 93.7528C41.9126 96.078 43.5511 98.2663 45.1198 99.796C45.2398 99.9132 45.4827 99.6704 45.3598 99.5531C43.8497 98.0765 42.2252 95.9552 42.6523 93.7082L42.3732 93.8533C43.7269 95.6034 45.1142 97.415 45.0835 99.7346C45.0835 99.9272 45.3794 99.7681 45.3822 99.6145H45.3989Z" fill="#FBF8F3"/>
<path d="M45.2705 99.6759C43.0542 98.2077 39.8554 98.096 37.2874 98.0458C37.1786 98.0458 36.9888 98.2077 37.106 98.3249C38.6496 99.754 43.8051 102.713 45.2956 99.8796C45.3989 99.6815 45.1505 99.6005 45.0584 99.7736C43.7353 102.286 38.7361 99.3688 37.3488 98.0821L37.1674 98.3612C39.7186 98.4114 42.8923 98.5231 45.0835 99.9746C45.2147 100.064 45.4212 99.7931 45.2705 99.6954V99.6759Z" fill="#FBF8F3"/>
<path d="M34.1165 28.4898C45.1393 12.8726 64.0837 4.77784 82.9919 7.22021C98.9804 9.28855 113.205 19.1781 121.168 33.1094C126.039 41.6256 128.202 51.4593 127.767 61.2288C127.767 61.4186 128.56 60.8855 128.574 60.5701C128.941 52.5234 127.454 44.5 124.228 37.1193C121.002 29.7386 116.123 23.1982 109.967 18.0029C97.328 7.36257 79.9801 3.59712 63.9916 7.50771C51.643 10.5307 40.7933 18.2988 33.4968 28.6377C33.1005 29.196 33.9462 28.7327 34.1165 28.4898Z" fill="#FBF8F3"/>
<path d="M123.432 37.0395C126.025 39.2028 129.157 40.2802 132.306 41.366C136.032 42.6528 139.507 44.2048 142.268 47.1133L142.508 46.6583C138.706 47.4733 134.929 47.2752 131.477 45.3743C128.024 43.4734 125.66 40.0709 123.873 36.6794C123.731 36.4003 123.273 36.7548 123.399 36.9921C125.263 40.5314 127.669 43.7805 131.164 45.846C134.578 47.8669 138.647 47.9702 142.432 47.1579C142.603 47.1216 142.837 46.8788 142.675 46.703C140.138 44.0261 137.006 42.463 133.573 41.2264C130.14 39.9899 126.678 38.9934 123.84 36.632C123.622 36.4478 123.217 36.8609 123.432 37.0395Z" fill="#FBF8F3"/>
<path d="M142.522 46.7811C139.118 45.8811 135.837 44.5688 132.752 42.8733C129.891 41.313 126.422 39.9425 124.459 37.2517C124.378 37.14 124.18 37.341 124.255 37.4554C126.237 40.1742 129.724 41.5279 132.593 43.1106C135.698 44.8147 139.002 46.1273 142.43 47.0184C142.558 47.0547 142.692 46.809 142.53 46.7672L142.522 46.7811Z" fill="#FBF8F3"/>
<path d="M138.837 43.9814C137.737 44.1266 136.68 44.3499 135.563 44.3248C135.432 44.3248 135.301 44.5732 135.463 44.5788C136.599 44.6011 137.679 44.3806 138.798 44.2327C138.932 44.2159 139.013 43.9535 138.837 43.9814Z" fill="#FBF8F3"/>
<path d="M133.777 43.7554C134.395 44.8566 134.921 46.0068 135.351 47.1943C135.404 47.3366 135.63 47.1636 135.585 47.038C135.158 45.8486 134.631 44.6973 134.011 43.5963C133.933 43.4651 133.707 43.6382 133.777 43.7554Z" fill="#FBF8F3"/>
<path d="M135.01 41.902C133.874 41.9913 132.738 42.1057 131.611 42.2676C131.474 42.2872 131.393 42.5467 131.571 42.5188C132.688 42.3541 133.835 42.2397 134.971 42.1532C135.108 42.1532 135.192 41.8908 135.01 41.902Z" fill="#FBF8F3"/>
<path d="M130.212 41.7931C131.063 43.2892 131.717 44.8859 132.498 46.4183C132.568 46.5551 132.797 46.382 132.735 46.262C131.954 44.7268 131.301 43.1329 130.449 41.634C130.374 41.5028 130.145 41.6759 130.212 41.7931Z" fill="#FBF8F3"/>
<path d="M128.289 40.7465C129.043 40.833 129.785 40.646 130.539 40.6488C130.667 40.6488 130.801 40.3976 130.639 40.3976C129.886 40.3976 129.14 40.5818 128.389 40.4953C128.258 40.4785 128.124 40.727 128.289 40.7465Z" fill="#FBF8F3"/>
<path d="M127.426 40.2243C127.795 41.4497 128.124 42.6862 128.579 43.8809C128.632 44.0204 128.858 43.8502 128.816 43.7246C128.361 42.5299 128.032 41.2906 127.664 40.068C127.619 39.9284 127.385 40.0959 127.426 40.2243Z" fill="#FBF8F3"/>
<path d="M127.948 60.6454C127.39 64.8938 128.373 68.9998 129.361 73.1085C130.555 78.0742 131.315 82.9646 130.056 88.0056L130.639 87.693C127.189 84.2095 124.8 80.056 124.415 75.1043C124.021 70.0242 126.061 65.0333 128.526 60.7124C128.766 60.2909 128.225 60.1151 128.015 60.4807C125.503 64.9049 123.633 69.692 123.742 74.8615C123.851 80.0309 126.55 84.631 130.114 88.2178C130.335 88.4411 130.648 88.1145 130.698 87.9051C131.842 83.3721 131.387 78.92 130.374 74.4093C129.344 69.8232 127.968 65.2985 128.593 60.5477C128.652 60.09 127.996 60.2993 127.948 60.6454Z" fill="#FBF8F3"/>
<path d="M130.53 87.8548C129.18 83.6799 128.336 79.3577 128.018 74.9814C127.711 70.7358 126.717 65.7701 128.339 61.7479C128.429 61.5218 128.11 61.5385 128.038 61.7144C126.463 65.6361 127.39 70.239 127.641 74.3421C127.927 79.0061 128.795 83.6159 130.226 88.0641C130.282 88.2455 130.583 88.0278 130.53 87.8631V87.8548Z" fill="#FBF8F3"/>
<path d="M131.016 81.9234C130.103 80.832 129.126 79.8411 128.381 78.613C128.278 78.4455 127.987 78.6688 128.077 78.8167C128.833 80.0644 129.824 81.0749 130.754 82.1858C130.868 82.3254 131.136 82.0658 131.016 81.9234Z" fill="#FBF8F3"/>
<path d="M127.792 76.4162C127.033 77.8346 126.157 79.1875 125.174 80.4608C125.029 80.6562 125.308 80.7399 125.431 80.5752C126.431 79.277 127.321 77.8969 128.091 76.4497C128.2 76.2348 127.876 76.2515 127.792 76.4162Z" fill="#FBF8F3"/>
<path d="M130.625 76.3408C129.743 75.1713 128.839 74.0213 127.881 72.9103C127.761 72.7736 127.499 73.0332 127.619 73.1727C128.574 74.2892 129.484 75.4337 130.363 76.6032C130.472 76.7456 130.737 76.4888 130.625 76.3408Z" fill="#FBF8F3"/>
<path d="M127.465 71.2019C126.438 73.1558 125.171 74.9422 124.055 76.8347C123.932 77.044 124.202 77.1306 124.309 76.9491C125.442 75.0315 126.723 73.206 127.764 71.2354C127.876 71.0204 127.549 71.04 127.465 71.2019Z" fill="#FBF8F3"/>
<path d="M127.27 68.4053C127.694 69.2846 128.417 69.9573 128.928 70.7751C129.034 70.9426 129.324 70.7193 129.232 70.5741C128.722 69.7563 127.996 69.0808 127.574 68.2043C127.491 68.0285 127.195 68.2518 127.27 68.4053Z" fill="#FBF8F3"/>
<path d="M127.29 67.0236C126.209 68.2796 125.085 69.505 124.096 70.8365C123.951 71.0346 124.23 71.1156 124.353 70.9537C125.319 69.6474 126.424 68.4415 127.482 67.2134C127.63 67.0431 127.44 66.8449 127.29 67.0236Z" fill="#FBF8F3"/>
<path d="M136.984 52.6765C137.497 53.419 137.349 54.6918 137.243 55.5431L137.654 55.2026C136.84 55.132 136.045 54.9175 135.306 54.569C134.962 54.377 134.707 54.0578 134.596 53.6799C134.485 53.3021 134.527 52.8957 134.712 52.5481C135.225 51.6158 136.448 52.0596 136.984 52.6765C137.199 52.9249 137.682 52.4504 137.461 52.1964C137.187 51.8605 136.811 51.6237 136.39 51.5221C135.968 51.4206 135.525 51.4599 135.129 51.634C134.732 51.8082 134.403 52.1076 134.193 52.4865C133.982 52.8653 133.902 53.3027 133.964 53.7316C134.153 55.3031 136.144 55.638 137.419 55.786C137.517 55.788 137.612 55.7546 137.688 55.6921C137.763 55.6296 137.813 55.542 137.83 55.4454C137.958 54.421 138.075 53.0756 137.461 52.188C137.28 51.9256 136.794 52.3918 136.984 52.6681V52.6765Z" fill="#FBF8F3"/>
<path d="M134.966 51.8864C134.128 50.7699 132.719 50.5968 131.463 50.2339C128.819 49.4636 127.471 47.3673 126.653 44.8496C126.589 44.6486 126.257 44.8886 126.315 45.0729C127.024 47.2473 128.094 49.19 130.223 50.2005C131.683 50.8899 133.634 50.781 134.673 52.1767C134.79 52.333 135.083 52.0483 134.952 51.8976L134.966 51.8864Z" fill="#FBF8F3"/>
<path d="M121.944 61.3685C121.877 62.1081 122.371 62.8478 122.782 63.4228C122.846 63.515 123.013 63.4703 123.086 63.4228C123.809 62.9092 124.867 62.0746 124.588 61.0586C124.517 60.7561 124.339 60.4897 124.086 60.3093C123.833 60.1289 123.523 60.047 123.214 60.0789C122.536 60.1152 122.076 60.7767 121.939 61.374C121.855 61.7341 122.394 61.5638 122.458 61.2931C122.773 59.917 124.627 60.9135 123.976 61.9853C123.687 62.3944 123.321 62.7433 122.899 63.0125H123.203C122.879 62.5603 122.405 61.896 122.458 61.3015C122.489 60.9302 121.964 61.0977 121.939 61.3824L121.944 61.3685Z" fill="#FBF8F3"/>
<path d="M123.605 60.3077C123.703 58.9288 125.612 58.3733 126.544 57.6001C127.862 56.5087 128.183 54.8312 128.155 53.2011C128.155 53.0475 127.915 53.1731 127.918 53.296C127.96 55.702 127.041 57.2038 125.026 58.3873C124.233 58.8534 123.44 59.3475 123.368 60.3412C123.368 60.5114 123.597 60.4333 123.605 60.3049V60.3077Z" fill="#FBF8F3"/>
<path d="M138.218 62.5715C138.497 63.3335 138.103 64.3747 137.827 65.0837L138.385 64.7822C137.681 64.5401 137.025 64.1774 136.445 63.7104C136.208 63.4982 136.06 63.2045 136.03 62.8879C136 62.5713 136.09 62.255 136.283 62.0021C136.889 61.2652 137.894 61.9379 138.218 62.5604C138.421 62.9483 139.072 62.4543 138.896 62.1137C138 60.3915 135.711 60.8242 135.323 62.672C134.999 64.2128 136.777 65.0306 137.936 65.4633C138.049 65.4929 138.17 65.4786 138.273 65.4233C138.377 65.3679 138.456 65.2755 138.494 65.1646C138.84 64.2603 139.245 63.0684 138.899 62.1193C138.751 61.7174 138.089 62.2031 138.22 62.5659L138.218 62.5715Z" fill="#FBF8F3"/>
<path d="M136.668 61.3544C136.138 59.7243 134.714 58.605 133.545 57.4215C131.5 55.4112 130.234 52.7408 129.972 49.885C129.95 49.6728 129.626 49.8459 129.646 50.0162C129.869 52.5607 130.886 54.9706 132.554 56.9051C133.832 58.4012 135.728 59.6154 136.361 61.5609C136.42 61.7424 136.724 61.5219 136.668 61.3544Z" fill="#FBF8F3"/>
<path d="M119.237 29.5784C118.104 33.0759 119.312 36.4561 120.535 39.7554C120.613 39.9675 120.928 39.8196 121.001 39.6856C122.743 36.4254 121.372 32.4506 119.739 29.4472C119.583 29.1681 119.094 29.5309 119.234 29.7849C120.744 32.5762 122.21 36.4505 120.577 39.4986L121.043 39.4288C119.873 36.2775 118.645 33.0089 119.734 29.6426C119.859 29.2574 119.334 29.2853 119.237 29.5867V29.5784Z" fill="#FBF8F3"/>
<path d="M119.438 29.6482C121.975 32.8303 126.695 34.4688 130.424 35.6997C130.631 35.7667 130.983 35.5071 130.846 35.2782C129.263 32.487 122.927 25.7097 119.496 29.2686C119.217 29.5477 119.549 29.8659 119.815 29.5896C122.81 26.4857 128.95 33.1541 130.341 35.616L130.762 35.1945C127.069 33.9747 122.388 32.3502 119.876 29.21C119.692 28.9783 119.248 29.4082 119.441 29.6482H119.438Z" fill="#FBF8F3"/>
<path d="M113.012 21.8354C112.337 24.8612 113.601 27.5994 114.88 30.2846C114.969 30.4744 115.217 30.3014 115.27 30.1758C116.471 27.3147 114.991 24.0712 113.417 21.6707C113.275 21.4586 112.901 21.7489 113.023 21.9331C114.545 24.2387 116.041 27.3761 114.882 30.1311L115.273 30.0222C114.028 27.4096 112.761 24.7188 113.428 21.7712C113.492 21.4921 113.06 21.6177 113.012 21.8354Z" fill="#FBF8F3"/>
<path d="M113.18 21.8104C115.603 24.3225 119.689 25.3441 122.98 26.1201C123.026 26.1236 123.073 26.1147 123.114 26.0944C123.156 26.074 123.192 26.043 123.218 26.0044C123.243 25.9658 123.259 25.921 123.261 25.8746C123.264 25.8283 123.255 25.782 123.234 25.7405C121.685 23.5075 115.868 18.3017 113.227 21.5173C113.04 21.7434 113.283 21.9974 113.476 21.7657C115.837 18.8907 121.484 24.049 122.893 26.0782L123.147 25.6986C119.951 24.9478 115.876 23.9178 113.52 21.4698C113.356 21.3023 113.015 21.6401 113.18 21.8104Z" fill="#FBF8F3"/>
<path d="M107.332 16.8447C107.298 19.2006 108.728 21.0652 110.095 22.8488C110.185 22.9632 110.349 22.793 110.374 22.7037C110.815 20.3813 109.177 18.1929 107.611 16.6633C107.491 16.5433 107.248 16.7889 107.368 16.9062C108.87 18.3799 110.486 20.5153 110.067 22.7483L110.347 22.6032C108.996 20.8502 107.605 19.0387 107.639 16.7219C107.639 16.5293 107.343 16.6856 107.34 16.842L107.332 16.8447Z" fill="#FBF8F3"/>
<path d="M107.46 16.7805C109.677 18.2515 112.873 18.3632 115.443 18.4134C115.552 18.4134 115.742 18.2515 115.625 18.1343C114.081 16.7024 108.926 13.7464 107.435 16.5796C107.332 16.775 107.58 16.8587 107.672 16.6856C108.996 14.1735 113.995 17.0904 115.382 18.3771L115.563 18.098C113.009 18.0478 109.838 17.9361 107.647 16.4819C107.516 16.3953 107.31 16.6633 107.46 16.761V16.7805Z" fill="#FBF8F3"/>
<path d="M72.8595 67.9307C68.3934 67.1408 68.293 73.1169 71.8909 74.306C73.9704 74.9927 76.5468 73.8175 78.4002 72.9913C80.9961 71.8357 83.4245 70.334 85.8529 68.8574C88.6024 67.1826 91.2485 65.5944 94.4082 64.7682C98.8408 63.607 104.823 63.8303 108.055 67.5148C110.628 70.4512 108.099 75.6961 104.147 74.9452C102.539 74.6382 101.28 73.2146 101.356 71.5705C101.42 70.0772 102.86 69.103 104.044 68.5001C104.155 68.4415 103.748 67.9195 103.561 68.0172C101.626 69.0165 99.9573 70.9927 101.347 73.1616C101.8 73.9094 102.443 74.5241 103.21 74.9433C103.977 75.3624 104.842 75.5711 105.716 75.5481C108.68 75.4253 110.182 71.738 109.386 69.2538C108.549 66.6048 105.543 64.9217 103.058 64.2295C98.9971 63.1129 94.3022 63.6907 90.5144 65.4604C87.7231 66.7639 85.1579 68.5532 82.495 70.1079C79.8321 71.6627 76.9124 73.329 73.789 73.8706C71.7597 74.2223 69.9287 73.4742 69.7612 71.1518C69.6104 69.0807 71.3606 68.1177 73.1917 68.4387C73.4205 68.4806 73.0298 67.967 72.8623 67.9363L72.8595 67.9307Z" fill="#FBF8F3" stroke="#FBF8F3" stroke-width="0.5" stroke-linecap="round" stroke-linejoin="round"/>
<path d="M79.9159 68.4387C82.6849 67.9474 83.606 70.6019 82.3667 72.6535C81.7554 73.6724 80.5412 73.9515 79.4414 73.9515C76.1393 73.9515 72.7033 71.738 69.9511 70.147C67.6036 68.7876 65.3482 67.258 62.9505 65.988C58.944 63.872 54.3318 63.1979 49.8873 64.0787C46.6885 64.7235 43.0458 67.0375 43.0765 70.6522C43.0961 72.8378 44.9914 75.054 47.0932 75.4979C49.075 75.9166 51.1489 74.4874 51.7798 72.6508C52.5027 70.5405 50.4511 68.8574 48.8238 68.0172C48.5223 67.8637 48.9048 68.4108 49.0415 68.4806C52.3771 70.2028 51.7658 73.7477 48.4833 74.8642C46.2726 75.6207 44.4499 74.0269 43.7381 71.9725C43.0263 69.9181 44.3298 67.9949 45.7813 66.7109C49.0052 63.8582 54.13 63.8415 58.0909 64.6258C61.4404 65.2929 64.2847 67.057 67.1514 68.8127C69.5632 70.3412 72.0619 71.7281 74.6348 72.9662C76.5497 73.8482 78.8078 74.7498 80.9515 74.3618C85.0463 73.6389 83.7707 67.1603 79.4889 67.9195C79.3298 67.9474 79.7178 68.4638 79.9076 68.4303L79.9159 68.4387Z" fill="#FBF8F3" stroke="#FBF8F3" stroke-width="0.5" stroke-linecap="round" stroke-linejoin="round"/>
<path d="M56.0761 85.1243L56.0168 85.1163L55.9682 85.1514L56.056 85.2729L55.9682 85.1514L55.9681 85.1514L55.968 85.1515L55.9679 85.1516L55.9675 85.1519L55.9664 85.1527L55.9635 85.1549L55.9543 85.1619C55.9468 85.1678 55.9366 85.1761 55.9243 85.1868C55.8999 85.208 55.8669 85.2386 55.8297 85.2789L55.7582 85.3531L55.7581 85.3531L55.7548 85.3567C54.8899 86.3163 54.1293 87.085 53.4726 87.6642C52.8142 88.2449 52.2673 88.6289 51.8297 88.8263L51.8297 88.8263L51.828 88.8271C51.8015 88.8395 51.7679 88.8576 51.7393 88.8853C51.7076 88.9159 51.6772 88.9638 51.6772 89.0272C51.6772 89.0682 51.6902 89.1321 51.7509 89.1755C51.7985 89.2095 51.8506 89.2107 51.8719 89.2107C51.9386 89.2107 52.0107 89.1822 52.0725 89.1526C52.1409 89.12 52.2224 89.073 52.316 89.0135C52.5035 88.8943 52.7502 88.7175 53.0544 88.4848L53.0544 88.4848L53.0556 88.4839C53.3636 88.2435 53.6638 87.9934 53.9555 87.7341C52.8157 89.1266 52.1153 90.1822 51.8776 90.8916L51.797 91.1322L52.0467 91.0868C52.2304 91.0535 52.4161 91.0319 52.6026 91.0223C52.7026 91.0247 52.8019 91.0381 52.8989 91.0624L53.0433 91.0986L53.0806 90.9545C53.2084 90.4614 53.3915 89.9842 53.6265 89.5322C53.8745 89.0621 54.3235 88.3227 54.9762 87.311C55.3838 86.6801 55.6898 86.2029 55.894 85.8791C55.996 85.7173 56.0732 85.5931 56.125 85.5067C56.1508 85.4638 56.1711 85.4288 56.1853 85.4029C56.1923 85.3901 56.1989 85.3775 56.2041 85.3662C56.2067 85.3607 56.21 85.3532 56.2129 85.3448C56.213 85.3447 56.213 85.3445 56.2131 85.3444C56.2147 85.3398 56.2228 85.3176 56.2228 85.2897V85.2796L56.2214 85.2696C56.2165 85.2329 56.1996 85.1987 56.1733 85.1724C56.147 85.1461 56.1129 85.1293 56.0761 85.1243Z" fill="#FBF8F3" stroke="#FBF8F3" stroke-width="0.3"/>
<path d="M60.0954 84.8802L60.0954 84.8802L60.0938 84.8803C59.7026 84.898 59.3185 84.9914 58.9628 85.1552C58.5339 85.3354 58.1314 85.5729 57.7664 85.8613C57.0155 86.4503 56.6058 87.0941 56.5928 87.7945C56.5854 87.9669 56.6125 88.1392 56.6724 88.3011C56.7325 88.4637 56.8246 88.6126 56.9431 88.739L56.943 88.7392L56.9482 88.7442C57.0736 88.8656 57.2227 88.9597 57.3861 89.0208C57.5495 89.0818 57.7238 89.1084 57.898 89.0989C58.4399 89.0698 58.9609 88.8804 59.395 88.5549C59.5117 88.476 59.6248 88.3923 59.7341 88.304C59.337 88.861 58.8746 89.3705 58.3554 89.8211L58.3554 89.8211L58.3538 89.8226C57.3882 90.6862 56.6153 91.0851 56.0254 91.0851H55.95C55.8964 91.0851 55.831 91.0918 55.7744 91.1245C55.7045 91.1649 55.666 91.2346 55.666 91.3133C55.666 91.3389 55.6693 91.3756 55.6884 91.4126C55.7099 91.4544 55.7438 91.482 55.7796 91.4974C55.8104 91.5107 55.8398 91.5139 55.8571 91.5151C55.8741 91.5163 55.8923 91.5163 55.9058 91.5163L55.9081 91.5163V91.5169L55.9209 91.5158C56.3045 91.4831 56.6797 91.3849 57.0302 91.2254C57.5014 91.0401 57.9534 90.8092 58.3798 90.5361C59.2447 90.0088 60.0126 89.3368 60.6499 88.5494L60.6499 88.5494L60.6511 88.5478C61.2196 87.8259 61.5197 87.1361 61.5207 86.4821C61.5384 86.0648 61.3995 85.6559 61.1311 85.3357L61.1311 85.3357L61.1301 85.3345C61.0028 85.1859 60.8437 85.068 60.6646 84.9893C60.4854 84.9107 60.2909 84.8734 60.0954 84.8802ZM60.5915 85.4214C60.6903 85.5354 60.7531 85.7218 60.7545 86.0068C60.736 86.4121 60.6043 86.8017 60.3776 87.1329L60.1536 87.398C59.8343 87.7756 59.4538 88.0969 59.0279 88.3482L59.0278 88.348L59.0207 88.3527C58.6989 88.568 58.3267 88.6959 57.9406 88.7237C57.719 88.7229 57.5799 88.67 57.496 88.5908C57.4131 88.5126 57.3589 88.3849 57.3589 88.1787C57.3589 87.652 57.6721 87.0272 58.3539 86.2994C59.0373 85.57 59.6219 85.2427 60.1113 85.2443H60.1118C60.3457 85.2443 60.496 85.3111 60.5915 85.4214Z" fill="#FBF8F3" stroke="#FBF8F3" stroke-width="0.3"/>
<path d="M61.6404 91.9196L61.4943 92.15H61.767H61.9345H62.017L62.0612 92.0803L67.8503 82.9556L67.9964 82.7252H67.7236H67.5534H67.4709L67.4267 82.7949L61.6404 91.9196Z" fill="#FBF8F3" stroke="#FBF8F3" stroke-width="0.3"/>
<mask id="path-64-outside-1_141_254" maskUnits="userSpaceOnUse" x="67.2065" y="84.27" width="6" height="8" fill="black">
<rect fill="white" x="67.2065" y="84.27" width="6" height="8"/>
<path d="M72.3125 85.3791L72.2427 85.4544C70.5065 87.3804 69.1834 88.55 68.2735 88.9631C68.2288 88.9826 68.2065 89.0022 68.2065 89.0273C68.2065 89.0524 68.2232 89.0608 68.2511 89.0608C68.374 89.0608 68.7368 88.8291 69.3453 88.3658C70.3781 87.5589 71.3205 86.6427 72.1562 85.6331C71.683 86.318 71.1742 86.9776 70.6321 87.6093C69.3835 89.1129 68.6391 90.2229 68.3991 90.9393C68.591 90.9046 68.7849 90.8822 68.9797 90.8723C69.0927 90.8742 69.2051 90.8892 69.3146 90.917C69.4441 90.4124 69.6315 89.9244 69.8729 89.4627C70.1222 88.9864 70.5735 88.242 71.2267 87.2297C72.0417 85.968 72.4492 85.3233 72.4492 85.2898C72.4493 85.2869 72.4487 85.2841 72.4475 85.2816C72.4464 85.279 72.4447 85.2767 72.4426 85.2749C72.4404 85.273 72.4379 85.2716 72.4352 85.2708C72.4325 85.27 72.4297 85.2698 72.4269 85.2702C72.3835 85.3005 72.3449 85.3372 72.3125 85.3791Z"/>
</mask>
<path d="M72.3125 85.3791L72.2427 85.4544C70.5065 87.3804 69.1834 88.55 68.2735 88.9631C68.2288 88.9826 68.2065 89.0022 68.2065 89.0273C68.2065 89.0524 68.2232 89.0608 68.2511 89.0608C68.374 89.0608 68.7368 88.8291 69.3453 88.3658C70.3781 87.5589 71.3205 86.6427 72.1562 85.6331C71.683 86.318 71.1742 86.9776 70.6321 87.6093C69.3835 89.1129 68.6391 90.2229 68.3991 90.9393C68.591 90.9046 68.7849 90.8822 68.9797 90.8723C69.0927 90.8742 69.2051 90.8892 69.3146 90.917C69.4441 90.4124 69.6315 89.9244 69.8729 89.4627C70.1222 88.9864 70.5735 88.242 71.2267 87.2297C72.0417 85.968 72.4492 85.3233 72.4492 85.2898C72.4493 85.2869 72.4487 85.2841 72.4475 85.2816C72.4464 85.279 72.4447 85.2767 72.4426 85.2749C72.4404 85.273 72.4379 85.2716 72.4352 85.2708C72.4325 85.27 72.4297 85.2698 72.4269 85.2702C72.3835 85.3005 72.3449 85.3372 72.3125 85.3791Z" fill="#FBF8F3"/>
<path d="M72.2427 85.4544L72.0225 85.2506L72.0199 85.2536L72.2427 85.4544ZM68.2735 88.9631L68.3937 89.238L68.3975 89.2363L68.2735 88.9631ZM69.3453 88.3658L69.5271 88.6045L69.53 88.6022L69.3453 88.3658ZM72.1562 85.6331L72.403 85.8036L71.925 85.4418L72.1562 85.6331ZM70.6321 87.6093L70.4044 87.4139L70.4013 87.4177L70.6321 87.6093ZM68.3991 90.9393L68.1146 90.844L67.9535 91.3248L68.4525 91.2345L68.3991 90.9393ZM68.9797 90.8723L68.9846 90.5724L68.9745 90.5722L68.9644 90.5727L68.9797 90.8723ZM69.3146 90.917L69.2408 91.2078L69.5308 91.2814L69.6052 90.9916L69.3146 90.917ZM69.8729 89.4627L69.6071 89.3236L69.607 89.3237L69.8729 89.4627ZM71.2267 87.2297L70.9747 87.0669L70.9746 87.0671L71.2267 87.2297ZM72.4492 85.2898L72.1492 85.2867V85.2898H72.4492ZM72.4269 85.2702L72.384 84.9733L72.3136 84.9835L72.2552 85.0242L72.4269 85.2702ZM72.0923 85.1753L72.0226 85.2506L72.4628 85.6583L72.5326 85.5829L72.0923 85.1753ZM72.0199 85.2536C71.1562 86.2117 70.3997 86.9766 69.7496 87.5513C69.096 88.129 68.5641 88.5017 68.1495 88.6899L68.3975 89.2363C68.8928 89.0114 69.4774 88.5927 70.1469 88.0009C70.8199 87.406 71.593 86.6232 72.4655 85.6553L72.0199 85.2536ZM68.1532 88.6882C68.1194 88.703 68.0661 88.7292 68.018 88.7742C67.9627 88.8261 67.9065 88.9118 67.9065 89.0273H68.5065C68.5065 89.0676 68.497 89.1069 68.4798 89.1419C68.4634 89.1753 68.4432 89.1981 68.4284 89.212C68.4027 89.2361 68.3828 89.2427 68.3937 89.2379L68.1532 88.6882ZM67.9065 89.0273C67.9065 89.1148 67.9415 89.2278 68.0494 89.3013C68.1329 89.3583 68.219 89.3608 68.2511 89.3608V88.7608C68.2554 88.7608 68.3191 88.7591 68.3873 88.8056C68.4265 88.8323 68.46 88.8701 68.4816 88.9167C68.5021 88.9608 68.5065 89.0008 68.5065 89.0273H67.9065ZM68.2511 89.3608C68.3546 89.3608 68.4533 89.3187 68.5174 89.2882C68.5937 89.2518 68.6811 89.2012 68.7771 89.1402C68.9698 89.0176 69.2205 88.8379 69.5271 88.6044L69.1636 88.1271C68.8616 88.357 68.6266 88.5248 68.4551 88.6339C68.3689 88.6887 68.3046 88.725 68.2593 88.7465C68.2018 88.7739 68.2091 88.7608 68.2511 88.7608V89.3608ZM69.53 88.6022C70.5798 87.782 71.5378 86.8507 72.3873 85.8244L71.925 85.4418C71.1032 86.4348 70.1764 87.3358 69.1606 88.1293L69.53 88.6022ZM71.9093 85.4626C71.4421 86.1388 70.9398 86.7902 70.4045 87.4139L70.8598 87.8047C71.4087 87.165 71.9238 86.4971 72.403 85.8036L71.9093 85.4626ZM70.4013 87.4177C69.1552 88.9182 68.3748 90.0676 68.1146 90.844L68.6835 91.0346C68.9035 90.3781 69.6118 89.3075 70.8629 87.801L70.4013 87.4177ZM68.4525 91.2345C68.6318 91.2021 68.8129 91.1812 68.9949 91.1719L68.9644 90.5727C68.7569 90.5833 68.5502 90.6071 68.3457 90.6441L68.4525 91.2345ZM68.9747 91.1723C69.0645 91.1738 69.1538 91.1857 69.2408 91.2078L69.3884 90.6262C69.2564 90.5927 69.1209 90.5746 68.9846 90.5724L68.9747 91.1723ZM69.6052 90.9916C69.729 90.5093 69.908 90.043 70.1387 89.6018L69.607 89.3237C69.3549 89.8058 69.1593 90.3154 69.024 90.8424L69.6052 90.9916ZM70.1387 89.6019C70.3812 89.1385 70.826 88.404 71.4787 87.3924L70.9746 87.0671C70.321 88.08 69.8633 88.8342 69.6071 89.3236L70.1387 89.6019ZM71.4786 87.3925C71.8863 86.7615 72.1927 86.2838 72.3973 85.9592C72.4995 85.7972 72.5774 85.6718 72.6301 85.584C72.6561 85.5405 72.6777 85.5035 72.6934 85.4749C72.7009 85.461 72.7094 85.4451 72.7167 85.4293C72.7202 85.4218 72.7256 85.4096 72.7307 85.3951C72.7321 85.3912 72.7492 85.3469 72.7492 85.2898H72.1492C72.1492 85.2565 72.1549 85.2312 72.1574 85.2212C72.1604 85.2088 72.1635 85.1993 72.1653 85.1943C72.1689 85.1842 72.1719 85.1778 72.1723 85.1771C72.1732 85.1751 72.1721 85.1776 72.1669 85.1871C72.1571 85.205 72.1404 85.2338 72.1156 85.2752C72.0664 85.3571 71.9914 85.4781 71.8898 85.6391C71.687 85.9608 71.3821 86.4362 70.9747 87.0669L71.4786 87.3925ZM72.7492 85.2928C72.7497 85.2468 72.7402 85.2011 72.7214 85.159L72.1737 85.4041C72.1572 85.3671 72.1488 85.3271 72.1493 85.2867L72.7492 85.2928ZM72.7214 85.159C72.7025 85.117 72.6748 85.0795 72.6401 85.0491L72.245 85.5006C72.2145 85.474 72.1902 85.441 72.1737 85.4041L72.7214 85.159ZM72.6401 85.0491C72.6053 85.0187 72.5645 84.9962 72.5204 84.9832L72.3501 85.5585C72.3114 85.547 72.2755 85.5273 72.245 85.5006L72.6401 85.0491ZM72.5204 84.9832C72.4763 84.9701 72.4298 84.9667 72.384 84.9733L72.4698 85.5671C72.4296 85.5729 72.3888 85.5699 72.3501 85.5585L72.5204 84.9832ZM72.2552 85.0242C72.1869 85.0719 72.1263 85.1295 72.0753 85.1953L72.5496 85.5629C72.5635 85.5449 72.58 85.5292 72.5986 85.5162L72.2552 85.0242Z" fill="#FBF8F3" mask="url(#path-64-outside-1_141_254)"/>
<path d="M77.4771 85.2751L77.4771 85.2751C77.5151 85.2356 77.5474 85.2055 77.5708 85.1849C77.5825 85.1745 77.592 85.1666 77.5989 85.1609L77.6072 85.1542L77.6098 85.1522L77.6107 85.1515L77.6111 85.1512L77.6112 85.1511L77.6113 85.1511L77.6113 85.1511L77.7025 85.2702L77.6113 85.151L77.6397 85.1293L77.6749 85.1227C77.7017 85.1177 77.7291 85.1194 77.7549 85.1274L77.4771 85.2751ZM77.4771 85.2751L77.4752 85.2771L77.4054 85.3525L77.4054 85.3525L77.4039 85.3541C76.5399 86.3146 75.7802 87.084 75.1244 87.6637C74.4674 88.2445 73.9216 88.6285 73.4852 88.826C73.4374 88.8471 73.332 88.9022 73.332 89.0273C73.332 89.0274 73.332 89.0277 73.332 89.028C73.332 89.0323 73.3319 89.049 73.3344 89.0656C73.3377 89.0872 73.3475 89.1258 73.3812 89.1595C73.4132 89.1915 73.4497 89.202 73.4703 89.2061C73.4908 89.2102 73.5103 89.2108 73.5239 89.2108C73.591 89.2108 73.6632 89.1825 73.7256 89.1527C73.7942 89.1201 73.8758 89.073 73.9694 89.0136C74.1568 88.8943 74.4035 88.7176 74.709 88.4851L74.709 88.4851L74.7103 88.484C75.0155 88.2459 75.3129 87.9983 75.6019 87.7416C74.4688 89.1305 73.7706 90.1834 73.5298 90.891L73.4477 91.1323L73.6986 91.0869C73.8833 91.0534 74.07 91.0319 74.2575 91.0224C74.3563 91.0246 74.4546 91.038 74.5504 91.0623L74.6955 91.0992L74.7327 90.9542C74.8593 90.4608 75.0425 89.9836 75.2786 89.5322L75.2787 89.5319C75.5227 89.0623 75.9705 88.3231 76.6253 87.3112L76.6254 87.3111C77.033 86.6802 77.339 86.203 77.5432 85.8791C77.6452 85.7174 77.7224 85.5931 77.7742 85.5067C77.8 85.4638 77.8203 85.4289 77.8345 85.4029C77.8415 85.3901 77.8481 85.3775 77.8533 85.3662C77.8559 85.3607 77.8592 85.3532 77.8621 85.3449L77.8623 85.3444C77.8635 85.3411 77.8682 85.328 77.8706 85.3102C77.8741 85.2858 77.8721 85.2609 77.8648 85.2373C77.8568 85.2114 77.8426 85.1879 77.8234 85.1687L77.4771 85.2751Z" fill="#FBF8F3" stroke="#FBF8F3" stroke-width="0.3"/>
<path d="M83.9326 82.7252H83.8501L83.8059 82.7949L78.0196 91.9196L77.8735 92.15H78.1463H78.3165H78.399L78.4432 92.0803L84.2296 82.9556L84.3756 82.7252H84.1029H83.9326Z" fill="#FBF8F3" stroke="#FBF8F3" stroke-width="0.3"/>
<path d="M85.7586 89.2333L85.7579 89.2336C85.0891 89.5007 84.5512 89.7758 84.1388 90.057C84.2295 90.044 84.3214 90.0377 84.4139 90.0385L84.4201 90.0385L84.4201 90.0387C84.8398 90.0595 85.2543 90.1403 85.6511 90.2785L85.6522 90.2789C85.9495 90.385 86.2603 90.4487 86.5753 90.4682C86.8506 90.4586 87.1115 90.3421 87.3023 90.1432L87.3065 90.1388L87.3066 90.1389C87.5506 89.9045 87.7203 89.6036 87.7945 89.2735L87.7953 89.27L87.7954 89.2701C87.804 89.2357 87.8203 89.1907 87.8564 89.1533C87.8978 89.1105 87.9509 89.0922 88.0023 89.0922H88.0225L88.042 89.0976C88.0718 89.1057 88.0989 89.1215 88.1207 89.1433C88.1426 89.1652 88.1583 89.1924 88.1665 89.2221L88.1745 89.2515L88.1705 89.2817C88.1267 89.6089 87.9903 89.9166 87.7773 90.1687C87.586 90.4698 87.323 90.7186 87.0117 90.893C86.6972 91.0691 86.3435 91.1635 85.9831 91.1675L85.9725 91.1676L85.9725 91.1672C85.5785 91.1439 85.1895 91.0671 84.8162 90.9388L84.8154 90.9386C84.4665 90.8166 84.1058 90.7315 83.7391 90.6846C83.5746 90.6858 83.4675 90.7195 83.4005 90.7677C83.3373 90.8132 83.2931 90.8836 83.2777 90.9989C83.2725 91.0476 83.2608 91.1033 83.2316 91.1511C83.1986 91.2052 83.141 91.2503 83.0632 91.2538C83.0389 91.2558 83.0145 91.2531 82.9912 91.2458L82.9912 91.2458C82.9639 91.2373 82.939 91.2227 82.9183 91.2033L82.9183 91.2033L85.7586 89.2333ZM85.7586 89.2333C86.677 88.8615 87.2993 88.592 87.6191 88.4264L87.6191 88.4264L87.6214 88.4251C87.9641 88.2399 88.2802 88.0093 88.5612 87.7397L85.7586 89.2333ZM88.086 89.3427L88.0864 89.3428C88.0865 89.3424 88.0866 89.3419 88.0867 89.3416L88.0869 89.3406C88.0867 89.3412 88.0864 89.3419 88.086 89.3427ZM88.086 89.3427C88.084 89.3468 88.0798 89.3539 88.0721 89.3618C88.0632 89.371 88.0514 89.3795 88.037 89.3853C88.023 89.3909 88.0107 89.3922 88.0023 89.3922V89.3758L88.0122 89.3243L88.086 89.3427ZM82.8587 91.0577C82.8577 91.0835 82.8619 91.1092 82.8712 91.1333L88.9096 87.0319C89.0155 86.8034 89.0715 86.5549 89.0741 86.303L89.2241 86.3076C89.2241 86.3071 89.2241 86.3066 89.2241 86.306C89.2296 86.1174 89.192 85.93 89.114 85.7582C89.0358 85.5859 88.9192 85.4338 88.7731 85.3135L88.7731 85.3135L88.7716 85.3123C88.4537 85.0573 88.0539 84.9266 87.6468 84.9445L87.6461 84.9446C86.889 84.9815 86.1593 85.2392 85.5469 85.6857C84.6459 86.2815 84.1526 86.9482 84.151 87.6924C84.145 87.8327 84.1678 87.9726 84.218 88.1037C84.2686 88.236 84.346 88.3563 84.4454 88.4571L84.4453 88.4572L84.4492 88.4608C84.5527 88.5586 84.6748 88.6346 84.8083 88.6843C84.9417 88.734 85.0837 88.7564 85.226 88.7501L85.226 88.7501L85.2276 88.75C85.5883 88.7303 85.9377 88.617 86.2412 88.4211C86.6096 88.2072 86.9376 87.9301 87.21 87.6025C87.3674 87.4167 87.489 87.2534 87.572 87.1132C87.6523 86.9778 87.7085 86.8447 87.7085 86.7245C87.7085 86.7244 87.7085 86.7242 87.7085 86.7239C87.7085 86.7204 87.7086 86.7059 87.7065 86.691C87.704 86.6728 87.6968 86.6399 87.6714 86.6081C87.62 86.5438 87.5446 86.5438 87.5254 86.5438H87.525C87.5054 86.5438 87.4773 86.546 87.4475 86.5584C87.4144 86.5722 87.3891 86.5941 87.3711 86.6191C87.3555 86.6408 87.3474 86.6622 87.3435 86.6733C87.3411 86.6802 87.3385 86.6884 87.3366 86.6947C87.1335 87.1556 86.8146 87.5562 86.4109 87.8576L86.405 87.8619L86.3996 87.8668C86.0683 88.1682 85.6462 88.3508 85.1998 88.386C84.976 88.3852 84.8356 88.3375 84.7526 88.2684C84.6742 88.203 84.6241 88.0989 84.6241 87.9275C84.6241 87.4364 84.9538 86.8716 85.6891 86.2319C86.4212 85.595 87.071 85.2974 87.6422 85.2974V85.2976L87.65 85.2972C87.8561 85.2865 88.0597 85.3459 88.2277 85.4657C88.2895 85.5144 88.339 85.5768 88.3722 85.6481C88.4056 85.7198 88.4217 85.7982 88.4191 85.8772C88.3836 86.4633 88.1259 87.0138 87.6985 87.4164L87.6984 87.4163L87.6943 87.4205C87.1008 88.0246 86.3976 88.51 85.6224 88.8509L85.6223 88.8509L85.619 88.8524C84.8988 89.1902 84.3984 89.4443 84.1176 89.6134L84.1176 89.6133L84.1134 89.616C83.8292 89.8003 83.5676 90.0172 83.334 90.2623C83.1899 90.4066 83.074 90.5463 82.993 90.6761C82.9147 90.8018 82.86 90.9328 82.8587 91.0577Z" fill="#FBF8F3" stroke="#FBF8F3" stroke-width="0.3"/>
<path d="M94.1143 85.4051L94.1143 85.4051L94.113 85.4034C93.9904 85.2481 93.8332 85.1237 93.654 85.0402C93.4754 84.9569 93.2799 84.9165 93.083 84.922C92.744 84.9226 92.3625 85.0409 91.943 85.2609C91.5214 85.482 91.052 85.8108 90.5353 86.2439L90.535 86.2441C89.339 87.2521 88.7069 88.2706 88.7037 89.3004C88.6848 89.7702 88.8456 90.2297 89.1534 90.5853L89.1534 90.5853L89.1542 90.5862C89.3008 90.7528 89.4824 90.885 89.686 90.9734L89.7194 90.8963L89.686 90.9734C89.8888 91.0615 90.1086 91.1039 90.3297 91.0977C91.2475 91.0967 92.2152 90.4896 93.2307 89.3504L93.2312 89.3498C94.0633 88.4065 94.4996 87.497 94.5025 86.6242C94.5188 86.1851 94.3816 85.754 94.1143 85.4051ZM89.7044 90.5159C89.5814 90.386 89.5067 90.1777 89.5061 89.8632C89.5456 89.1709 89.7595 88.4998 90.1279 87.9123L90.1281 87.9124L90.1319 87.9057C90.5143 87.2205 91.0065 86.6027 91.5889 86.0768C92.1889 85.5393 92.6894 85.2974 93.0964 85.2974C93.3505 85.2974 93.5139 85.3637 93.6157 85.4709C93.7186 85.5792 93.7835 85.7552 93.7838 86.0273C93.7688 86.5359 93.6601 87.0374 93.4633 87.5066L93.4633 87.5066L93.462 87.5098C93.2358 88.086 92.9371 88.631 92.5731 89.1317L92.5728 89.1321C91.7865 90.2223 91.0328 90.7223 90.3163 90.7223C90.0204 90.7223 89.8264 90.6449 89.7044 90.5159Z" fill="#FBF8F3" stroke="#FBF8F3" stroke-width="0.3"/>
<mask id="path-70-outside-2_141_254" maskUnits="userSpaceOnUse" x="92.5509" y="84.0929" width="8" height="8" fill="black">
<rect fill="white" x="92.5509" y="84.0929" width="8" height="8"/>
<path d="M98.4669 89.3176C98.3851 89.6759 98.2008 90.0027 97.9365 90.2582C97.7132 90.4899 97.407 90.6235 97.0852 90.6295C96.7546 90.6094 96.4285 90.5427 96.1166 90.4313C95.7323 90.298 95.331 90.22 94.9247 90.1996C94.5419 90.2003 94.1711 90.3334 93.8752 90.5765C94.3088 90.0498 95.1006 89.5558 96.2506 89.0943C97.1699 88.7221 97.7858 88.4551 98.0984 88.2932C98.4295 88.1125 98.7354 87.8891 99.0084 87.6289C99.1983 87.4635 99.3511 87.2599 99.4569 87.0315C99.5628 86.803 99.6192 86.5548 99.6225 86.303C99.6269 86.1369 99.5935 85.9719 99.5249 85.8205C99.4562 85.6692 99.354 85.5354 99.2261 85.4293C98.9355 85.1971 98.5706 85.0781 98.1989 85.0944C97.4708 85.13 96.7691 85.3785 96.1808 85.8089C95.2932 86.3951 94.8494 87.0241 94.8494 87.6958C94.8437 87.8166 94.8632 87.9372 94.9064 88.0501C94.9496 88.163 95.0157 88.2657 95.1006 88.3518C95.1895 88.4358 95.2943 88.501 95.4089 88.5437C95.5235 88.5864 95.6455 88.6056 95.7677 88.6002C96.1034 88.5808 96.4283 88.475 96.7112 88.2932C97.067 88.0882 97.3836 87.8217 97.6462 87.506C97.9561 87.1404 98.1096 86.8808 98.1096 86.7245C98.11 86.7203 98.1095 86.7161 98.1082 86.7122C98.1068 86.7083 98.1045 86.7047 98.1016 86.7018C98.0986 86.6989 98.0951 86.6966 98.0911 86.6952C98.0872 86.6938 98.083 86.6933 98.0789 86.6938C98.0566 86.6938 98.0398 86.7105 98.0286 86.7468C97.8165 87.2357 97.4796 87.6602 97.0517 87.9778C96.6945 88.3033 96.2385 88.4998 95.7565 88.536C95.2709 88.536 95.028 88.3323 95.028 87.9275C95.028 87.3693 95.3955 86.7663 96.1306 86.1188C96.8656 85.4712 97.5495 85.1474 98.1822 85.1474C98.4242 85.1349 98.6633 85.2048 98.8604 85.3456C98.9411 85.4097 99.0056 85.4918 99.0487 85.5854C99.0919 85.679 99.1125 85.7813 99.1089 85.8843C99.0729 86.5096 98.7981 87.0971 98.3413 87.5256C97.7344 88.1433 97.0154 88.6397 96.2227 88.9882C95.5044 89.325 95.0085 89.5762 94.7349 89.7419C94.4601 89.9201 94.2072 90.1299 93.9813 90.3671C93.7615 90.5417 93.6094 90.7875 93.5514 91.0621C93.5504 91.0679 93.5509 91.0737 93.5526 91.0792C93.5544 91.0848 93.5574 91.0898 93.5615 91.0939C93.5656 91.098 93.5707 91.101 93.5762 91.1028C93.5817 91.1046 93.5876 91.105 93.5933 91.104C93.638 91.104 93.6631 91.0621 93.6687 90.9812C93.7105 90.6825 93.9171 90.5346 94.2883 90.5346C94.6687 90.5825 95.0429 90.6705 95.4048 90.797C95.7653 90.9208 96.1409 90.995 96.5213 91.0175C96.8567 91.0137 97.1857 90.9259 97.4783 90.7621C97.7709 90.5982 98.0177 90.3636 98.1961 90.0796C98.3961 89.8488 98.5241 89.5645 98.5646 89.2618C98.5628 89.2569 98.5598 89.2525 98.5559 89.2491C98.552 89.2457 98.5473 89.2433 98.5422 89.2422C98.4976 89.2534 98.4836 89.2729 98.4669 89.3176Z"/>
</mask>
<path d="M98.4669 89.3176C98.3851 89.6759 98.2008 90.0027 97.9365 90.2582C97.7132 90.4899 97.407 90.6235 97.0852 90.6295C96.7546 90.6094 96.4285 90.5427 96.1166 90.4313C95.7323 90.298 95.331 90.22 94.9247 90.1996C94.5419 90.2003 94.1711 90.3334 93.8752 90.5765C94.3088 90.0498 95.1006 89.5558 96.2506 89.0943C97.1699 88.7221 97.7858 88.4551 98.0984 88.2932C98.4295 88.1125 98.7354 87.8891 99.0084 87.6289C99.1983 87.4635 99.3511 87.2599 99.4569 87.0315C99.5628 86.803 99.6192 86.5548 99.6225 86.303C99.6269 86.1369 99.5935 85.9719 99.5249 85.8205C99.4562 85.6692 99.354 85.5354 99.2261 85.4293C98.9355 85.1971 98.5706 85.0781 98.1989 85.0944C97.4708 85.13 96.7691 85.3785 96.1808 85.8089C95.2932 86.3951 94.8494 87.0241 94.8494 87.6958C94.8437 87.8166 94.8632 87.9372 94.9064 88.0501C94.9496 88.163 95.0157 88.2657 95.1006 88.3518C95.1895 88.4358 95.2943 88.501 95.4089 88.5437C95.5235 88.5864 95.6455 88.6056 95.7677 88.6002C96.1034 88.5808 96.4283 88.475 96.7112 88.2932C97.067 88.0882 97.3836 87.8217 97.6462 87.506C97.9561 87.1404 98.1096 86.8808 98.1096 86.7245C98.11 86.7203 98.1095 86.7161 98.1082 86.7122C98.1068 86.7083 98.1045 86.7047 98.1016 86.7018C98.0986 86.6989 98.0951 86.6966 98.0911 86.6952C98.0872 86.6938 98.083 86.6933 98.0789 86.6938C98.0566 86.6938 98.0398 86.7105 98.0286 86.7468C97.8165 87.2357 97.4796 87.6602 97.0517 87.9778C96.6945 88.3033 96.2385 88.4998 95.7565 88.536C95.2709 88.536 95.028 88.3323 95.028 87.9275C95.028 87.3693 95.3955 86.7663 96.1306 86.1188C96.8656 85.4712 97.5495 85.1474 98.1822 85.1474C98.4242 85.1349 98.6633 85.2048 98.8604 85.3456C98.9411 85.4097 99.0056 85.4918 99.0487 85.5854C99.0919 85.679 99.1125 85.7813 99.1089 85.8843C99.0729 86.5096 98.7981 87.0971 98.3413 87.5256C97.7344 88.1433 97.0154 88.6397 96.2227 88.9882C95.5044 89.325 95.0085 89.5762 94.7349 89.7419C94.4601 89.9201 94.2072 90.1299 93.9813 90.3671C93.7615 90.5417 93.6094 90.7875 93.5514 91.0621C93.5504 91.0679 93.5509 91.0737 93.5526 91.0792C93.5544 91.0848 93.5574 91.0898 93.5615 91.0939C93.5656 91.098 93.5707 91.101 93.5762 91.1028C93.5817 91.1046 93.5876 91.105 93.5933 91.104C93.638 91.104 93.6631 91.0621 93.6687 90.9812C93.7105 90.6825 93.9171 90.5346 94.2883 90.5346C94.6687 90.5825 95.0429 90.6705 95.4048 90.797C95.7653 90.9208 96.1409 90.995 96.5213 91.0175C96.8567 91.0137 97.1857 90.9259 97.4783 90.7621C97.7709 90.5982 98.0177 90.3636 98.1961 90.0796C98.3961 89.8488 98.5241 89.5645 98.5646 89.2618C98.5628 89.2569 98.5598 89.2525 98.5559 89.2491C98.552 89.2457 98.5473 89.2433 98.5422 89.2422C98.4976 89.2534 98.4836 89.2729 98.4669 89.3176Z" fill="#FBF8F3"/>
<path d="M98.4669 89.3176L98.186 89.2122L98.1789 89.2311L98.1744 89.2508L98.4669 89.3176ZM97.9365 90.2582L97.7279 90.0424L97.7206 90.05L97.9365 90.2582ZM97.0852 90.6295L97.067 90.9289L97.0789 90.9297L97.0908 90.9294L97.0852 90.6295ZM96.1166 90.4313L96.2175 90.1488L96.2149 90.1479L96.1166 90.4313ZM94.9247 90.1996L94.9398 89.9L94.932 89.8996L94.9242 89.8996L94.9247 90.1996ZM93.8752 90.5765L93.6436 90.3858L94.0656 90.8083L93.8752 90.5765ZM96.2506 89.0943L96.3623 89.3727L96.3632 89.3724L96.2506 89.0943ZM98.0984 88.2932L98.2364 88.5596L98.2422 88.5565L98.0984 88.2932ZM99.0084 87.6289L98.8112 87.4024L98.8014 87.4117L99.0084 87.6289ZM99.6225 86.303L99.3225 86.295L99.3225 86.2991L99.6225 86.303ZM99.2261 85.4293L99.4176 85.1984L99.4134 85.1949L99.2261 85.4293ZM98.1989 85.0944L98.1858 84.7946L98.1842 84.7947L98.1989 85.0944ZM96.1808 85.8089L96.3461 86.0593L96.3521 86.0553L96.358 86.0511L96.1808 85.8089ZM94.8494 87.6958L95.1494 87.7098V87.6958H94.8494ZM95.1006 88.3518L94.8868 88.5625L94.8945 88.5699L95.1006 88.3518ZM95.7677 88.6002L95.7809 88.9L95.7851 88.8997L95.7677 88.6002ZM96.7112 88.2932L96.5614 88.0332L96.5551 88.0369L96.5489 88.0408L96.7112 88.2932ZM97.6462 87.506L97.4173 87.3121L97.4156 87.3141L97.6462 87.506ZM98.1096 86.7245L97.8113 86.6928L97.8096 86.7086V86.7245H98.1096ZM98.0789 86.6938V86.9938H98.0948L98.1106 86.9921L98.0789 86.6938ZM98.0286 86.7468L98.3039 86.8662L98.3105 86.8509L98.3154 86.835L98.0286 86.7468ZM97.0517 87.9778L96.8729 87.7369L96.8608 87.7459L96.8496 87.756L97.0517 87.9778ZM95.7565 88.536V88.836H95.7678L95.779 88.8352L95.7565 88.536ZM98.1822 85.1474V85.4474H98.1899L98.1977 85.447L98.1822 85.1474ZM98.8604 85.3456L99.0471 85.1107L99.0411 85.1059L99.0348 85.1015L98.8604 85.3456ZM99.1089 85.8843L99.4084 85.9015L99.4087 85.8948L99.1089 85.8843ZM98.3413 87.5256L98.1359 87.3066L98.1273 87.3153L98.3413 87.5256ZM96.2227 88.9882L96.1019 88.7135L96.0953 88.7166L96.2227 88.9882ZM94.7349 89.7419L94.5795 89.4851L94.5717 89.4902L94.7349 89.7419ZM93.9813 90.3671L94.1679 90.602L94.1842 90.5891L94.1985 90.574L93.9813 90.3671ZM93.5514 91.0621L93.2577 91.0001L93.2557 91.0117L93.5514 91.0621ZM93.5933 91.104V90.804H93.5679L93.5429 90.8083L93.5933 91.104ZM93.6687 90.9812L93.3716 90.9395L93.3701 90.95L93.3694 90.9606L93.6687 90.9812ZM94.2883 90.5346L94.3258 90.2369L94.3072 90.2346H94.2883V90.5346ZM95.4048 90.797L95.3059 91.0802L95.3074 91.0807L95.4048 90.797ZM96.5213 91.0175L96.5036 91.3169L96.5141 91.3176L96.5247 91.3175L96.5213 91.0175ZM98.1961 90.0796L97.9694 89.8832L97.9543 89.9006L97.9421 89.92L98.1961 90.0796ZM98.5646 89.2618L98.8619 89.3015L98.8717 89.2286L98.8466 89.1595L98.5646 89.2618ZM98.5422 89.2422L98.6061 88.9491L98.5375 88.9342L98.4695 88.9512L98.5422 89.2422ZM98.1744 89.2508C98.1055 89.5524 97.9504 89.8275 97.728 90.0426L98.1451 90.4739C98.4511 90.178 98.6646 89.7994 98.7593 89.3844L98.1744 89.2508ZM97.7206 90.05C97.5524 90.2245 97.3218 90.325 97.0796 90.3295L97.0908 90.9294C97.4921 90.9219 97.8739 90.7554 98.1525 90.4665L97.7206 90.05ZM97.1034 90.33C96.801 90.3117 96.5028 90.2506 96.2175 90.1488L96.0157 90.7138C96.3543 90.8347 96.7082 90.9071 97.067 90.9289L97.1034 90.33ZM96.2149 90.1479C95.8038 90.0053 95.3744 89.9218 94.9398 89.9L94.9097 90.4993C95.2876 90.5182 95.6608 90.5908 96.0183 90.7147L96.2149 90.1479ZM94.9242 89.8996C94.4721 89.9004 94.0342 90.0577 93.6848 90.3446L94.0656 90.8083C94.3079 90.6092 94.6117 90.5002 94.9253 90.4996L94.9242 89.8996ZM94.1068 90.7671C94.4918 90.2995 95.2266 89.8285 96.3623 89.3727L96.1389 88.8159C94.9746 89.2831 94.1257 89.8002 93.6436 90.3858L94.1068 90.7671ZM96.3632 89.3724C97.2809 89.0008 97.9095 88.7289 98.2364 88.5596L97.9605 88.0268C97.6621 88.1813 97.0588 88.4434 96.138 88.8162L96.3632 89.3724ZM98.2422 88.5565C98.5962 88.3632 98.9235 88.1244 99.2154 87.846L98.8014 87.4117C98.5474 87.6539 98.2627 87.8617 97.9547 88.0299L98.2422 88.5565ZM99.2054 87.8551C99.4271 87.662 99.6056 87.4243 99.7292 87.1575L99.1847 86.9054C99.0966 87.0956 98.9694 87.265 98.8114 87.4026L99.2054 87.8551ZM99.7292 87.1575C99.8527 86.8908 99.9186 86.6009 99.9224 86.3069L99.3225 86.2991C99.3197 86.5086 99.2728 86.7152 99.1847 86.9054L99.7292 87.1575ZM99.9224 86.311C99.928 86.0994 99.8855 85.8893 99.7981 85.6966L99.2517 85.9445C99.3015 86.0544 99.3258 86.1743 99.3226 86.295L99.9224 86.311ZM99.7981 85.6966C99.7106 85.5039 99.5805 85.3335 99.4176 85.1984L99.0346 85.6603C99.1276 85.7373 99.2018 85.8345 99.2517 85.9445L99.7981 85.6966ZM99.4134 85.1949C99.0661 84.9175 98.6299 84.7752 98.1858 84.7946L98.212 85.3941C98.5112 85.381 98.8049 85.4768 99.0388 85.6637L99.4134 85.1949ZM98.1842 84.7947C97.3975 84.8333 96.6394 85.1017 96.0037 85.5668L96.358 86.0511C96.8989 85.6552 97.5441 85.4268 98.2136 85.394L98.1842 84.7947ZM96.0155 85.5586C95.0946 86.1667 94.5494 86.8747 94.5494 87.6958H95.1494C95.1494 87.1735 95.4917 86.6235 96.3461 86.0593L96.0155 85.5586ZM94.5497 87.6819C94.5421 87.844 94.5682 88.0059 94.6262 88.1574L95.1866 87.9428C95.1581 87.8685 95.1453 87.7892 95.149 87.7098L94.5497 87.6819ZM94.6262 88.1574C94.6843 88.3089 94.773 88.4468 94.8869 88.5624L95.3143 88.1412C95.2585 88.0846 95.215 88.017 95.1866 87.9428L94.6262 88.1574ZM94.8945 88.5699C95.0127 88.6814 95.152 88.7682 95.3042 88.8249L95.5136 88.2626C95.4367 88.2339 95.3663 88.1901 95.3066 88.1337L94.8945 88.5699ZM95.3042 88.8249C95.4565 88.8816 95.6186 88.9071 95.7809 88.8999L95.7545 88.3005C95.6725 88.3041 95.5906 88.2912 95.5136 88.2626L95.3042 88.8249ZM95.7851 88.8997C96.1723 88.8773 96.5471 88.7553 96.8734 88.5455L96.5489 88.0408C96.3095 88.1947 96.0345 88.2843 95.7503 88.3007L95.7851 88.8997ZM96.8609 88.5531C97.2475 88.3304 97.5915 88.0409 97.8768 87.6979L97.4156 87.3141C97.1757 87.6025 96.8865 87.846 96.5614 88.0332L96.8609 88.5531ZM97.8751 87.7C98.0354 87.5108 98.1631 87.3401 98.2522 87.1897C98.3356 87.049 98.4096 86.8867 98.4096 86.7245H97.8096C97.8096 86.7186 97.8069 86.7642 97.736 86.8838C97.6709 86.9937 97.5669 87.1356 97.4174 87.3121L97.8751 87.7ZM98.4079 86.7562C98.4131 86.7076 98.4073 86.6584 98.391 86.6122L97.8253 86.8122C97.8118 86.7739 97.807 86.7331 97.8113 86.6928L98.4079 86.7562ZM98.391 86.6122C98.3746 86.5657 98.348 86.524 98.3137 86.4897L97.8894 86.9139C97.861 86.8855 97.839 86.8509 97.8253 86.8122L98.391 86.6122ZM98.3137 86.4897C98.2794 86.4554 98.2376 86.4288 98.1911 86.4124L97.9912 86.9781C97.9525 86.9644 97.9178 86.9423 97.8894 86.9139L98.3137 86.4897ZM98.1911 86.4124C98.145 86.396 98.0958 86.3903 98.0472 86.3955L98.1106 86.9921C98.0703 86.9964 98.0295 86.9916 97.9912 86.9781L98.1911 86.4124ZM98.0789 86.3938C97.9819 86.3938 97.8952 86.4343 97.8332 86.4989C97.7796 86.5547 97.7546 86.6173 97.7419 86.6586L98.3154 86.835C98.3139 86.84 98.3028 86.8761 98.266 86.9144C98.2207 86.9616 98.1535 86.9938 98.0789 86.9938V86.3938ZM97.7534 86.6274C97.5622 87.068 97.2586 87.4506 96.8729 87.7369L97.2305 88.2187C97.7006 87.8697 98.0708 87.4033 98.3039 86.8662L97.7534 86.6274ZM96.8496 87.756C96.5419 88.0364 96.1492 88.2057 95.7341 88.2369L95.779 88.8352C96.3278 88.794 96.847 88.5702 97.2538 88.1995L96.8496 87.756ZM95.7565 88.236C95.5484 88.236 95.4479 88.1913 95.4026 88.1534C95.3675 88.1241 95.328 88.0679 95.328 87.9275H94.728C94.728 88.1919 94.8099 88.4399 95.0177 88.6137C95.2153 88.7789 95.479 88.836 95.7565 88.836V88.236ZM95.328 87.9275C95.328 87.502 95.6125 86.975 96.3289 86.3439L95.9323 85.8937C95.1785 86.5577 94.728 87.2366 94.728 87.9275H95.328ZM96.3289 86.3439C97.0379 85.7192 97.6534 85.4474 98.1822 85.4474V84.8474C97.4455 84.8474 96.6933 85.2232 95.9323 85.8937L96.3289 86.3439ZM98.1977 85.447C98.3719 85.438 98.5441 85.4883 98.6861 85.5897L99.0348 85.1015C98.7824 84.9212 98.4764 84.8318 98.1667 84.8478L98.1977 85.447ZM98.6738 85.5804C98.7177 85.6153 98.7528 85.6601 98.7763 85.711L99.3212 85.4598C99.2584 85.3236 99.1645 85.2041 99.0471 85.1107L98.6738 85.5804ZM98.7763 85.711C98.7998 85.762 98.811 85.8177 98.8091 85.8738L99.4087 85.8948C99.4139 85.745 99.384 85.5959 99.3212 85.4598L98.7763 85.711ZM98.8094 85.8671C98.7778 86.4155 98.5368 86.9309 98.136 87.3068L98.5465 87.7444C99.0594 87.2633 99.368 86.6036 99.4084 85.9015L98.8094 85.8671ZM98.1273 87.3153C97.5471 87.9058 96.8597 88.3804 96.1019 88.7136L96.3434 89.2628C97.171 88.8989 97.9217 88.3807 98.5553 87.7358L98.1273 87.3153ZM96.0953 88.7166C95.3773 89.0533 94.8682 89.3104 94.5796 89.4852L94.8903 89.9985C95.1487 89.842 95.6314 89.5968 96.35 89.2598L96.0953 88.7166ZM94.5717 89.4902C94.2772 89.6811 94.0061 89.906 93.764 90.1602L94.1985 90.574C94.4082 90.3538 94.643 90.159 94.8982 89.9936L94.5717 89.4902ZM93.7947 90.1322C93.5202 90.3502 93.3303 90.6571 93.2579 91.0001L93.8449 91.1241C93.8885 90.9178 94.0027 90.7332 94.1679 90.602L93.7947 90.1322ZM93.2557 91.0117C93.2466 91.0649 93.2505 91.1193 93.2668 91.1703L93.8385 90.9882C93.8512 91.0282 93.8543 91.0708 93.8472 91.1126L93.2557 91.0117ZM93.2668 91.1703C93.2831 91.2216 93.3115 91.2681 93.3494 91.306L93.7737 90.8818C93.8034 90.9115 93.8256 90.9479 93.8385 90.9882L93.2668 91.1703ZM93.3494 91.306C93.3873 91.3439 93.4338 91.3723 93.4852 91.3887L93.6672 90.817C93.7075 90.8298 93.744 90.8521 93.7737 90.8818L93.3494 91.306ZM93.4852 91.3887C93.5361 91.4049 93.5905 91.4088 93.6437 91.3997L93.5429 90.8083C93.5846 90.8012 93.6273 90.8042 93.6672 90.817L93.4852 91.3887ZM93.5933 91.404C93.7315 91.404 93.8409 91.329 93.9017 91.2292C93.9511 91.1483 93.9638 91.0613 93.9679 91.0018L93.3694 90.9606C93.3679 90.9821 93.3653 90.9564 93.3895 90.9167C93.4038 90.8934 93.429 90.8626 93.4697 90.8384C93.5116 90.8135 93.5556 90.804 93.5933 90.804V91.404ZM93.9658 91.0228C93.9776 90.9385 94.0055 90.9072 94.0302 90.8894C94.0637 90.8653 94.1377 90.8346 94.2883 90.8346V90.2346C94.0677 90.2346 93.8528 90.2779 93.6797 90.4024C93.4979 90.5333 93.4016 90.7252 93.3716 90.9395L93.9658 91.0228ZM94.2508 90.8322C94.6102 90.8775 94.9639 90.9607 95.3059 91.0802L95.5038 90.5138C95.122 90.3803 94.7271 90.2875 94.3258 90.2369L94.2508 90.8322ZM95.3074 91.0807C95.6936 91.2133 96.096 91.2928 96.5036 91.3169L96.5391 90.718C96.1858 90.6971 95.837 90.6282 95.5023 90.5132L95.3074 91.0807ZM96.5247 91.3175C96.9102 91.3132 97.2885 91.2122 97.6249 91.0238L97.3317 90.5003C97.0829 90.6397 96.8032 90.7143 96.518 90.7175L96.5247 91.3175ZM97.6249 91.0238C97.9613 90.8355 98.245 90.5657 98.4502 90.2392L97.9421 89.92C97.7904 90.1615 97.5805 90.361 97.3317 90.5003L97.6249 91.0238ZM98.4229 90.276C98.6611 90.0009 98.8137 89.6622 98.8619 89.3015L98.2672 89.222C98.2345 89.4668 98.131 89.6966 97.9694 89.8832L98.4229 90.276ZM98.8466 89.1595C98.8275 89.1069 98.7954 89.0601 98.7535 89.0233L98.3584 89.4749C98.3242 89.445 98.2981 89.4069 98.2825 89.364L98.8466 89.1595ZM98.7535 89.0233C98.7114 88.9865 98.6607 88.961 98.6061 88.9491L98.4784 89.5353C98.4339 89.5257 98.3926 89.5049 98.3584 89.4749L98.7535 89.0233ZM98.4695 88.9512C98.4129 88.9653 98.339 88.9944 98.2756 89.0617C98.2206 89.1202 98.1961 89.1853 98.186 89.2122L98.7478 89.4229C98.7544 89.4052 98.7452 89.4382 98.7126 89.4729C98.6715 89.5166 98.6269 89.5303 98.615 89.5333L98.4695 88.9512Z" fill="#FBF8F3" mask="url(#path-70-outside-2_141_254)"/>
<path d="M101.58 89.2333L101.579 89.2335C100.909 89.5023 100.374 89.7779 99.9683 90.0581C100.055 90.0452 100.142 90.0386 100.231 90.0385L100.238 90.0384L100.238 90.0386C100.659 90.0597 101.074 90.1405 101.472 90.2784L101.473 90.2789C101.771 90.385 102.081 90.4487 102.396 90.4682C102.672 90.458 102.932 90.3415 103.124 90.143L103.128 90.1388L103.128 90.1389C103.372 89.9045 103.541 89.6036 103.616 89.2735L103.616 89.27L103.616 89.27C103.625 89.2355 103.641 89.1918 103.675 89.1552C103.714 89.1133 103.766 89.0922 103.821 89.0922H103.832L103.844 89.0941C103.877 89.0994 103.908 89.1139 103.933 89.1359L103.933 89.1359C103.958 89.1579 103.977 89.1866 103.987 89.2186L103.996 89.2496L103.992 89.2816C103.948 89.6089 103.811 89.9166 103.598 90.1687C103.407 90.4697 103.144 90.7186 102.833 90.893C102.518 91.0691 102.165 91.1635 101.804 91.1675L101.794 91.1676L101.794 91.1672C101.4 91.1439 101.011 91.0671 100.637 90.9388L100.636 90.9386C100.288 90.8166 99.9268 90.7315 99.5602 90.6846C99.3956 90.6858 99.2886 90.7194 99.2216 90.7676C99.1583 90.8131 99.1141 90.8836 99.0987 90.999C99.0924 91.0566 99.0753 91.1118 99.0446 91.1571C99.0161 91.1992 98.9593 91.254 98.8744 91.254C98.8394 91.254 98.7835 91.2464 98.7371 91.2021C98.6892 91.1565 98.6797 91.0992 98.6797 91.0621C98.6797 90.9359 98.7348 90.8033 98.8141 90.6761C98.8949 90.5463 99.0108 90.4068 99.1547 90.2626C99.3874 90.0158 99.6495 89.7985 99.9351 89.6156L99.938 89.6137L99.9381 89.6137C100.217 89.4443 100.72 89.19 101.437 88.8525L101.441 88.8509L101.441 88.8509C102.216 88.5093 102.92 88.0239 103.516 87.4203L103.519 87.4163L103.519 87.4164C103.947 87.0138 104.205 86.4633 104.24 85.8772C104.243 85.7982 104.227 85.7197 104.193 85.6481C104.16 85.5769 104.111 85.5144 104.049 85.4658C103.881 85.3463 103.677 85.2869 103.471 85.2972L103.463 85.2976V85.2974C102.892 85.2974 102.242 85.595 101.51 86.2319C100.775 86.8716 100.445 87.4364 100.445 87.9275C100.445 88.0989 100.495 88.2031 100.573 88.2685C100.656 88.3376 100.796 88.3852 101.018 88.386C101.465 88.351 101.888 88.1684 102.221 87.8667L102.226 87.8619L102.232 87.8576C102.636 87.5562 102.955 87.1556 103.158 86.6947C103.16 86.6884 103.162 86.6802 103.165 86.6733C103.168 86.6621 103.177 86.6408 103.192 86.619C103.21 86.5941 103.236 86.5721 103.269 86.5584C103.298 86.546 103.326 86.5438 103.346 86.5438H103.346C103.366 86.5438 103.441 86.5438 103.492 86.6081C103.518 86.6399 103.525 86.6728 103.528 86.691C103.53 86.7059 103.53 86.7204 103.53 86.7239C103.53 86.7242 103.53 86.7244 103.53 86.7245C103.53 86.8451 103.472 86.9786 103.392 87.1135C103.309 87.2534 103.187 87.4167 103.031 87.6023C102.758 87.9293 102.43 88.2064 102.062 88.4211C101.759 88.6166 101.409 88.7299 101.049 88.75L101.047 88.7501L101.047 88.7501C100.905 88.7564 100.763 88.734 100.629 88.6843C100.496 88.6346 100.374 88.5586 100.27 88.4608L100.266 88.4571L100.266 88.4571C100.167 88.3562 100.09 88.2359 100.039 88.1037C99.9888 87.9726 99.966 87.8326 99.9721 87.6924C99.9736 86.9481 100.467 86.2815 101.368 85.6857C101.98 85.2397 102.708 84.9821 103.464 84.9445L103.465 84.9445C103.873 84.9267 104.273 85.0573 104.592 85.3121L104.594 85.3135L104.594 85.3135C104.74 85.4337 104.857 85.5859 104.935 85.7582C105.013 85.93 105.051 86.1174 105.045 86.306C105.045 86.3065 105.045 86.307 105.045 86.3076L104.895 86.303C104.893 86.5549 104.836 86.8033 104.731 87.0319C104.625 87.2605 104.472 87.464 104.281 87.6289L101.58 89.2333ZM101.58 89.2333C102.498 88.8615 103.12 88.592 103.44 88.4264L103.44 88.4264L103.443 88.425C103.785 88.2392 104.101 88.0088 104.382 87.7398L101.58 89.2333ZM100.478 88.2446C100.552 88.3139 100.639 88.3678 100.734 88.4032C100.825 88.4369 100.921 88.4531 101.017 88.4509L100.478 88.2446ZM100.478 88.2446C100.409 88.1736 100.355 88.0892 100.319 87.9964C100.311 87.9738 100.303 87.9508 100.297 87.9275C100.296 87.9256 100.296 87.9238 100.295 87.9219L100.478 88.2446Z" fill="#FBF8F3" stroke="#FBF8F3" stroke-width="0.3"/>
<path d="M76.2933 45.5249L76.2933 45.5251C76.2936 45.6918 76.2611 45.857 76.1975 46.0111C76.134 46.1652 76.0407 46.3052 75.9229 46.4232C75.8051 46.5412 75.6653 46.6348 75.5113 46.6987C75.3573 46.7626 75.1923 46.7955 75.0256 46.7955L75.0254 46.7955C74.774 46.796 74.5281 46.7219 74.3188 46.5826C74.1095 46.4433 73.9463 46.2451 73.8497 46.0129C73.7531 45.7808 73.7276 45.5253 73.7764 45.2787C73.8251 45.032 73.9459 44.8054 74.1235 44.6275C74.301 44.4495 74.5274 44.3283 74.774 44.279C75.0205 44.2298 75.2761 44.2548 75.5084 44.3509C75.7407 44.447 75.9393 44.6098 76.079 44.8188C76.2187 45.0278 76.2933 45.2735 76.2933 45.5249Z" fill="#FBF8F3" stroke="#FBF8F3" stroke-width="0.2"/>
<path d="M67.5348 33.3859C69.3453 32.2804 71.1062 31.7286 72.8177 31.7304M67.5348 33.3859L55.7154 36.2858M67.5348 33.3859C67.5256 33.3784 67.5163 33.3709 67.5069 33.3635L67.4444 33.4415L67.4971 33.5265C67.507 33.5204 67.5169 33.5143 67.5267 33.5082C69.0424 34.7497 69.8003 36.152 69.8003 37.715C69.7989 38.3808 69.6538 39.0385 69.3749 39.643C69.096 40.2476 68.6898 40.7849 68.1841 41.218L67.5348 33.3859ZM72.8177 31.7304C74.1054 31.7304 75.1419 32.1305 75.9272 32.9307C76.7124 33.7309 77.1051 34.7897 77.1051 36.1072M72.8177 31.7304L72.8178 31.6304C72.8177 31.6304 72.8177 31.6304 72.8177 31.6304M72.8177 31.7304V31.6304C72.8177 31.6304 72.8177 31.6304 72.8177 31.6304M77.1051 36.1072C77.1116 36.9158 76.9707 37.7189 76.6892 38.477C76.6713 38.5224 76.6609 38.5705 76.6585 38.6193C76.6551 38.6406 76.6569 38.6624 76.6635 38.6829C76.6702 38.7034 76.6816 38.722 76.6969 38.7372M77.1051 36.1072H77.2051C77.2051 36.1069 77.2051 36.1066 77.2051 36.1064M77.1051 36.1072L77.2051 36.1064M76.6969 38.7372L76.7676 38.6665C76.7717 38.6706 76.7767 38.6737 76.7822 38.6755C76.7877 38.6773 76.7936 38.6778 76.7993 38.6769L76.807 38.6756H76.8122C76.8151 38.6744 76.8248 38.669 76.8411 38.6499C76.8665 38.6202 76.8968 38.5696 76.9303 38.4926C76.9969 38.3394 77.0664 38.1035 77.1357 37.7805L77.1361 37.7786C77.2722 37.1994 77.3443 36.607 77.3512 36.012C77.3418 34.6636 76.9173 33.5855 76.0834 32.7678C75.2512 31.9555 74.1493 31.5448 72.7673 31.5429C71.0002 31.543 69.1649 32.1316 67.26 33.3171L67.2058 33.3508L67.1524 33.3158C65.0786 31.9591 62.5121 31.2768 59.4473 31.275L59.447 31.275C55.4697 31.2577 51.5954 32.5384 48.412 34.9228L48.411 34.9235L48.411 34.9235C45.0762 37.3579 43.4277 40.0361 43.4277 42.957C43.4277 44.4021 43.8579 45.5443 44.7103 46.3949C45.5628 47.2456 46.7006 47.6757 48.1344 47.6775C50.3345 47.6775 52.5735 46.6566 54.8528 44.5939C57.1335 42.53 58.257 40.5023 58.2588 38.5104C58.2588 37.6962 58.0388 37.1018 57.6152 36.708C57.1902 36.3128 56.5434 36.1039 55.6565 36.0983C53.8031 36.0984 51.988 36.8597 50.2094 38.3963C48.4293 39.9343 47.557 41.5001 47.5588 43.0937L47.5588 43.097L47.5588 43.097C47.5401 43.6753 47.7161 44.2431 48.0586 44.7093L48.0608 44.7123L48.0607 44.7123C48.1934 44.9077 48.3717 45.0678 48.5801 45.1788C48.7884 45.2898 49.0205 45.3484 49.2565 45.3496C49.3515 45.3496 49.4101 45.3391 49.4414 45.326C49.4467 45.3238 49.4504 45.3218 49.4531 45.3202C49.451 45.3182 49.4471 45.315 49.4398 45.3112C49.4146 45.2978 49.3636 45.2844 49.276 45.2844H49.2757C49.0929 45.2839 48.9124 45.2438 48.7465 45.1669C48.5816 45.0904 48.4351 44.9793 48.3169 44.8412C48.0502 44.5616 47.9046 44.1882 47.9115 43.8018C47.9119 42.2364 48.8277 40.5775 50.6213 38.8269C52.4157 37.0755 54.1144 36.1839 55.7156 36.1858M76.6969 38.7372L76.7676 38.6665C76.7635 38.6624 76.7604 38.6574 76.7586 38.6519C76.7568 38.6464 76.7564 38.6406 76.7573 38.6348L76.7578 38.6349L76.7583 38.6243C76.7602 38.5864 76.7683 38.549 76.7822 38.5136L76.7829 38.5118C77.0687 37.7423 77.2117 36.9272 77.2051 36.1064M76.6969 38.7372L77.2051 36.1064M55.7156 36.1858L55.7154 36.2858M55.7156 36.1858C55.7155 36.1858 55.7155 36.1858 55.7154 36.1858V36.2858M55.7156 36.1858C56.5099 36.1858 57.1242 36.379 57.5395 36.7829C57.9553 37.1873 58.1545 37.7863 58.1545 38.5607C58.1545 40.5094 57.0074 42.4985 54.7523 44.5275C52.4958 46.5578 50.2977 47.5845 48.1594 47.5845C46.8516 47.5845 45.8017 47.233 45.0216 46.5199L45.0206 46.5191C44.6305 46.1536 44.3244 45.7078 44.1233 45.2125C43.9225 44.7179 43.8312 44.1857 43.8558 43.6525M55.7154 36.2858C57.2748 36.2858 58.0545 37.0441 58.0545 38.5607C58.0545 40.4681 56.9315 42.4322 54.6855 44.4531C52.4394 46.474 50.2641 47.4845 48.1594 47.4845C46.8699 47.4845 45.8464 47.1383 45.089 46.4461C44.7095 46.0905 44.4116 45.6568 44.2159 45.1749C44.0203 44.693 43.9315 44.1744 43.9558 43.6548M43.8558 43.6525C43.8558 43.6533 43.8558 43.654 43.8558 43.6548H43.9558M43.8558 43.6525C43.8558 43.6517 43.8558 43.6509 43.8559 43.6502L43.9558 43.6548M43.8558 43.6525C43.8567 41.2987 45.2197 38.8086 47.9081 36.1836M43.9558 43.6548C43.9558 41.3399 45.2965 38.8733 47.978 36.2551M66.702 33.5532L66.6371 33.6292C66.6304 33.6236 66.6238 33.6179 66.6171 33.6123C66.6456 33.5922 66.6738 33.5725 66.702 33.5532ZM66.702 33.5532L66.6452 33.4708C66.6377 33.476 66.6301 33.4812 66.6225 33.4865C66.6492 33.5085 66.6757 33.5307 66.702 33.5532ZM47.978 36.2551L47.9081 36.1836M47.978 36.2551L47.9081 36.1836C47.9081 36.1836 47.9081 36.1836 47.9081 36.1836M47.978 36.2551L59.3857 41.8398M47.9081 36.1836C51.1919 32.9728 55.0603 31.3653 59.5088 31.3653C62.6851 31.3653 65.1099 32.0638 66.7668 33.4771L66.866 33.5616L66.7587 33.6355C65.7635 34.3211 64.5499 35.4615 63.1171 37.0615L63.1168 37.0618C61.7605 38.5633 60.5137 40.1601 59.3857 41.8398M59.3857 41.8398C59.3858 41.8396 59.386 41.8394 59.3861 41.8392L59.3023 41.7847M59.3857 41.8398L63.0426 36.9948C61.683 38.5 60.433 40.1007 59.3023 41.7847M59.3857 41.8398C57.2856 45.0709 55.9226 47.1084 55.2989 47.9488L55.2984 47.9495C54.6723 48.7789 53.9679 49.5463 53.195 50.2411M59.3857 41.8398L55.2186 47.8892C54.5963 48.7136 53.8961 49.4764 53.1279 50.1669M59.3857 41.8398C59.3855 41.84 59.3854 41.8402 59.3853 41.8404L59.3023 41.7847M59.3857 41.8398L59.3023 41.7847M53.195 50.2411C53.1951 50.241 53.1952 50.2409 53.1953 50.2408L53.1279 50.1669M53.195 50.2411C51.3182 51.9507 49.2169 52.8093 46.8941 52.8097M53.195 50.2411C53.1949 50.2411 53.1948 50.2412 53.1948 50.2413L53.1279 50.1669M53.1279 50.1669L46.8941 52.8097M46.8941 52.8097C46.8948 52.8097 46.8954 52.8097 46.896 52.8097L46.8922 52.7097V52.8097C46.8928 52.8097 46.8935 52.8097 46.8941 52.8097ZM46.8941 52.8097C45.7368 52.854 44.593 52.5481 43.6123 51.9319L43.6094 51.9301L43.6094 51.9301C42.7338 51.3377 42.2843 50.5891 42.2843 49.6784C42.2843 49.3967 42.3051 49.1755 42.3513 49.0216C42.3744 48.9447 42.406 48.8767 42.4512 48.8265C42.4991 48.7733 42.5617 48.741 42.6355 48.741C42.6921 48.741 42.7313 48.7744 42.7532 48.8078C42.7731 48.8383 42.7836 48.8748 42.7899 48.9087C42.803 48.9781 42.8052 49.0739 42.7996 49.1916C42.7996 49.1917 42.7996 49.1918 42.7996 49.192L42.6997 49.1871L46.8941 52.8097ZM77.2051 36.1064C77.2049 34.768 76.8052 33.6826 75.9985 32.8607C75.1916 32.0384 74.1279 31.6305 72.8177 31.6304M77.2051 36.1064L72.8177 31.6304" fill="#FBF8F3" stroke="#FBF8F3" stroke-width="0.2"/>
<path d="M108.063 32.913C108.062 32.6699 107.932 32.452 107.702 32.2602C107.473 32.0688 107.136 31.8951 106.699 31.737L106.697 31.7365C105.73 31.4028 104.712 31.2413 103.689 31.2593C102.208 31.2412 100.746 31.5903 99.4338 32.2755L99.2226 32.3857L99.4492 32.4593C99.9943 32.6362 100.523 32.7959 101.035 32.9383C100.446 32.8011 99.8144 32.6489 99.1384 32.482L99.0996 32.4724L99.0648 32.4922C97.2664 33.5175 96.3459 34.8231 96.3459 36.4115V36.4118C96.3477 37.1246 96.577 37.6518 97.0493 37.9668L96.9232 37.9133C96.3532 37.6716 95.9334 37.3627 95.6559 36.9903C95.3793 36.6189 95.2396 36.1782 95.2396 35.6634C95.2396 34.3523 96.0531 33.2334 97.7333 32.3123L97.96 32.188L97.7087 32.1274C95.2746 31.5403 93.261 31.2453 91.67 31.2453L91.67 31.2453C88.5506 31.2472 85.8872 32.0269 83.6849 33.5889C81.4826 35.151 80.369 37.0523 80.3686 39.2909C80.3452 40.2328 80.6596 41.1521 81.2549 41.8824C81.5037 42.2182 81.8272 42.4916 82.1999 42.6809C82.5732 42.8706 82.9856 42.9708 83.4044 42.9733H83.405C83.6867 42.9733 83.9085 42.9518 84.0631 42.9031C84.2132 42.8558 84.3424 42.7667 84.3424 42.6082C84.3424 42.566 84.3308 42.5232 84.3019 42.4867C84.2737 42.4512 84.2356 42.4302 84.1974 42.4182C84.1266 42.3959 84.0358 42.3984 83.9363 42.4132C83.6747 42.4121 83.4964 42.351 83.3834 42.2471C83.271 42.1436 83.2064 41.9821 83.2063 41.743C83.2065 41.6128 83.2363 41.4844 83.2935 41.3675C83.3506 41.2505 83.4337 41.1481 83.5363 41.0681L83.5364 41.0681L83.5395 41.0655C83.7681 40.8717 84.0602 40.7688 84.3598 40.7766L84.3598 40.7766H84.3624C84.6828 40.7766 84.9046 40.8541 85.0466 40.9913C85.188 41.128 85.2673 41.3405 85.2673 41.648V41.6481C85.2675 41.8454 85.2208 42.0399 85.131 42.2156C85.0411 42.3912 84.9107 42.5429 84.7506 42.6582L84.7506 42.6582L84.7484 42.6598C84.3665 42.951 83.8963 43.1024 83.4162 43.0888L83.4162 43.0888H83.4134C82.4775 43.0888 81.6732 42.6686 81.0053 41.8155C80.3223 40.9286 79.9659 39.8333 79.9963 38.7143L79.9964 38.7143V38.7115C79.9964 36.889 80.7876 35.212 82.3856 33.6784L82.3857 33.6783C84.2768 31.859 86.9397 30.9429 90.3888 30.9429C92.3122 30.9429 94.8729 31.3408 98.0741 32.1402L98.1084 32.1487L98.1404 32.1339C99.7044 31.4089 101.414 31.052 103.137 31.0908L103.137 31.0909L103.142 31.0908C104.368 31.0563 105.591 31.2434 106.751 31.6431C107.247 31.8324 107.611 32.0384 107.851 32.2579C108.089 32.4759 108.2 32.7028 108.203 32.9398C108.203 33.0996 108.167 33.2345 108.097 33.3481C108.027 33.4622 107.921 33.5605 107.772 33.6412C107.472 33.8045 107.009 33.8915 106.372 33.8915C105.989 33.8915 105.402 33.8241 104.609 33.6878C105.276 33.7726 105.901 33.8151 106.486 33.8151H106.586V33.8086C107.036 33.8 107.393 33.7325 107.644 33.5977C107.781 33.5247 107.888 33.4305 107.96 33.3133C108.032 33.196 108.066 33.0613 108.063 32.913ZM108.063 32.913C108.063 32.9126 108.063 32.9123 108.063 32.9119L107.963 32.914H108.063C108.063 32.9137 108.063 32.9133 108.063 32.913ZM97.2401 38.0476L97.2754 38.0626L96.8951 38.1047C95.43 38.2671 93.9851 38.578 92.5829 39.0327C90.5021 39.7097 88.8428 40.7049 87.6003 42.0154C86.358 43.3259 85.7437 44.7184 85.7436 46.1948L97.2401 38.0476ZM97.2401 38.0476C97.9672 37.9873 98.516 37.9574 98.8883 37.9574C99.4307 37.9574 99.8294 37.9896 100.09 38.0517C100.221 38.0829 100.308 38.1197 100.361 38.1576C100.411 38.1936 100.421 38.2236 100.421 38.2482C100.421 38.2566 100.419 38.267 100.401 38.2825C100.381 38.3006 100.342 38.3216 100.276 38.3405C100.146 38.3784 99.9412 38.3994 99.6564 38.3994C98.8576 38.3907 98.0626 38.2867 97.2884 38.0899L97.2676 38.0846L97.2464 38.0883C95.826 38.3379 94.4502 38.7961 93.1638 39.4481C89.2271 41.3372 87.2268 43.7934 87.2268 46.8257C87.2268 46.8257 87.2268 46.8258 87.2268 46.8258L97.2401 38.0476ZM93.8663 43.0556V43.0472L93.7006 43.1915C91.5397 45.0736 90.4423 47.0127 90.4423 49.0086L90.4424 49.0108C90.4562 49.6412 90.641 50.256 90.9769 50.7897L90.9998 50.826L91.0419 50.8344C91.5996 50.9463 92.1667 51.0049 92.7355 51.0095H92.7363C95.2396 51.0095 97.6788 50.1445 100.052 48.4224C102.421 46.7038 103.633 44.9269 103.633 43.0891C103.639 42.7137 103.557 42.3421 103.394 42.0038C103.232 41.6653 102.993 41.3693 102.696 41.1393C102.696 41.1392 102.696 41.1391 102.695 41.139L93.8663 43.0556ZM93.8663 43.0556C95.9762 41.2776 98.1441 40.3817 100.369 40.3812L93.8663 43.0556Z" fill="#FBF8F3" stroke="#FBF8F3" stroke-width="0.2"/>
</g>
<defs>
<filter id="filter0_d_141_254" x="3.05176e-05" y="0" width="152.73" height="124.459" filterUnits="userSpaceOnUse" color-interpolation-filters="sRGB">
<feFlood flood-opacity="0" result="BackgroundImageFix"/>
<feColorMatrix in="SourceAlpha" type="matrix" values="0 0 0 0 0 0 0 0 0 0 0 0 0 0 0 0 0 0 127 0" result="hardAlpha"/>
<feOffset dy="4"/>
<feGaussianBlur stdDeviation="5"/>
<feComposite in2="hardAlpha" operator="out"/>
<feColorMatrix type="matrix" values="0 0 0 0 0.275 0 0 0 0 0.245536 0 0 0 0 0.223438 0 0 0 0.6 0"/>
<feBlend mode="normal" in2="BackgroundImageFix" result="effect1_dropShadow_141_254"/>
<feBlend mode="normal" in="SourceGraphic" in2="effect1_dropShadow_141_254" result="shape"/>
</filter>
</defs>
</svg>
