<svg width="66" height="52" viewBox="0 0 66 52" fill="none" xmlns="http://www.w3.org/2000/svg">
<path d="M53.7571 40.8429C48.3735 48.5155 39.1225 52.5384 29.8398 51.4284C21.9372 50.4836 14.8719 45.6673 10.8779 38.8266C8.39886 34.5874 7.29706 29.6734 7.50503 24.7855C7.50503 24.6919 7.11389 24.9549 7.107 25.1106C6.9322 29.0746 7.66921 33.026 9.26131 36.6605C10.8534 40.295 13.2582 43.5158 16.2905 46.075C22.5143 51.3168 31.0518 53.1789 38.9283 51.2672C45.0639 49.7784 50.4531 45.9153 54.0629 40.7712C54.2584 40.4958 53.8411 40.723 53.7571 40.8429Z" fill="#FBF8F3"/>
<path d="M9.64666 36.6807C8.3672 35.6133 6.82193 35.0817 5.26701 34.546C3.42977 33.9152 1.71372 33.1494 0.352995 31.7226L0.233174 31.9457C2.11036 31.5436 3.9724 31.6413 5.67606 32.5806C7.37971 33.5199 8.54762 35.1974 9.42906 36.8708C9.4993 37.0085 9.72517 36.8322 9.66319 36.7151C8.74181 34.9619 7.56151 33.3588 5.83169 32.3396C4.14731 31.3425 2.13929 31.2915 0.271737 31.6923C0.187725 31.7102 0.0706593 31.83 0.151917 31.9168C1.40383 33.2376 2.94911 34.0088 4.64174 34.6148C6.33438 35.2208 8.04492 35.7166 9.44558 36.8818C9.55301 36.9727 9.75271 36.7688 9.64666 36.6807Z" fill="#FBF8F3"/>
<path d="M0.227693 31.8783C1.90671 32.3232 3.52538 32.9707 5.04806 33.8064C6.45974 34.5777 8.17166 35.2511 9.13848 36.5802C9.17842 36.6353 9.27621 36.5361 9.23902 36.4797C8.26118 35.1382 6.541 34.4716 5.12656 33.6893C3.59416 32.8496 1.96405 32.202 0.273143 31.7612C0.209789 31.7447 0.143681 31.8645 0.223562 31.8852L0.227693 31.8783Z" fill="#FBF8F3"/>
<path d="M2.05251 33.2598C2.59515 33.1882 3.11575 33.0794 3.66802 33.0904C3.73275 33.0904 3.79748 32.9678 3.7176 32.9664C3.15706 32.954 2.62407 33.0628 2.07179 33.1358C2.00569 33.1455 1.96437 33.2736 2.05251 33.2598Z" fill="#FBF8F3"/>
<path d="M4.54255 33.3753C4.23671 32.8319 3.97688 32.2639 3.76578 31.6771C3.73823 31.6069 3.62805 31.6923 3.64871 31.7543C3.86002 32.3411 4.12032 32.9092 4.42686 33.4524C4.46404 33.5171 4.57698 33.4318 4.54255 33.3753Z" fill="#FBF8F3"/>
<path d="M3.93244 34.2858C4.49435 34.2417 5.05352 34.1853 5.6113 34.1054C5.67741 34.0957 5.71873 33.9677 5.63058 33.9828C5.07968 34.0627 4.51364 34.1205 3.95172 34.1619C3.88423 34.1619 3.84429 34.2927 3.93244 34.2858Z" fill="#FBF8F3"/>
<path d="M6.30132 34.3395C5.88126 33.5999 5.5576 32.8135 5.17335 32.056C5.13892 31.9885 5.02599 32.0739 5.05629 32.1332C5.44054 32.892 5.77108 33.6784 6.18425 34.418C6.22144 34.4841 6.33437 34.3974 6.30132 34.3409V34.3395Z" fill="#FBF8F3"/>
<path d="M7.25027 34.8559C6.87841 34.8132 6.51206 34.9069 6.1402 34.9041C6.07547 34.9041 6.01074 35.0281 6.09062 35.0294C6.4611 35.0294 6.83021 34.9385 7.20068 34.9812C7.26542 34.9881 7.33152 34.8655 7.25027 34.8559Z" fill="#FBF8F3"/>
<path d="M7.67585 35.1134C7.49406 34.5102 7.33017 33.8987 7.10567 33.3092C7.07951 33.2404 6.96795 33.3244 6.98998 33.3877C7.2131 33.9772 7.37699 34.5873 7.55879 35.1905C7.57945 35.2608 7.69651 35.1768 7.67585 35.1134Z" fill="#FBF8F3"/>
<path d="M7.42377 25.0375C7.69922 22.9413 7.21581 20.9154 6.72826 18.8881C6.1388 16.4379 5.76419 14.025 6.38533 11.5377L6.09611 11.6919C7.79288 13.4052 8.9718 15.4601 9.16186 17.9047C9.35468 20.4099 8.34928 22.8724 7.13317 25.0044C7.01473 25.2124 7.28192 25.3005 7.38383 25.1187C8.62336 22.9372 9.54749 20.5738 9.4924 18.0231C9.43731 15.4725 8.11515 13.2028 6.34952 11.4316C6.23934 11.3228 6.08647 11.484 6.0603 11.5859C5.49563 13.8184 5.72012 16.022 6.22006 18.2476C6.72964 20.5105 7.40862 22.7416 7.10012 25.0871C7.06982 25.3129 7.39485 25.2083 7.41689 25.0375H7.42377Z" fill="#FBF8F3"/>
<path d="M6.14433 11.6149C6.80995 13.675 7.22609 15.8076 7.38386 17.9668C7.53535 20.0616 8.02428 22.5117 7.22547 24.4963C7.1814 24.6079 7.33841 24.5996 7.37284 24.5128C8.14961 22.5847 7.69374 20.3081 7.56841 18.2835C7.42859 15.9818 7.00059 13.7068 6.29445 11.5116C6.26553 11.4221 6.11817 11.5309 6.14433 11.6122V11.6149Z" fill="#FBF8F3"/>
<path d="M5.90881 14.5345C6.36055 15.073 6.84259 15.5619 7.20894 16.1679C7.25989 16.2506 7.40313 16.1404 7.35906 16.0674C6.98582 15.4518 6.4969 14.9532 6.03965 14.405C5.98181 14.3376 5.85097 14.4656 5.90881 14.5345Z" fill="#FBF8F3"/>
<path d="M7.48991 17.2614C7.86315 16.5612 8.29533 15.8941 8.78177 15.2672C8.85339 15.1694 8.71566 15.1295 8.65506 15.2093C8.16136 15.8502 7.72188 16.5311 7.34117 17.2449C7.28883 17.3523 7.44859 17.3427 7.48991 17.2614Z" fill="#FBF8F3"/>
<path d="M6.0961 17.2879C6.53131 17.8649 6.97892 18.4337 7.45131 18.9819C7.50916 19.048 7.64 18.9199 7.58077 18.8441C7.10838 18.2932 6.66077 17.73 6.22556 17.1515C6.17323 17.0813 6.04239 17.208 6.0961 17.281V17.2879Z" fill="#FBF8F3"/>
<path d="M7.65655 19.8288C8.162 18.8647 8.78865 17.9833 9.33817 17.0495C9.40015 16.9462 9.26518 16.9035 9.21284 16.993C8.66194 17.9392 8.0229 18.8399 7.50918 19.8136C7.45409 19.9183 7.61523 19.9087 7.65655 19.8288Z" fill="#FBF8F3"/>
<path d="M7.75158 21.2087C7.54361 20.7749 7.18691 20.4444 6.93349 20.0395C6.88254 19.9568 6.73792 20.067 6.78337 20.1386C7.03541 20.5435 7.39349 20.8754 7.60146 21.3079C7.64415 21.3947 7.79014 21.2859 7.75158 21.2087Z" fill="#FBF8F3"/>
<path d="M7.74331 21.8919C8.27631 21.2707 8.83134 20.6675 9.31888 20.0092C9.3905 19.9128 9.25278 19.8714 9.19218 19.9527C8.71427 20.5972 8.17026 21.1922 7.64691 21.7968C7.57391 21.8822 7.66756 21.9786 7.74331 21.8919Z" fill="#FBF8F3"/>
<path d="M2.96015 28.9682C2.70674 28.6005 2.77973 27.9725 2.83207 27.5524C2.76321 27.6075 2.69435 27.664 2.62824 27.7205C3.03031 27.7558 3.42293 27.8621 3.78788 28.0345C3.95747 28.1289 4.08321 28.2862 4.13807 28.4724C4.19293 28.6586 4.17252 28.8589 4.08123 29.0302C3.82782 29.4902 3.22321 29.2712 2.96015 28.9682C2.85411 28.8457 2.61584 29.0798 2.72464 29.2037C2.85985 29.3698 3.04586 29.487 3.25408 29.5371C3.4623 29.5872 3.68122 29.5676 3.87721 29.4813C4.07321 29.3949 4.23544 29.2466 4.33897 29.0591C4.44251 28.8717 4.48164 28.6554 4.45034 28.4435C4.35668 27.6667 3.37333 27.5015 2.7453 27.4285C2.69715 27.4281 2.6504 27.4447 2.61334 27.4754C2.57628 27.5062 2.55131 27.5491 2.54285 27.5965C2.47949 28.1019 2.42165 28.7658 2.72464 29.2037C2.81417 29.3415 3.05381 29.1032 2.96015 28.9682Z" fill="#FBF8F3"/>
<path d="M3.9559 29.3607C4.36907 29.9116 5.0577 29.9956 5.68297 30.176C6.9886 30.5548 7.65243 31.5891 8.05734 32.8327C8.08902 32.9305 8.25291 32.8121 8.22261 32.7212C7.87417 31.6483 7.34668 30.6911 6.29446 30.1925C5.57416 29.851 4.61147 29.9047 4.09913 29.2175C4.04129 29.139 3.89668 29.2794 3.96141 29.3552L3.9559 29.3607Z" fill="#FBF8F3"/>
<path d="M10.3807 24.6809C10.4124 24.3159 10.17 23.9509 9.96757 23.6672C9.93452 23.6218 9.85326 23.6438 9.81745 23.6672C9.45661 23.9234 8.93876 24.3365 9.07649 24.8365C9.11123 24.9857 9.19922 25.1172 9.32397 25.2062C9.44872 25.2952 9.60166 25.3356 9.7541 25.3199C10.0888 25.302 10.316 24.9756 10.3835 24.6809C10.4248 24.5046 10.159 24.5872 10.1273 24.7208C9.97032 25.3998 9.05721 24.9081 9.37811 24.3806C9.51747 24.178 9.69586 24.0052 9.90284 23.8724H9.75134C9.91248 24.0955 10.1452 24.4302 10.1204 24.7167C10.1039 24.8998 10.3642 24.8172 10.3766 24.6767L10.3807 24.6809Z" fill="#FBF8F3"/>
<path d="M9.5668 25.2041C9.51859 25.8927 8.57793 26.1585 8.11793 26.54C7.4665 27.0785 7.30949 27.9076 7.32326 28.7106C7.32326 28.7863 7.4417 28.7243 7.44033 28.6637C7.41967 27.4765 7.87141 26.7356 8.86716 26.1516C9.25692 25.9216 9.64943 25.6779 9.68386 25.1876C9.68386 25.1035 9.57231 25.1407 9.5668 25.2041Z" fill="#FBF8F3"/>
<path d="M2.34998 24.0872C2.21226 23.7126 2.40783 23.1975 2.5428 22.8477L2.26735 22.9964C2.61443 23.1154 2.93793 23.2944 3.22316 23.5253C3.34052 23.6296 3.41411 23.7744 3.42918 23.9308C3.44424 24.0871 3.39968 24.2433 3.30442 24.3681C3.00418 24.7331 2.50837 24.3998 2.34861 24.0927C2.24944 23.9013 1.92717 24.145 2.01531 24.3144C2.45741 25.1628 3.58675 24.9507 3.77681 24.039C3.93795 23.2801 3.06064 22.8752 2.48909 22.6617C2.43289 22.6475 2.3734 22.6549 2.32239 22.6825C2.27138 22.71 2.23257 22.7557 2.21364 22.8105C2.04148 23.2553 1.84316 23.8434 2.01394 24.3131C2.08555 24.51 2.41196 24.2704 2.34723 24.0913L2.34998 24.0872Z" fill="#FBF8F3"/>
<path d="M3.11437 24.6877C3.37742 25.492 4.07844 26.0456 4.65689 26.6282C5.66574 27.6203 6.29034 28.9378 6.41976 30.3468C6.42941 30.4528 6.58917 30.3674 6.5809 30.2821C6.47019 29.0267 5.96823 27.8378 5.14581 26.883C4.51503 26.1448 3.57988 25.5457 3.26587 24.5871C3.23695 24.4962 3.0882 24.605 3.11437 24.6877Z" fill="#FBF8F3"/>
<path d="M11.7167 40.3664C12.2758 38.6407 11.6795 36.9729 11.0749 35.345C11.0363 35.2403 10.8821 35.3147 10.8462 35.3794C9.98684 36.9839 10.6631 38.9492 11.4688 40.4353C11.5459 40.573 11.7869 40.3939 11.718 40.2686C10.9716 38.8914 10.2485 36.9798 11.0556 35.4758L10.8256 35.5102C11.4027 37.0651 12.0073 38.6779 11.4715 40.3389C11.4095 40.5275 11.6685 40.5138 11.7167 40.3664Z" fill="#FBF8F3"/>
<path d="M11.6175 40.3319C10.3656 38.7618 8.03669 37.9547 6.19531 37.346C6.09477 37.3129 5.91986 37.441 5.98872 37.554C6.76824 38.9312 9.8946 42.2738 11.5886 40.5178C11.7263 40.3801 11.5624 40.2231 11.4302 40.3608C9.95382 41.8923 6.92387 38.6089 6.238 37.3887L6.03004 37.5967C7.85214 38.1971 10.1618 38.9987 11.4013 40.5467C11.4936 40.6624 11.7112 40.4489 11.6175 40.3319Z" fill="#FBF8F3"/>
<path d="M14.7879 44.1868C15.1198 42.6938 14.4973 41.3428 13.8665 40.0179C13.8225 39.9242 13.6999 40.0096 13.6737 40.0716C13.0815 41.4832 13.8115 43.0822 14.5882 44.2667C14.6571 44.3727 14.843 44.2295 14.7824 44.1386C14.0318 42.9996 13.2936 41.4529 13.8652 40.0922L13.6724 40.1459C14.2866 41.4364 14.9119 42.7627 14.5827 44.2185C14.551 44.3562 14.7645 44.2942 14.7879 44.1868Z" fill="#FBF8F3"/>
<path d="M14.7053 44.1978C13.5085 42.9583 11.4936 42.4556 9.8698 42.0728C9.84695 42.071 9.82405 42.0754 9.80344 42.0855C9.78284 42.0955 9.76526 42.1108 9.75252 42.1299C9.73977 42.1489 9.73231 42.171 9.7309 42.1939C9.72949 42.2167 9.73417 42.2396 9.74447 42.2601C10.5075 43.3619 13.379 45.9304 14.6819 44.3438C14.7742 44.2323 14.6544 44.1056 14.5593 44.2213C13.3942 45.6384 10.6066 43.0947 9.9125 42.092L9.78717 42.2793C11.3641 42.6512 13.3749 43.1594 14.5373 44.3659C14.6186 44.4499 14.7852 44.2819 14.7053 44.1978Z" fill="#FBF8F3"/>
<path d="M17.5906 46.6493C17.6072 45.4869 16.902 44.5656 16.2258 43.6855C16.1831 43.6304 16.1018 43.7144 16.0881 43.7571C15.8705 44.9044 16.6789 45.9841 17.4529 46.7389C17.5121 46.7967 17.632 46.6769 17.5714 46.619C16.8263 45.8905 16.0247 44.8438 16.2354 43.7351L16.0977 43.8067C16.7657 44.6702 17.4502 45.5641 17.435 46.7086C17.435 46.8036 17.581 46.7251 17.5824 46.6493H17.5906Z" fill="#FBF8F3"/>
<path d="M17.5273 46.6796C16.4338 45.9551 14.8554 45.9 13.5884 45.8752C13.5346 45.8752 13.441 45.9551 13.4988 46.013C14.2605 46.7181 16.8042 48.178 17.5397 46.7801C17.5906 46.6823 17.4681 46.6424 17.4226 46.7278C16.7698 47.9673 14.3032 46.5281 13.6187 45.8931L13.5291 46.0309C14.7879 46.0557 16.3539 46.1108 17.435 46.8269C17.4997 46.871 17.6017 46.7374 17.5273 46.6892V46.6796Z" fill="#FBF8F3"/>
<path d="M12.0238 11.5557C17.4625 3.84997 26.8099 -0.144043 36.1394 1.06105C44.0283 2.08159 51.0467 6.96118 54.976 13.835C57.3793 18.037 58.4467 22.889 58.2318 27.7094C58.2318 27.8031 58.623 27.54 58.6298 27.3844C58.8112 23.4141 58.0776 19.4553 56.4858 15.8136C54.8939 12.1719 52.4864 8.94472 49.4491 6.38136C43.2129 1.13129 34.6533 -0.726619 26.7645 1.2029C20.6715 2.69446 15.3182 6.52734 11.718 11.6287C11.5225 11.9041 11.9398 11.6755 12.0238 11.5557Z" fill="#FBF8F3"/>
<path d="M56.093 15.7742C57.3724 16.8416 58.9177 17.3732 60.4712 17.909C62.3099 18.5439 64.0245 19.3096 65.3866 20.7447L65.5051 20.5202C63.6293 20.9224 61.7658 20.8246 60.0622 19.8867C58.3585 18.9488 57.192 17.2699 56.3106 15.5966C56.2403 15.4588 56.0145 15.6337 56.0764 15.7508C56.9964 17.4972 58.1836 19.1003 59.9079 20.1194C61.5923 21.1166 63.6003 21.1675 65.4679 20.7667C65.5519 20.7488 65.6676 20.629 65.5877 20.5423C64.3358 19.2215 62.7905 18.4502 61.0965 17.8401C59.4025 17.23 57.6947 16.7383 56.294 15.5731C56.1866 15.4822 55.9869 15.6861 56.093 15.7742Z" fill="#FBF8F3"/>
<path d="M65.512 20.5807C63.8327 20.1366 62.2139 19.4891 60.6916 18.6526C59.2799 17.8827 57.568 17.2065 56.5998 15.8788C56.5598 15.8237 56.4621 15.9229 56.4992 15.9793C57.4771 17.3208 59.1973 17.9887 60.6131 18.7696C62.145 19.6105 63.7752 20.2581 65.4665 20.6978C65.5299 20.7157 65.596 20.5945 65.5161 20.5738L65.512 20.5807Z" fill="#FBF8F3"/>
<path d="M63.694 19.1994C63.1513 19.271 62.6294 19.3812 62.0785 19.3688C62.0137 19.3688 61.949 19.4914 62.0289 19.4941C62.5894 19.5051 63.1224 19.3963 63.6747 19.3233C63.7408 19.3151 63.7807 19.1856 63.694 19.1994Z" fill="#FBF8F3"/>
<path d="M61.197 19.0879C61.502 19.6312 61.7618 20.1987 61.9738 20.7847C62 20.8549 62.1115 20.7695 62.0895 20.7075C61.8787 20.1207 61.6188 19.5526 61.3127 19.0094C61.2742 18.9447 61.1626 19.03 61.197 19.0879Z" fill="#FBF8F3"/>
<path d="M61.8058 18.1733C61.2452 18.2173 60.6847 18.2738 60.1283 18.3537C60.0608 18.3633 60.0209 18.4914 60.109 18.4776C60.6599 18.3964 61.226 18.3399 61.7865 18.2972C61.854 18.2972 61.8953 18.1678 61.8058 18.1733Z" fill="#FBF8F3"/>
<path d="M59.4383 18.1196C59.8584 18.8578 60.1806 19.6456 60.5663 20.4017C60.6007 20.4692 60.7136 20.3838 60.6833 20.3246C60.2977 19.5671 59.9754 18.7807 59.5554 18.0411C59.5182 17.9764 59.4052 18.0618 59.4383 18.1196Z" fill="#FBF8F3"/>
<path d="M58.4894 17.6032C58.8612 17.6459 59.2276 17.5536 59.5994 17.555C59.6628 17.555 59.7289 17.431 59.649 17.431C59.2772 17.431 58.9094 17.5219 58.539 17.4792C58.4742 17.471 58.4081 17.5935 58.4894 17.6032Z" fill="#FBF8F3"/>
<path d="M58.0638 17.3456C58.2456 17.9502 58.4081 18.5603 58.6326 19.1498C58.6588 19.2186 58.7703 19.1346 58.7497 19.0726C58.5252 18.4832 58.3627 17.8717 58.1809 17.2684C58.1588 17.1996 58.0431 17.2822 58.0638 17.3456Z" fill="#FBF8F3"/>
<path d="M58.3214 27.4215C58.0459 29.5177 58.5307 31.5436 59.0183 33.5709C59.6077 36.0211 59.9823 38.434 59.3612 40.9213L59.649 40.7671C57.9468 39.0482 56.7678 36.9989 56.5778 34.5557C56.3836 32.0491 57.3903 29.5866 58.6065 27.4546C58.7249 27.2466 58.4577 27.1598 58.3544 27.3403C57.1149 29.5232 56.1921 31.8852 56.2459 34.4358C56.2996 36.9865 57.6314 39.2562 59.3901 41.026C59.4989 41.1362 59.6532 40.975 59.678 40.8717C60.2426 38.6351 60.0181 36.4384 59.5182 34.2127C59.01 31.9499 58.331 29.7174 58.6395 27.3733C58.6684 27.1474 58.3448 27.2507 58.3214 27.4215Z" fill="#FBF8F3"/>
<path d="M59.5953 40.8469C58.9289 38.787 58.5127 36.6543 58.3558 34.495C58.2043 32.4002 57.714 29.9501 58.5142 27.9655C58.5582 27.8539 58.4012 27.8622 58.3654 27.949C57.5887 29.884 58.0459 32.1551 58.1699 34.1796C58.3107 36.4809 58.7391 38.7554 59.4452 40.9502C59.4727 41.0397 59.6215 40.9323 59.5953 40.851V40.8469Z" fill="#FBF8F3"/>
<path d="M59.835 37.9204C59.3846 37.3819 58.9026 36.893 58.5348 36.287C58.4839 36.2044 58.3406 36.3145 58.3847 36.3875C58.7579 37.0032 59.2469 37.5017 59.7055 38.0499C59.762 38.1187 59.8942 37.9906 59.835 37.9204Z" fill="#FBF8F3"/>
<path d="M58.2442 35.203C57.8696 35.9029 57.4375 36.5704 56.9524 37.1986C56.8807 37.295 57.0185 37.3364 57.0791 37.2551C57.5728 36.6145 58.0118 35.9336 58.3916 35.2195C58.4453 35.1135 58.2855 35.1217 58.2442 35.203Z" fill="#FBF8F3"/>
<path d="M59.6421 35.1658C59.2069 34.5887 58.7607 34.0213 58.2883 33.4732C58.2291 33.4057 58.0996 33.5338 58.1588 33.6026C58.6298 34.1535 59.0788 34.7182 59.5127 35.2953C59.5664 35.3655 59.6972 35.2388 59.6421 35.1658Z" fill="#FBF8F3"/>
<path d="M58.0831 32.6302C57.5763 33.5943 56.951 34.4757 56.4001 35.4095C56.3395 35.5128 56.4731 35.5555 56.5254 35.466C57.0846 34.5198 57.7167 33.6191 58.2305 32.6467C58.2856 32.5407 58.1244 32.5503 58.0831 32.6302Z" fill="#FBF8F3"/>
<path d="M57.9867 31.2504C58.196 31.6842 58.5527 32.0161 58.8047 32.4196C58.8571 32.5023 59.0003 32.3921 58.9549 32.3205C58.7028 31.9169 58.3447 31.5836 58.1368 31.1512C58.0955 31.0644 57.9495 31.1746 57.9867 31.2504Z" fill="#FBF8F3"/>
<path d="M57.9963 30.5685C57.4633 31.1883 56.9083 31.7929 56.4207 32.4498C56.3491 32.5476 56.4869 32.5876 56.5475 32.5077C57.024 31.8631 57.5694 31.2682 58.0913 30.6622C58.1643 30.5781 58.0707 30.4804 57.9963 30.5685Z" fill="#FBF8F3"/>
<path d="M62.7795 23.4895C63.0329 23.8559 62.9599 24.4839 62.9076 24.9039L63.11 24.7359C62.7085 24.7011 62.3163 24.5952 61.9518 24.4233C61.7821 24.3285 61.6563 24.1711 61.6015 23.9846C61.5466 23.7982 61.5671 23.5977 61.6584 23.4261C61.9118 22.9661 62.5151 23.1851 62.7795 23.4895C62.8855 23.6121 63.1238 23.3779 63.015 23.2526C62.8799 23.0869 62.6942 22.97 62.4863 22.9199C62.2785 22.8698 62.0599 22.8892 61.8641 22.9752C61.6683 23.0611 61.5061 23.2088 61.4023 23.3958C61.2985 23.5827 61.2588 23.7985 61.2893 24.0101C61.383 24.7855 62.3649 24.9508 62.9943 25.0238C63.0426 25.0247 63.0897 25.0083 63.1269 24.9775C63.164 24.9466 63.1889 24.9034 63.1968 24.8557C63.2601 24.3503 63.318 23.6865 63.015 23.2485C62.9255 23.119 62.6858 23.349 62.7795 23.4854V23.4895Z" fill="#FBF8F3"/>
<path d="M61.7837 23.0998C61.3706 22.5489 60.675 22.4635 60.0553 22.2845C58.751 21.9044 58.0858 20.87 57.6823 19.6278C57.6506 19.5286 57.4867 19.647 57.5156 19.7379C57.8655 20.8108 58.3929 21.7694 59.4438 22.268C60.1641 22.6081 61.1268 22.5544 61.6391 23.243C61.697 23.3202 61.8416 23.1797 61.7768 23.1053L61.7837 23.0998Z" fill="#FBF8F3"/>
<path d="M55.3589 27.7783C55.3258 28.1433 55.5696 28.5082 55.7721 28.7919C55.8037 28.8374 55.8864 28.8154 55.9222 28.7919C56.2789 28.5385 56.8009 28.1267 56.6631 27.6254C56.6284 27.4762 56.5404 27.3447 56.4157 27.2557C56.2909 27.1667 56.138 27.1263 55.9855 27.142C55.6509 27.1599 55.4236 27.4863 55.3561 27.781C55.3148 27.9587 55.5806 27.8747 55.6123 27.7411C55.7679 27.0621 56.6824 27.5538 56.3615 28.0827C56.2189 28.2845 56.0383 28.4567 55.8299 28.5895H55.98C55.8203 28.3664 55.5861 28.0386 55.6123 27.7452C55.6274 27.5621 55.3685 27.6447 55.3561 27.7852L55.3589 27.7783Z" fill="#FBF8F3"/>
<path d="M56.1783 27.255C56.2265 26.5746 57.1686 26.3005 57.6286 25.919C58.2786 25.3805 58.437 24.5528 58.4233 23.7485C58.4233 23.6727 58.3048 23.7347 58.3062 23.7953C58.3269 24.9825 57.8737 25.7235 56.8794 26.3074C56.4882 26.5374 56.0971 26.7812 56.0613 27.2715C56.0613 27.3555 56.1742 27.3169 56.1783 27.2536V27.255Z" fill="#FBF8F3"/>
<path d="M63.3882 28.3718C63.526 28.7478 63.3318 29.2615 63.1954 29.6113L63.4709 29.4626C63.1236 29.3431 62.7997 29.1641 62.5137 28.9337C62.3968 28.829 62.3237 28.6841 62.3089 28.5279C62.2941 28.3717 62.3387 28.2156 62.4338 28.0908C62.7327 27.7272 63.2285 28.0591 63.3882 28.3663C63.4888 28.5577 63.8097 28.3139 63.7229 28.1459C63.2808 27.2962 62.1515 27.5096 61.96 28.4214C61.8003 29.1816 62.6776 29.5851 63.2491 29.7986C63.3052 29.8132 63.3647 29.8062 63.4157 29.7789C63.4668 29.7515 63.5057 29.706 63.5246 29.6512C63.6954 29.205 63.8951 28.6169 63.7243 28.1487C63.6513 27.9503 63.3249 28.19 63.3896 28.369L63.3882 28.3718Z" fill="#FBF8F3"/>
<path d="M62.6239 27.7714C62.3622 26.9671 61.6598 26.4148 61.0828 25.8308C60.0736 24.839 59.4489 23.5213 59.3199 22.1123C59.3089 22.0076 59.1491 22.093 59.1587 22.177C59.2688 23.4325 59.7709 24.6215 60.5938 25.576C61.2246 26.3142 62.1598 26.9133 62.4724 27.8733C62.5013 27.9628 62.6514 27.854 62.6239 27.7714Z" fill="#FBF8F3"/>
<path d="M54.023 12.0927C53.4638 13.8184 54.0602 15.4862 54.6634 17.1142C54.702 17.2188 54.8576 17.1458 54.8934 17.0797C55.7528 15.4711 55.0766 13.5099 54.2709 12.028C54.1938 11.8903 53.9527 12.0693 54.0216 12.1946C54.7667 13.5719 55.4897 15.4835 54.6841 16.9874L54.9141 16.953C54.337 15.3981 53.731 13.7853 54.2681 12.1244C54.3301 11.9343 54.0712 11.9481 54.023 12.0968V12.0927Z" fill="#FBF8F3"/>
<path d="M54.1221 12.1272C55.3741 13.6973 57.703 14.5057 59.543 15.1131C59.6449 15.1461 59.8184 15.0181 59.7509 14.9051C58.97 13.5279 55.8437 10.1839 54.1511 11.9399C54.0133 12.0776 54.1772 12.2346 54.3081 12.0983C55.7859 10.5668 58.8158 13.857 59.5017 15.0718L59.7096 14.8638C57.8875 14.2619 55.5779 13.4604 54.3384 11.911C54.2475 11.7967 54.0285 12.0088 54.1235 12.1272H54.1221Z" fill="#FBF8F3"/>
<path d="M50.9517 8.27239C50.6184 9.76533 51.2423 11.1164 51.8731 12.4413C51.9171 12.535 52.0397 12.4496 52.0659 12.3876C52.6581 10.9759 51.9281 9.37557 51.1514 8.19113C51.0811 8.08646 50.8966 8.2297 50.9572 8.32059C51.7078 9.4582 52.446 11.0062 51.8744 12.3656L52.0672 12.3119C51.453 11.0228 50.8277 9.69509 51.1569 8.24071C51.1886 8.10299 50.9751 8.16496 50.9517 8.27239Z" fill="#FBF8F3"/>
<path d="M51.0343 8.25998C52.2298 9.49951 54.2461 10.0036 55.8698 10.3865C55.8927 10.3882 55.9156 10.3838 55.9362 10.3738C55.9568 10.3637 55.9744 10.3484 55.9871 10.3293C55.9999 10.3103 56.0073 10.2882 56.0088 10.2653C56.0102 10.2425 56.0055 10.2196 55.9952 10.1991C55.2308 9.09735 52.3606 6.52878 51.0577 8.11537C50.9655 8.22693 51.0853 8.35226 51.1803 8.23795C52.3455 6.81938 55.1316 9.36453 55.8272 10.3658L55.9525 10.1785C54.3755 9.80801 52.3647 9.2998 51.2024 8.09196C51.1211 8.00932 50.9531 8.17597 51.0343 8.25998Z" fill="#FBF8F3"/>
<path d="M48.149 5.80988C48.1325 6.97228 48.8376 7.89228 49.5125 8.77234C49.5565 8.82881 49.6378 8.74479 49.6502 8.70072C49.8678 7.55485 49.0594 6.47509 48.2867 5.72036C48.2275 5.66114 48.1077 5.78233 48.1669 5.84018C48.9079 6.56737 49.7053 7.62096 49.4987 8.72276L49.6364 8.65114C48.9698 7.78623 48.284 6.8924 48.3005 5.74928C48.3005 5.65425 48.1545 5.73138 48.1531 5.8085L48.149 5.80988Z" fill="#FBF8F3"/>
<path d="M48.2123 5.77811C49.3059 6.50392 50.8828 6.55901 52.1513 6.5838C52.205 6.5838 52.2986 6.50392 52.2408 6.44608C51.4792 5.73955 48.9354 4.28104 48.1999 5.67895C48.149 5.77536 48.2716 5.81667 48.317 5.73128C48.9698 4.49176 51.4365 5.93098 52.121 6.5659L52.2105 6.42817C50.9503 6.40338 49.3858 6.34829 48.3046 5.63074C48.2399 5.58805 48.138 5.72027 48.2123 5.76847V5.77811Z" fill="#FBF8F3"/>
<path d="M31.1399 31.0163C28.9363 30.6265 28.8868 33.5752 30.662 34.1619C31.6881 34.5007 32.9593 33.9209 33.8738 33.5132C35.1546 32.9431 36.3528 32.2021 37.551 31.4735C38.9076 30.6472 40.2132 29.8635 41.7723 29.4559C43.9594 28.8829 46.9108 28.9931 48.5057 30.8111C49.7755 32.26 48.5277 34.8478 46.5775 34.4773C45.7842 34.3258 45.1631 33.6234 45.2003 32.8122C45.2319 32.0754 45.9426 31.5947 46.5266 31.2973C46.5816 31.2683 46.3806 31.0108 46.2883 31.059C45.3339 31.552 44.5103 32.5271 45.1961 33.5973C45.4196 33.9662 45.7367 34.2695 46.1152 34.4764C46.4938 34.6832 46.9203 34.7861 47.3515 34.7748C48.8142 34.7142 49.5551 32.8949 49.1626 31.6691C48.7494 30.3621 47.2661 29.5316 46.0404 29.1901C44.0365 28.6392 41.72 28.9243 39.851 29.7974C38.4738 30.4406 37.2081 31.3234 35.8942 32.0905C34.5803 32.8577 33.1397 33.6799 31.5986 33.9471C30.5973 34.1206 29.6938 33.7515 29.6112 32.6056C29.5368 31.5837 30.4004 31.1086 31.3038 31.267C31.4168 31.2876 31.224 31.0342 31.1413 31.019L31.1399 31.0163Z" fill="#FBF8F3" stroke="#FBF8F3" stroke-width="0.1" stroke-linecap="round" stroke-linejoin="round"/>
<path d="M34.6216 31.2669C35.9879 31.0245 36.4424 32.3342 35.8309 33.3465C35.5293 33.8492 34.9302 33.9869 34.3875 33.9869C32.7582 33.9869 31.0628 32.8948 29.7049 32.1097C28.5466 31.439 27.4338 30.6843 26.2507 30.0576C24.2739 29.0136 21.9982 28.681 19.8052 29.1156C18.2269 29.4338 16.4296 30.5755 16.4447 32.359C16.4544 33.4374 17.3895 34.5309 18.4266 34.7499C19.4044 34.9565 20.4277 34.2514 20.739 33.3451C21.0957 32.3039 20.0834 31.4735 19.2805 31.0589C19.1317 30.9832 19.3204 31.2531 19.3879 31.2875C21.0337 32.1373 20.7321 33.8864 19.1125 34.4373C18.0217 34.8105 17.1223 34.0241 16.7711 33.0105C16.4199 31.9968 17.0631 31.0479 17.7793 30.4144C19.37 29.0068 21.8986 28.9985 23.853 29.3855C25.5056 29.7147 26.9091 30.5851 28.3235 31.4514C29.5135 32.2056 30.7464 32.8899 32.0159 33.5008C32.9607 33.936 34.0749 34.3808 35.1326 34.1894C37.153 33.8327 36.5236 30.6361 34.4109 31.0107C34.3324 31.0245 34.5239 31.2793 34.6175 31.2627L34.6216 31.2669Z" fill="#FBF8F3" stroke="#FBF8F3" stroke-width="0.1" stroke-linecap="round" stroke-linejoin="round"/>
<path d="M22.8358 39.5208L22.8556 39.5234C22.8685 39.5252 22.8806 39.5311 22.8898 39.5404L22.8898 39.5404C22.899 39.5496 22.905 39.5616 22.9067 39.5746L22.9076 39.5813H22.9072C22.9072 39.5908 22.9044 39.5984 22.9038 39.6002L22.9037 39.6004C22.9026 39.6036 22.9013 39.6065 22.9002 39.6089C22.8979 39.6138 22.895 39.6195 22.8916 39.6256C22.8849 39.638 22.875 39.6549 22.8624 39.676C22.8369 39.7183 22.799 39.7795 22.7487 39.8593C22.648 40.0189 22.497 40.2543 22.2959 40.5656M22.8358 39.5208L22.2539 40.5384M22.8358 39.5208L22.8196 39.5325M22.8358 39.5208L22.8196 39.5325M22.2959 40.5656L22.2539 40.5384M22.2959 40.5656C22.296 40.5656 22.296 40.5656 22.296 40.5656L22.2539 40.5384M22.2959 40.5656C21.9738 41.0649 21.7518 41.4305 21.6289 41.6634M22.2539 40.5384C21.9317 41.0379 21.7086 41.4052 21.5846 41.6402M21.6289 41.6634C21.6289 41.6634 21.6289 41.6634 21.629 41.6633L21.5846 41.6402M21.6289 41.6634C21.5121 41.8881 21.4211 42.1252 21.3576 42.3703L21.3451 42.4184L21.297 42.4063C21.2471 42.3938 21.196 42.3869 21.1446 42.3858M21.6289 41.6634C21.6289 41.6635 21.6289 41.6635 21.6288 41.6636L21.5846 41.6402M21.5846 41.6402L21.1446 42.3858M21.1446 42.3858C21.1452 42.3858 21.1458 42.3857 21.1464 42.3857L21.1439 42.3358M21.1446 42.3858L21.3092 42.3578C21.2551 42.3442 21.1996 42.3368 21.1439 42.3358M21.1446 42.3858C21.1441 42.3858 21.1435 42.3858 21.1429 42.3857L21.1439 42.3358M21.1446 42.3858L21.1439 42.3358M22.7919 39.698C22.7904 39.6996 22.7889 39.7013 22.7874 39.703C22.7884 39.7012 22.7895 39.6995 22.7905 39.6978L22.7913 39.6986L22.7919 39.698ZM22.7919 39.698L22.8271 39.6614L22.8271 39.6614L22.8278 39.6606C22.8429 39.6442 22.856 39.6321 22.8651 39.6242C22.8697 39.6203 22.8732 39.6174 22.8755 39.6156L22.8779 39.6138L22.8782 39.6135L22.8566 39.5836C22.8552 39.5877 22.851 39.5958 22.8442 39.608L22.8422 39.6225C22.8403 39.6223 22.8384 39.6219 22.8366 39.6214C22.8315 39.6301 22.8254 39.6404 22.8184 39.652C22.8183 39.6522 22.8182 39.6524 22.818 39.6527C22.8103 39.6655 22.8014 39.6801 22.7914 39.6964L22.7924 39.6974C22.7922 39.6976 22.792 39.6978 22.7919 39.698ZM22.7911 39.6267L22.7553 39.6639M22.7911 39.6267C22.7991 39.6181 22.8066 39.6104 22.8134 39.6039C22.8104 39.5991 22.8084 39.5936 22.8076 39.588L22.8349 39.5843C22.8362 39.5832 22.8374 39.5822 22.8385 39.5813H22.8072C22.8072 39.5759 22.8081 39.5719 22.8084 39.5705L22.8095 39.567C22.8097 39.5665 22.8098 39.5662 22.8098 39.5662C22.8098 39.5662 22.8097 39.5664 22.8095 39.5669C22.8086 39.5688 22.8068 39.5722 22.8039 39.5776C22.7988 39.5869 22.7912 39.6 22.7811 39.6171M22.7911 39.6267L22.7809 39.6173M22.7911 39.6267L22.7811 39.6171M22.7553 39.6639C22.7526 39.6669 22.7499 39.6699 22.7472 39.6729C22.7494 39.6693 22.7515 39.6658 22.7536 39.6624C22.7536 39.6624 22.7536 39.6624 22.7536 39.6623C22.7622 39.6483 22.7699 39.6357 22.7766 39.6245C22.7781 39.6221 22.7795 39.6197 22.7809 39.6173M22.7553 39.6639L22.7553 39.6639L22.7553 39.6639ZM22.7811 39.6171L22.7551 39.592L22.7547 39.5924C22.7546 39.5925 22.7545 39.5927 22.7543 39.5928L22.7809 39.6173M22.7811 39.6171C22.781 39.6172 22.781 39.6172 22.7809 39.6173M22.6922 39.7336L22.6727 39.7188C22.2623 40.2141 21.7995 40.6636 21.2924 41.0594M22.6922 39.7336L20.792 41.3947C20.7887 41.3931 20.7861 41.3924 20.7848 41.3921C20.7847 41.3921 20.7846 41.3921 20.7844 41.3921C20.7837 41.3919 20.7833 41.3919 20.7833 41.3919C20.7833 41.3919 20.7836 41.3919 20.7844 41.3919C20.7844 41.3919 20.7854 41.3919 20.7875 41.3915C20.7889 41.3912 20.7905 41.3908 20.7925 41.3903C20.7925 41.3903 20.7925 41.3903 20.7925 41.3903C20.7939 41.3899 20.7954 41.3895 20.7971 41.3889C20.8054 41.3863 20.8163 41.3819 20.83 41.3754C20.8573 41.3623 20.8929 41.3421 20.937 41.314C21.025 41.258 21.1435 41.1733 21.2924 41.0594M22.6922 39.7336C22.692 39.7338 22.6917 39.7341 22.6915 39.7344C22.691 39.7349 22.6905 39.7355 22.69 39.736M22.6922 39.7336L22.69 39.736M21.2924 41.0594C21.2924 41.0594 21.2925 41.0593 21.2925 41.0593L21.3032 41.0732L20.7941 41.3937C20.942 41.327 21.1117 41.2202 21.303 41.0734L21.2922 41.0596C21.2922 41.0595 21.2923 41.0595 21.2924 41.0594ZM20.8099 41.4373C20.8098 41.4377 20.8096 41.438 20.8094 41.4384C20.8077 41.4419 20.8058 41.4439 20.8053 41.4445C20.8051 41.4446 20.805 41.4447 20.805 41.4447C20.805 41.4447 20.8055 41.4442 20.8068 41.4434L20.8099 41.4373ZM20.8099 41.4373C20.811 41.437 20.8121 41.4366 20.8133 41.4363L20.8146 41.4393L20.8099 41.4373ZM20.8138 41.4361L20.8152 41.439C20.8151 41.4391 20.815 41.4391 20.8149 41.4392L20.8138 41.4361ZM20.8138 41.4361C20.8928 41.4101 21.0631 41.2977 21.3229 41.099C21.6935 40.8098 22.0405 40.4921 22.3609 40.1489C22.3441 40.171 22.3273 40.193 22.3104 40.2149M20.8138 41.4361L22.3104 40.2149M22.3104 40.2149C22.4033 40.1188 22.4991 40.0174 22.5977 39.9108C22.5953 39.9146 22.5928 39.9184 22.5903 39.9223C22.5278 40.0095 22.4641 40.0958 22.3991 40.1812C22.2928 40.2952 22.1835 40.4064 22.0714 40.5146C22.1527 40.416 22.2324 40.3161 22.3104 40.2149ZM20.8574 42.3688L20.8485 42.3196C20.858 42.3179 20.8674 42.3162 20.8769 42.3146C20.8698 42.3332 20.8633 42.3512 20.8574 42.3688ZM20.8574 42.3688L20.9048 42.3847C20.9076 42.3764 20.9106 42.3679 20.9136 42.3593C20.8949 42.3623 20.8761 42.3654 20.8574 42.3688ZM22.69 39.736L22.6701 39.7222C22.6348 39.7733 22.599 39.8242 22.5629 39.8747L22.69 39.736ZM22.8196 39.5325L22.8489 39.573L22.8196 39.5325ZM22.6318 39.9503C22.6725 39.8936 22.7126 39.8365 22.7523 39.7791L22.744 39.7728C22.7439 39.7729 22.7438 39.773 22.7437 39.7732C22.7431 39.7741 22.7425 39.7751 22.7419 39.7761L22.7497 39.7826C22.7338 39.8018 22.7178 39.8209 22.7017 39.84C22.6806 39.8735 22.6573 39.9103 22.6318 39.9503Z" fill="#FBF8F3" stroke="#FBF8F3" stroke-width="0.1"/>
<path d="M24.8423 39.4033L24.8429 39.4033C24.9357 39.4 25.0281 39.4177 25.1132 39.4551C25.1983 39.4924 25.2738 39.5485 25.3343 39.619L25.3347 39.6194L25.3347 39.6194C25.4633 39.7729 25.5299 39.969 25.5213 40.1691C25.5209 40.4845 25.3762 40.8199 25.0974 41.174L25.0969 41.1746C24.7842 41.561 24.4073 41.8908 23.9828 42.1496C23.7735 42.2837 23.5516 42.397 23.3202 42.4879C23.1497 42.5656 22.967 42.6135 22.7802 42.6294L22.776 42.6298V42.6296H22.775C22.7682 42.6296 22.76 42.6296 22.7525 42.629C22.7449 42.6285 22.7336 42.6272 22.7221 42.6222C22.7089 42.6165 22.6967 42.6066 22.6889 42.5914C22.6819 42.5779 22.6805 42.5641 22.6805 42.5534C22.6805 42.5229 22.6952 42.4966 22.722 42.481C22.7445 42.4681 22.7716 42.4648 22.7966 42.4648H22.8338C23.1344 42.4648 23.5216 42.2625 23.9987 41.8358L23.9992 41.8353L23.9993 41.8353C24.3044 41.5704 24.5701 41.2645 24.7891 40.927C24.694 41.017 24.5915 41.0992 24.4825 41.1728C24.272 41.3308 24.0193 41.4227 23.7565 41.4368M24.8423 39.4033L25.1354 39.5216C25.1216 39.5141 25.1075 39.5072 25.0931 39.5009C25.0166 39.4673 24.9337 39.451 24.8502 39.4531L24.8503 39.4349C24.8482 39.4349 24.8461 39.4349 24.844 39.4349C24.8439 39.4349 24.8438 39.4349 24.8438 39.4349C24.7465 39.4355 24.6466 39.4573 24.544 39.4994C24.4649 39.5204 24.3876 39.5482 24.313 39.5827M24.8423 39.4033C24.6523 39.4119 24.4656 39.4573 24.2928 39.5369M24.8423 39.4033L23.7078 39.8822M23.7565 41.4368L23.7545 41.3992C23.698 41.3973 23.6462 41.389 23.6001 41.3736C23.5768 41.3683 23.5537 41.3613 23.5311 41.3529C23.46 41.3264 23.3952 41.2854 23.3407 41.2326C23.2889 41.1774 23.2487 41.1124 23.2225 41.0415C23.1962 40.9705 23.1844 40.895 23.1878 40.8195M23.7565 41.4368C23.7565 41.4368 23.7565 41.4368 23.7566 41.4368L23.7545 41.3992M23.7565 41.4368C23.6739 41.4413 23.5912 41.4287 23.5136 41.3997C23.4361 41.3708 23.3654 41.3261 23.3059 41.2686L23.3041 41.2669L23.3042 41.2668C23.2479 41.2068 23.2042 41.136 23.1756 41.0588C23.1471 40.9818 23.1343 40.8999 23.1378 40.8179C23.1378 40.8177 23.1378 40.8175 23.1378 40.8172L23.1878 40.8195M23.1878 40.8195C23.1933 40.5045 23.3769 40.2052 23.7387 39.9215C23.9139 39.783 24.1071 39.6691 24.313 39.5827M23.1878 40.8195L25.0026 40.6661M24.313 39.5827L24.292 39.5373C24.2923 39.5372 24.2926 39.537 24.2928 39.5369M24.313 39.5827L24.2936 39.5366C24.2934 39.5367 24.2931 39.5368 24.2928 39.5369M24.8466 39.5032C24.8478 39.5031 24.8489 39.5031 24.8501 39.5031C24.8501 39.5031 24.8501 39.5031 24.8501 39.5031C24.9267 39.501 25.0028 39.5158 25.073 39.5466C25.0847 39.5518 25.0962 39.5574 25.1075 39.5633C25.0975 39.5551 25.0869 39.5474 25.0757 39.5405C25.0164 39.5034 24.9412 39.4849 24.8501 39.4849C24.8488 39.4849 24.8474 39.4849 24.846 39.4849L24.8469 39.5032C24.8468 39.5032 24.8467 39.5032 24.8466 39.5032ZM24.8466 39.5032C24.8465 39.5032 24.8464 39.5032 24.8463 39.5032L24.8457 39.4849C24.7543 39.4852 24.6591 39.5059 24.5601 39.5469C24.6536 39.5223 24.7496 39.5076 24.8466 39.5032ZM23.7803 41.335C23.7706 41.3358 23.7609 41.3364 23.7511 41.337L23.7511 41.337C23.7049 41.3395 23.6587 41.3356 23.6138 41.3255C23.6537 41.3391 23.6997 41.347 23.7518 41.3491C23.7518 41.3491 23.7518 41.3491 23.7518 41.3491C23.7614 41.3495 23.7713 41.3497 23.7814 41.3497M23.7803 41.335L23.7814 41.3497M23.7803 41.335C23.7807 41.335 23.781 41.335 23.7814 41.335M23.7803 41.335L23.7779 41.2998C23.7785 41.2998 23.7791 41.2997 23.7796 41.2997C23.7802 41.2997 23.7808 41.2997 23.7814 41.2997V41.335M23.7814 41.3497V41.335M23.7814 41.3497C23.9857 41.3354 24.1827 41.268 24.3529 41.1541C24.3799 41.1382 24.4066 41.1217 24.4329 41.1047C24.4333 41.1044 24.4338 41.104 24.4343 41.1037C24.5977 40.9977 24.7466 40.8709 24.8772 40.7265V40.6906M23.7814 41.335C23.9829 41.3191 24.1772 41.2538 24.347 41.1452C24.3471 41.1451 24.3473 41.145 24.3475 41.1449C24.3734 41.1283 24.3987 41.1107 24.4234 41.0921L24.4255 41.0906L24.4255 41.0906C24.5933 40.9774 24.7451 40.8428 24.8772 40.6906M24.8772 40.6906C24.8818 40.6853 24.8863 40.6801 24.8908 40.6748C24.8923 40.673 24.8939 40.6712 24.8954 40.6693M24.8772 40.6906V40.6748V40.6693H24.8954M24.8954 40.6693C24.8993 40.6648 24.9031 40.6602 24.907 40.6556M24.8954 40.6693H24.9214L24.907 40.6556M24.907 40.6556L24.891 40.6404C24.8913 40.6401 24.8916 40.6398 24.8919 40.6395C24.9225 40.6072 24.951 40.5732 24.9772 40.5378V40.5669M24.907 40.6556C24.9075 40.6549 24.9081 40.6543 24.9086 40.6536C24.9322 40.6253 24.9551 40.5964 24.9772 40.5669M24.9772 40.5669V40.6077C25.002 40.5613 25.0259 40.5144 25.0489 40.467L25.0761 40.4803C25.0766 40.4795 25.077 40.4787 25.0775 40.478C25.0778 40.4774 25.0782 40.4768 25.0786 40.4762L25.0523 40.4611C25.0283 40.4971 25.0032 40.5324 24.9772 40.5669ZM25.0026 40.6661C24.9858 40.6969 24.9686 40.7276 24.9511 40.758L25.0026 40.6661ZM25.0026 40.6661C24.9899 40.6808 24.9769 40.6952 24.9635 40.7093L24.886 40.7907C24.8753 40.8022 24.8644 40.8136 24.8534 40.8248M24.8534 40.8248C24.8614 40.8117 24.8694 40.7985 24.8772 40.7852V40.7658C24.7514 40.904 24.6092 41.0271 24.4535 41.1321M24.8534 40.8248C24.7354 40.9454 24.6045 41.0527 24.463 41.1447M24.8534 40.8248L24.463 41.1447M24.4535 41.1321C24.4279 41.1513 24.4016 41.1696 24.3748 41.1868L24.3807 41.1957C24.3803 41.1959 24.3799 41.1962 24.3796 41.1965M24.4535 41.1321L24.4623 41.1452M24.4535 41.1321L24.463 41.1447M24.3796 41.1965C24.3791 41.1967 24.3787 41.197 24.3783 41.1972L24.3729 41.188C24.196 41.3009 23.9937 41.3687 23.7838 41.3849C23.783 41.385 23.7822 41.385 23.7814 41.3851C23.7722 41.3858 23.763 41.3864 23.7538 41.3869L23.7545 41.3992M24.3796 41.1965C24.4075 41.18 24.4351 41.1628 24.4623 41.1452M24.3796 41.1965C24.2024 41.3147 23.9974 41.3847 23.7849 41.3996L23.7814 41.3998V41.3997C23.7723 41.3997 23.7633 41.3995 23.7545 41.3992M23.7545 41.3992L24.4623 41.1452M23.7078 39.8822C23.7077 39.8822 23.7077 39.8822 23.7077 39.8823L23.7387 39.9215L23.7078 39.8821C23.7078 39.8822 23.7078 39.8822 23.7078 39.8822ZM23.7078 39.8822C23.8863 39.7411 24.0831 39.625 24.2928 39.5369M24.4623 41.1452C24.4625 41.145 24.4628 41.1449 24.463 41.1447M24.8501 39.4531C24.8483 39.4531 24.8464 39.4532 24.8446 39.4532L24.8501 39.4531ZM25.1912 39.9356C25.1912 39.936 25.1913 39.9364 25.1913 39.9368L25.2413 39.9366L25.1913 39.9344C25.1913 39.9348 25.1913 39.9352 25.1912 39.9356Z" fill="#FBF8F3" stroke="#FBF8F3" stroke-width="0.1"/>
<path d="M25.6246 42.8655L25.5759 42.9422H25.6668H25.7494H25.7769L25.7917 42.919L28.6481 38.4168L28.6968 38.34H28.6059H28.5218H28.4943L28.4796 38.3632L25.6246 42.8655Z" fill="#FBF8F3" stroke="#FBF8F3" stroke-width="0.1"/>
<path d="M30.9448 39.524C30.9448 39.524 30.9448 39.524 30.9448 39.524C30.9366 39.5216 30.9279 39.5209 30.9193 39.5221L30.9076 39.5238L30.8979 39.5306C30.8729 39.548 30.8507 39.569 30.8319 39.5929C30.8314 39.5935 30.831 39.5941 30.8305 39.5947L30.8607 39.6182C30.8595 39.6202 30.8582 39.6224 30.8569 39.6245C30.8503 39.6355 30.8429 39.6478 30.8345 39.6615C30.8345 39.6615 30.8345 39.6615 30.8345 39.6615C30.8331 39.6638 30.8316 39.6662 30.8302 39.6685C30.8108 39.69 30.7915 39.7113 30.7724 39.7324L30.7544 39.7188C30.3444 40.2141 29.8821 40.6636 29.3755 41.0594C29.2258 41.1733 29.1074 41.258 29.0194 41.314C28.9752 41.3421 28.9397 41.3623 28.9123 41.3754C28.8986 41.3819 28.8877 41.3862 28.8793 41.3889C28.8779 41.3893 28.8767 41.3897 28.8755 41.39L28.8571 41.3479C28.857 41.348 28.8569 41.348 28.8568 41.3481C28.8439 41.3537 28.8297 41.3612 28.8182 41.3721C28.8053 41.3841 28.7941 41.4021 28.7941 41.4254C28.7941 41.4441 28.8013 41.4657 28.8218 41.4796C28.8382 41.4908 28.8562 41.4919 28.8661 41.4919C28.8934 41.4919 28.9248 41.4802 28.9553 41.4656C28.9879 41.4501 29.0273 41.4275 29.073 41.3984C29.1647 41.3401 29.2858 41.2534 29.4363 41.1388L29.4363 41.1388L29.4368 41.1384C29.6856 40.944 29.9238 40.7369 30.1505 40.5179C30.1019 40.5768 30.0527 40.6352 30.003 40.6932L30.003 40.6932L30.0024 40.6938C29.3868 41.4352 29.0135 41.9895 28.8917 42.3529L28.8649 42.4331L28.948 42.418C29.04 42.4014 29.133 42.3906 29.2264 42.3858C29.2777 42.3868 29.3288 42.3936 29.3786 42.4063L29.4269 42.4185L29.4393 42.3702C29.5022 42.125 29.5933 41.8878 29.7106 41.6634C29.8325 41.4306 30.0541 41.065 30.3763 40.5656C30.3763 40.5656 30.3763 40.5656 30.3763 40.5656L30.3343 40.5385L30.9342 39.5739C30.9332 39.573 30.9319 39.5723 30.9306 39.5719L30.9448 39.524ZM30.9448 39.524C30.953 39.5264 30.9606 39.5306 30.9671 39.5363" fill="#FBF8F3" stroke="#FBF8F3" stroke-width="0.1"/>
<mask id="path-65-outside-1_141_331" maskUnits="userSpaceOnUse" x="30.4471" y="38.5714" width="4" height="4" fill="black">
<rect fill="white" x="30.4471" y="38.5714" width="4" height="4"/>
<path d="M33.4716 39.6253L33.4372 39.6624C32.5824 40.6128 31.9296 41.1898 31.4788 41.3937C31.4567 41.4033 31.4471 41.4129 31.4471 41.4253C31.4471 41.4377 31.4471 41.4419 31.4677 41.4419C31.5283 41.4419 31.7074 41.3275 32.0076 41.0989C32.5175 40.7012 32.9826 40.2491 33.3945 39.7506C33.161 40.0885 32.91 40.414 32.6425 40.7257C32.0283 41.4676 31.661 42.0152 31.5407 42.3687C31.6359 42.3515 31.732 42.3405 31.8286 42.3357C31.8839 42.3367 31.9389 42.3441 31.9925 42.3577C32.0564 42.1087 32.1488 41.868 32.2679 41.6402C32.39 41.4051 32.6127 41.0379 32.9359 40.5384C33.338 39.9159 33.5391 39.5977 33.5391 39.5812C33.5394 39.5799 33.5393 39.5785 33.5389 39.5772C33.5385 39.5759 33.5378 39.5748 33.5368 39.5738C33.5359 39.5729 33.5347 39.5722 33.5334 39.5718C33.5322 39.5714 33.5308 39.5713 33.5295 39.5716C33.5295 39.5716 33.5061 39.5895 33.4716 39.6253Z"/>
</mask>
<path d="M33.4716 39.6253L33.4372 39.6624C32.5824 40.6128 31.9296 41.1898 31.4788 41.3937C31.4567 41.4033 31.4471 41.4129 31.4471 41.4253C31.4471 41.4377 31.4471 41.4419 31.4677 41.4419C31.5283 41.4419 31.7074 41.3275 32.0076 41.0989C32.5175 40.7012 32.9826 40.2491 33.3945 39.7506C33.161 40.0885 32.91 40.414 32.6425 40.7257C32.0283 41.4676 31.661 42.0152 31.5407 42.3687C31.6359 42.3515 31.732 42.3405 31.8286 42.3357C31.8839 42.3367 31.9389 42.3441 31.9925 42.3577C32.0564 42.1087 32.1488 41.868 32.2679 41.6402C32.39 41.4051 32.6127 41.0379 32.9359 40.5384C33.338 39.9159 33.5391 39.5977 33.5391 39.5812C33.5394 39.5799 33.5393 39.5785 33.5389 39.5772C33.5385 39.5759 33.5378 39.5748 33.5368 39.5738C33.5359 39.5729 33.5347 39.5722 33.5334 39.5718C33.5322 39.5714 33.5308 39.5713 33.5295 39.5716C33.5295 39.5716 33.5061 39.5895 33.4716 39.6253Z" fill="#FBF8F3"/>
<path d="M33.4716 39.6253L33.3995 39.5559L33.3983 39.5573L33.4716 39.6253ZM33.4372 39.6624L33.3638 39.5945L33.3629 39.5956L33.4372 39.6624ZM31.4788 41.3937L31.5188 41.4853L31.52 41.4848L31.4788 41.3937ZM32.0076 41.0989L32.0682 41.1785L32.0691 41.1778L32.0076 41.0989ZM33.3945 39.7506L33.4768 39.8074L33.3174 39.6869L33.3945 39.7506ZM32.6425 40.7257L32.5666 40.6605L32.5655 40.6619L32.6425 40.7257ZM31.5407 42.3687L31.4461 42.3365L31.3913 42.4974L31.5586 42.4671L31.5407 42.3687ZM31.8286 42.3357L31.8304 42.2355L31.8236 42.2358L31.8286 42.3357ZM31.9925 42.3577L31.9678 42.4546L32.0645 42.4792L32.0893 42.3826L31.9925 42.3577ZM32.2679 41.6402L32.3565 41.6865L32.3567 41.6863L32.2679 41.6402ZM32.9359 40.5384L33.0198 40.5927L33.0199 40.5926L32.9359 40.5384ZM33.5391 39.5812L33.4408 39.5628L33.4391 39.5719V39.5812H33.5391ZM33.5295 39.5716L33.5111 39.4733L33.4295 39.4885V39.5716H33.5295ZM33.3983 39.5573L33.3638 39.5945L33.5106 39.7304L33.545 39.6932L33.3983 39.5573ZM33.3629 39.5956C32.9369 40.0691 32.5628 40.4479 32.2403 40.7331C31.9166 41.0192 31.6495 41.2067 31.4376 41.3025L31.52 41.4848C31.7589 41.3767 32.0436 41.1738 32.3727 40.8829C32.703 40.591 33.0827 40.2061 33.5116 39.7293L33.3629 39.5956ZM31.4387 41.302C31.4149 41.3125 31.3471 41.3457 31.3471 41.4253H31.5471C31.5471 41.4357 31.5449 41.4467 31.5403 41.4573C31.5357 41.4675 31.5299 41.4746 31.5254 41.4792C31.5176 41.4869 31.5124 41.4881 31.5188 41.4853L31.4387 41.302ZM31.3471 41.4253C31.3471 41.4258 31.3468 41.4369 31.3485 41.4481C31.3506 41.4618 31.3569 41.4869 31.379 41.509C31.3998 41.5298 31.4235 41.5365 31.4362 41.5391C31.4488 41.5416 31.4605 41.5419 31.4677 41.5419V41.3419C31.4646 41.3419 31.4686 41.3416 31.4754 41.343C31.4823 41.3443 31.5021 41.3493 31.5204 41.3675C31.5398 41.387 31.5449 41.4087 31.5463 41.4182C31.5473 41.4251 31.5471 41.431 31.5471 41.4253H31.3471ZM31.4677 41.5419C31.5071 41.5419 31.5474 41.5255 31.5784 41.5107C31.6136 41.4939 31.6549 41.4701 31.7015 41.4405C31.7949 41.3811 31.9173 41.2934 32.0682 41.1785L31.947 41.0194C31.7977 41.1331 31.6805 41.2168 31.5942 41.2717C31.5509 41.2993 31.5172 41.3183 31.4924 41.3301C31.4635 41.3439 31.4586 41.3419 31.4677 41.3419V41.5419ZM32.0691 41.1778C32.5848 40.7756 33.055 40.3184 33.4716 39.8143L33.3174 39.6869C32.9101 40.1798 32.4503 40.6268 31.9461 41.0201L32.0691 41.1778ZM33.3122 39.6938C33.0807 40.0288 32.8319 40.3515 32.5666 40.6606L32.7184 40.7908C32.9882 40.4765 33.2413 40.1482 33.4768 39.8074L33.3122 39.6938ZM32.5655 40.6619C31.952 41.4028 31.573 41.9634 31.4461 42.3365L31.6354 42.401C31.749 42.0671 32.1045 41.5323 32.7196 40.7895L32.5655 40.6619ZM31.5586 42.4671C31.6494 42.4507 31.7413 42.4401 31.8335 42.4356L31.8236 42.2358C31.7228 42.2408 31.6223 42.2523 31.5229 42.2703L31.5586 42.4671ZM31.8267 42.4357C31.8743 42.4365 31.9217 42.4429 31.9678 42.4546L32.0171 42.2608C31.9561 42.2453 31.8934 42.2369 31.8304 42.2357L31.8267 42.4357ZM32.0893 42.3826C32.1513 42.1411 32.241 41.9075 32.3565 41.6865L32.1793 41.5938C32.0566 41.8284 31.9614 42.0764 31.8956 42.3329L32.0893 42.3826ZM32.3567 41.6863C32.4764 41.4558 32.6968 41.092 33.0198 40.5927L32.8519 40.4841C32.5286 40.9838 32.3037 41.3545 32.1792 41.5941L32.3567 41.6863ZM33.0199 40.5926C33.221 40.2813 33.3721 40.0458 33.4729 39.8859C33.5233 39.806 33.5614 39.7445 33.5872 39.7016C33.5999 39.6804 33.6102 39.6628 33.6174 39.6495C33.621 39.643 33.6246 39.6362 33.6275 39.6299C33.6289 39.6268 33.6309 39.6223 33.6328 39.6171C33.6334 39.6154 33.6391 39.6004 33.6391 39.5812H33.4391C33.4391 39.5702 33.441 39.5619 33.4418 39.5587C33.4428 39.5547 33.4438 39.5517 33.4443 39.5502C33.4449 39.5485 33.4454 39.5473 33.4456 39.5467C33.4458 39.5464 33.4459 39.5462 33.4459 39.546C33.446 39.5459 33.446 39.5458 33.446 39.5458C33.446 39.5458 33.446 39.5459 33.4458 39.5463C33.4456 39.5467 33.4453 39.5473 33.4449 39.548C33.4442 39.5494 33.4432 39.5512 33.4419 39.5536C33.4366 39.5633 33.428 39.5781 33.4157 39.5987C33.3911 39.6396 33.3539 39.6996 33.3037 39.7792C33.2035 39.9381 33.0529 40.1729 32.8519 40.4841L33.0199 40.5926ZM33.6374 39.5996C33.6406 39.5823 33.6396 39.5645 33.6344 39.5476L33.4434 39.6068C33.439 39.5926 33.4381 39.5775 33.4408 39.5628L33.6374 39.5996ZM33.6344 39.5476C33.6292 39.5308 33.62 39.5156 33.6076 39.5031L33.4661 39.6445C33.4556 39.634 33.4478 39.6211 33.4434 39.6068L33.6344 39.5476ZM33.6076 39.5031C33.5951 39.4907 33.5798 39.4815 33.563 39.4763L33.5039 39.6673C33.4896 39.6629 33.4767 39.6551 33.4661 39.6445L33.6076 39.5031ZM33.563 39.4763C33.5463 39.4711 33.5285 39.47 33.5111 39.4733L33.5479 39.6698C33.5331 39.6726 33.518 39.6717 33.5039 39.6673L33.563 39.4763ZM33.4295 39.5716C33.4398 39.5273 33.4687 39.4921 33.4687 39.4921C33.4687 39.4921 33.4687 39.4921 33.4687 39.4922C33.4687 39.4922 33.4687 39.4922 33.4686 39.4922C33.4686 39.4922 33.4686 39.4922 33.4686 39.4923C33.4685 39.4923 33.4684 39.4924 33.4683 39.4924C33.4682 39.4925 33.468 39.4927 33.4678 39.4928C33.4674 39.4931 33.4669 39.4935 33.4664 39.494C33.4652 39.4949 33.4637 39.4961 33.4619 39.4975C33.4583 39.5005 33.4534 39.5047 33.4473 39.51C33.4353 39.5206 33.4188 39.5359 33.3996 39.556L33.5437 39.6946C33.5589 39.6788 33.5713 39.6673 33.5796 39.66C33.5837 39.6564 33.5868 39.6538 33.5886 39.6523C33.5896 39.6515 33.5902 39.651 33.5904 39.6508C33.5906 39.6507 33.5906 39.6507 33.5906 39.6507C33.5906 39.6507 33.5905 39.6507 33.5905 39.6508C33.5905 39.6508 33.5904 39.6508 33.5904 39.6509C33.5904 39.6509 33.5903 39.6509 33.5903 39.6509C33.5903 39.6509 33.5903 39.6509 33.5903 39.651C33.5903 39.651 33.5903 39.651 33.5903 39.651C33.5902 39.651 33.6191 39.6159 33.6295 39.5716H33.4295Z" fill="#FBF8F3" mask="url(#path-65-outside-1_141_331)"/>
<path d="M36.6035 38.34H36.576L36.5613 38.3632L33.7062 42.8655L33.6576 42.9422H33.7485H33.8325H33.86L33.8747 42.919L36.7297 38.4168L36.7784 38.34H36.6875H36.6035Z" fill="#FBF8F3" stroke="#FBF8F3" stroke-width="0.1"/>
<path d="M37.4955 41.5048L37.4952 41.5049C37.1125 41.6577 36.8147 41.8165 36.5991 41.9803C36.6772 41.9586 36.7585 41.9477 36.8408 41.9483L36.8429 41.9484L36.8429 41.9484C37.0477 41.9586 37.2499 41.998 37.4436 42.0654L37.4439 42.0656C37.5931 42.1188 37.749 42.1507 37.9071 42.1604C38.0496 42.1557 38.1847 42.0956 38.2835 41.9926L38.2849 41.9912L38.2849 41.9912C38.4087 41.8723 38.4948 41.7196 38.5325 41.5522L38.5327 41.551L38.5327 41.551C38.5365 41.536 38.5432 41.5184 38.5568 41.5043C38.5723 41.4883 38.5919 41.4815 38.6115 41.4815H38.6253L38.6248 41.4832C38.6355 41.4862 38.6452 41.4918 38.653 41.4996C38.6608 41.5075 38.6665 41.5172 38.6694 41.5279L38.6721 41.5377L38.6707 41.5477C38.6497 41.7052 38.5839 41.8532 38.4811 41.9743C38.3888 42.1201 38.2616 42.2407 38.111 42.325C37.9594 42.4099 37.7888 42.4554 37.615 42.4574L37.6115 42.4574L37.6115 42.4573C37.4192 42.4459 37.2294 42.4084 37.0473 42.3459L37.047 42.3458C36.8728 42.2849 36.6926 42.2424 36.5095 42.2191C36.4247 42.2195 36.3658 42.2367 36.327 42.2646C36.2894 42.2917 36.2648 42.333 36.2565 42.3954C36.2565 42.3956 36.2565 42.3958 36.2564 42.396L36.2069 42.3895C36.2052 42.4058 36.2021 42.4189 36.1977 42.4287L37.4955 41.5048ZM37.4955 41.5048C37.9488 41.3213 38.2548 41.1887 38.4114 41.1076L38.4114 41.1076L38.4122 41.1072C38.5795 41.0167 38.7339 40.9041 38.8711 40.7723M37.4955 41.5048L38.8711 40.7723M38.8711 40.7723C38.97 40.6865 39.0496 40.5807 39.1046 40.4619C39.1597 40.3428 39.189 40.2134 39.1904 40.0822M38.8711 40.7723L36.173 42.5M39.1904 40.0822C39.1904 40.0824 39.1904 40.0826 39.1904 40.0827L39.1404 40.0812L39.1904 40.0817C39.1904 40.0819 39.1904 40.0821 39.1904 40.0822ZM39.1904 40.0822C39.193 39.9927 39.1752 39.9038 39.1382 39.8223C39.1011 39.7406 39.0459 39.6685 38.9766 39.6115L38.9766 39.6115L38.9761 39.6111C38.8238 39.489 38.6323 39.4263 38.4372 39.4349L38.437 39.4349C38.0679 39.4529 37.7122 39.5786 37.4137 39.7964C36.9713 40.0888 36.7358 40.4117 36.7353 40.7673C36.7324 40.8334 36.7431 40.8994 36.7668 40.9611C36.7906 41.0233 36.8269 41.0798 36.8737 41.1272L36.8736 41.1272L36.8749 41.1285C36.9237 41.1745 36.9811 41.2103 37.044 41.2337C37.1068 41.2571 37.1737 41.2676 37.2406 41.2646L37.2406 41.2646L37.2412 41.2646C37.4152 41.2551 37.5837 41.2004 37.7301 41.1058C37.9096 41.0016 38.0695 40.8666 38.2022 40.7069C38.2795 40.6158 38.3386 40.5363 38.3786 40.4687C38.4177 40.4028 38.4426 40.3417 38.4426 40.2892C38.4426 40.2891 38.4426 40.2889 38.4426 40.2888C38.4426 40.2869 38.4426 40.2814 38.4418 40.2759C38.4409 40.2693 38.4383 40.2578 38.4295 40.2468C38.4116 40.2243 38.3849 40.224 38.376 40.224C38.3682 40.224 38.3578 40.2249 38.347 40.2294C38.3352 40.2343 38.3261 40.2422 38.3196 40.2512C38.3139 40.2591 38.3108 40.2671 38.3091 40.2719C38.3079 40.2754 38.3066 40.2796 38.3056 40.2828C38.2038 40.5146 38.0436 40.716 37.8407 40.8675L37.8405 40.8673L37.8369 40.8706C37.6693 41.0231 37.4556 41.1154 37.2296 41.133C37.1159 41.1327 37.0399 41.1087 36.9928 41.0694C36.9471 41.0313 36.9207 40.9723 36.9207 40.8828C36.9207 40.6297 37.0902 40.3449 37.4544 40.028C37.8176 39.7121 38.1437 39.561 38.4339 39.561V39.5611L38.4365 39.561C38.5438 39.5554 38.6498 39.5864 38.7372 39.6489C38.7708 39.6752 38.7978 39.7092 38.8158 39.7479C38.8339 39.7868 38.8426 39.8294 38.8412 39.8723C38.8234 40.1676 38.6935 40.4451 38.4781 40.6481L38.4781 40.648L38.4767 40.6494C38.1817 40.9496 37.8322 41.1909 37.4469 41.3604L37.4469 41.3603L37.4458 41.3609C37.0905 41.5275 36.8446 41.6524 36.7072 41.7351L36.7072 41.7351L36.7058 41.736C36.5671 41.826 36.4394 41.9319 36.3253 42.0516M36.3253 42.0516C36.3255 42.0514 36.3256 42.0513 36.3258 42.0511L36.3447 42.0701M36.3253 42.0516C36.3252 42.0517 36.3251 42.0519 36.3249 42.052L36.3443 42.0705M36.3253 42.0516C36.255 42.122 36.199 42.1895 36.1603 42.2517C36.1225 42.3123 36.0981 42.3726 36.0977 42.4279M36.3447 42.0701C36.3446 42.0702 36.3444 42.0703 36.3443 42.0705M36.3447 42.0701L36.3611 42.0865C36.4726 41.9695 36.5974 41.8659 36.733 41.778C36.8636 41.6993 37.0961 41.5807 37.433 41.4221C37.1571 41.5336 36.9219 41.6495 36.7284 41.7704C36.7283 41.7704 36.7282 41.7705 36.7282 41.7705C36.5735 41.8672 36.4455 41.967 36.3447 42.0701ZM36.3443 42.0705C36.316 42.0995 36.2898 42.1287 36.2659 42.1582L36.2808 42.173L36.3443 42.0705ZM36.0977 42.4279C36.0977 42.4284 36.0976 42.4289 36.0976 42.4294H36.1476L36.0978 42.4253C36.0977 42.4262 36.0977 42.427 36.0977 42.4279ZM36.0977 42.4279C36.0972 42.4374 36.0988 42.447 36.1022 42.4559C36.106 42.4656 36.1119 42.4744 36.1195 42.4815C36.1271 42.4887 36.1362 42.494 36.1462 42.4971C36.1549 42.4998 36.164 42.5008 36.173 42.5M36.173 42.5C36.1719 42.5001 36.1708 42.5001 36.1697 42.5001V42.4501L36.177 42.4995C36.1757 42.4997 36.1744 42.4999 36.173 42.5ZM36.7554 41.8125C36.9454 41.6938 37.1779 41.579 37.453 41.468C37.1176 41.6259 36.8877 41.7433 36.7595 41.8204L36.7554 41.8125Z" fill="#FBF8F3" stroke="#FBF8F3" stroke-width="0.1"/>
<path d="M39.0316 41.5618C39.0227 41.7753 39.0956 41.9842 39.2355 42.1457C39.2833 42.2001 39.3395 42.2462 39.4019 42.2825C39.4224 42.2989 39.4446 42.3132 39.4684 42.3256C39.5471 42.3666 39.643 42.3858 39.7533 42.3858C39.7551 42.3858 39.757 42.3858 39.7588 42.3858V42.423C39.7591 42.423 39.7593 42.423 39.7595 42.423C40.2019 42.4227 40.6734 42.1297 41.1734 41.5689L41.1735 41.5687C41.5822 41.1053 41.7935 40.6618 41.7948 40.2393C41.8028 40.028 41.7368 39.8206 41.6082 39.6528L41.6082 39.6528L41.6078 39.6522C41.5496 39.5786 41.475 39.5196 41.39 39.4799C41.3052 39.4404 41.2123 39.4212 41.1188 39.4239M39.0316 41.5618C39.0325 41.0853 39.325 40.6009 39.9089 40.1088C40.2358 39.8348 40.5202 39.6495 40.7621 39.5529C40.887 39.4933 41.006 39.4621 41.1191 39.4611L41.118 39.4239C41.1183 39.4239 41.1185 39.4239 41.1188 39.4239M39.0316 41.5618L38.9817 41.5597C38.9816 41.56 38.9816 41.5604 38.9816 41.5607M39.0316 41.5618L38.9816 41.5617C38.9816 41.5614 38.9816 41.561 38.9816 41.5607M41.1188 39.4239C41.119 39.4239 41.1193 39.4239 41.1195 39.4239V39.4611M41.1188 39.4239C40.9568 39.4241 40.7724 39.4807 40.5671 39.5883C40.3611 39.6964 40.1309 39.8575 39.8768 40.0705L39.8767 40.0706C39.2886 40.5662 38.983 41.0629 38.9816 41.5607M41.1195 39.4611L38.9816 41.5607M41.1195 39.4611V39.4739C41.1214 39.4738 41.1232 39.4738 41.125 39.4737C41.2092 39.4721 41.2926 39.4897 41.3689 39.5252C41.4078 39.5434 41.4443 39.5659 41.4778 39.5924M41.1195 39.4611L39.7592 42.3858C39.8937 42.3849 40.0271 42.3537 40.1594 42.2931C40.4665 42.174 40.7921 41.9215 41.1361 41.5356C41.541 41.0765 41.7439 40.6441 41.7448 40.2383C41.7525 40.0383 41.6902 39.842 41.5685 39.6832C41.5418 39.6494 41.5113 39.6189 41.4778 39.5924M41.1195 39.4611C41.1214 39.4611 41.1232 39.4611 41.125 39.4611C41.2209 39.4611 41.305 39.4776 41.3744 39.5133C41.4108 39.5319 41.4432 39.5558 41.4712 39.5853C41.4734 39.5876 41.4756 39.59 41.4778 39.5924M41.1195 39.4611L41.4778 39.5924M41.5382 39.9463C41.5307 40.2067 41.4751 40.4635 41.3743 40.7038C41.2604 40.9939 41.11 41.2684 40.9267 41.5205C40.6639 41.8848 40.4015 42.1271 40.1395 42.2472C40.0081 42.298 39.8812 42.323 39.7588 42.323L39.7573 42.323C39.756 42.323 39.7546 42.3231 39.7533 42.3231C39.6634 42.3252 39.5742 42.3077 39.4917 42.2719C39.4706 42.2628 39.4501 42.2525 39.4303 42.2411C39.3296 42.1592 39.2795 42.0241 39.2795 41.8359M41.5382 39.9463C41.5382 39.807 41.5066 39.7013 41.4434 39.629C41.4139 39.6061 41.3818 39.5864 41.3477 39.5706C41.2781 39.5381 41.2019 39.5221 41.125 39.5238C41.1237 39.5238 41.1224 39.5238 41.121 39.5239L41.1195 39.5239C41.0212 39.5239 40.9089 39.5482 40.7821 39.5987C40.6422 39.6656 40.4921 39.7709 40.3317 39.9146M41.5382 39.9463L41.4882 39.9448C41.4882 39.9451 41.4882 39.9453 41.4882 39.9456M41.5382 39.9463H41.4882C41.4882 39.946 41.4882 39.9458 41.4882 39.9456M40.3317 39.9146C40.0383 40.1795 39.7903 40.4908 39.5977 40.836C39.4088 41.137 39.2994 41.481 39.2795 41.8359M40.3317 39.9146L40.3651 39.9518C40.3651 39.9518 40.3652 39.9518 40.3652 39.9518M40.3317 39.9146L40.3652 39.9517C40.3652 39.9517 40.3652 39.9518 40.3652 39.9518M39.2795 41.8359L39.3294 41.8387C39.3295 41.8382 39.3295 41.8377 39.3295 41.8373M39.2795 41.8359H39.3295C39.3295 41.8363 39.3295 41.8368 39.3295 41.8373M39.3295 41.8373C39.3491 41.4914 39.4559 41.1561 39.64 40.8625L39.6401 40.8626L39.6413 40.8603C39.8313 40.52 40.0758 40.213 40.3652 39.9518M39.3295 41.8373C39.3297 41.9962 39.3674 42.1061 39.4339 42.1764C39.5002 42.2465 39.6033 42.2858 39.7533 42.2858C40.1187 42.2858 40.4969 42.0309 40.8862 41.4912L40.8863 41.4911C41.0671 41.2424 41.2154 40.9717 41.3278 40.6855L41.3282 40.6844L41.3282 40.6844C41.4265 40.4501 41.4808 40.1996 41.4882 39.9456M40.3652 39.9518C40.6626 39.6853 40.9152 39.5611 41.125 39.5611C41.2544 39.5611 41.3424 39.5949 41.3987 39.6541C41.4553 39.7137 41.4881 39.8077 41.4882 39.9456" fill="#FBF8F3" stroke="#FBF8F3" stroke-width="0.1"/>
<path d="M43.7276 41.5509L43.728 41.5511C43.7325 41.5393 43.7391 41.5232 43.7519 41.5096C43.7661 41.4945 43.7832 41.4871 43.7999 41.4829L43.8113 41.4801L43.8227 41.4826C43.8334 41.4849 43.8434 41.49 43.8517 41.4972L43.8517 41.4972C43.86 41.5045 43.8663 41.5137 43.8701 41.5241L43.8742 41.5356L43.8726 41.5477C43.8516 41.7055 43.7852 41.8537 43.6816 41.9744C43.5893 42.1202 43.4621 42.2407 43.3115 42.325C43.1599 42.4099 42.9893 42.4554 42.8155 42.4574L42.812 42.4574L42.812 42.4573C42.6197 42.4459 42.4299 42.4084 42.2478 42.3459L42.2475 42.3458C42.0733 42.2849 41.8931 42.2424 41.71 42.2191C41.6259 42.2195 41.5674 42.2367 41.5285 42.2646C41.491 42.2916 41.4661 42.3329 41.4571 42.3948C41.457 42.3954 41.457 42.3959 41.4569 42.3964L41.4114 42.39C41.4063 42.4063 41.402 42.4229 41.3984 42.4397L41.3933 42.4387C41.3874 42.4462 41.3797 42.4501 41.3702 42.4501C41.3674 42.4506 41.3645 42.4503 41.3617 42.4495C41.359 42.4486 41.3565 42.4471 41.3545 42.4451C41.3525 42.4431 41.351 42.4406 41.3501 42.4379C41.3493 42.4351 41.349 42.4322 41.3495 42.4294C41.3511 42.4219 41.3529 42.4144 41.3547 42.4069C41.3539 42.4078 41.3535 42.4085 41.3533 42.4087C41.3533 42.4087 41.3533 42.4088 41.3533 42.4088C41.3533 42.4088 41.3541 42.4073 41.355 42.4036C41.356 42.3996 41.357 42.3939 41.3575 42.386L41.3577 42.3825L41.3579 42.3825C41.3689 42.3038 41.4012 42.239 41.4573 42.1933C41.4642 42.1841 41.4715 42.1751 41.479 42.1663L41.4707 42.158C41.4942 42.1294 41.5198 42.101 41.5474 42.0729L41.5254 42.052C41.5262 42.0512 41.527 42.0503 41.5278 42.0495M43.7276 41.5509L44.0916 39.8746C44.0739 40.1831 43.9383 40.473 43.7129 40.6844C43.4134 40.9892 43.0587 41.2341 42.6676 41.4061C42.6465 41.416 42.6259 41.4257 42.6056 41.4353C42.3426 41.5436 42.1173 41.6561 41.9306 41.7732C41.9305 41.7732 41.9305 41.7733 41.9304 41.7733C41.7772 41.8694 41.65 41.9685 41.5493 42.0709L41.5305 42.0473C41.5296 42.0481 41.5287 42.0488 41.5278 42.0495M43.7276 41.5509L43.7261 41.5575C43.6879 41.7249 43.6018 41.8775 43.4784 41.9968L43.4784 41.9968L43.4772 41.9981C43.3766 42.1024 43.2389 42.1627 43.0941 42.1659C42.9364 42.1561 42.7809 42.1242 42.632 42.0711L42.6316 42.0709C42.4375 42.0036 42.2348 41.9642 42.0296 41.9539L42.0296 41.9538L42.027 41.9538C41.9498 41.954 41.8735 41.9644 41.8 41.9845C42.0168 41.8192 42.3159 41.659 42.6999 41.5049L42.7001 41.5048C43.1534 41.3213 43.4594 41.1887 43.6161 41.1076L43.6161 41.1076L43.617 41.1071C43.7839 41.016 43.9381 40.9035 44.0757 40.7724C44.1743 40.6863 44.2537 40.5804 44.3087 40.4617C44.3639 40.3426 44.3933 40.2133 44.395 40.0822M43.7276 41.5509L43.3819 40.685L43.4081 40.7071C43.4081 40.7071 43.4082 40.707 43.4082 40.707M41.5278 42.0495C41.6413 41.9307 41.7684 41.8255 41.9063 41.736L41.9076 41.7352L41.9076 41.7352C42.0451 41.652 42.292 41.527 42.6463 41.3608L42.6474 41.3603L42.6474 41.3603C43.0327 41.1909 43.3822 40.9496 43.6772 40.6494L43.6787 40.6479L43.6787 40.648C43.8946 40.4455 44.0245 40.1678 44.0417 39.8723M41.5278 42.0495C41.4117 42.1428 41.3314 42.2733 41.3006 42.4191L41.3006 42.4191L41.3002 42.421C41.2984 42.4317 41.2992 42.4427 41.3025 42.453C41.3058 42.4634 41.3115 42.4728 41.3192 42.4804C41.3268 42.4881 41.3362 42.4938 41.3466 42.4971C41.3554 42.4999 41.3647 42.5009 41.3739 42.5L44.0417 39.8723M44.0417 39.8723C44.0431 39.8295 44.0345 39.787 44.0166 39.7481C43.9987 39.7094 43.9721 39.6754 43.9389 39.6487C43.851 39.5863 43.7446 39.5554 43.637 39.561L43.6344 39.5611V39.561C43.3395 39.561 43.0135 39.7121 42.6552 40.0278C42.2956 40.3446 42.1281 40.6294 42.1281 40.8828C42.1281 40.9723 42.1545 41.0314 42.2 41.0694C42.247 41.1087 42.3227 41.1327 42.4357 41.133C42.6617 41.1156 42.8754 41.0233 43.0429 40.8706L43.0466 40.8672L43.0468 40.8674C43.2502 40.7164 43.4106 40.5148 43.5118 40.2825C43.5158 40.2705 43.5221 40.257 43.5329 40.2458C43.5454 40.2327 43.5622 40.2247 43.581 40.2241M44.0417 39.8723L43.5986 40.2892M43.581 40.2241C43.5895 40.2235 43.5981 40.2247 43.6061 40.2276L43.5895 40.2747L43.6061 40.2276C43.6152 40.2308 43.6233 40.2359 43.63 40.2426L43.63 40.2426C43.6366 40.2493 43.6418 40.2574 43.645 40.2665L43.645 40.2665C43.6478 40.2744 43.649 40.2827 43.6486 40.2911M43.581 40.2241C43.5818 40.224 43.5826 40.224 43.5834 40.224V40.274L43.5781 40.2243C43.5791 40.2242 43.5801 40.2241 43.581 40.2241ZM43.6486 40.2911C43.6485 40.2922 43.6484 40.2933 43.6483 40.2945L43.5986 40.2892M43.6486 40.2911C43.6486 40.2904 43.6486 40.2898 43.6486 40.2892H43.5986M43.6486 40.2911C43.648 40.3432 43.6232 40.4036 43.5846 40.4687C43.5446 40.5363 43.4855 40.6158 43.4082 40.707M43.5986 40.2892C43.5986 40.2963 43.5979 40.3039 43.5966 40.3119C43.5964 40.3133 43.5961 40.3148 43.5958 40.3163C43.5955 40.3181 43.5951 40.32 43.5947 40.3218C43.5951 40.3217 43.5954 40.3215 43.5957 40.3214C43.5977 40.3205 43.5994 40.3195 43.6009 40.3185C43.6026 40.3173 43.604 40.3161 43.605 40.315C43.6052 40.3149 43.6053 40.3147 43.6054 40.3146C43.607 40.3129 43.6076 40.3117 43.6076 40.3117C43.6076 40.3117 43.6071 40.3126 43.6064 40.3149L43.6048 40.3202L43.6045 40.3201C43.5473 40.4519 43.4723 40.5746 43.382 40.6849L43.4084 40.7068C43.4083 40.7068 43.4083 40.7069 43.4082 40.707M43.4082 40.707C43.2751 40.8669 43.1148 41.0019 42.9346 41.1059C42.788 41.1999 42.6198 41.2545 42.446 41.2646L42.4453 41.2646L42.4453 41.2646C42.3783 41.2676 42.3114 41.2571 42.2486 41.2337C42.1858 41.2103 42.1283 41.1745 42.0796 41.1284L42.0783 41.1272L42.0783 41.1272C42.0316 41.0798 41.9952 41.0233 41.9714 40.9611C41.9477 40.8993 41.937 40.8334 41.94 40.7673C41.9405 40.4117 42.176 40.0888 42.6183 39.7964C42.9163 39.5786 43.2716 39.453 43.6402 39.4349L43.6405 39.4349C43.8359 39.4264 44.0278 39.4889 44.1807 39.6111L44.1814 39.6116L44.1814 39.6116C44.2503 39.6688 44.3054 39.7409 44.3424 39.8225C44.3794 39.904 44.3974 39.9928 44.395 40.0822M44.395 40.0822C44.395 40.0823 44.395 40.0824 44.395 40.0825L44.345 40.0812L44.395 40.0819C44.395 40.082 44.395 40.0821 44.395 40.0822ZM41.3945 42.4371C41.3962 42.4347 41.3977 42.4319 41.3991 42.4289C41.3994 42.4318 41.3993 42.4348 41.3988 42.4378L41.3945 42.4371Z" fill="#FBF8F3" stroke="#FBF8F3" stroke-width="0.1"/>
<path d="M45.3017 41.5048L45.3016 41.5049C44.9178 41.6589 44.6217 41.818 44.4102 41.9812C44.4861 41.9597 44.5652 41.9485 44.6452 41.9483L44.6478 41.9483L44.6478 41.9484C44.853 41.9587 45.0556 41.9981 45.2497 42.0654L45.2502 42.0656C45.3993 42.1188 45.5553 42.1507 45.7133 42.1604C45.8558 42.1555 45.9908 42.0953 46.0898 41.9926L46.0911 41.9912L46.0912 41.9912C46.2149 41.8723 46.301 41.7196 46.3387 41.5521L46.339 41.551L46.339 41.551C46.3428 41.5359 46.3493 41.5188 46.3623 41.5049C46.3769 41.4893 46.3962 41.4814 46.4164 41.4814H46.4244L46.4243 41.4821C46.4361 41.484 46.4472 41.4892 46.4562 41.4971L46.4562 41.4971C46.4652 41.5049 46.4719 41.5152 46.4753 41.5267L46.4784 41.537L46.477 41.5477C46.4559 41.7052 46.3901 41.8532 46.2874 41.9743C46.1951 42.1201 46.0679 42.2407 45.9173 42.325C45.7656 42.4099 45.595 42.4554 45.4212 42.4574L45.4177 42.4574L45.4177 42.4573C45.2255 42.4459 45.0357 42.4084 44.8535 42.3459L44.8533 42.3458C44.679 42.2849 44.4989 42.2424 44.3158 42.2191C44.2309 42.2195 44.172 42.2367 44.1332 42.2646C44.0956 42.2917 44.0711 42.333 44.0628 42.3954C44.0627 42.3956 44.0627 42.3958 44.0627 42.396L44.0131 42.3895C44.0116 42.4039 44.0083 42.4159 44.004 42.4252L45.3017 41.5048ZM45.3017 41.5048C45.755 41.3213 46.061 41.1887 46.2177 41.1076L46.2177 41.1076L46.2185 41.1071C46.3856 41.0164 46.5399 40.9038 46.6773 40.7724C46.7762 40.6865 46.8558 40.5807 46.9108 40.4619C46.966 40.3428 46.9952 40.2134 46.9966 40.0822M45.3017 41.5048L45.22 39.7964M45.22 39.7964C45.518 39.5789 45.8732 39.4532 46.2418 39.4349L46.2421 39.4349C46.4375 39.4264 46.6294 39.4889 46.7823 39.6111L46.7829 39.6115L46.7828 39.6115C46.8521 39.6685 46.9074 39.7406 46.9444 39.8223C46.9814 39.9038 46.9993 39.9927 46.9966 40.0822M45.22 39.7964C44.7776 40.0888 44.5421 40.4117 44.5416 40.7673C44.5386 40.8334 44.5493 40.8993 44.573 40.9611C44.5968 41.0233 44.6332 41.0798 44.6799 41.1272L44.6799 41.1272L44.6812 41.1284C44.7299 41.1745 44.7874 41.2103 44.8502 41.2337C44.913 41.2571 44.9799 41.2676 45.0469 41.2646L45.0469 41.2646L45.0475 41.2646C45.2214 41.2549 45.3899 41.2002 45.5363 41.1058C45.7157 41.0013 45.8754 40.8663 46.0085 40.707C46.085 40.6158 46.1441 40.5363 46.1843 40.4688C46.2234 40.403 46.2488 40.3419 46.2488 40.2892C46.2488 40.2891 46.2488 40.2889 46.2488 40.2888C46.2488 40.2869 46.2488 40.2814 46.2481 40.2759C46.2472 40.2692 46.2446 40.2578 46.2358 40.2468C46.2178 40.2243 46.1911 40.224 46.1823 40.224C46.1744 40.224 46.164 40.2249 46.1532 40.2294C46.1414 40.2343 46.1324 40.2422 46.1259 40.2512C46.1201 40.2591 46.1171 40.2671 46.1154 40.2719C46.1141 40.2754 46.1129 40.2796 46.1119 40.2828C46.01 40.5146 45.8498 40.716 45.6469 40.8675L45.6468 40.8673L45.6432 40.8705C45.4751 41.0232 45.2609 41.1155 45.0345 41.133C44.9215 41.1327 44.8458 41.1087 44.7989 41.0694C44.7534 41.0314 44.7269 40.9723 44.7269 40.8828C44.7269 40.6297 44.8964 40.3449 45.2607 40.028C45.6239 39.7121 45.9499 39.561 46.2401 39.561V39.5611L46.2426 39.561C46.35 39.5556 46.4559 39.5866 46.5435 39.6489C46.5771 39.6753 46.604 39.7092 46.6221 39.7479C46.6402 39.7868 46.6489 39.8294 46.6474 39.8722C46.6296 40.1676 46.4997 40.4451 46.2843 40.648L46.2843 40.648L46.283 40.6493C45.9872 40.9493 45.6373 41.1906 45.2518 41.3604L45.2518 41.3603L45.2506 41.3609C44.8968 41.5274 44.6494 41.6524 44.5132 41.7353L44.5132 41.7352L44.5122 41.7359C44.3729 41.8252 44.245 41.9312 44.1315 42.0517L45.22 39.7964ZM46.9966 40.0822C46.9966 40.0824 46.9966 40.0826 46.9966 40.0827L46.9466 40.0812L46.9966 40.0817C46.9966 40.0819 46.9966 40.0821 46.9966 40.0822Z" fill="#FBF8F3" stroke="#FBF8F3" stroke-width="0.1"/>
<path d="M32.8336 19.961L32.8336 19.9611C32.8337 20.0433 32.8177 20.1247 32.7864 20.2006C32.755 20.2766 32.709 20.3456 32.651 20.4038C32.593 20.4619 32.524 20.5081 32.4481 20.5396C32.3722 20.571 32.2909 20.5872 32.2087 20.5872L32.2086 20.5872C32.0847 20.5875 31.9635 20.551 31.8603 20.4823C31.7572 20.4137 31.6767 20.316 31.6291 20.2015C31.5815 20.0871 31.569 19.9612 31.593 19.8396C31.617 19.7181 31.6765 19.6064 31.7641 19.5187C31.8516 19.431 31.9632 19.3712 32.0847 19.3469C32.2062 19.3227 32.3322 19.335 32.4467 19.3823C32.5612 19.4297 32.6591 19.51 32.7279 19.613C32.7968 19.716 32.8336 19.8371 32.8336 19.961Z" fill="#FBF8F3" stroke="#FBF8F3" stroke-width="0.1"/>
<path d="M28.3504 13.9549L28.3237 13.9375C27.3006 13.2681 26.0344 12.9315 24.5223 12.9306L24.5221 12.9306C22.5598 12.9221 20.6483 13.5539 19.0777 14.7303L19.0772 14.7307L19.0772 14.7307C17.4319 15.9317 16.6187 17.253 16.6187 18.6939C16.6187 19.4068 16.8309 19.9702 17.2513 20.3897C17.6718 20.8094 18.2331 21.0215 18.9404 21.0224C20.0257 21.0224 21.1303 20.5188 22.2548 19.5011C23.3801 18.4828 23.9343 17.4825 23.9352 16.4999C23.9352 16.0983 23.8266 15.8052 23.6178 15.6111C23.4083 15.4163 23.0894 15.3132 22.6518 15.3105C21.7376 15.3105 20.8421 15.6861 19.9646 16.4442C19.0864 17.203 18.6561 17.9753 18.657 18.7614L18.657 18.763C18.6478 19.0482 18.7346 19.3282 18.9035 19.5582L18.9046 19.5597L18.9045 19.5597C18.9699 19.656 19.0578 19.7349 19.1606 19.7896C19.2633 19.8443 19.3778 19.8733 19.4942 19.8738L19.494 19.9238M28.3504 13.9549L22.6809 15.4023L22.681 15.3523C21.8907 15.3514 21.0524 15.7914 20.1669 16.6556C19.2819 17.5195 18.8299 18.3381 18.8297 19.1108M28.3504 13.9549L28.3775 13.9381M28.3504 13.9549L28.3775 13.9381M19.494 19.9238V19.8738C19.5408 19.8738 19.5696 19.8687 19.585 19.8622C19.5871 19.8613 19.5887 19.8605 19.5899 19.8598C19.5888 19.8589 19.587 19.8576 19.5842 19.8561C19.5718 19.8496 19.5468 19.843 19.5036 19.843H19.5035C19.4132 19.8427 19.324 19.8229 19.2421 19.7849C19.1606 19.7471 19.0883 19.6923 19.0299 19.6241C18.8982 19.486 18.8263 19.3016 18.8297 19.1108M19.494 19.9238C19.3694 19.9232 19.2469 19.8923 19.137 19.8337C19.0271 19.7752 18.9332 19.6908 18.8632 19.5878L19.067 19.5905C19.1209 19.6538 19.1878 19.7046 19.2631 19.7396C19.3385 19.7745 19.4205 19.7927 19.5036 19.793C19.5973 19.793 19.6413 19.8205 19.6413 19.8618C19.6413 19.9032 19.5917 19.9238 19.494 19.9238ZM18.8297 19.1108C18.8297 19.1106 18.8297 19.1105 18.8297 19.1103L18.8797 19.1112H18.8297C18.8297 19.1111 18.8297 19.1109 18.8297 19.1108ZM19.5914 19.8614C19.5914 19.8614 19.5914 19.8614 19.5914 19.8614C19.5914 19.8614 19.5913 19.8613 19.5913 19.8612C19.5913 19.8611 19.5913 19.8611 19.5913 19.8613M19.5914 19.8614L19.5913 19.8613M19.5914 19.8614C19.5914 19.8614 19.5914 19.8615 19.5914 19.8615C19.5913 19.8618 19.5913 19.8619 19.5913 19.8618C19.5913 19.8616 19.5913 19.8614 19.5913 19.8613M19.5914 19.8614L19.5913 19.8613M28.3775 13.9381C29.3173 13.3532 30.2227 13.0628 31.0945 13.0628V13.0128M28.3775 13.9381L33.0764 16.5009M28.1838 14.0582L28.1301 14.0952C27.6391 14.4334 27.0404 14.996 26.3334 15.7855L26.3333 15.7857C25.6641 16.5265 25.0489 17.3143 24.4924 18.1431C23.4562 19.7373 22.7837 20.7427 22.4759 21.1573L22.4757 21.1577C22.1667 21.567 21.8191 21.9456 21.4377 22.2885C20.5116 23.1321 19.4747 23.5558 18.3284 23.556C17.7572 23.5779 17.1927 23.4269 16.7087 23.1228L16.7073 23.1219L16.7073 23.1219C16.2751 22.8295 16.0532 22.46 16.0532 22.0104C16.0532 21.8714 16.0635 21.7621 16.0863 21.6861C16.0977 21.6481 16.1133 21.6145 16.1357 21.5896C16.1594 21.5632 16.1905 21.5472 16.2271 21.5472C16.2554 21.5472 16.2749 21.5638 16.2857 21.5804C16.2956 21.5956 16.3008 21.6137 16.304 21.6305L28.1838 14.0582ZM28.1838 14.0582L28.1342 14.016M28.1838 14.0582L28.1342 14.016M28.1342 14.016C27.3165 13.3185 26.1199 12.9738 24.5526 12.9738C22.3575 12.9738 20.4486 13.767 18.8282 15.3514L28.1342 14.016ZM33.0764 16.5009L33.0761 16.5018C33.0692 16.5192 33.0653 16.5375 33.0643 16.5562L33.0641 16.5615L33.0638 16.5614C33.0634 16.5642 33.0636 16.5669 33.0644 16.5696C33.0653 16.5722 33.0668 16.5746 33.0687 16.5765C33.0707 16.5785 33.073 16.5799 33.0757 16.5808C33.0783 16.5816 33.0811 16.5819 33.0838 16.5814L33.0911 16.5803C33.0933 16.579 33.0976 16.5759 33.104 16.5684C33.1165 16.5538 33.1314 16.5289 33.1479 16.4909C33.1807 16.4154 33.215 16.299 33.2492 16.1397L33.2494 16.1387C33.3166 15.853 33.3522 15.5607 33.3555 15.2672C33.3509 14.602 33.1415 14.0703 32.7302 13.667C32.3197 13.2663 31.7762 13.0637 31.0944 13.0628L31.0945 13.0128M33.0764 16.5009C33.2174 16.1211 33.288 15.7188 33.2848 15.3138L33.0764 16.5009ZM31.0945 13.0128C31.7868 13.0137 32.3437 13.2198 32.7651 13.6312L31.0945 13.0128ZM16.8286 19.0371C16.8286 19.0375 16.8286 19.0379 16.8286 19.0383H16.8786L16.8286 19.0359C16.8286 19.0363 16.8286 19.0367 16.8286 19.0371ZM16.3839 22.0436C16.3321 21.9883 16.3036 21.9005 16.3088 21.7702L31.1194 13.1047C30.2495 13.1037 29.3567 13.3889 28.4418 13.9564L28.3816 13.9937L28.4368 14.0379C29.2033 14.6518 29.5805 15.3415 29.5805 16.1074C29.5798 16.4287 29.5098 16.7461 29.3752 17.0379C29.2406 17.3296 29.0446 17.5889 28.8005 17.7979L28.8005 17.7979L28.7986 17.7997C28.3056 18.2699 27.6488 18.5293 26.9676 18.5227C26.6666 18.5175 26.3687 18.4617 26.0862 18.3578L26.0856 18.3576C25.9272 18.3016 25.8118 18.2488 25.737 18.1994C25.6663 18.1528 25.6439 18.1173 25.6402 18.0947C25.6407 18.0941 25.6413 18.0935 25.6419 18.093C25.6432 18.092 25.6448 18.0914 25.6464 18.0911C25.6823 18.0972 25.7166 18.1104 25.7472 18.13L25.7472 18.1301L25.7485 18.1308C26.0476 18.3102 26.3887 18.4077 26.7375 18.4134V18.4134H26.7383C27.3436 18.4134 27.862 18.1518 28.2917 17.6351L28.2918 17.635C28.7204 17.1165 28.9483 16.4613 28.934 15.7888C28.9337 15.1724 28.6953 14.58 28.2687 14.1351L28.2381 14.1032L28.2027 14.1296C27.0749 14.9704 26.0064 16.4516 24.995 18.5663C24.3814 19.8376 23.8256 20.7507 23.3281 21.3091C22.8314 21.8667 22.1271 22.3723 21.2129 22.8248C20.1364 23.3498 19.18 23.6103 18.3426 23.6103L18.3407 23.6103C17.7398 23.6325 17.1467 23.469 16.642 23.1422C16.1941 22.8312 15.9755 22.4488 15.9755 21.9938L15.9755 21.9924C15.9686 21.7538 16.0487 21.5209 16.2009 21.3371L16.201 21.3371L16.2027 21.3348C16.263 21.2528 16.3416 21.1859 16.4322 21.1395C16.5228 21.0931 16.6228 21.0684 16.7245 21.0674C16.8721 21.0674 16.9746 21.1086 17.041 21.1828C17.1085 21.258 17.1467 21.3758 17.1467 21.5448L17.1467 21.546C17.1503 21.6979 17.0977 21.8458 16.9989 21.9613L16.9989 21.9613L16.9977 21.9629C16.9559 22.0159 16.9025 22.0587 16.8416 22.0878C16.7806 22.117 16.7139 22.1318 16.6463 22.1311H16.6458C16.5194 22.1311 16.4356 22.0988 16.3839 22.0436Z" fill="#FBF8F3" stroke="#FBF8F3" stroke-width="0.1"/>
<path d="M48.5102 13.7382C48.51 13.618 48.4456 13.5103 48.3322 13.4156C48.219 13.3211 48.0528 13.2353 47.8368 13.1573L47.8361 13.1571C47.3588 12.9924 46.8563 12.9127 46.3515 12.9216C45.6209 12.9127 44.8994 13.085 44.2516 13.4231L44.146 13.4782L44.2593 13.515C44.5178 13.5988 44.7686 13.6749 45.0119 13.743C44.7303 13.6772 44.4284 13.6044 44.1063 13.5249L44.0869 13.5201L44.0696 13.53C43.1821 14.036 42.7277 14.6803 42.7277 15.4644V15.4645C42.7286 15.8135 42.8399 16.0725 43.0694 16.2285L43.0134 16.2048C42.7323 16.0856 42.5252 15.9332 42.3884 15.7496C42.252 15.5665 42.1831 15.3492 42.1831 15.0953C42.1831 14.4487 42.5843 13.8968 43.4132 13.4424L43.5266 13.3802L43.4009 13.3499C42.1999 13.0602 41.2063 12.9147 40.4212 12.9147L40.4212 12.9147C38.882 12.9156 37.5677 13.3003 36.4809 14.0712C35.3941 14.842 34.8445 15.7803 34.8443 16.8851C34.8328 17.35 34.9879 17.8037 35.2818 18.1642C35.4046 18.33 35.5643 18.4649 35.7483 18.5584C35.9326 18.652 36.1362 18.7015 36.3429 18.7027H36.3432C36.4822 18.7027 36.5917 18.6921 36.6681 18.6681C36.7422 18.6447 36.8064 18.6006 36.8064 18.5219C36.8064 18.5009 36.8006 18.4797 36.7862 18.4616C36.7722 18.4439 36.7533 18.4335 36.7344 18.4275C36.6993 18.4165 36.6544 18.4177 36.6053 18.4251C36.4763 18.4245 36.3885 18.3944 36.333 18.3432C36.2777 18.2924 36.2458 18.2129 36.2458 18.095C36.2459 18.0309 36.2606 17.9676 36.2887 17.91C36.3169 17.8524 36.3578 17.802 36.4084 17.7625L36.4084 17.7625L36.4099 17.7612C36.5227 17.6657 36.6666 17.615 36.8143 17.6188L36.8143 17.6188H36.8156C36.9736 17.6188 37.0828 17.657 37.1527 17.7246C37.2223 17.7919 37.2614 17.8965 37.2614 18.0481V18.0482C37.2615 18.1454 37.2385 18.2413 37.1942 18.3279C37.1499 18.4145 37.0857 18.4892 37.0067 18.546L37.0067 18.546L37.0056 18.5469C36.8173 18.6904 36.5855 18.7651 36.3487 18.7584L36.3487 18.7584H36.3473C35.8858 18.7584 35.4891 18.5512 35.1597 18.1304C34.8227 17.6929 34.647 17.1526 34.662 16.6006L34.662 16.6006V16.5993C34.662 15.7002 35.0523 14.8729 35.8407 14.1163L35.8407 14.1163C36.7736 13.2188 38.0874 12.7668 39.7891 12.7668C40.738 12.7668 42.0014 12.9631 43.5809 13.3575L43.598 13.3618L43.6141 13.3544C44.3856 12.9967 45.229 12.8206 46.0792 12.8398L46.0792 12.8398L46.0817 12.8398C46.6867 12.8227 47.2898 12.915 47.8619 13.1122C48.1065 13.2056 48.2862 13.3072 48.4044 13.4154C48.5218 13.5229 48.5765 13.6347 48.5782 13.7514C48.5782 13.8302 48.5602 13.8966 48.526 13.9526C48.4916 14.0087 48.4391 14.0571 48.3659 14.0969C48.218 14.1774 47.9898 14.2203 47.6752 14.2203C47.4911 14.2203 47.2115 14.1888 46.8351 14.1249C47.1529 14.1643 47.4517 14.184 47.7317 14.184H47.7817V14.1808C48.0034 14.1765 48.1795 14.1431 48.3034 14.0766C48.3707 14.0406 48.4238 13.994 48.4594 13.9361C48.4952 13.8781 48.5117 13.8115 48.5102 13.7382ZM48.5102 13.7382C48.5102 13.738 48.5102 13.7378 48.5102 13.7377L48.4602 13.7387H48.5102C48.5102 13.7385 48.5102 13.7384 48.5102 13.7382ZM43.1723 16.2721L43.1895 16.2794L42.9994 16.3005C42.2765 16.3806 41.5637 16.534 40.8719 16.7584C39.8452 17.0924 39.0266 17.5833 38.4137 18.2299C37.8008 18.8764 37.4978 19.5633 37.4977 20.2916C37.4989 20.5625 37.5575 20.8301 37.6697 21.0767C37.7819 21.3233 37.9452 21.5434 38.1487 21.7222L38.1501 21.7234L38.15 21.7235C38.588 22.137 39.1959 22.4322 39.9776 22.6062L39.996 22.6103L40.0071 22.6256C40.5657 23.3922 41.376 23.7765 42.4455 23.7757C42.795 23.7716 43.1431 23.7318 43.4845 23.657L43.4849 23.6569C43.6755 23.6165 43.8158 23.5779 43.9075 23.5415C43.9536 23.5231 43.9846 23.5064 44.0031 23.4921C44.0153 23.4828 44.0187 23.4772 44.0195 23.4755V23.4748L44.0196 23.4748C44.0197 23.4723 44.019 23.4699 44.0175 23.4679C44.0172 23.4675 44.0169 23.4672 44.0166 23.4669L43.943 23.4788C43.4696 23.6787 42.9585 23.7732 42.4449 23.7559C41.4549 23.7557 40.7011 23.4172 40.1925 22.7359L40.1225 22.6422L40.2386 22.6563C40.4966 22.6879 40.7562 22.7034 41.0161 22.7028L41.0165 22.7028C42.3489 22.7113 43.6479 22.286 44.7173 21.4911L44.7177 21.4908C45.8171 20.6876 46.3581 19.7929 46.3581 18.807V18.8051L46.3582 18.8051C46.3661 18.5993 46.3263 18.3944 46.2421 18.2065C46.1578 18.0186 46.0313 17.8528 45.8723 17.7218C45.5477 17.4557 45.1074 17.32 44.5461 17.32C43.322 17.32 42.195 17.744 41.1637 18.5949C40.1319 19.4462 39.6224 20.3712 39.6215 21.3701L39.6215 21.371C39.6143 21.7454 39.7115 22.1145 39.9023 22.4367L39.9633 22.5397L39.8472 22.5107C39.3129 22.3773 38.9069 22.1523 38.6347 21.8321C38.362 21.5115 38.2278 21.1003 38.2282 20.6029M43.1723 16.2721L38.2282 20.6029M43.1723 16.2721C43.5297 16.2425 43.7996 16.2278 43.9828 16.2278C44.2504 16.2278 44.4471 16.2437 44.5755 16.2743C44.6399 16.2897 44.683 16.3079 44.7089 16.3265C44.7335 16.3441 44.7385 16.3588 44.7385 16.3706C44.7385 16.3746 44.7376 16.3795 44.7289 16.3871C44.7187 16.3959 44.6997 16.4062 44.6675 16.4156C44.6032 16.4342 44.5023 16.4446 44.3618 16.4446C43.9677 16.4403 43.5755 16.389 43.1935 16.2919L43.1831 16.2892L43.1726 16.2911C42.4716 16.4143 41.7928 16.6404 41.158 16.9621M43.1723 16.2721L41.158 16.9621M38.2282 20.6029C38.2282 19.1064 39.2155 17.8943 41.158 16.9621M38.2282 20.6029C38.2282 20.6029 38.2282 20.6029 38.2282 20.6029L41.158 16.9621M41.5055 18.7412V18.7371L41.4227 18.8092C40.3564 19.738 39.8148 20.6949 39.8148 21.6799L39.8148 21.681C39.8217 21.9922 39.9129 22.2957 40.0787 22.5591L40.0901 22.5772L40.1112 22.5815C40.3864 22.6367 40.6662 22.6656 40.9469 22.6678H40.9473C42.1826 22.6678 43.3863 22.241 44.5575 21.3912C45.7264 20.5432 46.3243 19.6663 46.3245 18.7592C46.3245 18.759 46.3245 18.7589 46.3245 18.7588L41.5055 18.7412ZM41.5055 18.7412C42.5463 17.8645 43.6158 17.4227 44.7132 17.4224C45.1283 17.4068 45.5355 17.5394 45.8618 17.7966L41.5055 18.7412Z" fill="#FBF8F3" stroke="#FBF8F3" stroke-width="0.1"/>
</svg>
