<svg width="26" height="22" viewBox="0 0 26 22" fill="none" xmlns="http://www.w3.org/2000/svg">
<path d="M25.63 11.5304C24.3598 10.2602 22.6371 9.54662 20.8408 9.54662C19.0446 9.54662 17.3218 10.2602 16.0517 11.5304C14.7815 12.8005 14.0679 14.5232 14.0679 16.3195C14.0679 18.1158 14.7815 19.8385 16.0517 21.1087" stroke="#6D4D36"/>
<path d="M1.00006 11.4955C2.27023 10.2253 3.99294 9.51177 5.78922 9.51177C7.58551 9.51177 9.30822 10.2253 10.5784 11.4955C11.8486 12.7657 12.5621 14.4884 12.5621 16.2847C12.5621 18.081 11.8486 19.8037 10.5784 21.0738" stroke="#6D4D36"/>
<path fill-rule="evenodd" clip-rule="evenodd" d="M14.314 7.12978C14.5707 6.48634 14.7321 5.5532 14.7321 4.5149C14.7321 3.74531 14.1678 1.70298 13.4716 1C12.7755 1.70298 12.2112 3.74531 12.2112 4.5149C12.2112 5.59223 12.385 6.55635 12.6587 7.20111C9.98256 5.2895 8.34843 6.12661 7.00229 7.6905C8.83731 7.62041 10.6956 8.70478 12.0965 10.0836C12.673 10.6509 13.1248 11.2945 13.452 11.9813C13.7852 11.1847 14.2806 10.4384 14.9382 9.79117C16.2835 8.46709 18.0506 7.38108 19.8138 7.39317C18.3825 6.12274 16.8457 5.29895 14.314 7.12978Z" stroke="#6D4D36"/>
</svg>
