<svg width="169" height="15" viewBox="0 0 169 15" fill="none" xmlns="http://www.w3.org/2000/svg">
<circle cx="156.374" cy="12.1022" r="0.5" stroke="#006A6A" stroke-width="0.480009"/>
<circle cx="159.369" cy="12.1022" r="0.5" stroke="#006A6A" stroke-width="0.480009"/>
<mask id="path-3-inside-1_80_1608" fill="white">
<path fill-rule="evenodd" clip-rule="evenodd" d="M163.725 9.31828C162.989 10.8007 162.348 11.4039 160.885 12.1591C162.348 12.9144 162.989 13.5176 163.725 15C165.636 13.587 166.804 13.0001 168.956 12.1591C166.804 11.3182 165.636 10.7313 163.725 9.31828Z"/>
</mask>
<path d="M160.885 12.1591L160.426 11.2705L158.704 12.1591L160.426 13.0478L160.885 12.1591ZM163.725 9.31828L164.32 8.51424L163.361 7.80483L162.83 8.8734L163.725 9.31828ZM163.725 15L162.83 15.4449L163.361 16.5134L164.32 15.804L163.725 15ZM168.956 12.1591L169.32 13.0906L171.705 12.1591L169.32 11.2277L168.956 12.1591ZM161.343 13.0478C162.114 12.6499 162.742 12.2555 163.281 11.7224C163.823 11.1861 164.226 10.5591 164.621 9.76317L162.83 8.8734C162.489 9.55991 162.203 9.97573 161.874 10.3005C161.543 10.6283 161.118 10.9131 160.426 11.2705L161.343 13.0478ZM160.426 13.0478C161.118 13.4051 161.543 13.69 161.874 14.0178C162.203 14.3425 162.489 14.7584 162.83 15.4449L164.621 14.5551C164.226 13.7592 163.823 13.1322 163.281 12.5959C162.742 12.0628 162.114 11.6684 161.343 11.2705L160.426 13.0478ZM164.32 15.804C166.147 14.4532 167.233 13.906 169.32 13.0906L168.593 11.2277C166.374 12.0942 165.126 12.7208 163.131 14.1959L164.32 15.804ZM163.131 10.1223C165.126 11.5975 166.374 12.224 168.593 13.0906L169.32 11.2277C167.233 10.4123 166.147 9.86506 164.32 8.51424L163.131 10.1223Z" fill="#006A6A" mask="url(#path-3-inside-1_80_1608)"/>
<path d="M157.658 12.1469L157.877 11.7696L158.111 12.1469L157.877 12.5241L157.658 12.1469Z" stroke="#006A6A"/>
<path d="M82.9477 12.1018L85.9167 12.1018" stroke="#006A6A"/>
<circle cx="9.2977" cy="12.1036" r="0.5" stroke="#006A6A" stroke-width="0.440983"/>
<circle cx="12.2139" cy="12.1036" r="0.5" stroke="#006A6A" stroke-width="0.440983"/>
<path d="M10.5634 12.1472L10.7619 11.8055L10.9738 12.1472L10.7619 12.4889L10.5634 12.1472Z" stroke="#006A6A"/>
<mask id="path-10-inside-2_80_1608" fill="white">
<path fill-rule="evenodd" clip-rule="evenodd" d="M5.09322 9.39315C5.81021 10.8365 6.43418 11.4237 7.85916 12.1591C6.43418 12.8944 5.81021 13.4817 5.09322 14.925C3.23277 13.5493 2.09612 12.9779 0.000144958 12.1591C2.09612 11.3403 3.23277 10.7689 5.09322 9.39315Z"/>
</mask>
<path d="M7.85916 12.1591L8.31774 11.2704L10.0398 12.1591L8.31774 13.0477L7.85916 12.1591ZM5.09322 9.39315L4.49865 8.5891L5.45799 7.8797L5.9888 8.94826L5.09322 9.39315ZM5.09322 14.925L5.9888 15.3699L5.45799 16.4385L4.49865 15.7291L5.09322 14.925ZM0.000144958 12.1591L-0.363732 13.0905L-2.74804 12.1591L-0.363732 11.2276L0.000144958 12.1591ZM7.40058 13.0477C6.64878 12.6598 6.03497 12.2744 5.50745 11.7526C4.97678 11.2277 4.5833 10.6144 4.19763 9.83804L5.9888 8.94826C6.32012 9.61523 6.59713 10.0173 6.91394 10.3307C7.23389 10.6472 7.64456 10.9231 8.31774 11.2704L7.40058 13.0477ZM8.31774 13.0477C7.64456 13.3951 7.23389 13.671 6.91394 13.9875C6.59713 14.3009 6.32012 14.703 5.9888 15.3699L4.19763 14.4802C4.5833 13.7038 4.97678 13.0905 5.50745 12.5656C6.03497 12.0438 6.64878 11.6584 7.40058 11.2704L8.31774 13.0477ZM4.49865 15.7291C2.72229 14.4155 1.66683 13.8838 -0.363732 13.0905L0.364022 11.2276C2.52541 12.072 3.74325 12.6831 5.68778 14.121L4.49865 15.7291ZM5.68778 10.1972C3.74325 11.6351 2.52541 12.2462 0.364022 13.0905L-0.363732 11.2276C1.66683 10.4344 2.72229 9.90267 4.49865 8.5891L5.68778 10.1972Z" fill="#006A6A" mask="url(#path-10-inside-2_80_1608)"/>
<path d="M161.758 12.1018L7.18168 12.1018" stroke="#006A6A"/>
<path d="M84.4149 11.9162L84.3862 1.4718" stroke="#006A6A" stroke-linecap="round"/>
</svg>
