<svg width="228" height="31" viewBox="0 0 228 31" fill="none" xmlns="http://www.w3.org/2000/svg">
<path d="M11.7772 24.6854V7.04542H12.9652V17.4854C14.4532 17.4854 15.7132 17.3534 16.7452 17.0894C17.7772 16.8254 18.6172 16.3934 19.2652 15.7934C19.9132 15.1694 20.3812 14.3534 20.6692 13.3454C20.9572 12.3374 21.1012 11.0774 21.1012 9.56542C21.1012 8.34142 20.8612 7.21342 20.3812 6.18142C19.9012 5.12542 19.2532 4.21342 18.4372 3.44542C17.6452 2.67742 16.7092 2.07742 15.6292 1.64542C14.5492 1.18942 13.4092 0.961423 12.2092 0.961423C10.6012 0.961423 9.14923 1.26142 7.85323 1.86142C6.53323 2.43742 5.41723 3.22942 4.50523 4.23742C3.56923 5.24542 2.84923 6.43342 2.34523 7.80142C1.84123 9.16942 1.58923 10.6334 1.58923 12.1934C1.58923 13.4654 1.78123 14.6894 2.16523 15.8654C2.52523 17.0414 3.06523 18.0854 3.78523 18.9974C4.50523 19.8854 5.40523 20.6054 6.48523 21.1574C7.54123 21.6854 8.76523 21.9494 10.1572 21.9494V22.2734C8.64523 22.2734 7.30123 21.9854 6.12523 21.4094C4.94923 20.8334 3.95323 20.0654 3.13723 19.1054C2.32123 18.1214 1.70923 16.9814 1.30123 15.6854C0.869234 14.3894 0.653234 13.0334 0.653234 11.6174C0.653234 9.91342 0.965234 8.38942 1.58923 7.04542C2.18923 5.70142 3.01723 4.54942 4.07323 3.58942C5.12923 2.62942 6.37723 1.89742 7.81723 1.39342C9.23323 0.889424 10.7572 0.637423 12.3892 0.637423C13.6612 0.637423 14.8972 0.853423 16.0972 1.28542C17.2972 1.69342 18.3532 2.29342 19.2652 3.08542C20.2012 3.85342 20.9452 4.78942 21.4972 5.89342C22.0732 6.97342 22.3612 8.19742 22.3612 9.56542C22.3612 11.1494 22.1452 12.4694 21.7132 13.5254C21.2812 14.5814 20.6572 15.4334 19.8412 16.0814C19.0492 16.7054 18.0652 17.1494 16.8892 17.4134C15.7372 17.6534 14.4292 17.7734 12.9652 17.7734V24.6854H11.7772ZM22.3626 24.6854H22.0746L28.8426 6.82942L35.3946 24.6854H34.0266L31.4346 17.5934H25.0986L22.3626 24.6854ZM25.1706 17.3414H31.3266L28.3026 9.02542L25.1706 17.3414ZM54.2851 15.8654C54.2851 17.0894 54.0451 18.2414 53.5651 19.3214C53.1091 20.4014 52.4731 21.3494 51.6571 22.1654C50.8651 22.9574 49.9291 23.5934 48.8491 24.0734C47.7691 24.5294 46.6171 24.7574 45.3931 24.7574C44.1691 24.7574 43.0171 24.5294 41.9371 24.0734C40.8571 23.5934 39.9091 22.9574 39.0931 22.1654C38.3011 21.3494 37.6651 20.4014 37.1851 19.3214C36.7291 18.2414 36.5011 17.0894 36.5011 15.8654C36.5011 14.6414 36.7291 13.4894 37.1851 12.4094C37.6651 11.3294 38.3011 10.3934 39.0931 9.60142C39.9091 8.78542 40.8571 8.14942 41.9371 7.69342C43.0171 7.21342 44.1691 6.97342 45.3931 6.97342C46.6171 6.97342 47.7691 7.21342 48.8491 7.69342C49.9291 8.14942 50.8651 8.78542 51.6571 9.60142C52.4731 10.3934 53.1091 11.3294 53.5651 12.4094C54.0451 13.4894 54.2851 14.6414 54.2851 15.8654ZM37.9771 15.4334C37.9771 16.5134 38.1691 17.5934 38.5531 18.6734C38.9371 19.7534 39.4771 20.7254 40.1731 21.5894C40.8691 22.4534 41.6971 23.1614 42.6571 23.7134C43.6411 24.2414 44.7091 24.5054 45.8611 24.5054C46.9411 24.5054 47.9131 24.2654 48.7771 23.7854C49.6411 23.3054 50.3731 22.6814 50.9731 21.9134C51.5731 21.1214 52.0291 20.2454 52.3411 19.2854C52.6771 18.3014 52.8451 17.3054 52.8451 16.2974C52.8451 15.2174 52.6531 14.1374 52.2691 13.0574C51.8851 11.9774 51.3451 11.0054 50.6491 10.1414C49.9771 9.27742 49.1611 8.58142 48.2011 8.05342C47.2411 7.52542 46.1731 7.26142 44.9971 7.26142C43.9171 7.26142 42.9451 7.50142 42.0811 7.98142C41.2171 8.46142 40.4731 9.08542 39.8491 9.85342C39.2491 10.6214 38.7811 11.4974 38.4451 12.4814C38.1331 13.4414 37.9771 14.4254 37.9771 15.4334ZM67.5401 24.6854H58.3241V7.04542H59.5481V24.3974H67.5401V24.6854ZM69.5775 24.6854H69.2895L76.0575 6.82942L82.6095 24.6854H81.2415L78.6495 17.5934H72.3135L69.5775 24.6854ZM72.3855 17.3414H78.5415L75.5175 9.02542L72.3855 17.3414ZM98.342 24.6854V16.9814L93.122 7.04542H94.526L99.35 16.3334L104.174 7.04542H104.498L99.566 16.5854V24.6854H98.342ZM143.315 27.8174C142.043 28.7054 140.807 29.3774 139.607 29.8334C138.407 30.3134 137.027 30.5534 135.467 30.5534C134.411 30.5534 133.379 30.4094 132.371 30.1214C131.363 29.8334 130.367 29.4734 129.383 29.0414C128.399 28.6094 127.415 28.1294 126.431 27.6014C125.471 27.0974 124.487 26.6294 123.479 26.1974C122.471 25.7654 121.439 25.4054 120.383 25.1174C119.351 24.8294 118.271 24.6854 117.143 24.6854H115.523V7.04542H124.739V7.33342H116.747V15.5774H122.291V15.8654H116.747V24.3254C118.547 24.3254 120.287 24.6014 121.967 25.1534C123.671 25.7054 125.339 26.3174 126.971 26.9894C128.603 27.6614 130.199 28.2734 131.759 28.8254C133.343 29.3774 134.915 29.6534 136.475 29.6534C137.219 29.6534 137.867 29.6174 138.419 29.5454C138.995 29.4974 139.535 29.3894 140.039 29.2214C140.543 29.0774 141.047 28.8734 141.551 28.6094C142.055 28.3454 142.607 28.0094 143.207 27.6014L143.315 27.8174ZM142.851 15.8654C142.851 17.0894 142.611 18.2414 142.131 19.3214C141.675 20.3774 141.051 21.3014 140.259 22.0934C139.467 22.8854 138.531 23.5214 137.451 24.0014C136.395 24.4574 135.255 24.6854 134.031 24.6854H128.883V7.04542H133.743C134.943 7.04542 136.095 7.27342 137.199 7.72942C138.303 8.18542 139.275 8.82142 140.115 9.63742C140.955 10.4294 141.615 11.3654 142.095 12.4454C142.599 13.5014 142.851 14.6414 142.851 15.8654ZM130.107 24.3614H132.555C133.827 24.3614 135.003 24.1694 136.083 23.7854C137.163 23.3774 138.087 22.8134 138.855 22.0934C139.647 21.3494 140.259 20.4494 140.691 19.3934C141.147 18.3374 141.375 17.1614 141.375 15.8654C141.375 14.5694 141.147 13.3934 140.691 12.3374C140.259 11.2814 139.647 10.3814 138.855 9.63742C138.087 8.89342 137.163 8.32942 136.083 7.94542C135.003 7.53742 133.827 7.33342 132.555 7.33342H130.107V24.3614ZM158.339 7.04542V18.6734C158.339 20.5454 157.895 22.0454 157.007 23.1734C156.143 24.3014 154.715 24.8654 152.723 24.8654C150.683 24.8654 149.135 24.3374 148.079 23.2814C147.047 22.2014 146.531 20.6654 146.531 18.6734V7.04542H147.755V18.6374C147.755 19.4294 147.851 20.1734 148.043 20.8694C148.259 21.5654 148.571 22.1774 148.979 22.7054C149.411 23.2094 149.939 23.6174 150.563 23.9294C151.187 24.2174 151.919 24.3614 152.759 24.3614C154.607 24.3614 155.951 23.8574 156.791 22.8494C157.631 21.8174 158.051 20.4134 158.051 18.6374V7.04542H158.339ZM161.3 24.6854H161.012L167.78 6.82942L174.332 24.6854H172.964L170.372 17.5934H164.036L161.3 24.6854ZM164.108 17.3414H170.264L167.24 9.02542L164.108 17.3414ZM177.644 24.6854V7.04542H182.324C183.188 7.04542 184.016 7.14142 184.808 7.33342C185.624 7.52542 186.344 7.83742 186.968 8.26942C187.592 8.70142 188.096 9.26542 188.48 9.96142C188.864 10.6334 189.056 11.4494 189.056 12.4094C189.056 13.1054 188.924 13.7534 188.66 14.3534C188.42 14.9294 188.084 15.4334 187.652 15.8654C187.22 16.2974 186.716 16.6694 186.14 16.9814C185.564 17.2694 184.952 17.4734 184.304 17.5934L188.192 23.4974C188.384 23.7614 188.624 24.0014 188.912 24.2174C189.2 24.4094 189.5 24.5654 189.812 24.6854H187.544L182.936 17.7374H178.904V24.6854H177.644ZM178.904 17.4854H182.396C183.956 17.4854 185.216 17.0414 186.176 16.1534C187.136 15.2414 187.616 13.9934 187.616 12.4094C187.616 10.8254 187.136 9.58942 186.176 8.70142C185.216 7.78942 183.956 7.33342 182.396 7.33342H178.904V17.4854ZM207.011 15.8654C207.011 17.0894 206.771 18.2414 206.291 19.3214C205.835 20.3774 205.211 21.3014 204.419 22.0934C203.627 22.8854 202.691 23.5214 201.611 24.0014C200.555 24.4574 199.415 24.6854 198.191 24.6854H193.043V7.04542H197.903C199.103 7.04542 200.255 7.27342 201.359 7.72942C202.463 8.18542 203.435 8.82142 204.275 9.63742C205.115 10.4294 205.775 11.3654 206.255 12.4454C206.759 13.5014 207.011 14.6414 207.011 15.8654ZM194.267 24.3614H196.715C197.987 24.3614 199.163 24.1694 200.243 23.7854C201.323 23.3774 202.247 22.8134 203.015 22.0934C203.807 21.3494 204.419 20.4494 204.851 19.3934C205.307 18.3374 205.535 17.1614 205.535 15.8654C205.535 14.5694 205.307 13.3934 204.851 12.3374C204.419 11.2814 203.807 10.3814 203.015 9.63742C202.247 8.89342 201.323 8.32942 200.243 7.94542C199.163 7.53742 197.987 7.33342 196.715 7.33342H194.267V24.3614ZM227.359 15.8654C227.359 17.0894 227.119 18.2414 226.639 19.3214C226.183 20.4014 225.547 21.3494 224.731 22.1654C223.939 22.9574 223.003 23.5934 221.923 24.0734C220.843 24.5294 219.691 24.7574 218.467 24.7574C217.243 24.7574 216.091 24.5294 215.011 24.0734C213.931 23.5934 212.983 22.9574 212.167 22.1654C211.375 21.3494 210.739 20.4014 210.259 19.3214C209.803 18.2414 209.575 17.0894 209.575 15.8654C209.575 14.6414 209.803 13.4894 210.259 12.4094C210.739 11.3294 211.375 10.3934 212.167 9.60142C212.983 8.78542 213.931 8.14942 215.011 7.69342C216.091 7.21342 217.243 6.97342 218.467 6.97342C219.691 6.97342 220.843 7.21342 221.923 7.69342C223.003 8.14942 223.939 8.78542 224.731 9.60142C225.547 10.3934 226.183 11.3294 226.639 12.4094C227.119 13.4894 227.359 14.6414 227.359 15.8654ZM211.051 15.4334C211.051 16.5134 211.243 17.5934 211.627 18.6734C212.011 19.7534 212.551 20.7254 213.247 21.5894C213.943 22.4534 214.771 23.1614 215.731 23.7134C216.715 24.2414 217.783 24.5054 218.935 24.5054C220.015 24.5054 220.987 24.2654 221.851 23.7854C222.715 23.3054 223.447 22.6814 224.047 21.9134C224.647 21.1214 225.103 20.2454 225.415 19.2854C225.751 18.3014 225.919 17.3054 225.919 16.2974C225.919 15.2174 225.727 14.1374 225.343 13.0574C224.959 11.9774 224.419 11.0054 223.723 10.1414C223.051 9.27742 222.235 8.58142 221.275 8.05342C220.315 7.52542 219.247 7.26142 218.071 7.26142C216.991 7.26142 216.019 7.50142 215.155 7.98142C214.291 8.46142 213.547 9.08542 212.923 9.85342C212.323 10.6214 211.855 11.4974 211.519 12.4814C211.207 13.4414 211.051 14.4254 211.051 15.4334Z" fill="#FBF8F3"/>
</svg>
