<svg width="188" height="15" viewBox="0 0 188 15" fill="none" xmlns="http://www.w3.org/2000/svg">
<path d="M52.5503 3.34104C52.6969 3.34104 52.8136 3.39104 52.9003 3.49104C52.9936 3.58437 53.0403 3.70771 53.0403 3.86104V9.97104C53.0403 10.1244 52.9936 10.251 52.9003 10.351C52.8069 10.4444 52.6869 10.491 52.5403 10.491C52.3669 10.491 52.2336 10.4244 52.1403 10.291L48.2203 5.12104V9.97104C48.2203 10.1244 48.1736 10.251 48.0803 10.351C47.9936 10.4444 47.8769 10.491 47.7303 10.491C47.5836 10.491 47.4669 10.4444 47.3803 10.351C47.2936 10.2577 47.2503 10.131 47.2503 9.97104V3.86104C47.2503 3.70771 47.2969 3.58437 47.3903 3.49104C47.4836 3.39104 47.6036 3.34104 47.7503 3.34104C47.9236 3.34104 48.0569 3.40771 48.1503 3.54104L52.0703 8.72104V3.86104C52.0703 3.70771 52.1136 3.58437 52.2003 3.49104C52.2869 3.39104 52.4036 3.34104 52.5503 3.34104ZM59.0019 10.521C58.0619 10.521 57.3486 10.2777 56.8619 9.79104C56.3752 9.30437 56.1319 8.58771 56.1319 7.64104V3.86104C56.1319 3.70104 56.1786 3.57437 56.2719 3.48104C56.3652 3.38771 56.4886 3.34104 56.6419 3.34104C56.7952 3.34104 56.9186 3.38771 57.0119 3.48104C57.1052 3.57437 57.1519 3.70104 57.1519 3.86104V7.71104C57.1519 8.35771 57.3052 8.84771 57.6119 9.18104C57.9252 9.51437 58.3886 9.68104 59.0019 9.68104C59.6086 9.68104 60.0686 9.51437 60.3819 9.18104C60.6952 8.84771 60.8519 8.35771 60.8519 7.71104V3.86104C60.8519 3.70771 60.8986 3.58437 60.9919 3.49104C61.0852 3.39104 61.2086 3.34104 61.3619 3.34104C61.5152 3.34104 61.6386 3.38771 61.7319 3.48104C61.8252 3.57437 61.8719 3.70104 61.8719 3.86104V7.64104C61.8719 8.58104 61.6252 9.29771 61.1319 9.79104C60.6452 10.2777 59.9352 10.521 59.0019 10.521ZM65.4673 10.441C65.3073 10.441 65.1806 10.3977 65.0873 10.311C65.0006 10.2177 64.9573 10.0944 64.9573 9.94104V3.89104C64.9573 3.73771 65.0006 3.61771 65.0873 3.53104C65.1806 3.43771 65.3073 3.39104 65.4673 3.39104H69.1473C69.3006 3.39104 69.4173 3.42771 69.4973 3.50104C69.584 3.57437 69.6273 3.67771 69.6273 3.81104C69.6273 3.94437 69.584 4.04771 69.4973 4.12104C69.4173 4.18771 69.3006 4.22104 69.1473 4.22104H65.9673V6.44104H68.9473C69.1006 6.44104 69.2173 6.47771 69.2973 6.55104C69.384 6.62437 69.4273 6.72771 69.4273 6.86104C69.4273 6.99437 69.384 7.09771 69.2973 7.17104C69.2173 7.24437 69.1006 7.28104 68.9473 7.28104H65.9673V9.61104H69.1473C69.4673 9.61104 69.6273 9.74771 69.6273 10.021C69.6273 10.1544 69.584 10.2577 69.4973 10.331C69.4173 10.4044 69.3006 10.441 69.1473 10.441H65.4673ZM74.5392 10.521C74.0326 10.521 73.5492 10.451 73.0892 10.311C72.6359 10.171 72.2726 9.97771 71.9992 9.73104C71.8726 9.62437 71.8092 9.48771 71.8092 9.32104C71.8092 9.20104 71.8426 9.10104 71.9092 9.02104C71.9759 8.93437 72.0559 8.89104 72.1492 8.89104C72.2426 8.89104 72.3559 8.93437 72.4892 9.02104C73.0826 9.46104 73.7592 9.68104 74.5192 9.68104C75.0526 9.68104 75.4626 9.58104 75.7492 9.38104C76.0359 9.18104 76.1792 8.89437 76.1792 8.52104C76.1792 8.22771 76.0459 8.00771 75.7792 7.86104C75.5126 7.71437 75.0859 7.57437 74.4992 7.44104C73.9392 7.32104 73.4792 7.18437 73.1192 7.03104C72.7592 6.87771 72.4759 6.67104 72.2692 6.41104C72.0692 6.14437 71.9692 5.80771 71.9692 5.40104C71.9692 4.99437 72.0792 4.63437 72.2992 4.32104C72.5259 4.00104 72.8392 3.75437 73.2392 3.58104C73.6392 3.40104 74.0959 3.31104 74.6092 3.31104C75.0826 3.31104 75.5192 3.37771 75.9192 3.51104C76.3192 3.64437 76.6592 3.84104 76.9392 4.10104C77.0726 4.21437 77.1392 4.35104 77.1392 4.51104C77.1392 4.62437 77.1026 4.72437 77.0292 4.81104C76.9626 4.89771 76.8826 4.94104 76.7892 4.94104C76.7026 4.94104 76.5926 4.89771 76.4592 4.81104C76.1526 4.57771 75.8626 4.41104 75.5892 4.31104C75.3226 4.20437 74.9992 4.15104 74.6192 4.15104C74.1059 4.15104 73.7059 4.25771 73.4192 4.47104C73.1326 4.67771 72.9892 4.96771 72.9892 5.34104C72.9892 5.66104 73.1159 5.90437 73.3692 6.07104C73.6226 6.23104 74.0292 6.37771 74.5892 6.51104C75.1759 6.64437 75.6492 6.78437 76.0092 6.93104C76.3759 7.07104 76.6659 7.26771 76.8792 7.52104C77.0992 7.76771 77.2092 8.08771 77.2092 8.48104C77.2092 8.88104 77.0959 9.23771 76.8692 9.55104C76.6492 9.85771 76.3359 10.0977 75.9292 10.271C75.5292 10.4377 75.0659 10.521 74.5392 10.521ZM82.0323 10.491C81.879 10.491 81.7523 10.4444 81.6523 10.351C81.559 10.251 81.5123 10.1244 81.5123 9.97104V4.25104H79.5123C79.1923 4.25104 79.0323 4.10771 79.0323 3.82104C79.0323 3.68104 79.0723 3.57437 79.1523 3.50104C79.239 3.42771 79.359 3.39104 79.5123 3.39104H84.5523C84.7056 3.39104 84.8223 3.42771 84.9023 3.50104C84.989 3.57437 85.0323 3.68104 85.0323 3.82104C85.0323 4.10771 84.8723 4.25104 84.5523 4.25104H82.5523V9.97104C82.5523 10.1244 82.5056 10.251 82.4123 10.351C82.319 10.4444 82.1923 10.491 82.0323 10.491ZM92.887 9.80104C92.947 9.88771 92.977 9.98104 92.977 10.081C92.977 10.201 92.927 10.3044 92.827 10.391C92.7336 10.471 92.6236 10.511 92.497 10.511C92.3103 10.511 92.1603 10.4277 92.047 10.261L90.707 8.18104C90.5536 7.94104 90.3903 7.77437 90.217 7.68104C90.0436 7.58104 89.817 7.53104 89.537 7.53104H88.407V9.97104C88.407 10.131 88.3603 10.2577 88.267 10.351C88.1803 10.4444 88.057 10.491 87.897 10.491C87.7436 10.491 87.6203 10.4444 87.527 10.351C87.4336 10.2577 87.387 10.131 87.387 9.97104V3.89104C87.387 3.73771 87.4303 3.61771 87.517 3.53104C87.6103 3.43771 87.737 3.39104 87.897 3.39104H90.387C91.167 3.39104 91.7603 3.56437 92.167 3.91104C92.5803 4.25771 92.787 4.76437 92.787 5.43104C92.787 5.98437 92.6303 6.43437 92.317 6.78104C92.0036 7.12104 91.557 7.33771 90.977 7.43104C91.1503 7.47771 91.307 7.56104 91.447 7.68104C91.587 7.80104 91.7236 7.96771 91.857 8.18104L92.887 9.80104ZM90.267 6.70104C90.787 6.70104 91.1703 6.60104 91.417 6.40104C91.6703 6.19437 91.797 5.87771 91.797 5.45104C91.797 5.02437 91.6736 4.71437 91.427 4.52104C91.1803 4.32104 90.7936 4.22104 90.267 4.22104H88.397V6.70104H90.267ZM101.943 9.84104C101.976 9.92104 101.993 9.98771 101.993 10.041C101.993 10.1677 101.94 10.2744 101.833 10.361C101.733 10.4477 101.62 10.491 101.493 10.491C101.406 10.491 101.323 10.4677 101.243 10.421C101.17 10.3677 101.113 10.2944 101.073 10.201L100.413 8.70104H96.7529L96.0929 10.201C96.0529 10.2944 95.9929 10.3677 95.9129 10.421C95.8329 10.4677 95.7496 10.491 95.6629 10.491C95.5296 10.491 95.4096 10.4477 95.3029 10.361C95.2029 10.2744 95.1529 10.1677 95.1529 10.041C95.1529 9.98771 95.1696 9.92104 95.2029 9.84104L98.0229 3.67104C98.0696 3.56437 98.1429 3.48104 98.2429 3.42104C98.3496 3.36104 98.4596 3.33104 98.5729 3.33104C98.6862 3.33104 98.7929 3.36104 98.8929 3.42104C98.9996 3.48104 99.0762 3.56437 99.1229 3.67104L101.943 9.84104ZM100.053 7.88104L98.5829 4.57104L97.1229 7.88104H100.053ZM112.853 6.81104C113.26 6.92437 113.573 7.12771 113.793 7.42104C114.02 7.71437 114.133 8.08104 114.133 8.52104C114.133 9.12771 113.923 9.60104 113.503 9.94104C113.09 10.2744 112.51 10.441 111.763 10.441H109.213C109.053 10.441 108.927 10.3977 108.833 10.311C108.747 10.2177 108.703 10.0944 108.703 9.94104V3.89104C108.703 3.73771 108.747 3.61771 108.833 3.53104C108.927 3.43771 109.053 3.39104 109.213 3.39104H111.653C112.38 3.39104 112.947 3.55437 113.353 3.88104C113.767 4.20104 113.973 4.65104 113.973 5.23104C113.973 5.60437 113.873 5.92771 113.673 6.20104C113.48 6.47437 113.207 6.67771 112.853 6.81104ZM109.713 6.44104H111.493C112.48 6.44104 112.973 6.06771 112.973 5.32104C112.973 4.94771 112.85 4.67104 112.603 4.49104C112.363 4.31104 111.993 4.22104 111.493 4.22104H109.713V6.44104ZM111.653 9.61104C112.167 9.61104 112.543 9.51771 112.783 9.33104C113.023 9.14437 113.143 8.85437 113.143 8.46104C113.143 8.06104 113.02 7.76437 112.773 7.57104C112.533 7.37104 112.16 7.27104 111.653 7.27104H109.713V9.61104H111.653ZM120.011 10.521C119.344 10.521 118.764 10.3744 118.271 10.081C117.784 9.78771 117.407 9.37104 117.141 8.83104C116.874 8.29104 116.741 7.65437 116.741 6.92104C116.741 6.18104 116.871 5.54104 117.131 5.00104C117.397 4.45437 117.777 4.03771 118.271 3.75104C118.764 3.45771 119.344 3.31104 120.011 3.31104C120.684 3.31104 121.267 3.45771 121.761 3.75104C122.254 4.03771 122.631 4.45437 122.891 5.00104C123.157 5.54104 123.291 6.17771 123.291 6.91104C123.291 7.64437 123.157 8.28437 122.891 8.83104C122.631 9.37104 122.254 9.78771 121.761 10.081C121.267 10.3744 120.684 10.521 120.011 10.521ZM120.011 9.68104C120.717 9.68104 121.267 9.44104 121.661 8.96104C122.054 8.48104 122.251 7.79771 122.251 6.91104C122.251 6.02437 122.054 5.34437 121.661 4.87104C121.274 4.39104 120.724 4.15104 120.011 4.15104C119.311 4.15104 118.764 4.39104 118.371 4.87104C117.984 5.34437 117.791 6.02437 117.791 6.91104C117.791 7.79771 117.984 8.48104 118.371 8.96104C118.764 9.44104 119.311 9.68104 120.011 9.68104ZM126.706 10.441C126.546 10.441 126.419 10.3977 126.326 10.311C126.239 10.2177 126.196 10.0944 126.196 9.94104V3.89104C126.196 3.73771 126.239 3.61771 126.326 3.53104C126.419 3.43771 126.546 3.39104 126.706 3.39104H128.666C129.806 3.39104 130.689 3.69771 131.316 4.31104C131.942 4.92437 132.256 5.79104 132.256 6.91104C132.256 8.03104 131.942 8.90104 131.316 9.52104C130.689 10.1344 129.806 10.441 128.666 10.441H126.706ZM128.606 9.58104C130.339 9.58104 131.206 8.69104 131.206 6.91104C131.206 5.13771 130.339 4.25104 128.606 4.25104H127.226V9.58104H128.606ZM141.21 9.84104C141.244 9.92104 141.26 9.98771 141.26 10.041C141.26 10.1677 141.207 10.2744 141.1 10.361C141 10.4477 140.887 10.491 140.76 10.491C140.674 10.491 140.59 10.4677 140.51 10.421C140.437 10.3677 140.38 10.2944 140.34 10.201L139.68 8.70104H136.02L135.36 10.201C135.32 10.2944 135.26 10.3677 135.18 10.421C135.1 10.4677 135.017 10.491 134.93 10.491C134.797 10.491 134.677 10.4477 134.57 10.361C134.47 10.2744 134.42 10.1677 134.42 10.041C134.42 9.98771 134.437 9.92104 134.47 9.84104L137.29 3.67104C137.337 3.56437 137.41 3.48104 137.51 3.42104C137.617 3.36104 137.727 3.33104 137.84 3.33104C137.954 3.33104 138.06 3.36104 138.16 3.42104C138.267 3.48104 138.344 3.56437 138.39 3.67104L141.21 9.84104ZM139.32 7.88104L137.85 4.57104L136.39 7.88104H139.32Z" fill="#FBF8F3"/>
<path d="M13.4167 7.33215H36.6041" stroke="#FBF8F3"/>
<path d="M9.74539 4.75602L10.1994 4.54658C10.1395 4.41667 10.0268 4.31865 9.8898 4.27733C9.75282 4.23601 9.60471 4.25534 9.48294 4.33044L9.74539 4.75602ZM13.5417 7.33218L13.6184 7.82626C13.862 7.78847 14.0417 7.57872 14.0417 7.33218C14.0417 7.08563 13.862 6.87588 13.6184 6.83809L13.5417 7.33218ZM9.73264 10.0949L9.46875 10.5196C9.59185 10.5961 9.7421 10.6154 9.88055 10.5725C10.019 10.5296 10.132 10.4288 10.1904 10.2961L9.73264 10.0949ZM6.40651 7.36172L6.06594 6.99565C5.86434 7.18321 5.85233 7.49847 6.03908 7.70082L6.40651 7.36172ZM9.29136 4.96546C10.2098 6.95644 12.3989 7.66087 13.4651 7.82626L13.6184 6.83809C12.657 6.68894 10.903 6.07189 10.1994 4.54658L9.29136 4.96546ZM13.4651 6.83809C12.8932 6.92681 12.0787 7.18271 11.2955 7.66116C10.5095 8.14126 9.72818 8.86255 9.27491 9.89367L10.1904 10.2961C10.54 9.50062 11.1537 8.91961 11.8168 8.51453C12.4826 8.10779 13.1712 7.89565 13.6184 7.82626L13.4651 6.83809ZM9.99653 9.67019C8.78262 8.91588 7.73729 8.06646 6.77395 7.02262L6.03908 7.70082C7.06729 8.81496 8.18341 9.72088 9.46875 10.5196L9.99653 9.67019ZM6.74709 7.72779C7.91343 6.64267 8.88486 5.87413 10.0078 5.18161L9.48294 4.33044C8.2898 5.06623 7.26623 5.87895 6.06594 6.99565L6.74709 7.72779Z" fill="#FBF8F3"/>
<path d="M174.404 6.7085H151.217" stroke="#FBF8F3"/>
<path d="M178.075 4.1323L177.621 3.92286C177.681 3.79295 177.794 3.69493 177.931 3.65361C178.068 3.61229 178.216 3.63162 178.338 3.70672L178.075 4.1323ZM174.279 6.70846L174.202 7.20254C173.959 7.16475 173.779 6.955 173.779 6.70846C173.779 6.46191 173.959 6.25216 174.202 6.21437L174.279 6.70846ZM178.088 9.47116L178.352 9.89584C178.229 9.97234 178.079 9.99166 177.94 9.94878C177.802 9.9059 177.689 9.80505 177.63 9.67237L178.088 9.47116ZM181.414 6.738L181.755 6.37193C181.956 6.55949 181.968 6.87475 181.782 7.0771L181.414 6.738ZM178.529 4.34174C177.611 6.33272 175.422 7.03715 174.356 7.20254L174.202 6.21437C175.164 6.06522 176.918 5.44817 177.621 3.92286L178.529 4.34174ZM174.356 6.21437C174.928 6.30309 175.742 6.55899 176.525 7.03744C177.311 7.51754 178.093 8.23883 178.546 9.26995L177.63 9.67237C177.281 8.8769 176.667 8.29589 176.004 7.89081C175.338 7.48407 174.65 7.27193 174.202 7.20254L174.356 6.21437ZM177.824 9.04647C179.038 8.29216 180.083 7.44274 181.047 6.3989L181.782 7.0771C180.753 8.19124 179.637 9.09716 178.352 9.89584L177.824 9.04647ZM181.074 7.10407C179.907 6.01895 178.936 5.25041 177.813 4.55789L178.338 3.70672C179.531 4.44251 180.554 5.25523 181.755 6.37193L181.074 7.10407Z" fill="#FBF8F3"/>
</svg>
