<svg width="360" height="63" viewBox="0 0 360 63" fill="none" xmlns="http://www.w3.org/2000/svg">
<g filter="url(#filter0_d_141_228)">
<path d="M72.7772 30.6854V13.0454H73.9652V23.4854C75.4532 23.4854 76.7132 23.3534 77.7452 23.0894C78.7772 22.8254 79.6172 22.3934 80.2652 21.7934C80.9132 21.1694 81.3812 20.3534 81.6692 19.3454C81.9572 18.3374 82.1012 17.0774 82.1012 15.5654C82.1012 14.3414 81.8612 13.2134 81.3812 12.1814C80.9012 11.1254 80.2532 10.2134 79.4372 9.44542C78.6452 8.67742 77.7092 8.07742 76.6292 7.64542C75.5492 7.18942 74.4092 6.96142 73.2092 6.96142C71.6012 6.96142 70.1492 7.26142 68.8532 7.86142C67.5332 8.43742 66.4172 9.22942 65.5052 10.2374C64.5692 11.2454 63.8492 12.4334 63.3452 13.8014C62.8412 15.1694 62.5892 16.6334 62.5892 18.1934C62.5892 19.4654 62.7812 20.6894 63.1652 21.8654C63.5252 23.0414 64.0652 24.0854 64.7852 24.9974C65.5052 25.8854 66.4052 26.6054 67.4852 27.1574C68.5412 27.6854 69.7652 27.9494 71.1572 27.9494V28.2734C69.6452 28.2734 68.3012 27.9854 67.1252 27.4094C65.9492 26.8334 64.9532 26.0654 64.1372 25.1054C63.3212 24.1214 62.7092 22.9814 62.3012 21.6854C61.8692 20.3894 61.6532 19.0334 61.6532 17.6174C61.6532 15.9134 61.9652 14.3894 62.5892 13.0454C63.1892 11.7014 64.0172 10.5494 65.0732 9.58942C66.1292 8.62942 67.3772 7.89742 68.8172 7.39342C70.2332 6.88942 71.7572 6.63742 73.3892 6.63742C74.6612 6.63742 75.8972 6.85342 77.0972 7.28542C78.2972 7.69342 79.3532 8.29342 80.2652 9.08542C81.2012 9.85342 81.9452 10.7894 82.4972 11.8934C83.0732 12.9734 83.3612 14.1974 83.3612 15.5654C83.3612 17.1494 83.1452 18.4694 82.7132 19.5254C82.2812 20.5814 81.6572 21.4334 80.8412 22.0814C80.0492 22.7054 79.0652 23.1494 77.8892 23.4134C76.7372 23.6534 75.4292 23.7734 73.9652 23.7734V30.6854H72.7772ZM83.3626 30.6854H83.0746L89.8426 12.8294L96.3946 30.6854H95.0266L92.4346 23.5934H86.0986L83.3626 30.6854ZM86.1706 23.3414H92.3266L89.3026 15.0254L86.1706 23.3414ZM115.285 21.8654C115.285 23.0894 115.045 24.2414 114.565 25.3214C114.109 26.4014 113.473 27.3494 112.657 28.1654C111.865 28.9574 110.929 29.5934 109.849 30.0734C108.769 30.5294 107.617 30.7574 106.393 30.7574C105.169 30.7574 104.017 30.5294 102.937 30.0734C101.857 29.5934 100.909 28.9574 100.093 28.1654C99.3011 27.3494 98.6651 26.4014 98.1851 25.3214C97.7291 24.2414 97.5011 23.0894 97.5011 21.8654C97.5011 20.6414 97.7291 19.4894 98.1851 18.4094C98.6651 17.3294 99.3011 16.3934 100.093 15.6014C100.909 14.7854 101.857 14.1494 102.937 13.6934C104.017 13.2134 105.169 12.9734 106.393 12.9734C107.617 12.9734 108.769 13.2134 109.849 13.6934C110.929 14.1494 111.865 14.7854 112.657 15.6014C113.473 16.3934 114.109 17.3294 114.565 18.4094C115.045 19.4894 115.285 20.6414 115.285 21.8654ZM98.9771 21.4334C98.9771 22.5134 99.1691 23.5934 99.5531 24.6734C99.9371 25.7534 100.477 26.7254 101.173 27.5894C101.869 28.4534 102.697 29.1614 103.657 29.7134C104.641 30.2414 105.709 30.5054 106.861 30.5054C107.941 30.5054 108.913 30.2654 109.777 29.7854C110.641 29.3054 111.373 28.6814 111.973 27.9134C112.573 27.1214 113.029 26.2454 113.341 25.2854C113.677 24.3014 113.845 23.3054 113.845 22.2974C113.845 21.2174 113.653 20.1374 113.269 19.0574C112.885 17.9774 112.345 17.0054 111.649 16.1414C110.977 15.2774 110.161 14.5814 109.201 14.0534C108.241 13.5254 107.173 13.2614 105.997 13.2614C104.917 13.2614 103.945 13.5014 103.081 13.9814C102.217 14.4614 101.473 15.0854 100.849 15.8534C100.249 16.6214 99.7811 17.4974 99.4451 18.4814C99.1331 19.4414 98.9771 20.4254 98.9771 21.4334ZM128.54 30.6854H119.324V13.0454H120.548V30.3974H128.54V30.6854ZM130.577 30.6854H130.289L137.057 12.8294L143.609 30.6854H142.241L139.649 23.5934H133.313L130.577 30.6854ZM133.385 23.3414H139.541L136.517 15.0254L133.385 23.3414ZM159.342 30.6854V22.9814L154.122 13.0454H155.526L160.35 22.3334L165.174 13.0454H165.498L160.566 22.5854V30.6854H159.342ZM204.315 33.8174C203.043 34.7054 201.807 35.3774 200.607 35.8334C199.407 36.3134 198.027 36.5534 196.467 36.5534C195.411 36.5534 194.379 36.4094 193.371 36.1214C192.363 35.8334 191.367 35.4734 190.383 35.0414C189.399 34.6094 188.415 34.1294 187.431 33.6014C186.471 33.0974 185.487 32.6294 184.479 32.1974C183.471 31.7654 182.439 31.4054 181.383 31.1174C180.351 30.8294 179.271 30.6854 178.143 30.6854H176.523V13.0454H185.739V13.3334H177.747V21.5774H183.291V21.8654H177.747V30.3254C179.547 30.3254 181.287 30.6014 182.967 31.1534C184.671 31.7054 186.339 32.3174 187.971 32.9894C189.603 33.6614 191.199 34.2734 192.759 34.8254C194.343 35.3774 195.915 35.6534 197.475 35.6534C198.219 35.6534 198.867 35.6174 199.419 35.5454C199.995 35.4974 200.535 35.3894 201.039 35.2214C201.543 35.0774 202.047 34.8734 202.551 34.6094C203.055 34.3454 203.607 34.0094 204.207 33.6014L204.315 33.8174ZM203.851 21.8654C203.851 23.0894 203.611 24.2414 203.131 25.3214C202.675 26.3774 202.051 27.3014 201.259 28.0934C200.467 28.8854 199.531 29.5214 198.451 30.0014C197.395 30.4574 196.255 30.6854 195.031 30.6854H189.883V13.0454H194.743C195.943 13.0454 197.095 13.2734 198.199 13.7294C199.303 14.1854 200.275 14.8214 201.115 15.6374C201.955 16.4294 202.615 17.3654 203.095 18.4454C203.599 19.5014 203.851 20.6414 203.851 21.8654ZM191.107 30.3614H193.555C194.827 30.3614 196.003 30.1694 197.083 29.7854C198.163 29.3774 199.087 28.8134 199.855 28.0934C200.647 27.3494 201.259 26.4494 201.691 25.3934C202.147 24.3374 202.375 23.1614 202.375 21.8654C202.375 20.5694 202.147 19.3934 201.691 18.3374C201.259 17.2814 200.647 16.3814 199.855 15.6374C199.087 14.8934 198.163 14.3294 197.083 13.9454C196.003 13.5374 194.827 13.3334 193.555 13.3334H191.107V30.3614ZM219.339 13.0454V24.6734C219.339 26.5454 218.895 28.0454 218.007 29.1734C217.143 30.3014 215.715 30.8654 213.723 30.8654C211.683 30.8654 210.135 30.3374 209.079 29.2814C208.047 28.2014 207.531 26.6654 207.531 24.6734V13.0454H208.755V24.6374C208.755 25.4294 208.851 26.1734 209.043 26.8694C209.259 27.5654 209.571 28.1774 209.979 28.7054C210.411 29.2094 210.939 29.6174 211.563 29.9294C212.187 30.2174 212.919 30.3614 213.759 30.3614C215.607 30.3614 216.951 29.8574 217.791 28.8494C218.631 27.8174 219.051 26.4134 219.051 24.6374V13.0454H219.339ZM222.3 30.6854H222.012L228.78 12.8294L235.332 30.6854H233.964L231.372 23.5934H225.036L222.3 30.6854ZM225.108 23.3414H231.264L228.24 15.0254L225.108 23.3414ZM238.644 30.6854V13.0454H243.324C244.188 13.0454 245.016 13.1414 245.808 13.3334C246.624 13.5254 247.344 13.8374 247.968 14.2694C248.592 14.7014 249.096 15.2654 249.48 15.9614C249.864 16.6334 250.056 17.4494 250.056 18.4094C250.056 19.1054 249.924 19.7534 249.66 20.3534C249.42 20.9294 249.084 21.4334 248.652 21.8654C248.22 22.2974 247.716 22.6694 247.14 22.9814C246.564 23.2694 245.952 23.4734 245.304 23.5934L249.192 29.4974C249.384 29.7614 249.624 30.0014 249.912 30.2174C250.2 30.4094 250.5 30.5654 250.812 30.6854H248.544L243.936 23.7374H239.904V30.6854H238.644ZM239.904 23.4854H243.396C244.956 23.4854 246.216 23.0414 247.176 22.1534C248.136 21.2414 248.616 19.9934 248.616 18.4094C248.616 16.8254 248.136 15.5894 247.176 14.7014C246.216 13.7894 244.956 13.3334 243.396 13.3334H239.904V23.4854ZM268.011 21.8654C268.011 23.0894 267.771 24.2414 267.291 25.3214C266.835 26.3774 266.211 27.3014 265.419 28.0934C264.627 28.8854 263.691 29.5214 262.611 30.0014C261.555 30.4574 260.415 30.6854 259.191 30.6854H254.043V13.0454H258.903C260.103 13.0454 261.255 13.2734 262.359 13.7294C263.463 14.1854 264.435 14.8214 265.275 15.6374C266.115 16.4294 266.775 17.3654 267.255 18.4454C267.759 19.5014 268.011 20.6414 268.011 21.8654ZM255.267 30.3614H257.715C258.987 30.3614 260.163 30.1694 261.243 29.7854C262.323 29.3774 263.247 28.8134 264.015 28.0934C264.807 27.3494 265.419 26.4494 265.851 25.3934C266.307 24.3374 266.535 23.1614 266.535 21.8654C266.535 20.5694 266.307 19.3934 265.851 18.3374C265.419 17.2814 264.807 16.3814 264.015 15.6374C263.247 14.8934 262.323 14.3294 261.243 13.9454C260.163 13.5374 258.987 13.3334 257.715 13.3334H255.267V30.3614ZM288.359 21.8654C288.359 23.0894 288.119 24.2414 287.639 25.3214C287.183 26.4014 286.547 27.3494 285.731 28.1654C284.939 28.9574 284.003 29.5934 282.923 30.0734C281.843 30.5294 280.691 30.7574 279.467 30.7574C278.243 30.7574 277.091 30.5294 276.011 30.0734C274.931 29.5934 273.983 28.9574 273.167 28.1654C272.375 27.3494 271.739 26.4014 271.259 25.3214C270.803 24.2414 270.575 23.0894 270.575 21.8654C270.575 20.6414 270.803 19.4894 271.259 18.4094C271.739 17.3294 272.375 16.3934 273.167 15.6014C273.983 14.7854 274.931 14.1494 276.011 13.6934C277.091 13.2134 278.243 12.9734 279.467 12.9734C280.691 12.9734 281.843 13.2134 282.923 13.6934C284.003 14.1494 284.939 14.7854 285.731 15.6014C286.547 16.3934 287.183 17.3294 287.639 18.4094C288.119 19.4894 288.359 20.6414 288.359 21.8654ZM272.051 21.4334C272.051 22.5134 272.243 23.5934 272.627 24.6734C273.011 25.7534 273.551 26.7254 274.247 27.5894C274.943 28.4534 275.771 29.1614 276.731 29.7134C277.715 30.2414 278.783 30.5054 279.935 30.5054C281.015 30.5054 281.987 30.2654 282.851 29.7854C283.715 29.3054 284.447 28.6814 285.047 27.9134C285.647 27.1214 286.103 26.2454 286.415 25.2854C286.751 24.3014 286.919 23.3054 286.919 22.2974C286.919 21.2174 286.727 20.1374 286.343 19.0574C285.959 17.9774 285.419 17.0054 284.723 16.1414C284.051 15.2774 283.235 14.5814 282.275 14.0534C281.315 13.5254 280.247 13.2614 279.071 13.2614C277.991 13.2614 277.019 13.5014 276.155 13.9814C275.291 14.4614 274.547 15.0854 273.923 15.8534C273.323 16.6214 272.855 17.4974 272.519 18.4814C272.207 19.4414 272.051 20.4254 272.051 21.4334Z" fill="#FBF8F3"/>
<path d="M136.55 41.341C136.697 41.341 136.814 41.391 136.9 41.491C136.994 41.5844 137.04 41.7077 137.04 41.861V47.971C137.04 48.1244 136.994 48.251 136.9 48.351C136.807 48.4444 136.687 48.491 136.54 48.491C136.367 48.491 136.234 48.4244 136.14 48.291L132.22 43.121V47.971C132.22 48.1244 132.174 48.251 132.08 48.351C131.994 48.4444 131.877 48.491 131.73 48.491C131.584 48.491 131.467 48.4444 131.38 48.351C131.294 48.2577 131.25 48.131 131.25 47.971V41.861C131.25 41.7077 131.297 41.5844 131.39 41.491C131.484 41.391 131.604 41.341 131.75 41.341C131.924 41.341 132.057 41.4077 132.15 41.541L136.07 46.721V41.861C136.07 41.7077 136.114 41.5844 136.2 41.491C136.287 41.391 136.404 41.341 136.55 41.341ZM143.002 48.521C142.062 48.521 141.349 48.2777 140.862 47.791C140.375 47.3044 140.132 46.5877 140.132 45.641V41.861C140.132 41.701 140.179 41.5744 140.272 41.481C140.365 41.3877 140.489 41.341 140.642 41.341C140.795 41.341 140.919 41.3877 141.012 41.481C141.105 41.5744 141.152 41.701 141.152 41.861V45.711C141.152 46.3577 141.305 46.8477 141.612 47.181C141.925 47.5144 142.389 47.681 143.002 47.681C143.609 47.681 144.069 47.5144 144.382 47.181C144.695 46.8477 144.852 46.3577 144.852 45.711V41.861C144.852 41.7077 144.899 41.5844 144.992 41.491C145.085 41.391 145.209 41.341 145.362 41.341C145.515 41.341 145.639 41.3877 145.732 41.481C145.825 41.5744 145.872 41.701 145.872 41.861V45.641C145.872 46.581 145.625 47.2977 145.132 47.791C144.645 48.2777 143.935 48.521 143.002 48.521ZM149.467 48.441C149.307 48.441 149.181 48.3977 149.087 48.311C149.001 48.2177 148.957 48.0944 148.957 47.941V41.891C148.957 41.7377 149.001 41.6177 149.087 41.531C149.181 41.4377 149.307 41.391 149.467 41.391H153.147C153.301 41.391 153.417 41.4277 153.497 41.501C153.584 41.5744 153.627 41.6777 153.627 41.811C153.627 41.9444 153.584 42.0477 153.497 42.121C153.417 42.1877 153.301 42.221 153.147 42.221H149.967V44.441H152.947C153.101 44.441 153.217 44.4777 153.297 44.551C153.384 44.6244 153.427 44.7277 153.427 44.861C153.427 44.9944 153.384 45.0977 153.297 45.171C153.217 45.2444 153.101 45.281 152.947 45.281H149.967V47.611H153.147C153.467 47.611 153.627 47.7477 153.627 48.021C153.627 48.1544 153.584 48.2577 153.497 48.331C153.417 48.4044 153.301 48.441 153.147 48.441H149.467ZM158.539 48.521C158.033 48.521 157.549 48.451 157.089 48.311C156.636 48.171 156.273 47.9777 155.999 47.731C155.873 47.6244 155.809 47.4877 155.809 47.321C155.809 47.201 155.843 47.101 155.909 47.021C155.976 46.9344 156.056 46.891 156.149 46.891C156.243 46.891 156.356 46.9344 156.489 47.021C157.083 47.461 157.759 47.681 158.519 47.681C159.053 47.681 159.463 47.581 159.749 47.381C160.036 47.181 160.179 46.8944 160.179 46.521C160.179 46.2277 160.046 46.0077 159.779 45.861C159.513 45.7144 159.086 45.5744 158.499 45.441C157.939 45.321 157.479 45.1844 157.119 45.031C156.759 44.8777 156.476 44.671 156.269 44.411C156.069 44.1444 155.969 43.8077 155.969 43.401C155.969 42.9944 156.079 42.6344 156.299 42.321C156.526 42.001 156.839 41.7544 157.239 41.581C157.639 41.401 158.096 41.311 158.609 41.311C159.083 41.311 159.519 41.3777 159.919 41.511C160.319 41.6444 160.659 41.841 160.939 42.101C161.073 42.2144 161.139 42.351 161.139 42.511C161.139 42.6244 161.103 42.7244 161.029 42.811C160.963 42.8977 160.883 42.941 160.789 42.941C160.703 42.941 160.593 42.8977 160.459 42.811C160.153 42.5777 159.863 42.411 159.589 42.311C159.323 42.2044 158.999 42.151 158.619 42.151C158.106 42.151 157.706 42.2577 157.419 42.471C157.133 42.6777 156.989 42.9677 156.989 43.341C156.989 43.661 157.116 43.9044 157.369 44.071C157.623 44.231 158.029 44.3777 158.589 44.511C159.176 44.6444 159.649 44.7844 160.009 44.931C160.376 45.071 160.666 45.2677 160.879 45.521C161.099 45.7677 161.209 46.0877 161.209 46.481C161.209 46.881 161.096 47.2377 160.869 47.551C160.649 47.8577 160.336 48.0977 159.929 48.271C159.529 48.4377 159.066 48.521 158.539 48.521ZM166.032 48.491C165.879 48.491 165.752 48.4444 165.652 48.351C165.559 48.251 165.512 48.1244 165.512 47.971V42.251H163.512C163.192 42.251 163.032 42.1077 163.032 41.821C163.032 41.681 163.072 41.5744 163.152 41.501C163.239 41.4277 163.359 41.391 163.512 41.391H168.552C168.706 41.391 168.822 41.4277 168.902 41.501C168.989 41.5744 169.032 41.681 169.032 41.821C169.032 42.1077 168.872 42.251 168.552 42.251H166.552V47.971C166.552 48.1244 166.506 48.251 166.412 48.351C166.319 48.4444 166.192 48.491 166.032 48.491ZM176.887 47.801C176.947 47.8877 176.977 47.981 176.977 48.081C176.977 48.201 176.927 48.3044 176.827 48.391C176.734 48.471 176.624 48.511 176.497 48.511C176.31 48.511 176.16 48.4277 176.047 48.261L174.707 46.181C174.554 45.941 174.39 45.7744 174.217 45.681C174.044 45.581 173.817 45.531 173.537 45.531H172.407V47.971C172.407 48.131 172.36 48.2577 172.267 48.351C172.18 48.4444 172.057 48.491 171.897 48.491C171.744 48.491 171.62 48.4444 171.527 48.351C171.434 48.2577 171.387 48.131 171.387 47.971V41.891C171.387 41.7377 171.43 41.6177 171.517 41.531C171.61 41.4377 171.737 41.391 171.897 41.391H174.387C175.167 41.391 175.76 41.5644 176.167 41.911C176.58 42.2577 176.787 42.7644 176.787 43.431C176.787 43.9844 176.63 44.4344 176.317 44.781C176.004 45.121 175.557 45.3377 174.977 45.431C175.15 45.4777 175.307 45.561 175.447 45.681C175.587 45.801 175.724 45.9677 175.857 46.181L176.887 47.801ZM174.267 44.701C174.787 44.701 175.17 44.601 175.417 44.401C175.67 44.1944 175.797 43.8777 175.797 43.451C175.797 43.0244 175.674 42.7144 175.427 42.521C175.18 42.321 174.794 42.221 174.267 42.221H172.397V44.701H174.267ZM185.943 47.841C185.976 47.921 185.993 47.9877 185.993 48.041C185.993 48.1677 185.94 48.2744 185.833 48.361C185.733 48.4477 185.62 48.491 185.493 48.491C185.406 48.491 185.323 48.4677 185.243 48.421C185.17 48.3677 185.113 48.2944 185.073 48.201L184.413 46.701H180.753L180.093 48.201C180.053 48.2944 179.993 48.3677 179.913 48.421C179.833 48.4677 179.75 48.491 179.663 48.491C179.53 48.491 179.41 48.4477 179.303 48.361C179.203 48.2744 179.153 48.1677 179.153 48.041C179.153 47.9877 179.17 47.921 179.203 47.841L182.023 41.671C182.07 41.5644 182.143 41.481 182.243 41.421C182.35 41.361 182.46 41.331 182.573 41.331C182.686 41.331 182.793 41.361 182.893 41.421C183 41.481 183.076 41.5644 183.123 41.671L185.943 47.841ZM184.053 45.881L182.583 42.571L181.123 45.881H184.053ZM196.853 44.811C197.26 44.9244 197.573 45.1277 197.793 45.421C198.02 45.7144 198.133 46.081 198.133 46.521C198.133 47.1277 197.923 47.601 197.503 47.941C197.09 48.2744 196.51 48.441 195.763 48.441H193.213C193.053 48.441 192.927 48.3977 192.833 48.311C192.747 48.2177 192.703 48.0944 192.703 47.941V41.891C192.703 41.7377 192.747 41.6177 192.833 41.531C192.927 41.4377 193.053 41.391 193.213 41.391H195.653C196.38 41.391 196.947 41.5544 197.353 41.881C197.767 42.201 197.973 42.651 197.973 43.231C197.973 43.6044 197.873 43.9277 197.673 44.201C197.48 44.4744 197.207 44.6777 196.853 44.811ZM193.713 44.441H195.493C196.48 44.441 196.973 44.0677 196.973 43.321C196.973 42.9477 196.85 42.671 196.603 42.491C196.363 42.311 195.993 42.221 195.493 42.221H193.713V44.441ZM195.653 47.611C196.167 47.611 196.543 47.5177 196.783 47.331C197.023 47.1444 197.143 46.8544 197.143 46.461C197.143 46.061 197.02 45.7644 196.773 45.571C196.533 45.371 196.16 45.271 195.653 45.271H193.713V47.611H195.653ZM204.011 48.521C203.344 48.521 202.764 48.3744 202.271 48.081C201.784 47.7877 201.407 47.371 201.141 46.831C200.874 46.291 200.741 45.6544 200.741 44.921C200.741 44.181 200.871 43.541 201.131 43.001C201.397 42.4544 201.777 42.0377 202.271 41.751C202.764 41.4577 203.344 41.311 204.011 41.311C204.684 41.311 205.267 41.4577 205.761 41.751C206.254 42.0377 206.631 42.4544 206.891 43.001C207.157 43.541 207.291 44.1777 207.291 44.911C207.291 45.6444 207.157 46.2844 206.891 46.831C206.631 47.371 206.254 47.7877 205.761 48.081C205.267 48.3744 204.684 48.521 204.011 48.521ZM204.011 47.681C204.717 47.681 205.267 47.441 205.661 46.961C206.054 46.481 206.251 45.7977 206.251 44.911C206.251 44.0244 206.054 43.3444 205.661 42.871C205.274 42.391 204.724 42.151 204.011 42.151C203.311 42.151 202.764 42.391 202.371 42.871C201.984 43.3444 201.791 44.0244 201.791 44.911C201.791 45.7977 201.984 46.481 202.371 46.961C202.764 47.441 203.311 47.681 204.011 47.681ZM210.706 48.441C210.546 48.441 210.419 48.3977 210.326 48.311C210.239 48.2177 210.196 48.0944 210.196 47.941V41.891C210.196 41.7377 210.239 41.6177 210.326 41.531C210.419 41.4377 210.546 41.391 210.706 41.391H212.666C213.806 41.391 214.689 41.6977 215.316 42.311C215.942 42.9244 216.256 43.791 216.256 44.911C216.256 46.031 215.942 46.901 215.316 47.521C214.689 48.1344 213.806 48.441 212.666 48.441H210.706ZM212.606 47.581C214.339 47.581 215.206 46.691 215.206 44.911C215.206 43.1377 214.339 42.251 212.606 42.251H211.226V47.581H212.606ZM225.21 47.841C225.244 47.921 225.26 47.9877 225.26 48.041C225.26 48.1677 225.207 48.2744 225.1 48.361C225 48.4477 224.887 48.491 224.76 48.491C224.674 48.491 224.59 48.4677 224.51 48.421C224.437 48.3677 224.38 48.2944 224.34 48.201L223.68 46.701H220.02L219.36 48.201C219.32 48.2944 219.26 48.3677 219.18 48.421C219.1 48.4677 219.017 48.491 218.93 48.491C218.797 48.491 218.677 48.4477 218.57 48.361C218.47 48.2744 218.42 48.1677 218.42 48.041C218.42 47.9877 218.437 47.921 218.47 47.841L221.29 41.671C221.337 41.5644 221.41 41.481 221.51 41.421C221.617 41.361 221.727 41.331 221.84 41.331C221.954 41.331 222.06 41.361 222.16 41.421C222.267 41.481 222.344 41.5644 222.39 41.671L225.21 47.841ZM223.32 45.881L221.85 42.571L220.39 45.881H223.32Z" fill="#FBF8F3"/>
<path d="M97.4167 45.3322H120.604" stroke="#FBF8F3"/>
<path d="M93.7454 42.756L94.1994 42.5466C94.1395 42.4167 94.0268 42.3187 93.8898 42.2773C93.7528 42.236 93.6047 42.2553 93.4829 42.3304L93.7454 42.756ZM97.5417 45.3322L97.6184 45.8263C97.862 45.7885 98.0417 45.5787 98.0417 45.3322C98.0417 45.0856 97.862 44.8759 97.6184 44.8381L97.5417 45.3322ZM93.7326 48.0949L93.4687 48.5196C93.5919 48.5961 93.7421 48.6154 93.8806 48.5725C94.019 48.5296 94.132 48.4288 94.1904 48.2961L93.7326 48.0949ZM90.4065 45.3617L90.0659 44.9957C89.8643 45.1832 89.8523 45.4985 90.0391 45.7008L90.4065 45.3617ZM93.2914 42.9655C94.2098 44.9564 96.3989 45.6609 97.4651 45.8263L97.6184 44.8381C96.657 44.6889 94.903 44.0719 94.1994 42.5466L93.2914 42.9655ZM97.4651 44.8381C96.8932 44.9268 96.0787 45.1827 95.2955 45.6612C94.5095 46.1413 93.7282 46.8625 93.2749 47.8937L94.1904 48.2961C94.54 47.5006 95.1537 46.9196 95.8168 46.5145C96.4826 46.1078 97.1712 45.8956 97.6184 45.8263L97.4651 44.8381ZM93.9965 47.6702C92.7826 46.9159 91.7373 46.0665 90.774 45.0226L90.0391 45.7008C91.0673 46.815 92.1834 47.7209 93.4687 48.5196L93.9965 47.6702ZM90.7471 45.7278C91.9134 44.6427 92.8849 43.8741 94.0078 43.1816L93.4829 42.3304C92.2898 43.0662 91.2662 43.8789 90.0659 44.9957L90.7471 45.7278Z" fill="#FBF8F3"/>
<path d="M258.404 44.7085H235.217" stroke="#FBF8F3"/>
<path d="M262.075 42.1323L261.621 41.9229C261.681 41.793 261.794 41.6949 261.931 41.6536C262.068 41.6123 262.216 41.6316 262.338 41.7067L262.075 42.1323ZM258.279 44.7085L258.202 45.2025C257.959 45.1647 257.779 44.955 257.779 44.7085C257.779 44.4619 257.959 44.2522 258.202 44.2144L258.279 44.7085ZM262.088 47.4712L262.352 47.8958C262.229 47.9723 262.079 47.9917 261.94 47.9488C261.802 47.9059 261.689 47.8051 261.63 47.6724L262.088 47.4712ZM265.414 44.738L265.755 44.3719C265.956 44.5595 265.968 44.8748 265.782 45.0771L265.414 44.738ZM262.529 42.3417C261.611 44.3327 259.422 45.0371 258.356 45.2025L258.202 44.2144C259.164 44.0652 260.918 43.4482 261.621 41.9229L262.529 42.3417ZM258.356 44.2144C258.928 44.3031 259.742 44.559 260.525 45.0374C261.311 45.5175 262.093 46.2388 262.546 47.2699L261.63 47.6724C261.281 46.8769 260.667 46.2959 260.004 45.8908C259.338 45.4841 258.65 45.2719 258.202 45.2025L258.356 44.2144ZM261.824 47.0465C263.038 46.2922 264.083 45.4427 265.047 44.3989L265.782 45.0771C264.753 46.1912 263.637 47.0972 262.352 47.8958L261.824 47.0465ZM265.074 45.1041C263.907 44.019 262.936 43.2504 261.813 42.5579L262.338 41.7067C263.531 42.4425 264.554 43.2552 265.755 44.3719L265.074 45.1041Z" fill="#FBF8F3"/>
</g>
<defs>
<filter id="filter0_d_141_228" x="51.6532" y="0.637451" width="246.706" height="61.9574" filterUnits="userSpaceOnUse" color-interpolation-filters="sRGB">
<feFlood flood-opacity="0" result="BackgroundImageFix"/>
<feColorMatrix in="SourceAlpha" type="matrix" values="0 0 0 0 0 0 0 0 0 0 0 0 0 0 0 0 0 0 127 0" result="hardAlpha"/>
<feOffset dy="4"/>
<feGaussianBlur stdDeviation="5"/>
<feComposite in2="hardAlpha" operator="out"/>
<feColorMatrix type="matrix" values="0 0 0 0 0.275 0 0 0 0 0.245536 0 0 0 0 0.223438 0 0 0 0.6 0"/>
<feBlend mode="normal" in2="BackgroundImageFix" result="effect1_dropShadow_141_228"/>
<feBlend mode="normal" in="SourceGraphic" in2="effect1_dropShadow_141_228" result="shape"/>
</filter>
</defs>
</svg>
